<svg width="79" height="76" viewBox="0 0 79 76" fill="none" xmlns="http://www.w3.org/2000/svg">
<path d="M26.244 75.14C20.038 75.14 15.0447 73.6063 11.264 70.539C7.48333 67.4003 4.737 63.0133 3.025 57.378C1.38433 51.7427 0.564 45.18 0.564 37.69C0.564 30.1287 1.38433 23.566 3.025 18.002C4.737 12.3667 7.48333 8.01533 11.264 4.948C15.0447 1.80933 20.038 0.239999 26.244 0.239999C32.5213 0.239999 37.5147 1.80933 41.224 4.948C45.0047 8.01533 47.7153 12.3667 49.356 18.002C51.068 23.566 51.924 30.1287 51.924 37.69C51.924 45.18 51.068 51.7427 49.356 57.378C47.7153 63.0133 45.0047 67.4003 41.224 70.539C37.5147 73.6063 32.5213 75.14 26.244 75.14ZM26.244 70.86C32.0933 70.86 36.0523 68.1493 38.121 62.728C40.1897 57.2353 41.224 48.8893 41.224 37.69C41.224 26.4193 40.1897 18.0733 38.121 12.652C36.0523 7.23066 32.0933 4.52 26.244 4.52C20.3947 4.52 16.4357 7.23066 14.367 12.652C12.2983 18.0733 11.264 26.4193 11.264 37.69C11.264 48.8893 12.2983 57.2353 14.367 62.728C16.4357 68.1493 20.3947 70.86 26.244 70.86ZM69.1493 73V13.08L58.7703 19.821L56.8443 17.36L73.4293 2.38H78.7793V73H69.1493Z" fill="#FFEFEC"/>
</svg>
