<svg width="107" height="76" viewBox="0 0 107 76" fill="none" xmlns="http://www.w3.org/2000/svg">
<path d="M26.244 75.14C20.038 75.14 15.0447 73.6063 11.264 70.539C7.48333 67.4003 4.737 63.0133 3.025 57.378C1.38433 51.7427 0.564 45.18 0.564 37.69C0.564 30.1287 1.38433 23.566 3.025 18.002C4.737 12.3667 7.48333 8.01533 11.264 4.948C15.0447 1.80933 20.038 0.239999 26.244 0.239999C32.5213 0.239999 37.5147 1.80933 41.224 4.948C45.0047 8.01533 47.7153 12.3667 49.356 18.002C51.068 23.566 51.924 30.1287 51.924 37.69C51.924 45.18 51.068 51.7427 49.356 57.378C47.7153 63.0133 45.0047 67.4003 41.224 70.539C37.5147 73.6063 32.5213 75.14 26.244 75.14ZM26.244 70.86C32.0933 70.86 36.0523 68.1493 38.121 62.728C40.1897 57.2353 41.224 48.8893 41.224 37.69C41.224 26.4193 40.1897 18.0733 38.121 12.652C36.0523 7.23066 32.0933 4.52 26.244 4.52C20.3947 4.52 16.4357 7.23066 14.367 12.652C12.2983 18.0733 11.264 26.4193 11.264 37.69C11.264 48.8893 12.2983 57.2353 14.367 62.728C16.4357 68.1493 20.3947 70.86 26.244 70.86ZM59.7333 73V67.65C65.3687 62.1573 70.3263 57.378 74.6063 53.312C78.9577 49.1747 82.5957 45.394 85.5203 41.97C88.5163 38.4747 90.7633 35.0507 92.2613 31.698C93.7593 28.274 94.5083 24.5647 94.5083 20.57C94.5083 15.22 93.1173 11.2253 90.3353 8.58599C87.5533 5.87533 84.3077 4.52 80.5983 4.52C76.3183 4.52 72.5733 6.08933 69.3633 9.228C66.1533 12.2953 64.0133 16.7893 62.9433 22.71H60.8033C60.8033 19.9993 60.9103 17.4313 61.1243 15.006C61.3383 12.5093 62.0873 10.4407 63.3713 8.8C65.2973 6.446 68.115 4.44866 71.8243 2.808C75.5337 1.096 79.5283 0.239999 83.8083 0.239999C85.9483 0.239999 88.231 0.525331 90.6563 1.09599C93.153 1.59533 95.507 2.55833 97.7183 3.985C99.9297 5.41167 101.713 7.48033 103.068 10.191C104.495 12.8303 105.208 16.29 105.208 20.57C105.208 25.1353 104.174 29.344 102.105 33.196C100.037 37.048 97.219 40.793 93.6523 44.431C90.0857 48.069 86.0197 51.8497 81.4543 55.773C76.889 59.6963 72.1453 64.012 67.2233 68.72H91.2983C95.5783 68.72 98.8597 67.7927 101.142 65.938C103.496 64.0833 104.673 61.2657 104.673 57.485H106.813V64.44C106.813 65.8667 106.564 67.2577 106.064 68.613C105.565 69.897 104.673 70.967 103.389 71.823C102.105 72.6077 100.215 73 97.7183 73H59.7333Z" fill="#FFEFEC"/>
</svg>
