<svg width="108" height="76" viewBox="0 0 108 76" fill="none" xmlns="http://www.w3.org/2000/svg">
<path d="M26.244 75.14C20.038 75.14 15.0447 73.6063 11.264 70.539C7.48333 67.4003 4.737 63.0133 3.025 57.378C1.38433 51.7427 0.564 45.18 0.564 37.69C0.564 30.1287 1.38433 23.566 3.025 18.002C4.737 12.3667 7.48333 8.01533 11.264 4.948C15.0447 1.80933 20.038 0.239999 26.244 0.239999C32.5213 0.239999 37.5147 1.80933 41.224 4.948C45.0047 8.01533 47.7153 12.3667 49.356 18.002C51.068 23.566 51.924 30.1287 51.924 37.69C51.924 45.18 51.068 51.7427 49.356 57.378C47.7153 63.0133 45.0047 67.4003 41.224 70.539C37.5147 73.6063 32.5213 75.14 26.244 75.14ZM26.244 70.86C32.0933 70.86 36.0523 68.1493 38.121 62.728C40.1897 57.2353 41.224 48.8893 41.224 37.69C41.224 26.4193 40.1897 18.0733 38.121 12.652C36.0523 7.23066 32.0933 4.52 26.244 4.52C20.3947 4.52 16.4357 7.23066 14.367 12.652C12.2983 18.0733 11.264 26.4193 11.264 37.69C11.264 48.8893 12.2983 57.2353 14.367 62.728C16.4357 68.1493 20.3947 70.86 26.244 70.86ZM83.8083 75.14C78.4583 75.14 73.8217 74.1057 69.8983 72.037C66.0463 69.9683 62.6223 67.1863 59.6263 63.691L61.3383 61.765C64.049 64.761 67.0093 67.0437 70.2193 68.613C73.4293 70.111 77.0673 70.86 81.1333 70.86C83.9867 70.86 86.626 70.2537 89.0513 69.041C91.4767 67.757 93.4383 65.831 94.9363 63.263C96.4343 60.695 97.1833 57.3423 97.1833 53.205C97.1833 49.4243 96.47 46.3213 95.0433 43.896C93.6167 41.4707 91.8333 39.6517 89.6933 38.439C87.5533 37.2263 85.4133 36.62 83.2733 36.62C81.1333 36.62 79.4213 36.6913 78.1373 36.834C76.8533 36.9053 75.6407 37.048 74.4993 37.262C73.4293 37.476 72.074 37.797 70.4333 38.225L67.6513 33.731L96.6483 6.66L76.8533 6.66C72.5733 6.66 69.2563 7.58733 66.9023 9.442C64.6197 11.2967 63.4783 14.1143 63.4783 17.895H61.3383V10.94C61.3383 9.51333 61.588 8.158 62.0873 6.874C62.5867 5.51866 63.4783 4.44866 64.7623 3.664C66.1177 2.808 68.008 2.38 70.4333 2.38L104.459 2.38V6.66L75.7833 33.41C77.638 32.9107 79.5283 32.6253 81.4543 32.554C83.4517 32.4113 84.7713 32.34 85.4133 32.34C86.9827 32.34 89.0157 32.6253 91.5123 33.196C94.009 33.6953 96.5057 34.694 99.0023 36.192C101.499 37.69 103.603 39.7943 105.315 42.505C107.027 45.2157 107.883 48.7823 107.883 53.205C107.883 57.913 107.027 61.7293 105.315 64.654C103.603 67.5073 101.428 69.7187 98.7883 71.288C96.2203 72.786 93.581 73.7847 90.8703 74.284C88.1597 74.8547 85.8057 75.14 83.8083 75.14Z" fill="#FFEFEC"/>
</svg>
