<svg width="33" height="18" viewBox="0 0 33 18" fill="none" xmlns="http://www.w3.org/2000/svg">
<path d="M12.7126 12.2561C13.675 13.0267 14.5704 13.8766 15.3641 14.7943C15.3641 14.7943 17.2079 17 20.9997 17H31.9997" stroke="#CA0006" stroke-linecap="round" stroke-linejoin="round"/>
<path d="M1 17H10C11.8702 17 13.9831 17.0184 15.6649 16.4104C17.9656 15.5787 20.0807 14.3046 21.9249 12.6971C22.4601 12.2305 23.0206 11.7647 23.4581 11.4551C24.0388 11.0559 24.547 10.6203 25.0914 10.1485C25.2729 9.96701 25.4906 9.78554 25.6721 9.60406C25.9262 9.38629 26.2165 9.13223 26.3617 8.80557C27.015 7.8982 27.378 6.77305 27.2691 5.53902C27.0876 3.07096 25.0188 1.11103 22.5507 1.00214C20.0464 0.929555 17.9413 2.70801 17.542 5.10348C17.1428 2.74431 15.0377 0.929555 12.5333 1.00214C10.0653 1.07473 7.99643 3.07096 7.81496 5.53902C7.63348 8.00708 8.06903 7.8982 8.72233 8.80557C8.94011 9.09593 9.19416 9.38629 9.52083 9.64036C9.7749 9.85813 16.6458 15.6236 16.8999 15.914" fill="#CA0006"/>
<path d="M1 17H10C11.8702 17 13.9831 17.0184 15.6649 16.4104C17.9656 15.5787 20.0807 14.3046 21.9249 12.6971C22.4601 12.2305 23.0206 11.7647 23.4581 11.4551C24.0388 11.0559 24.547 10.6203 25.0914 10.1485C25.2729 9.96701 25.4906 9.78554 25.6721 9.60406C25.9262 9.38629 26.2165 9.13223 26.3617 8.80557C27.015 7.8982 27.378 6.77305 27.2691 5.53902C27.0876 3.07096 25.0188 1.11103 22.5507 1.00214C20.0464 0.929555 17.9413 2.70801 17.542 5.10348C17.1428 2.74431 15.0377 0.929555 12.5333 1.00214C10.0653 1.07473 7.99643 3.07096 7.81496 5.53902C7.63348 8.00708 8.06903 7.8982 8.72233 8.80557C8.94011 9.09593 9.19416 9.38629 9.52083 9.64036C9.7749 9.85813 16.6458 15.6236 16.8999 15.914" stroke="#CA0006" stroke-linecap="round" stroke-linejoin="round"/>
</svg>
