<svg width="16" height="14" viewBox="0 0 16 14" fill="none" xmlns="http://www.w3.org/2000/svg">
<path d="M4.84048 5.75398C5.31342 6.6071 5.85849 7.42586 6.56618 8.17247C7.27615 8.92367 8.15904 9.6073 9.30186 10.1913C9.3866 10.2325 9.46676 10.2325 9.5389 10.2039C9.64769 10.1627 9.75877 10.0722 9.86755 9.96344C9.95229 9.8787 10.0576 9.74357 10.1676 9.59585C10.6073 9.01757 11.1512 8.29958 11.9196 8.65915C11.9368 8.66716 11.9494 8.67632 11.9666 8.6832L14.5293 10.157C14.5373 10.1615 14.5465 10.1696 14.5534 10.1741C14.8912 10.4066 15.0309 10.765 15.0343 11.1715C15.0343 11.5849 14.882 12.0498 14.6587 12.4426C14.3633 12.9614 13.9281 13.3049 13.4266 13.5316C12.9491 13.7515 12.4177 13.8694 11.907 13.945C11.1054 14.063 10.3542 13.9874 9.58585 13.7515C8.83466 13.519 8.07773 13.1354 7.25096 12.6247L7.19027 12.5858C6.81123 12.3487 6.40128 12.0956 5.99934 11.7968C4.52901 10.686 3.03005 9.0817 2.05327 7.31592C1.23451 5.83414 0.78791 4.23441 1.03182 2.71026C1.16694 1.87432 1.52537 1.11396 2.1506 0.612402C2.69568 0.172677 3.4297 -0.0677977 4.38015 0.0169411C4.48893 0.0249569 4.58627 0.0879384 4.6378 0.181838L6.28104 2.95989C6.52152 3.27137 6.55129 3.58055 6.4196 3.88973C6.31082 4.1428 6.09095 4.37641 5.79093 4.59398C5.70276 4.66956 5.59741 4.74628 5.48633 4.82644C5.11875 5.09325 4.70078 5.40129 4.84392 5.76314L4.84048 5.75398Z" fill="#CB8277"/>
</svg>
