<svg width="28" height="31" viewBox="0 0 28 31" fill="none" xmlns="http://www.w3.org/2000/svg">
<path d="M21.4685 8.03824C21.3509 8.03839 21.2361 8.00258 21.1395 7.93563C21.0429 7.86867 20.969 7.77377 20.9278 7.66365C20.8867 7.55353 20.8802 7.43346 20.9092 7.31953C20.9382 7.20561 21.0014 7.10328 21.0902 7.02628L24.4741 4.09127C24.5896 3.99094 24.7402 3.9406 24.8928 3.95131C25.0453 3.96201 25.1874 4.0329 25.2877 4.14837C25.3881 4.26383 25.4384 4.41443 25.4277 4.56701C25.417 4.7196 25.3461 4.86168 25.2306 4.96201L21.8457 7.8981C21.7409 7.98861 21.607 8.03835 21.4685 8.03824Z" fill="#9E5A57"/>
<path d="M22.0541 10.4245C21.9423 10.3631 21.8539 10.2663 21.803 10.1494C21.752 10.0324 21.7413 9.90183 21.7725 9.77812C21.8037 9.65441 21.8751 9.54456 21.9755 9.46577C22.0758 9.38698 22.1995 9.34371 22.3271 9.34275L26.8065 9.33288C26.8836 9.33026 26.9604 9.34315 27.0324 9.37077C27.1045 9.39839 27.1702 9.44018 27.2258 9.49368C27.2814 9.54717 27.3256 9.61128 27.356 9.6822C27.3863 9.75312 27.4021 9.82941 27.4025 9.90654C27.4028 9.98368 27.3876 10.0601 27.3579 10.1313C27.3281 10.2024 27.2844 10.2669 27.2293 10.3209C27.1741 10.3748 27.1087 10.4172 27.0369 10.4454C26.9652 10.4736 26.8884 10.4872 26.8113 10.4852L22.3303 10.4942C22.2338 10.4946 22.1388 10.4706 22.0541 10.4245Z" fill="#9E5A57"/>
<path d="M19.0649 6.30054C18.9732 6.35608 18.868 6.38498 18.7608 6.384C18.6537 6.38303 18.5489 6.35221 18.4583 6.29502C18.3678 6.23782 18.2949 6.15651 18.2479 6.0602C18.201 5.9639 18.1818 5.85642 18.1926 5.74982L18.6303 1.2916C18.6453 1.13918 18.7202 0.998956 18.8385 0.901767C18.9569 0.804578 19.109 0.758388 19.2614 0.77336C19.4139 0.788331 19.5541 0.863237 19.6513 0.981599C19.7485 1.09996 19.7947 1.25208 19.7797 1.4045L19.3422 5.86253C19.3334 5.95213 19.3037 6.03842 19.2556 6.11448C19.2074 6.19055 19.1421 6.25427 19.0649 6.30054Z" fill="#9E5A57"/>
<path d="M21.2374 30.5551H16.1704C16.0316 30.5551 15.8974 30.505 15.7926 30.414C15.6878 30.323 15.6193 30.1972 15.5998 30.0598C15.4279 28.8619 14.7013 24.7323 12.4918 21.9702C10.3941 19.3482 10.4052 17.0736 10.594 15.9604L0.630022 14.9718C0.495893 14.9586 0.370652 14.8987 0.276073 14.8027C0.181494 14.7067 0.123556 14.5805 0.112333 14.4462C-0.238918 10.2312 0.300026 7.20111 0.813752 5.39982C1.38152 3.40904 2.04511 2.42482 2.07285 2.38411C2.14533 2.27756 2.25143 2.19837 2.3742 2.15918C2.49697 2.12 2.62932 2.12309 2.75013 2.16796C3.14317 2.31494 12.3636 5.75864 15.5623 7.40537C16.0263 7.64422 16.4212 7.83768 16.7699 8.00736C17.8481 8.53478 18.4422 8.82514 18.8756 9.4084C19.2964 9.97508 19.474 10.7053 19.7528 12.119C20.3631 15.2172 21.1863 22.2815 21.2209 22.5805L21.223 22.601L21.812 29.9326C21.8184 30.0121 21.8082 30.092 21.7821 30.1674C21.756 30.2427 21.7146 30.3118 21.6604 30.3703C21.6062 30.4288 21.5405 30.4755 21.4674 30.5073C21.3943 30.5391 21.3154 30.5554 21.2356 30.5551H21.2374ZM16.6622 29.4023H20.6131L20.0752 22.7037C20.0392 22.3935 19.2135 15.3422 18.6223 12.3416C18.3701 11.0537 18.2192 10.4571 17.9508 10.0961C17.6824 9.73515 17.2101 9.50567 16.2641 9.0431C15.9107 8.87054 15.5101 8.67456 15.0352 8.43066C12.2973 7.02026 4.74379 4.15117 2.80561 3.42309C2.58297 3.85108 2.22632 4.63644 1.90497 5.78674C1.44708 7.41762 0.968303 10.1228 1.22661 13.8745L11.3743 14.8814C11.4637 14.8892 11.55 14.9179 11.6262 14.9653C11.7025 15.0126 11.7665 15.0773 11.813 15.154C11.8596 15.2307 11.8875 15.3172 11.8944 15.4067C11.9013 15.4962 11.887 15.586 11.8527 15.6689C11.839 15.705 11.6168 16.321 11.6852 17.2851C11.7796 18.618 12.3542 19.951 13.3939 21.2522C15.536 23.9282 16.3804 27.7246 16.664 29.4023H16.6622Z" fill="#9E5A57"/>
<path d="M18.3492 14.6728C17.8847 14.6719 17.4234 14.5972 16.9824 14.4516C16.0619 14.1458 15.2552 13.5691 14.6681 12.797C13.3957 11.1441 13.3081 8.91699 14.4555 7.38121C14.5471 7.25872 14.6835 7.17761 14.8348 7.15572C14.9862 7.13383 15.14 7.17296 15.2625 7.26449C15.385 7.35602 15.4661 7.49247 15.488 7.6438C15.5099 7.79514 15.4708 7.94897 15.3792 8.07146C14.5398 9.19474 14.6227 10.8487 15.5817 12.0937C16.2799 13.0001 17.3333 13.5193 18.3557 13.5193C18.6743 13.5206 18.991 13.4683 19.2923 13.3647C19.4368 13.3147 19.5952 13.324 19.7328 13.3908C19.8704 13.4575 19.9758 13.5762 20.0258 13.7207C20.0759 13.8651 20.0665 14.0236 19.9998 14.1611C19.933 14.2987 19.8144 14.4041 19.6699 14.4541C19.2449 14.5999 18.7985 14.6738 18.3492 14.6728Z" fill="#9E5A57"/>
</svg>
