<svg width="31" height="31" viewBox="0 0 31 31" fill="none" xmlns="http://www.w3.org/2000/svg">
<path d="M15.5006 23.761C12.0508 23.761 9.2439 21.0458 9.2439 17.7077C9.2439 16.7515 9.46512 15.83 9.8841 15.0418C10.1574 14.5218 10.2668 14.3719 10.4922 14.0636C10.583 13.9397 10.6924 13.7888 10.847 13.5667L11.1655 13.1088C11.7136 12.3256 12.3334 11.4389 12.8629 10.5485C14.0376 8.58704 14.8618 6.68737 14.8711 6.66933C14.9764 6.42285 15.2259 6.26288 15.5006 6.26288C15.5006 6.26288 15.5006 6.26288 15.502 6.26288C15.7767 6.26288 16.0262 6.42419 16.1315 6.67067C16.1394 6.6887 16.9529 8.57535 18.1332 10.5472C18.6692 11.4426 19.2959 12.3396 19.8495 13.1318L20.1536 13.5657C20.303 13.7811 20.411 13.9307 20.5004 14.0519C20.7351 14.3732 20.8417 14.5205 21.1285 15.0716C21.5378 15.8381 21.7567 16.7518 21.7567 17.708C21.756 21.0461 18.9505 23.761 15.5006 23.761ZM15.4992 8.52759C15.1379 9.26301 14.6378 10.2219 14.0456 11.2104C13.4924 12.1396 12.8294 13.0881 12.2962 13.8495L11.98 14.3024C11.8189 14.5359 11.7025 14.6958 11.608 14.8251C11.4199 15.0833 11.3281 15.2082 11.0986 15.6443C10.7787 16.2482 10.6092 16.9606 10.6092 17.7077C10.6092 20.317 12.8028 22.4398 15.5006 22.4398C18.1971 22.4398 20.3907 20.317 20.3907 17.7077C20.3907 16.9619 20.2253 16.2572 19.912 15.6714C19.6694 15.2055 19.58 15.0829 19.3839 14.8134C19.2904 14.6855 19.1772 14.5295 19.0198 14.3024L18.7185 13.8726C18.1812 13.1021 17.5116 12.1446 16.9519 11.2104C16.3583 10.2179 15.8595 9.26034 15.4992 8.52759Z" fill="#9E5A57"/>
<path d="M27.7955 6.45856L27.3134 6.92513L26.8216 7.40105C28.58 9.68112 29.6344 12.4976 29.6344 15.5551C29.6344 23.0977 23.2938 29.2339 15.5006 29.2339C12.3406 29.2339 9.4302 28.2133 7.07371 26.5113C7.04368 26.4896 7.01849 26.4619 6.98846 26.4398H8.32098C8.69854 26.4398 9.00363 26.1443 9.00363 25.7792C9.00363 25.4142 8.6982 25.1186 8.32098 25.1186H5.43817H5.35672C4.97951 25.1186 4.67407 25.4142 4.67407 25.7792V26.2441V28.6491C4.67407 29.0145 4.97951 29.3097 5.35672 29.3097C5.73429 29.3097 6.03938 29.0142 6.03938 28.6491V27.4024C6.06077 27.4184 6.07872 27.4378 6.10012 27.4538C8.71131 29.3906 11.9644 30.5551 15.5009 30.5551C24.0472 30.5551 31 23.8255 31 15.5548C30.9997 12.1335 29.7966 8.98544 27.7955 6.45856Z" fill="#9E5A57"/>
<path d="M15.5005 1.87634C18.659 1.87634 21.5695 2.89664 23.9253 4.59793C24.0102 4.65938 24.082 4.73586 24.1655 4.79899H22.6386C22.2611 4.79899 21.956 5.09456 21.956 5.4596C21.956 5.82463 22.2614 6.12021 22.6386 6.12021H25.6029C25.6253 6.12021 25.644 6.10985 25.6661 6.10785C26.0122 6.07579 26.2856 5.80293 26.2856 5.4596V4.83138V2.59005C26.2856 2.22468 25.9801 1.92944 25.6029 1.92944C25.2253 1.92944 24.9203 2.22501 24.9203 2.59005V3.67348C24.913 3.6678 24.9064 3.66112 24.8992 3.65578C22.2884 1.7197 19.0359 0.555115 15.5005 0.555115C6.95422 0.555115 0 7.28446 0 15.5551C0 18.9764 1.20344 22.1241 3.20377 24.6507L3.68591 24.1841L4.17736 23.7085C2.41965 21.4285 1.3653 18.612 1.3653 15.5551C1.3653 8.01253 7.70624 1.87634 15.5005 1.87634Z" fill="#9E5A57"/>
</svg>
