<svg width="32" height="31" viewBox="0 0 32 31" fill="none" xmlns="http://www.w3.org/2000/svg">
<path d="M30.7515 0.555115C30.5739 0.555115 30.4319 0.697143 30.4319 0.874679V13.3483C30.4319 14.2928 30.2792 15.2196 29.9738 16.1073C29.9738 16.1144 29.9703 16.1215 29.9667 16.125C29.9241 16.2635 29.8744 16.3949 29.8176 16.5298L27.7689 21.6961C27.3783 22.6796 26.8173 23.5709 26.1 24.352L24.2217 26.3937C23.895 26.7487 23.3447 26.7914 22.9647 26.4824C22.9363 26.4611 22.915 26.4363 22.8866 26.4114C22.7233 26.2445 22.631 26.0102 22.631 25.7759C22.631 25.577 22.6913 25.3888 22.8085 25.2326L24.8005 22.5554C24.836 22.5092 24.8573 22.4524 24.8608 22.3956L25.1839 19.1502C25.2976 18.9656 25.4076 18.7845 25.4999 18.607C25.9225 17.8187 26.2172 16.9594 26.3734 16.0504L26.6149 14.6195C26.6433 14.4455 26.5261 14.2822 26.3521 14.2502C26.1781 14.2218 26.0148 14.339 25.9828 14.513L25.7414 15.9439C25.5958 16.7854 25.326 17.5772 24.9318 18.3087C24.7934 18.575 24.6265 18.852 24.4347 19.1254L23.8737 19.9349C23.8205 20.013 23.7565 20.0805 23.682 20.1373C23.3163 20.4285 22.8085 20.4285 22.4463 20.1373C22.2155 19.9527 22.0806 19.6757 22.0806 19.3739C22.0806 19.1928 22.1303 19.0188 22.2262 18.8626L22.7694 17.9643C23.0606 17.4885 23.2133 16.9417 23.2133 16.3807V13.0891C23.2133 12.5388 23.3092 12.0026 23.4938 11.4913C23.5932 11.2108 23.7175 10.941 23.8737 10.6782L25.4289 8.04357C25.4822 7.95836 25.5283 7.86604 25.571 7.77727C25.7911 7.31213 25.9047 6.81503 25.9047 6.30017V0.874679C25.9047 0.697143 25.7627 0.555115 25.5852 0.555115C25.4076 0.555115 25.2656 0.697143 25.2656 0.874679V6.30372C25.2656 6.60554 25.2159 6.89669 25.1236 7.1772C23.9341 6.49546 22.6665 6.13329 21.374 6.09778C19.6768 4.4467 17.6422 3.56967 15.4763 3.56967C13.669 3.56967 11.9149 4.19815 10.3952 5.38409C9.14179 5.48351 7.9381 5.87409 6.81607 6.55227C6.80897 6.46706 6.79832 6.38184 6.79832 6.29662V0.874679C6.79832 0.697143 6.65629 0.555115 6.47876 0.555115C6.30122 0.555115 6.15919 0.697143 6.15919 0.874679V6.30372C6.15919 6.58778 6.1947 6.87184 6.26571 7.14524C6.26571 7.14524 6.26571 7.14879 6.26571 7.15235C6.26571 7.1559 6.26571 7.15945 6.26571 7.163C6.34383 7.46836 6.46455 7.76662 6.63144 8.04357L7.39129 9.33248C7.39129 9.33248 7.40194 9.35379 7.40904 9.36444L8.18665 10.6782C8.31448 10.8983 8.42455 11.1185 8.50977 11.3457C8.73346 11.9032 8.84708 12.4891 8.84708 13.0891V16.3807C8.84708 16.9381 8.99976 17.4849 9.29092 17.9607L9.83773 18.8591C9.93005 19.0117 9.97976 19.1893 9.97976 19.3704C9.97976 19.6722 9.84483 19.9527 9.61404 20.1373C9.401 20.3077 9.13469 20.3823 8.86129 20.3468C8.58788 20.3077 8.34998 20.1622 8.1902 19.9349L7.62564 19.1218C7.38774 18.7845 7.1818 18.4294 6.99006 18.0459C6.99006 18.0424 6.98651 18.0388 6.98651 18.0353C6.98651 18.0353 6.98651 18.0353 6.98651 18.0317C6.98651 18.0282 6.98651 18.0246 6.98296 18.0211C6.84448 17.737 6.72375 17.4352 6.62078 17.1228C6.62078 17.1086 6.61368 17.0979 6.61013 17.0837C6.48941 16.7251 6.39709 16.3451 6.32607 15.951L6.08463 14.5201C6.05622 14.3461 5.88934 14.2289 5.71535 14.2573C5.54137 14.2857 5.42419 14.4526 5.4526 14.6266L5.69405 16.0611C5.76861 16.4765 5.86803 16.8813 5.99231 17.2577C5.99231 17.2719 5.99941 17.2825 6.00296 17.2967C6.11658 17.6376 6.24796 17.9678 6.39354 18.2767C6.39354 18.2803 6.39709 18.2874 6.40064 18.2909C6.40064 18.2945 6.40419 18.3016 6.40774 18.3051C6.55332 18.6034 6.7131 18.8804 6.88354 19.1502L7.08948 21.2451C7.08948 21.2451 7.09303 21.2735 7.09658 21.2877L7.20665 22.4062C7.21375 22.463 7.23506 22.5198 7.26701 22.566L9.25897 25.2397C9.37614 25.3995 9.4365 25.5877 9.4365 25.7865C9.4365 26.0528 9.32288 26.3049 9.12049 26.4824C9.11339 26.486 9.10629 26.4931 9.10273 26.4966C8.72636 26.802 8.176 26.7629 7.84933 26.4079L5.971 24.3662C5.25376 23.5851 4.69274 22.6938 4.30217 21.7103L2.2534 16.544C2.19304 16.3949 2.13978 16.2493 2.08652 16.0895C1.79181 15.2125 1.63913 14.2964 1.63913 13.359V0.874679C1.63913 0.697143 1.4971 0.555115 1.31956 0.555115C1.14203 0.555115 1 0.697143 1 0.874679V13.3483C1 14.3532 1.15978 15.3403 1.47935 16.2777C1.53261 16.4446 1.59297 16.6079 1.65688 16.7677L3.70565 21.934C4.12463 22.9885 4.72825 23.9472 5.49876 24.7852L7.37709 26.8269C7.6789 27.1535 8.09433 27.324 8.51332 27.324C8.76187 27.324 9.01752 27.2636 9.24831 27.1429C9.88389 27.924 10.6118 28.6022 11.4178 29.1455C11.4285 29.1526 11.4391 29.1597 11.4498 29.1632C12.8274 30.0758 14.3826 30.5551 15.9521 30.5551C17.1842 30.5551 18.3808 30.2675 19.5099 29.7065C20.7029 29.1135 21.8036 28.2081 22.7091 27.079C22.9647 27.2423 23.2523 27.3275 23.5435 27.3275C23.966 27.3275 24.385 27.1571 24.6904 26.8269L26.5687 24.7852C27.3392 23.9472 27.9393 22.9885 28.3618 21.934L30.4106 16.7712C30.4709 16.6186 30.5278 16.4694 30.5775 16.3132C30.5775 16.3061 30.581 16.299 30.5846 16.2919C30.9041 15.3438 31.0675 14.3532 31.0675 13.3483V0.874679C31.0675 0.697143 30.9254 0.555115 30.7479 0.555115H30.7515ZM21.1006 6.72981C22.0451 7.6956 22.8334 8.9064 23.3908 10.245L23.3234 10.3551C23.2523 10.4758 23.1884 10.6001 23.1281 10.7244C21.9279 9.03067 20.3727 7.79502 18.6364 7.16655C19.4318 6.87539 20.2555 6.72626 21.0971 6.72626L21.1006 6.72981ZM23.792 9.56328C23.3198 8.54068 22.7162 7.59974 22.0202 6.78662C23.0038 6.90735 23.9554 7.23046 24.8608 7.75597L23.7956 9.56328H23.792ZM20.4473 6.11909C19.4886 6.20075 18.5583 6.45996 17.6671 6.88959C17.1131 6.76177 16.5344 6.6943 15.9521 6.6943C15.7674 6.6943 15.6005 6.7014 15.4408 6.71561C14.23 5.92735 12.8949 5.47286 11.5208 5.38054C12.7422 4.61713 14.0915 4.2088 15.4727 4.2088C17.2694 4.2088 18.9737 4.86923 20.4473 6.11909ZM6.96165 7.21981C7.77122 6.7014 8.62694 6.34278 9.51817 6.15459C8.82223 6.84343 8.20085 7.653 7.68245 8.55133L7.1889 7.71691C7.09303 7.55713 7.02202 7.39024 6.9652 7.21981H6.96165ZM8.05527 9.19401C8.72991 7.92995 9.61759 6.83633 10.6331 6.00901C11.9433 5.93445 13.218 6.22561 14.4111 6.85053C12.2913 7.28017 10.3277 8.59749 8.86484 10.5859C8.82578 10.5078 8.78672 10.4297 8.74056 10.3551L8.05527 9.19401ZM19.2258 29.1313C18.1855 29.6497 17.0847 29.916 15.9556 29.916C14.5034 29.916 13.0582 29.465 11.78 28.6129C11.7693 28.6058 11.7622 28.6022 11.7516 28.5951C11.0059 28.0874 10.3313 27.4589 9.74186 26.731C9.95491 26.4576 10.0756 26.1203 10.0756 25.7687C10.0756 25.4172 9.96911 25.1119 9.77027 24.842L7.83158 22.2358L7.72861 21.199C7.72861 21.1741 7.72861 21.1493 7.71796 21.1244L7.62919 20.2403L7.66469 20.2935C7.9239 20.6628 8.32868 20.9078 8.77252 20.9717C8.85063 20.9824 8.9252 20.9895 9.00331 20.9895C9.36904 20.9895 9.72411 20.8652 10.0117 20.6309C10.3987 20.3255 10.6189 19.8639 10.6189 19.3668C10.6189 19.0685 10.5372 18.7774 10.381 18.5253L9.83773 17.627C9.60694 17.2506 9.48621 16.8174 9.48621 16.3771V13.0856C9.48621 12.4607 9.37259 11.8499 9.15955 11.2712C10.7361 8.96321 12.9943 7.53937 15.3911 7.35474C15.565 7.33698 15.7461 7.32988 15.9521 7.32988C16.5237 7.32988 17.0883 7.39734 17.628 7.53227C19.6661 8.02227 21.5125 9.39995 22.8369 11.4239C22.8192 11.4807 22.8049 11.5375 22.7872 11.5907C22.7694 11.6476 22.7517 11.7044 22.7375 11.7612C22.7162 11.8499 22.6949 11.9387 22.6771 12.0275C22.6665 12.0843 22.6523 12.1376 22.6452 12.1944C22.6274 12.2938 22.6168 12.3932 22.6061 12.4926C22.6026 12.5423 22.5919 12.5885 22.5884 12.6347C22.5777 12.7838 22.5706 12.9329 22.5706 13.082V16.3736C22.5706 16.8138 22.4499 17.247 22.2191 17.6234L21.6758 18.5217C21.5196 18.7774 21.4379 19.0685 21.4379 19.3668C21.4379 19.8639 21.6581 20.3255 22.0415 20.6309C22.3398 20.8723 22.6984 20.993 23.057 20.993C23.4157 20.993 23.7743 20.8723 24.0761 20.6344C24.1968 20.5385 24.3034 20.4249 24.3921 20.2971L24.4276 20.2474L24.2288 22.2393L22.2901 24.8456C22.0913 25.1154 21.9883 25.435 21.9883 25.7687C21.9883 26.0741 22.0806 26.3724 22.2475 26.628C21.3918 27.7074 20.3514 28.5738 19.2223 29.1313H19.2258Z" fill="#9E5A57" stroke="#9E5A57" stroke-width="0.3"/>
<path d="M21.871 15.351C21.7894 15.1947 21.5941 15.1379 21.4378 15.2196C20.0424 15.9688 19.208 15.2906 19.1689 15.2587C19.0375 15.145 18.8352 15.1592 18.7215 15.2906C18.6044 15.422 18.6186 15.6244 18.7499 15.7416C18.7819 15.77 19.3003 16.2102 20.1809 16.2102C20.6176 16.2102 21.1396 16.1002 21.7396 15.7806C21.8959 15.6989 21.9527 15.5037 21.871 15.3474V15.351Z" fill="#9E5A57" stroke="#9E5A57" stroke-width="0.3"/>
<path d="M12.8026 15.2196C11.4071 15.9688 10.5727 15.2906 10.5337 15.2586C10.4023 15.145 10.1999 15.1592 10.0863 15.2906C9.96911 15.422 9.98331 15.6244 10.1147 15.7415C10.1466 15.7699 10.665 16.2102 11.5456 16.2102C11.9824 16.2102 12.5043 16.1002 13.1044 15.7806C13.2606 15.6989 13.3174 15.5036 13.2358 15.3474C13.1541 15.1912 12.9588 15.1344 12.8026 15.216V15.2196Z" fill="#9E5A57" stroke="#9E5A57" stroke-width="0.3"/>
<path d="M18.1146 23.3508C15.6469 24.8492 13.9106 23.4396 13.8396 23.3793C13.7047 23.2656 13.5058 23.2834 13.3886 23.4183C13.275 23.5532 13.2892 23.7556 13.4241 23.8693C13.4383 23.8799 14.3935 24.6717 15.8848 24.6717C16.6233 24.6717 17.4933 24.4764 18.4449 23.8977C18.594 23.8053 18.6437 23.6101 18.5514 23.4574C18.4591 23.3082 18.2638 23.2585 18.1111 23.3508H18.1146Z" fill="#9E5A57" stroke="#9E5A57" stroke-width="0.3"/>
<path d="M16.0588 19.9528C16.2364 19.9528 16.3784 19.8107 16.3784 19.6332V17.2897C16.3784 17.1122 16.2364 16.9702 16.0588 16.9702C15.8813 16.9702 15.7393 17.1122 15.7393 17.2897V19.6332C15.7393 19.8107 15.8813 19.9528 16.0588 19.9528Z" fill="#9E5A57" stroke="#9E5A57" stroke-width="0.3"/>
</svg>
