<svg width="35" height="35" viewBox="0 0 35 35" fill="none" xmlns="http://www.w3.org/2000/svg">
<circle cx="17.5" cy="17.5" r="17.5" fill="white"/>
<path d="M27 18C27.5523 18 28 17.5523 28 17C28 16.4477 27.5523 16 27 16V18ZM8.29289 16.2929C7.90237 16.6834 7.90237 17.3166 8.29289 17.7071L14.6569 24.0711C15.0474 24.4616 15.6805 24.4616 16.0711 24.0711C16.4616 23.6805 16.4616 23.0474 16.0711 22.6569L10.4142 17L16.0711 11.3431C16.4616 10.9526 16.4616 10.3195 16.0711 9.92893C15.6805 9.53841 15.0474 9.53841 14.6569 9.92893L8.29289 16.2929ZM27 16L9 16V18L27 18V16Z" fill="#C49086"/>
</svg>
