<svg width="68" height="64" viewBox="0 0 68 64" fill="none" xmlns="http://www.w3.org/2000/svg">
<path d="M2.53052 35.7712C4.61332 37.854 7.9902 37.854 10.073 35.7712C12.1558 33.6884 12.1558 30.3116 10.073 28.2288C7.9902 26.146 4.61332 26.146 2.53052 28.2288C0.447726 30.3116 0.447726 33.6884 2.53052 35.7712ZM6.30176 33H8.42308V31H6.30176V33ZM12.6657 33H16.9084V31H12.6657V33ZM21.151 33H25.3936V31H21.151V33ZM29.6363 33H33.8789V31H29.6363V33ZM38.1216 33H42.3642V31H38.1216V33ZM46.6068 33H50.8495V31H46.6068V33ZM55.0921 33H59.3348V31H55.0921V33ZM63.5774 33H65.6987V31H63.5774V33Z" fill="url(#paint0_linear_1034_1495)"/>
<defs>
<linearGradient id="paint0_linear_1034_1495" x1="60.0419" y1="74.4264" x2="418.545" y2="-283.37" gradientUnits="userSpaceOnUse">
<stop stop-color="#C67D71"/>
<stop offset="0.133149" stop-color="white"/>
<stop offset="0.862051" stop-color="white"/>
<stop offset="1" stop-color="#C67D71"/>
</linearGradient>
</defs>
</svg>
