<svg width="30" height="19" viewBox="0 0 30 19" fill="none" xmlns="http://www.w3.org/2000/svg">
<g clip-path="url(#clip0_949_7994)">
<path d="M15.32 5H28C28.5523 5 29 5.44771 29 6V10.8776C29 11.4299 28.5523 11.8776 28 11.8776H18.36C15.5733 12.2051 10 12.0741 10 8.93007C10 5.78601 13.5467 5 15.32 5Z" fill="#E29A8F"/>
<path d="M19.4182 16.0918C17.7538 16.0918 16.0876 16.1417 14.4254 16.0807C11.5785 15.9763 9.23086 14.9304 8.00392 12.1834C6.13777 8.00541 8.86765 3.44 13.44 3.10402C15.2121 2.97381 16.9984 3.03614 18.7782 3.01224C19.0791 3.00818 19.38 3.01166 19.6994 2.91869C18.789 2.02249 17.6741 1.70355 16.4496 1.70223C11.4754 1.69682 6.50118 1.70028 1.52698 1.69877C1.24476 1.69869 0.957636 1.71368 0.681406 1.6687C0.18363 1.58763 -0.120504 1.25277 0.0457115 0.774636C0.147833 0.48088 0.4729 0.185674 0.769283 0.0610569C1.05724 -0.0600197 1.43636 0.0363531 1.77546 0.0363531C6.52355 0.0364775 11.2717 0.0473906 16.0197 0.0313839C18.0902 0.0244263 19.974 0.455991 21.5682 1.90121C22.6076 2.84352 23.9572 2.98439 25.3013 3.02546C26.1749 3.05215 27.052 3.01852 27.9224 3.08224C29.1544 3.17248 29.7781 3.69157 29.8395 4.9182C29.9623 7.37108 29.973 9.83011 29.9993 12.287C30.0065 12.9608 29.9569 13.6449 29.8418 14.3084C29.6582 15.3669 29.1655 15.861 28.1073 15.9684C27.0142 16.0794 25.9083 16.0566 24.8096 16.1208C23.3663 16.2052 22.0134 16.6092 20.9078 17.5632C19.7731 18.5425 18.4515 18.9627 17.0097 18.9719C11.6684 19.0059 6.32685 18.9965 0.985398 19C0.454614 19.0003 0.0248424 18.8531 0.00677601 18.2081C-0.0113018 17.5629 0.422822 17.3819 0.941581 17.3562C1.61829 17.3228 2.29762 17.3399 2.97583 17.3397C7.38477 17.3389 11.7937 17.3394 16.2027 17.3391C17.4104 17.3391 18.5183 17.0468 19.4182 16.0918ZM18.494 14.4761C18.494 14.4827 18.494 14.4892 18.494 14.4958C20.0193 14.4958 21.5445 14.4987 23.0698 14.4948C24.1801 14.492 24.5027 14.2391 24.806 13.1647C25.4908 10.7394 25.4535 8.31596 24.7996 5.89133C24.5076 4.80847 24.2003 4.54907 23.0823 4.54975C20.0602 4.55162 17.038 4.55309 14.016 4.57864C11.1192 4.60314 8.98944 6.7025 8.9796 9.50793C8.96993 12.2659 11.0779 14.4027 13.9185 14.4697C15.4429 14.5057 16.9688 14.4761 18.494 14.4761ZM28.5113 9.5213C28.4956 9.52139 28.4799 9.52145 28.4641 9.52153C28.4641 9.12666 28.4677 8.73175 28.4634 8.33692C28.4531 7.378 28.4831 6.41589 28.4128 5.46125C28.3556 4.6846 27.8321 4.42967 26.8199 4.5518C26.2959 4.61504 26.0397 4.88037 26.1764 5.40598C26.8937 8.1643 26.9473 10.9144 26.1716 13.6757C26.1143 13.8796 26.3142 14.3124 26.5061 14.4034C27.543 14.8951 28.479 14.3022 28.5051 13.1562C28.5327 11.9452 28.5113 10.733 28.5113 9.5213Z" fill="black"/>
</g>
<defs>
<clipPath id="clip0_949_7994">
<rect width="19" height="30" fill="white" transform="translate(30) rotate(90)"/>
</clipPath>
</defs>
</svg>
