<svg width="51" height="69" viewBox="0 0 51 69" fill="none" xmlns="http://www.w3.org/2000/svg">
<g clip-path="url(#clip0_951_11184)">
<path d="M25.2896 14.5009H40.1423C42.3682 14.5009 44.1728 16.3054 44.1728 18.5314V63.7408C44.1728 65.9668 42.3682 67.7713 40.1423 67.7713H18.4621C16.2362 67.7713 14.4316 65.9668 14.4316 63.7408V19.5832" stroke="#0C0C0C" stroke-width="1.4" stroke-linecap="round" stroke-linejoin="round"/>
<path d="M18.127 14.5009H21.0542" stroke="#0C0C0C" stroke-width="1.4" stroke-linecap="round" stroke-linejoin="round"/>
<path d="M17.6318 23.7244H44.173" stroke="#0C0C0C" stroke-width="1.4" stroke-linecap="round" stroke-linejoin="round"/>
<path d="M18 61H41" stroke="#0C0C0C" stroke-width="1.4" stroke-linecap="round" stroke-linejoin="round"/>
<path d="M49.1368 59.7262L32.0224 45.2287C30.6793 44.08 30.5219 42.06 31.6706 40.7169C32.8194 39.3739 34.8394 39.2165 36.1824 40.3652L49.8575 51.9492" fill="white"/>
<path d="M49.1368 59.7262L32.0224 45.2287C30.6793 44.08 30.5219 42.06 31.6706 40.7169C32.8194 39.3739 34.8394 39.2165 36.1824 40.3652L49.8575 51.9492" stroke="#0C0C0C" stroke-width="1.4" stroke-linecap="round" stroke-linejoin="round"/>
<path d="M14.4316 8.60588V0.700012" stroke="#0C0C0C" stroke-width="1.4" stroke-linecap="round" stroke-linejoin="round"/>
<path d="M9.45312 14.5009H0.700195" stroke="#0C0C0C" stroke-width="1.4" stroke-linecap="round" stroke-linejoin="round"/>
<path d="M10.2646 10.2838L3.77051 4.07202" stroke="#0C0C0C" stroke-width="1.4" stroke-linecap="round" stroke-linejoin="round"/>
</g>
<defs>
<clipPath id="clip0_951_11184">
<rect width="50.5572" height="68.4713" fill="white"/>
</clipPath>
</defs>
</svg>
