<svg width="50" height="62" viewBox="0 0 50 62" fill="none" xmlns="http://www.w3.org/2000/svg">
<path d="M27.9664 41.5585C29.7095 41.9405 30.3801 41.4145 30.2755 39.4759C30.0941 36.1177 30.3093 32.7397 30.1846 29.3764C30.1231 27.7186 30.6585 27.235 32.2839 27.2927C35.2653 27.3985 35.2689 27.3099 35.2685 24.3055C35.2683 22.4496 35.3305 20.5907 35.2441 18.7388C35.1807 17.3785 35.5183 16.7158 37.0539 16.8149C38.9705 16.9385 40.904 16.9059 42.8248 16.819C44.051 16.7636 44.5552 17.1096 44.5195 18.42C44.4542 20.822 44.6518 23.2335 44.534 25.6309C44.4639 27.0581 45.0153 27.4527 46.2704 27.3347C46.4065 27.3219 46.5452 27.3344 46.6826 27.3373C48.6108 27.3774 49.618 28.3226 49.7041 30.173C49.6913 30.6525 49.6674 31.1322 49.6673 31.6118C49.6658 40.8827 49.6319 50.1539 49.701 59.4243C49.7131 61.0469 49.2497 61.6732 47.6021 61.5233C46.3805 61.4122 45.1371 61.5406 43.9035 61.5623C29.9469 61.5329 15.9903 61.4838 2.03374 61.5027C0.549352 61.5047 -0.0263876 61.158 0.000924177 59.5582C0.0924339 54.1975 0.0800375 48.8336 0.00669385 43.4723C-0.0127823 42.0491 0.378238 41.5618 1.85102 41.5773C3.58328 41.5955 5.92069 42.4151 6.89607 41.1757C7.74028 40.103 7.14321 37.879 7.14556 36.1639C7.15497 29.2883 7.18957 22.4122 7.11931 15.5373C7.10359 13.9991 7.40513 13.1459 9.13398 13.4309C10.2213 13.6101 10.6195 13.1087 10.4741 12.0368C10.4008 11.4967 10.5137 10.9324 10.4514 10.3896C10.298 9.05485 10.8184 8.45329 12.1881 8.61266C12.663 8.6679 13.1601 8.5582 13.6291 8.63435C15.5322 8.94339 16.296 8.35874 16.1529 6.2564C15.9496 3.26831 16.1053 3.25784 13.0609 3.25944C11.7545 3.26014 10.4411 3.34657 9.14339 3.24077C7.07517 3.07218 5.24237 3.53751 3.5231 4.7178C2.95826 5.10557 2.06295 6.14108 1.47626 5.03216C0.925771 3.9917 2.2841 3.84213 2.87181 3.38711C4.75129 1.93197 6.88264 1.54577 9.24688 1.66819C12.264 1.82443 15.2962 1.66693 18.3206 1.71802C20.5272 1.75528 22.7159 1.87191 24.5785 0.347903C25.0242 -0.0167506 25.6024 -0.237878 25.9848 0.429838C26.3979 1.15151 25.695 1.34549 25.2898 1.66134C23.5191 3.04183 21.5091 3.54323 19.2997 3.25424C18.0159 3.08633 17.5136 3.46648 17.5424 4.90193C17.6166 8.59063 17.5447 8.74383 21.1422 8.56939C23.4765 8.45621 23.3461 9.74662 23.2313 11.267C23.4663 12.0865 22.0979 13.8607 24.4967 13.393C26.8535 13.0295 26.6263 14.6565 26.6025 16.1266C26.5936 24.0904 26.5908 32.0543 26.568 40.0182C26.5651 41.0047 26.5759 41.882 27.9664 41.5585ZM33.0741 41.5479C34.0482 41.5325 35.4572 42.1829 35.8722 41.2339C36.3357 40.1743 35.2547 39.1289 34.4796 38.266C34.1648 37.9155 33.8404 37.5452 33.3044 37.5339C32.9713 36.8916 32.5474 36.3499 31.6812 35.9557C31.6812 37.6289 31.737 39.0922 31.6637 40.549C31.6039 41.7374 32.266 41.695 33.0741 41.5479ZM16.4906 13.2579C17.7216 13.6698 18.9527 13.6607 20.1838 13.2586C20.7396 13.288 21.407 13.6474 21.6536 12.7618C21.8362 12.3927 21.8317 12.0206 21.6717 11.6459C21.842 10.5785 21.5895 10.0118 20.3055 10.0677C18.0527 10.1659 15.7884 10.1792 13.537 10.0664C12.0742 9.99304 11.7408 10.5248 11.6905 11.9216C11.6298 13.6051 12.5506 13.4678 13.6236 13.3683C14.0419 13.5573 14.45 13.6367 14.8156 13.2577C15.3739 13.2577 15.9323 13.2578 16.4906 13.2579ZM11.0271 35.2764C10.922 35.1994 10.8169 35.1223 10.7117 35.0452C10.1157 34.3171 9.85007 33.2675 8.64566 32.8565C8.64566 35.519 8.69199 38.0109 8.62454 40.4996C8.59452 41.6079 9.09783 41.7706 9.987 41.589C14.5068 41.6073 19.027 41.6028 23.5463 41.6611C24.5852 41.6745 24.8674 41.3428 25.029 40.2817C25.6555 36.1667 22.3879 34.4121 20.2252 31.9778C20.0149 31.7411 19.6998 31.6966 19.5167 31.9398C17.9069 34.0779 14.9829 35.2098 14.6316 38.314C14.5738 38.8244 14.7164 39.5418 13.9081 39.548C13.1632 39.5537 13.1767 38.8909 13.0653 38.3544C12.8058 37.104 12.6176 35.796 11.1481 35.3003L11.0271 35.2764ZM48.0337 30.1331C48.1743 29.351 48.0924 28.8519 47.0551 28.8615C42.3193 28.9051 37.583 28.8797 32.8468 28.8876C32.3206 28.8885 31.659 28.7585 31.6828 29.6225C31.7329 31.4366 31.3802 33.3765 33.1843 34.6709C33.9229 36.1162 35.4475 36.8281 36.3794 38.0947C36.6731 38.4938 37.0269 38.5836 37.3983 38.1809C39.4932 35.9095 42.4491 34.1827 42.2781 30.4761C42.6931 30.4906 43.108 30.505 43.523 30.5195C43.4489 33.7822 45.5398 35.6232 48.0337 37.5183V30.1331ZM20.4019 16.5114C20.4517 19.7125 22.302 21.7105 24.8631 23.3999V16.4444C24.9521 15.7534 25.455 14.9359 24.0506 14.9455C19.313 14.9778 14.5749 14.933 9.83697 14.9161C9.28983 14.9142 8.61499 14.8201 8.65062 15.632C8.72926 17.4246 8.25185 19.3961 10.0789 20.7028C10.9048 22.1569 12.4426 22.9451 13.414 24.2657C13.6166 24.5412 13.8779 24.797 14.2154 24.3832C16.1859 21.9665 19.4618 20.3747 19.1736 16.5317C19.583 16.5249 19.9925 16.5182 20.4019 16.5114ZM10.2824 23.9216C10.1038 23.0857 9.59821 22.5348 8.70025 22.0675C8.70025 24.4476 8.64088 26.6695 8.72701 28.8859C8.76607 29.8908 9.06328 30.9009 10.0761 31.464C11.0546 33.0641 12.7382 33.9636 13.8946 35.5159C15.6871 32.9968 18.953 31.7596 19.1421 28.2521C19.162 27.8822 19.4403 27.6231 19.8428 27.6558C20.4475 27.7051 20.6317 28.1634 20.6628 28.6692C20.8316 31.4158 22.8107 32.724 24.7818 34.105C24.8847 33.935 24.9403 33.8842 24.9445 33.8295C24.971 33.488 24.9676 33.1433 25.0077 32.8037C25.5309 28.3722 24.7389 24.4637 20.6724 21.8499C20.3119 21.6181 20.0089 20.7606 19.5888 21.2493C17.8761 23.242 15.1884 24.4707 14.6559 27.4054C14.5542 27.9659 14.8301 28.8368 13.9259 28.8573C12.9328 28.8799 13.1537 27.9467 12.9855 27.3205C12.5789 25.8062 12.187 24.2548 10.2824 23.9216ZM43.9052 59.8431C44.4532 59.8627 45.0135 59.8156 45.5472 59.9137C47.6746 60.3047 48.1902 59.4142 48.1243 57.3524C47.9663 52.4076 48.0403 47.454 48.0888 42.5047C48.1078 40.563 47.3764 39.0635 45.9357 37.8195C44.8685 36.898 43.858 35.9106 42.7775 34.9113C41.5913 36.7434 39.4942 37.6722 38.4048 39.5604C37.4162 41.2739 37.6254 41.6305 39.5853 41.6419C41.6268 41.6538 42.6834 42.6739 42.7551 44.7022C42.753 49.2603 42.7546 53.8183 42.7453 58.3764C42.7436 59.1897 42.5552 60.1147 43.9052 59.8431ZM41.0589 44.6065C41.3117 43.4748 40.907 42.9912 39.7044 43.0412C37.4813 43.1336 35.2543 43.1337 33.0289 43.1722C31.3517 43.1669 29.6745 43.1616 27.9973 43.1563C21.9798 43.1414 15.9623 43.1266 9.94474 43.1117C7.60816 43.1042 5.26904 43.1588 2.93601 43.0639C1.70588 43.0139 1.35447 43.488 1.49272 44.6153C1.55911 45.1566 1.561 45.7228 1.48275 46.2618C1.26195 47.7829 1.78299 48.2094 3.38615 48.1977C15.2093 48.1111 27.0332 48.1472 38.857 48.1447C39.3449 48.3735 39.8341 48.373 40.3246 48.1532C41.9855 47.2642 40.7163 45.7685 41.0589 44.6065ZM21.4517 49.6914C21.4517 49.6805 21.4516 49.6696 21.4516 49.6588C16.6454 49.6588 11.8391 49.6494 7.03283 49.6637C5.26245 49.6689 2.96089 49.0679 1.86648 49.946C0.695246 50.8857 1.62928 53.2838 1.50378 55.0397C1.47446 55.4499 1.4843 55.8634 1.48522 56.2753C1.49056 58.6658 2.70592 59.8623 5.1313 59.8649C16.5296 59.866 27.928 59.8367 39.3259 59.8983C40.7572 59.906 41.2187 59.5683 41.1285 58.1066C40.9934 55.9175 40.9514 53.7034 41.1265 51.5205C41.2604 49.8522 40.6236 49.6375 39.1666 49.6576C33.2626 49.7391 27.3568 49.6914 21.4517 49.6914ZM43.0013 22.7556C43.0013 21.7306 42.916 20.6965 43.0244 19.6831C43.1411 18.5919 42.7404 17.984 41.7058 18.3355C40.1088 18.878 37.6026 16.8048 36.9373 19.4731C36.4078 21.597 36.8446 23.9585 36.822 26.2142C36.815 26.9149 36.8994 27.2907 37.7892 27.3571C42.9718 27.7439 42.9696 27.7732 43.0013 22.7556Z" fill="#9E5A57"/>
</svg>
