<svg width="62" height="63" viewBox="0 0 62 63" fill="none" xmlns="http://www.w3.org/2000/svg">
<path d="M57.9883 26.2706V30.5185" stroke="#0C0C0C" stroke-width="1.4" stroke-linecap="round" stroke-linejoin="round"/>
<path d="M17.1019 57.1537H6.84983C3.61906 57.1537 1 54.5347 1 51.3039V9.73307C1 6.5023 3.61906 3.88324 6.84983 3.88324H52.1383C55.3691 3.88324 57.9881 6.5023 57.9881 9.73307V22.8823" stroke="#0C0C0C" stroke-width="1.4" stroke-linecap="round" stroke-linejoin="round"/>
<path d="M27.8311 57.1537H23.3135" stroke="#0C0C0C" stroke-width="1.4" stroke-linecap="round" stroke-linejoin="round"/>
<path d="M1 13.1068H52.2548" stroke="#0C0C0C" stroke-width="1.4" stroke-linecap="round" stroke-linejoin="round"/>
<path d="M47.4229 7.35293V1" stroke="#0C0C0C" stroke-width="1.4" stroke-linecap="round" stroke-linejoin="round"/>
<path d="M11.5645 7.35293V1" stroke="#0C0C0C" stroke-width="1.4" stroke-linecap="round" stroke-linejoin="round"/>
<path d="M15.1022 19.1011H11.4468C9.50975 19.1011 7.93945 20.6714 7.93945 22.6084V26.2638C7.93945 28.2008 9.50975 29.7711 11.4468 29.7711H15.1022C17.0392 29.7711 18.6095 28.2008 18.6095 26.2638V22.6084C18.6095 20.6714 17.0392 19.1011 15.1022 19.1011Z" stroke="#0C0C0C" stroke-width="1.4" stroke-linecap="round" stroke-linejoin="round"/>
<path d="M15.1022 34.8372H11.4468C9.50975 34.8372 7.93945 36.4075 7.93945 38.3445V41.9999C7.93945 43.9369 9.50975 45.5072 11.4468 45.5072H15.1022C17.0392 45.5072 18.6095 43.9369 18.6095 41.9999V38.3445C18.6095 36.4075 17.0392 34.8372 15.1022 34.8372Z" stroke="#0C0C0C" stroke-width="1.4" stroke-linecap="round" stroke-linejoin="round"/>
<path d="M31.3219 19.1011H27.6665C25.7295 19.1011 24.1592 20.6714 24.1592 22.6084V26.2638C24.1592 28.2008 25.7295 29.7711 27.6665 29.7711H31.3219C33.2589 29.7711 34.8292 28.2008 34.8292 26.2638V22.6084C34.8292 20.6714 33.2589 19.1011 31.3219 19.1011Z" stroke="#0C0C0C" stroke-width="1.4" stroke-linecap="round" stroke-linejoin="round"/>
<path d="M45.3608 62.2518C54.1237 62.2518 61.2274 55.1481 61.2274 46.3852C61.2274 37.6223 54.1237 30.5186 45.3608 30.5186C36.5979 30.5186 29.4941 37.6223 29.4941 46.3852C29.4941 55.1481 36.5979 62.2518 45.3608 62.2518Z" stroke="#0C0C0C" stroke-width="1.4" stroke-linecap="round" stroke-linejoin="round"/>
<path d="M55.3603 46.385H45.3604V55.7763" stroke="#0C0C0C" stroke-width="1.4" stroke-linecap="round" stroke-linejoin="round"/>
</svg>
