<svg width="51" height="60" viewBox="0 0 51 60" fill="none" xmlns="http://www.w3.org/2000/svg">
<g clip-path="url(#clip0_951_11207)">
<path d="M1.38234 55.3469L2.19289 55.705C2.88733 56.0138 3.58176 56.3232 4.29294 56.5899C8.28204 58.0852 12.7484 59.0772 17.9472 59.6225C20.5608 59.896 23.0366 60.0221 25.3314 59.9968H25.3392C29.1341 60.003 32.4846 59.7665 36.213 59.2128C39.1358 58.779 41.812 58.1793 44.3944 57.3801C46.3643 56.771 48.0692 56.1057 49.6065 55.3469C49.9108 55.1967 50.0403 54.9753 50.0135 54.6486C49.971 54.1217 49.9342 53.5949 49.8974 53.0687C49.8454 52.3261 49.7935 51.5841 49.726 50.8432L49.6489 49.9151C49.573 48.9539 49.4943 47.9597 49.3001 47.026C48.5135 43.2554 46.2951 40.6656 42.7052 39.3289C40.7899 38.6155 38.7027 38.3028 36.6847 38.0001C33.8304 37.5714 31.8521 35.2893 31.8744 32.4501C31.8767 32.1519 32.029 31.8173 32.2535 31.6178C33.7847 30.252 35.0368 28.5561 35.974 26.5761L36.3347 25.8083C36.7745 24.869 37.2289 23.8977 37.7341 22.959C38.6066 21.341 39.1113 19.6182 39.2341 17.8388C39.3854 15.6514 39.0225 13.524 38.1556 11.5154C38.0774 11.3366 38.0434 11.1247 38.0596 10.9207C38.1818 9.37001 38.0188 8.00085 37.5622 6.73537C36.6439 4.19041 35.1015 2.5203 32.8469 1.63032C31.2838 1.01272 29.5851 0.785177 27.6559 0.930892C27.47 0.944342 27.1914 0.956672 26.9123 0.8911C26.5891 0.816562 26.267 0.733056 25.9449 0.650111C25.4693 0.526814 24.9931 0.403517 24.5114 0.308803C23.4653 0.103121 22.4331 0 21.4233 0C20.4682 0 19.5331 0.0919121 18.6232 0.276298C16.2731 0.750991 14.504 2.09493 13.3653 4.26944C12.246 6.4092 11.9345 8.82021 12.4124 11.6409C12.466 11.9536 12.5095 12.2877 12.4062 12.6183C12.0674 13.714 11.858 14.7486 11.7665 15.7803C11.5672 18.0339 11.9792 20.2717 12.9907 22.4305C13.19 22.8564 13.4082 23.2745 13.626 23.6921C13.9235 24.2626 14.2205 24.8331 14.475 25.4221C15.6043 28.04 16.8821 29.9275 18.4959 31.3628C19.1636 31.9563 19.1195 32.6115 19.0843 33.1383C19.0765 33.2599 19.0631 33.3305 19.0475 33.4006C18.7326 35.644 16.8871 37.5344 14.6509 37.9368L13.7717 38.0931C12.2644 38.3588 10.7059 38.634 9.22545 39.0437C5.08954 40.1881 2.54178 42.923 1.65309 47.1723C1.50236 47.8958 1.44263 48.6709 1.38458 49.4202L1.33936 49.9846C1.22939 51.2882 1.13617 52.5929 1.0435 53.8976L0.985446 54.7029C0.962 55.0319 1.07309 55.2124 1.38234 55.3469ZM37.263 12.523C38.3465 15.462 38.3331 18.3791 37.2217 21.1936L37.1419 21.35L36.5507 22.3571L36.074 21.3494C34.7621 18.0518 32.4254 15.5528 28.9298 13.7106L27.5052 12.9596L29.8079 12.4945C30.044 12.4502 30.2824 12.4076 30.5218 12.3745C32.6509 12.0814 34.5707 11.9346 36.3922 11.9251C36.8058 11.9458 37.1162 12.1235 37.263 12.523ZM13.4842 8.07146C13.7828 5.61337 14.7089 3.81436 16.3149 2.57074C17.1724 1.90662 18.2107 1.50758 19.4896 1.35178C20.3269 1.25034 21.1503 1.2268 21.8459 1.21728L24.5349 1.52458L22.0982 2.31013C18.971 3.79586 16.4885 5.81513 14.5096 8.48339L13.3289 10.7484L13.4842 8.07146ZM14.8005 21.568L14.6737 21.9282L14.4223 22.6419L13.7309 21.2569C13.6656 21.0076 13.5936 20.7593 13.5216 20.511C13.3602 19.9522 13.1933 19.3744 13.0951 18.7781C12.5179 15.2883 13.4211 11.952 15.779 8.86281C18.2509 5.62514 21.5087 3.48202 25.4621 2.4934C27.4951 1.98508 29.5025 1.96827 31.4284 2.44296C33.716 3.0062 35.3605 4.48633 36.3162 6.84186C36.6434 7.64777 36.832 8.54448 36.8934 9.58185C36.9007 9.70011 36.8996 9.81892 36.8974 9.96239L36.8957 10.7532L35.8669 10.7498C35.5643 10.747 35.2657 10.7436 34.9676 10.7549C31.4139 10.9023 28.3487 11.396 25.5955 12.2647C22.9523 13.0986 20.7891 14.2341 18.9833 15.7361C17.2008 17.219 15.8617 19.0342 15.0031 21.1314L14.8005 21.568ZM15.4698 24.6067C15.3816 24.3792 15.3715 24.1079 15.4396 23.7997C16.2256 20.2157 18.2849 17.3821 21.56 15.379C22.6302 14.7245 23.8136 14.1668 25.0774 13.7218C25.3398 13.6288 25.6357 13.6232 25.8662 13.7073C28.429 14.6297 30.4576 15.8453 32.0659 17.423C33.869 19.1923 35.0558 21.4038 35.5922 23.9958C35.6296 24.1712 35.6106 24.3769 35.5403 24.5568C34.5154 27.1965 33.1477 29.2326 31.3592 30.7811C29.9519 31.9978 28.4743 32.7219 26.8414 32.9954C26.5478 33.0447 26.2503 33.071 25.9527 33.0974L25.5357 33.1366L25.5017 33.1361C23.3922 33.1047 21.5031 32.361 19.7252 30.8618C17.8992 29.3223 16.5075 27.2761 15.4698 24.6067ZM2.63501 49.0217C2.71093 48.0314 2.81811 46.9795 3.20607 45.9589C4.40012 42.8272 6.64029 40.8628 9.86462 40.1214C10.6992 39.9291 11.541 39.7711 12.3833 39.6125C13.2832 39.4438 14.1831 39.2746 15.0729 39.0633C17.7959 38.4154 19.4633 36.7425 20.1712 33.9487L20.4134 32.904L21.0588 33.2229C24.0408 34.698 26.9425 34.6974 29.9301 33.2224L30.5944 32.8945L30.8132 33.9666C31.4184 36.701 33.6462 38.7573 36.4882 39.2023C38.3465 39.4931 40.3165 39.8294 42.1815 40.4526C45.4801 41.5555 47.5528 44.0159 48.1747 47.5685C48.3338 48.4804 48.4041 49.409 48.4722 50.3074C48.4979 50.6465 48.523 50.9861 48.5537 51.324C48.6079 51.9304 48.6525 52.5374 48.6983 53.1628L48.796 54.4631L47.531 54.9602C46.8807 55.218 46.2337 55.4746 45.5784 55.7095C42.9111 56.6661 39.9866 57.393 36.6389 57.9316C33.0551 58.5078 29.3819 58.7992 25.701 58.7992C25.2365 58.7992 24.7721 58.7941 24.3082 58.7852C22.7519 58.7543 21.1537 58.6776 19.5588 58.5554C17.2142 58.3755 14.8395 58.0544 12.5017 57.5998C9.2969 56.9777 6.50353 56.1825 3.96247 55.1686C3.74867 55.0829 3.53766 54.9921 3.32609 54.9013C3.14523 54.8229 2.9638 54.745 2.7807 54.6704C2.25541 54.458 2.21187 54.0326 2.23308 53.7978C2.3732 52.2073 2.51164 50.6151 2.63501 49.0217Z" fill="black"/>
<path d="M42.953 33.6318C42.953 33.6318 41.6155 32.2516 42.4763 29.0378C43.3371 25.824 44.4316 23.5583 43.723 21.0723" stroke="black" stroke-miterlimit="10" stroke-linecap="round"/>
<path d="M48.9498 34.2528C48.9498 34.2528 46.9679 32.2076 48.2434 27.4455C49.5189 22.6834 51.1407 19.3261 50.0906 15.6423" stroke="black" stroke-miterlimit="10" stroke-linecap="round"/>
<path d="M8.0484 33.6318C8.0484 33.6318 9.38588 32.2516 8.52508 29.0378C7.66429 25.824 6.56984 23.5583 7.27846 21.0723" stroke="black" stroke-miterlimit="10" stroke-linecap="round"/>
<path d="M2.04954 34.2528C2.04954 34.2528 4.03139 32.2076 2.75588 27.4455C1.48036 22.6834 -0.141364 19.3261 0.908659 15.6423" stroke="black" stroke-miterlimit="10" stroke-linecap="round"/>
</g>
<defs>
<clipPath id="clip0_951_11207">
<rect width="51" height="60" fill="white"/>
</clipPath>
</defs>
</svg>
