<svg width="57" height="30" viewBox="0 0 57 30" fill="none" xmlns="http://www.w3.org/2000/svg">
<path d="M12.8333 7H25.5257C26.4469 7 27.195 7.92118 27.195 8.66928V18.5963C27.195 19.5175 26.4469 20.2656 25.5257 20.2656H12.8333C11.9122 20.2656 11.1641 19.3444 11.1641 18.5963V8.66928C11.1641 7.7481 11.9122 7 12.8333 7Z" fill="white"/>
<path d="M30.8333 7H43.5257C44.4469 7 45.195 7.92118 45.195 8.66928V19.5963C45.195 20.5175 44.4469 21.2656 43.5257 21.2656H30.8333C29.9122 21.2656 29.1641 20.3444 29.1641 19.5963V8.66928C29.1641 7.7481 29.9122 7 30.8333 7Z" fill="white"/>
<path d="M47.1373 27.6855H9.86342C7.66487 27.6855 5.62917 26.403 4.70291 24.4182L0.407543 15.3387C-0.0708499 14.331 -0.131914 13.1808 0.244687 12.1222C0.621289 11.0535 1.39484 10.1985 2.42292 9.72012C3.78687 9.0687 5.44592 9.22138 6.65718 10.0865C7.23735 10.4835 7.72591 11.0637 8.04146 11.7354L11.4106 18.8503C11.5225 19.0844 11.7668 19.2371 12.0314 19.2371H44.9792C45.2336 19.2371 45.4881 19.0742 45.6001 18.8299L48.959 11.7255C49.2745 11.0538 49.7631 10.4838 50.3635 10.0664C51.5951 9.20123 53.2135 9.0587 54.5775 9.71014C56.0432 10.4023 57 11.8985 57 13.5271C57 14.1582 56.8575 14.7892 56.5827 15.3388L52.2976 24.408C51.3611 26.3928 49.3356 27.6753 47.137 27.6753L47.1373 27.6855ZM4.22469 11.3491C3.89898 11.3491 3.59363 11.4203 3.29843 11.5628C2.76915 11.8173 2.36201 12.255 2.1686 12.8148C1.97521 13.3644 2.00575 13.9548 2.25003 14.4739L6.54539 23.5632C7.14593 24.8355 8.44879 25.66 9.86362 25.66H47.1375C48.5523 25.66 49.8552 24.8356 50.4557 23.5632L54.7511 14.4837C54.8936 14.1885 54.9648 13.8831 54.9648 13.5473C54.9648 12.7024 54.4762 11.9289 53.7128 11.5727C53.0003 11.2368 52.1657 11.308 51.5244 11.7661C51.2089 11.9798 50.9646 12.275 50.8018 12.621L47.4327 19.7359C46.9644 20.6825 46.0077 21.2932 44.9695 21.2932H12.0217C10.9937 21.2932 10.0267 20.6927 9.56873 19.7461L6.19963 12.6208C6.03678 12.2747 5.79249 11.9795 5.4871 11.776C5.1105 11.5011 4.67282 11.3688 4.22497 11.3688L4.22469 11.3491Z" fill="#9E5A57"/>
<path d="M44.9797 21.2734H12.0216C10.9935 21.2734 10.0266 20.6729 9.56855 19.7263L6.19945 12.601C6.03659 12.255 5.7923 11.9598 5.48692 11.7562C5.21209 11.5628 5.03906 11.2473 5.03906 10.9114V5.88314C5.03906 2.63618 7.67531 0 10.9222 0H46.0789C49.3259 0 51.9621 2.63625 51.9621 5.88314V10.9114C51.9621 11.2472 51.7992 11.5628 51.5142 11.7562C51.2089 11.9598 50.9646 12.2549 50.8017 12.601L47.4326 19.7159C46.9644 20.6625 46.0076 21.2732 44.9694 21.2732L44.9797 21.2734ZM7.08506 10.4331C7.48202 10.7995 7.80775 11.2372 8.04187 11.7359L11.411 18.8508C11.5229 19.0849 11.7672 19.2376 12.0319 19.2376H44.9796C45.2341 19.2376 45.4885 19.0747 45.6005 18.8304L48.9594 11.726C49.1935 11.2273 49.5192 10.7896 49.9162 10.4232V5.8835C49.9162 3.76637 48.196 2.03606 46.0687 2.03606H10.9224C8.8053 2.03606 7.07499 3.75621 7.07499 5.8835V10.4232L7.08506 10.4331Z" fill="#9E5A57"/>
<path d="M19.7756 26.75H13.4386L12.8047 29.25H18.2365C18.4139 29.25 18.5507 29.156 18.611 29.0336L18.6109 29.0336L18.6156 29.0243L19.7756 26.75Z" stroke="#9E5A57" stroke-width="1.5"/>
<path d="M37.2244 26.75H43.5614L44.1953 29.25H38.7635C38.5861 29.25 38.4493 29.156 38.389 29.0336L38.3891 29.0336L38.3844 29.0243L37.2244 26.75Z" stroke="#9E5A57" stroke-width="1.5"/>
</svg>
