<svg width="56" height="46" viewBox="0 0 56 46" fill="none" xmlns="http://www.w3.org/2000/svg">
<path d="M50.3346 34.8091C50.418 35.1 50.2505 35.4038 49.9597 35.4871C49.9094 35.5021 49.858 35.5085 49.8083 35.5085C49.5703 35.5085 49.351 35.3523 49.282 35.1128L48.7191 33.158C46.0173 39.2578 42.31 43.2556 37.6604 44.9925C35.533 45.7872 33.28 46 31.4735 46C29.4584 46 27.9983 45.7347 27.8855 45.7134C27.5887 45.6577 27.393 45.3722 27.4486 45.0748C27.5048 44.7775 27.7984 44.5829 28.0872 44.6374C28.1364 44.6448 33.0672 45.538 37.2775 43.9657C41.6432 42.3353 45.1457 38.5309 47.724 32.7032L45.6037 33.7469C45.3331 33.8816 45.0047 33.7693 44.8706 33.4977C44.7374 33.2271 44.8487 32.8987 45.1203 32.7651L48.5847 31.0591C48.5906 31.0562 48.5976 31.0573 48.6036 31.0545C48.6522 31.0329 48.7045 31.0239 48.7577 31.0169C48.7793 31.0141 48.7993 31.0044 48.821 31.0043C48.8933 31.0032 48.9666 31.0156 49.0371 31.0441L49.0439 31.0487L49.0479 31.0495C49.0603 31.055 49.0679 31.0667 49.0798 31.0729C49.1356 31.1027 49.187 31.137 49.2278 31.1817C49.2446 31.1999 49.2537 31.2222 49.2679 31.2425C49.2968 31.2842 49.3231 31.3259 49.3395 31.3737C49.3426 31.3826 49.3503 31.389 49.3528 31.3981L50.3346 34.8091ZM55.3739 0.566499C55.3616 0.940855 55.0504 9.7884 54.0802 14.7159C53.4658 17.838 51.8635 20.9441 49.5697 23.4597C49.0516 24.0277 44.4561 29.0195 42.5528 29.4814C42.3143 29.5392 42.0774 29.5638 41.8458 29.5638C40.804 29.5638 39.8792 29.0597 39.3902 28.7368C37.738 30.0436 36.3799 31.2731 34.27 34.4379C31.781 38.1718 29.581 39.9312 27.1974 39.9312C26.3567 39.9312 25.4909 39.6991 24.5839 39.2706C24.2858 39.7468 23.9257 40.1076 23.5046 40.3505C22.488 40.9387 20.6088 41.1719 18.7434 41.1719C17.3535 41.1719 15.9721 41.0425 14.9592 40.8328C14.671 40.7732 14.3926 40.6587 14.1217 40.5137C13.6528 40.6064 13.2148 40.6574 12.82 40.6574C10.6403 40.6574 9.56014 39.4181 9.12543 38.731C4.99886 39.8891 1.50764 41.5063 1.46426 41.5269C1.38935 41.5622 1.31082 41.5783 1.23328 41.5783C1.02682 41.5783 0.829457 41.4617 0.73647 41.2627C0.67645 41.1337 0.674917 40.9946 0.714018 40.869L0.710623 40.8697L0.715332 40.8603C0.724532 40.8321 0.741399 40.8081 0.75509 40.7817C1.38803 39.4421 4.86173 36.8383 7.64115 36.3043C10.4805 35.7589 11.6215 33.7296 11.6215 33.7296C12.4146 31.3476 15.9528 31.4075 18.0706 31.4546C18.3176 31.4589 18.546 31.4632 18.7486 31.4632C22.1344 31.4632 24.1361 31.9413 25.0485 32.967C25.5461 33.5263 25.6601 34.1609 25.6541 34.7643L25.6552 34.7612C25.6552 34.7612 26.0343 36.3758 28.4628 35.7605C30.8915 35.1452 33.3022 32.698 35.7487 30.2605C36.5608 29.4513 38.1466 28.3139 39.3638 27.3656C40.513 26.4693 41.8158 25.4543 43.5913 23.7493C46.3848 21.0649 47.3349 17.1898 47.6583 14.0066C47.6894 13.4588 47.8518 9.84425 46.7488 9.29597C45.6489 8.74933 44.6481 9.92191 44.2113 10.5515C43.9383 10.9794 43.6724 11.402 43.4358 11.7786C41.925 14.1819 40.9678 15.6739 40.3474 16.0216C37.997 17.3393 33.8861 18.2741 25.6962 20.1352L22.4966 20.8636C13.1447 23.0006 1.44937 25.1654 1.33229 25.1868C1.03339 25.2414 0.748847 25.0468 0.694303 24.7483C0.639212 24.451 0.836028 24.1654 1.13339 24.1109C1.21904 24.0943 7.55572 22.9212 14.6127 21.454C16.0953 15.5024 14.5339 4.64466 14.5176 4.53328C14.4738 4.23383 14.6806 3.95575 14.9797 3.91183C15.2876 3.87328 15.5577 4.07546 15.6011 4.37501C15.6497 4.70676 16.4559 10.3315 16.3391 15.7576L16.3418 15.7429C16.3418 15.7429 16.3476 20.5003 21.6755 19.9248C21.8656 19.8818 22.0645 19.8392 22.2528 19.7961L23.1029 19.6024C24.0421 19.3884 24.726 18.591 24.7982 17.6305C25.2195 12.0259 26.6648 4.43678 26.6809 4.35146C26.7376 4.05301 27.0226 3.86156 27.322 3.9161C27.6188 3.97284 27.8135 4.26056 27.7568 4.55682C27.7389 4.64915 26.0676 13.4287 25.8119 18.9852C33.4128 17.2579 37.6344 16.2877 39.8116 15.0654C40.225 14.8302 41.5448 12.7295 42.5086 11.1957C44.1637 8.56183 45.0774 7.17831 45.748 6.66639L46.3687 0.493554C46.3986 0.193018 46.6762 -0.0316183 46.9682 0.00364877C47.2693 0.0335491 47.4885 0.302105 47.4586 0.602642L46.8897 6.26191C47.2836 6.21284 47.7399 6.24351 48.1293 6.52488C48.6962 6.93242 48.9566 7.73031 48.9251 8.96247C48.9192 9.19247 48.9197 9.48337 48.9208 9.82673C48.9304 12.906 48.9524 20.1172 44.35 24.5388C43.7579 25.1074 43.2327 25.5807 42.7335 26.0186L42.7571 26.0042C42.7571 26.0042 42.4655 27.2823 44.4942 26.9146C45.8067 25.7909 47.4002 24.2131 48.7604 22.7216C50.9214 20.3513 52.429 17.4336 53.0055 14.504C53.9585 9.6631 54.2767 0.619727 54.28 0.529917C54.2902 0.22719 54.5581 0.00693438 54.8458 0.000472406C55.148 0.0112059 55.3846 0.264867 55.3739 0.566499ZM12.9541 39.5571C12.7279 39.2952 12.5142 39.0072 12.3243 38.6777C12.2058 38.4721 12.1 38.258 12.0034 38.0392C11.4132 38.1556 10.823 38.2868 10.2402 38.4332C10.6454 38.9359 11.4652 39.5955 12.9541 39.5571ZM24.2299 33.6945C23.5598 32.9405 21.7153 32.5587 18.7488 32.5587C18.5403 32.5587 18.3049 32.5544 18.0504 32.549C17.767 32.5436 17.4536 32.5383 17.1247 32.5383C15.3481 32.5383 13.1154 32.7105 12.6608 34.0763C12.2886 35.192 12.541 36.8594 13.2731 38.1311C13.794 39.0349 14.4716 39.6135 15.1807 39.7611C17.5536 40.2499 21.6089 40.1815 22.9571 39.4029C23.7476 38.9462 24.269 37.7086 24.4636 35.824L24.4974 35.5278C24.5829 34.8015 24.6566 34.1747 24.2299 33.6945Z" fill="#9E5A57"/>
</svg>
