<svg width="65" height="38" viewBox="0 0 65 38" fill="none" xmlns="http://www.w3.org/2000/svg">
<path d="M33.9998 19.5403C33.2273 19.9813 32.4522 20.4615 32.1743 19.1295C31.6781 16.7519 31.1697 14.3763 30.6665 12C32.969 14.0968 33.681 16.7498 33.9998 19.5403Z" fill="white"/>
<path d="M53.9699 23.6629C52.0549 23.6411 50.1399 23.619 48.2249 23.5977C47.6867 23.5917 47.0634 23.5967 47.0709 22.8683C47.0779 22.19 47.6522 22.0746 48.22 22.0749C48.9386 22.0752 49.6572 22.0749 50.6008 22.0749C49.1871 18.3609 47.815 14.8591 46.5319 11.3245C46.1367 10.2359 45.642 10.7072 45.0745 11.0294C43.2353 12.0732 41.3923 13.108 39.3481 13.7099C37.266 14.323 35.2022 14.4177 33.1337 13.614C32.1176 13.2192 31.7487 12.7735 32.1173 11.5367C33.7341 6.11209 31.8859 3.08318 26.3581 2.08375C21.2425 1.15878 16.1076 1.38736 10.3804 2.22004C14.5108 4.6502 17.8633 7.29792 19.9613 11.2067C19.9275 11.4801 20.0188 11.645 20.3215 11.6262C20.5086 11.8519 20.6958 12.0777 20.8828 12.3033C21.338 14.7346 21.798 17.1651 22.2469 19.5977C22.4984 20.9605 23.1995 20.4693 23.8984 20.0181C28.7877 19.2644 32.6275 21.2577 35.9231 24.6713C36.4751 25.2431 37.0529 25.7941 37.5609 26.4036C41.3902 30.9979 46.4507 32.8667 52.2332 33.1171C55.4025 33.2543 58.5688 33.2036 61.7255 32.8175C62.331 32.7434 63.2414 32.4649 63.328 33.4052C63.4111 34.307 62.5234 34.2725 61.8696 34.3231C57.9847 34.6234 54.1085 34.8547 50.2052 34.4489C44.9908 33.9069 40.5653 31.9099 37.0752 27.8944C35.3809 25.945 33.5843 24.0852 31.2854 22.8167C29.0859 21.6029 26.8168 20.8234 24.2781 21.5951C21.0049 22.0622 18.0773 23.7346 14.8406 24.3352C14.0134 24.4887 14.0175 25.2857 13.7937 25.8768C13.1577 27.557 11.9894 28.6886 10.4901 29.6562C9.32246 30.4099 7.92183 30.1402 6.80664 30.8641C0.386346 29.2774 -1.83895 24.156 1.63037 18.7693C2.10107 18.0385 1.84681 17.5588 1.6938 16.9527C0.681929 12.9444 1.2455 9.16396 3.44609 5.68314C5.19577 2.91557 7.66664 1.14642 10.9686 0.728688C16.3523 0.0475911 21.7475 -0.493834 27.123 0.723599C32.9524 2.04389 34.9548 5.10487 33.7852 10.9713C33.5714 12.0437 33.8141 12.3375 34.7754 12.5556C36.9035 13.0382 38.8331 12.4155 40.7265 11.604C43.8922 10.2473 46.7256 8.2708 49.7357 6.62232C53.0653 4.79893 56.4871 3.22674 60.3842 3.34172C61.3982 3.37163 63.2348 3.01142 63.1878 4.2916C63.1291 5.89067 61.4696 4.76197 60.5975 4.75449C55.8569 4.71402 51.9914 6.98701 48.0935 9.24215C47.4589 9.60933 47.5793 10.0555 47.7843 10.5856C49.1614 14.1466 50.5423 17.7062 51.8922 21.2776C52.1547 21.9721 52.5426 22.2287 53.2413 21.9847C56.0646 22.0063 58.8881 22.0185 61.7111 22.0571C62.3307 22.0656 63.2595 21.8601 63.2937 22.7598C63.3359 23.8704 62.3077 23.5724 61.6518 23.5856C59.0917 23.6368 56.5306 23.6411 53.9699 23.6629ZM5.24286 19.9891C5.38261 20.1071 5.52235 20.2251 5.66209 20.3431C5.83231 20.5339 5.97822 20.7561 6.17629 20.9108C10.1306 23.9975 16.1563 23.0823 20.0455 21.2301C20.8628 20.8408 20.865 20.0852 20.7806 19.3551C20.0065 12.6656 16.9137 7.53586 10.8163 4.44291C9.8463 3.74333 9.01212 2.64514 7.57163 3.49508C2.26192 6.62802 1.0014 15.6335 5.2698 20.0248L5.24286 19.9891ZM4.60504 21.9624C4.20401 21.0375 3.4678 20.4105 2.76835 19.7181C0.790064 22.5675 0.962602 24.8726 3.29408 27.6196C6.45842 29.8968 10.6393 29.2092 12.1142 26.1395C12.3945 25.5562 12.9996 24.5598 11.7948 24.4817C9.13369 24.3092 6.89346 23.1079 4.60504 21.9624Z" fill="#9E5A57"/>
<path d="M53.9243 23.3892C56.4545 23.3677 58.9851 23.3635 61.5146 23.3129C62.1628 23.2999 63.1787 23.5941 63.137 22.4974C63.1032 21.609 62.1855 21.8119 61.5733 21.8035C58.7839 21.7655 55.9941 21.7534 53.2044 21.7321C52.1009 18.8858 51.2278 15.9472 49.724 13.2625C49.0667 12.0889 49.1714 11.1861 50.5621 10.416C54.2222 8.38897 57.8139 6.23596 62.1369 6.03052C64.5625 5.91522 64.628 6.01725 64.6286 8.4671C64.6299 13.2494 64.5686 18.033 64.6655 22.8134C64.6961 24.3244 64.2072 24.7255 62.7793 24.6606C60.4386 24.5543 58.0892 24.6102 55.7442 24.6448C54.8008 24.6587 54.0485 24.5172 53.9243 23.3892Z" fill="white"/>
<path d="M24.3629 22.6667C29.0812 22.8172 32.2489 25.4412 32.6296 29.5146C32.961 33.0601 31.0453 36.309 27.9028 37.5308C24.7927 38.74 21.1664 37.5476 19.2919 34.6993C17.3119 31.6907 17.624 28.0348 20.1169 25.034C21.3152 23.8217 22.7675 23.1046 24.3629 22.6667ZM25.2078 24.2324C22.0644 24.2415 19.3708 27.0887 19.4078 30.3634C19.4453 33.6749 22.0717 36.4041 25.2509 36.435C28.4703 36.4662 31.0706 33.7957 31.1136 30.4141C31.1572 26.983 28.5203 24.2229 25.2078 24.2324Z" fill="#9E5A57"/>
<path d="M23.9999 22.9632C22.3912 23.4055 20.9268 24.1297 19.7186 25.3541C17.7456 25.1815 16.0862 25.2261 15.5001 27.9193C14.8218 31.037 9.59535 33.5365 6.6665 30.8758C7.77248 30.1306 9.1612 30.4082 10.3189 29.6323C11.8055 28.6361 12.9639 27.4711 13.5945 25.7413C13.8163 25.1328 13.8123 24.3122 14.6325 24.1542C17.8416 23.5359 20.7444 21.8141 23.9897 21.3333C23.9929 21.8767 23.9964 22.4199 23.9999 22.9632Z" fill="white"/>
<path d="M10.7554 4.66699C16.7986 7.67859 19.8639 12.6734 20.6311 19.1869C20.7148 19.8979 20.7126 20.6336 19.9025 21.0126C16.0479 22.8161 10.0757 23.7072 6.15659 20.7017C5.96028 20.5511 5.81567 20.3347 5.64696 20.1489C5.50849 20.0341 5.36996 19.9192 5.23146 19.8043C5.23146 19.8043 5.25816 19.839 5.25818 19.839C5.15811 19.2064 5.08552 18.5681 4.95366 17.942C3.81775 12.5473 6.11301 7.28527 10.7554 4.66699Z" fill="white"/>
<path d="M4.66044 22C6.97637 23.0904 9.24353 24.2337 11.9367 24.398C13.1559 24.4724 12.5435 25.4207 12.2599 25.9759C10.7673 28.8978 6.5361 29.5523 3.3335 27.3846C4.03087 26.9418 3.4952 26.3552 3.5073 25.8457C3.54019 24.4606 3.46409 23.0656 4.66044 22Z" fill="white"/>
</svg>
