<svg width="66" height="60" viewBox="0 0 66 60" fill="none" xmlns="http://www.w3.org/2000/svg">
<path d="M53.7219 49.25C55.8559 47.1169 57.9899 44.9837 60.124 42.8505C60.2976 42.6036 60.4711 42.3569 60.6447 42.1103C60.6447 42.1103 60.6088 42.1689 60.6088 42.1688C61.5767 41.2685 62.5419 40.3653 63.5137 39.4695C63.9727 39.0463 64.4568 38.4717 65.0815 39.1602C65.6826 39.8224 65.1527 40.3461 64.6939 40.7627C59.8524 45.1594 56.1372 50.8813 49.6537 53.6706C52.1053 54.7833 54.2924 55.9015 56.0743 57.658C56.562 58.1388 57.3621 58.6277 56.7779 59.3979C56.1417 60.2367 55.5382 59.5084 55.0382 59.0414C51.5206 55.756 47.3437 54.4906 42.6067 54.5626C35.8221 54.6657 29.0344 54.6349 22.2488 54.5702C17.7623 54.5275 13.8203 55.8374 10.4598 58.8867C9.93375 59.364 9.34756 60.367 8.57408 59.388C7.86497 58.4905 8.88181 58.0123 9.40176 57.5248C11.0694 55.9611 13.0227 54.8237 15.4126 53.8024C8.8787 51.2773 5.25852 45.7195 0.594901 41.4119C0.109331 40.9634 -0.322241 40.3748 0.334327 39.8184C0.973392 39.2768 1.47915 39.8648 1.91768 40.3076C4.1817 42.5935 6.48345 44.8434 8.68608 47.1888C12.395 51.1379 16.869 52.9923 22.2716 52.9066C29.3675 52.7942 36.4669 52.9311 43.5645 52.9032C47.3517 52.8884 50.7392 51.6177 53.7219 49.25Z" fill="#9E5A57"/>
<path d="M24.6098 17.4469C28.7141 22.8142 35.2406 23.9021 40.9701 20.164C41.4847 19.8282 41.9671 19.4407 42.448 19.0567C42.9766 18.6348 43.5209 17.9009 44.1699 18.7385C44.793 19.5428 43.9366 19.9798 43.4656 20.4098C42.0236 21.7262 40.2975 22.5591 38.5009 23.2976C35.7489 24.4289 32.9119 23.9557 30.0913 23.8914C25.9496 21.7564 22.3157 19.166 21.2856 14.2053C20.3289 9.59848 21.4589 5.56989 25.0888 2.57655C28.4939 -0.231376 32.3462 -0.919447 36.422 1.38738C36.8576 1.6339 37.4586 1.58897 37.9829 1.67925C38.071 2.63882 38.9448 3.02486 39.4631 3.66224C43.2747 8.34899 41.4974 15.0078 35.9044 16.9148C31.8433 18.2994 27.3693 14.8214 27.8569 10.6588C28.1606 8.06547 30.6761 6.32682 33.0283 7.08652C34.3038 7.49845 34.9125 8.36956 34.8021 9.71082C34.7392 10.4745 34.3981 11.1393 33.5823 11.1519C32.6192 11.1668 32.5749 10.5967 32.7931 9.72992C33.1121 8.4634 32.2075 8.53676 31.3917 8.77301C29.8073 9.23176 29.1423 11.0245 29.9491 12.7824C30.8145 14.6678 32.3474 15.5431 34.4176 15.4363C36.432 15.3324 38.7142 13.4863 39.389 11.4482C41.103 6.27154 36.4946 1.76701 32.4602 2.02179C32.0075 1.96291 31.55 1.828 31.103 1.8566C23.8765 2.31934 20.2751 10.9791 24.6098 17.4469Z" fill="#9E5A57"/>
<path d="M12.6727 41.793C17.1672 47.0906 24.1747 47.8338 29.942 43.6203C30.2575 43.3899 30.544 43.1221 30.8479 42.8764C31.3435 42.4756 31.8836 41.9853 32.4527 42.6923C32.9992 43.3714 32.4286 43.7891 31.9333 44.207C28.6155 47.0073 24.8179 48.4154 20.3877 48.0235C19.848 47.9757 19.3047 47.9652 18.7633 47.9377C10.983 45.4097 6.90098 38.3125 9.33083 31.5379C11.4585 25.6058 17.1852 22.7776 23.404 24.5838C24.0857 24.7818 24.7745 24.9569 25.46 25.1426C27.4229 27.1528 29.2312 29.2194 29.6833 32.131C30.2164 35.5646 28.3501 39.0355 25.04 40.4703C21.9478 41.8105 18.8806 41.1142 16.9294 38.629C14.5715 35.626 15.791 31.6765 19.3106 30.8453C20.5479 30.5531 21.4918 30.9589 22.2753 31.8397C22.9106 32.5539 22.9491 33.407 22.6489 34.2454C22.4591 34.7755 22.0002 35.1721 21.3746 35.0834C20.7839 34.9997 20.6474 34.4824 20.764 34.014C20.9408 33.3045 20.8432 32.7329 20.0693 32.5554C19.4024 32.4026 18.835 32.8052 18.3662 33.2219C16.8871 34.5363 17.3167 37.1315 19.2503 38.4426C20.8822 39.5493 22.586 39.667 24.4224 38.8148C26.5763 37.8152 27.6979 36.1458 27.9134 33.9233C28.365 29.2659 24.6646 25.7971 19.4057 25.8608C15.4546 25.8549 12.8552 27.9297 11.3654 31.2453C9.71223 34.9246 10.0183 38.538 12.6727 41.793Z" fill="#9E5A57"/>
<path d="M35.1112 43.4017C34.7149 41.7701 33.5095 40.5146 33.0947 38.8556C32.2558 35.5001 32.6941 32.361 34.2416 29.3209C35.0308 28.3514 35.8201 27.3819 36.6094 26.4126C38.9948 24.8955 41.5007 23.7798 44.4372 24.0986C45.9566 23.9868 47.1646 25.217 48.6922 25.0714C50.858 26.8938 52.7274 28.9059 53.1853 31.8473C53.6327 34.721 52.9495 37.2958 50.7362 39.2129C48.625 41.0414 46.1259 41.7471 43.3545 40.669C40.4504 39.5393 38.8599 36.4042 39.8314 33.7354C40.5738 31.696 42.6582 30.4976 44.6469 31.0563C46.1113 31.4678 46.863 32.4449 46.4861 34.0049C46.3355 34.6281 45.9136 35.2172 45.1967 35.144C44.3256 35.055 44.3945 34.417 44.5893 33.7419C44.9655 32.4382 44.1371 32.448 43.2995 32.7285C41.6429 33.2831 40.9483 34.4647 41.4067 36.1627C41.9614 38.2173 43.4705 39.1941 45.5113 39.3693C47.775 39.5636 50.204 37.9756 51.0514 35.8517C53.0945 30.7307 48.9768 25.6581 43.024 25.9629C38.9112 26.0291 35.5279 28.892 35.4733 32.3521C34.0186 33.3527 34.3148 34.8678 34.4264 36.2432C34.7832 40.6394 37.1398 43.6929 41.1622 45.4232C45.4586 47.2714 49.4685 46.4166 53.2718 43.9257C54.0607 43.409 54.8457 41.6401 55.8015 42.8465C56.8423 44.1602 54.9149 44.6608 54.133 45.2512C50.8271 47.7472 46.9989 48.3742 42.9457 47.9788C39.8147 47.3292 37.5955 45.142 35.1112 43.4017Z" fill="#9E5A57"/>
</svg>
