<svg width="31" height="51" viewBox="0 0 31 51" fill="none" xmlns="http://www.w3.org/2000/svg">
<path d="M13.3301 4.3731C13.2889 3.44616 13.4526 2.54975 13.8443 1.71451C14.2703 0.806391 14.8705 0.0188968 15.9885 0.000350596C17.0983 -0.0181164 17.7987 0.695115 18.1832 1.6281C18.5522 2.52308 18.7775 3.01707 19.9643 2.44878C21.325 1.79718 22.3473 2.68028 22.9313 3.90503C23.262 4.59833 23.4736 4.97699 24.4226 4.7716C25.7373 4.48706 26.5439 5.39648 26.9522 6.53615C27.2726 7.43058 27.6756 7.91025 28.7384 8.0162C30.3293 8.17475 30.42 9.76146 31 10.8559C30.2775 11.7649 29.9868 13.0995 28.5562 13.3105C27.2671 13.4583 26.672 11.9678 25.4617 11.893C25.4046 12.0919 25.3273 12.2392 25.359 12.2682C29.3682 15.9275 29.6174 20.4704 28.4056 25.3174C27.7546 27.921 26.8196 30.4458 26.6157 33.1639C26.442 35.4796 26.4818 37.788 26.4975 40.1013C26.5095 41.8775 26.5087 43.6504 26.061 45.3931C24.522 51.3841 17.3717 52.0543 13.8535 48.979C12.4593 47.7601 12.1746 46.1449 12.2 44.4373C12.212 43.6346 12.3647 42.8328 12.4704 42.0328C12.8036 39.5107 13.4608 37.3865 16.3439 36.4C18.6494 35.6111 20.1338 33.5998 21.1526 31.3793C22.0694 29.3812 22.9248 27.3553 23.8597 25.222C22.4864 24.732 21.4323 25.2694 20.4529 26.0339C19.0511 27.1282 17.6768 28.2575 16.2882 29.3688C15.2466 30.2025 14.5931 29.9374 14.137 28.7085C13.3102 26.4806 11.5477 24.8991 10.0816 23.0385C7.8272 24.4348 6.46576 26.4287 6.75544 29.0149C7.49461 35.6145 5.10429 41.3684 2.27112 47.0506C1.93612 47.7224 1.69265 48.4395 1.40924 49.1367C1.21788 49.6076 1.17743 50.411 0.466493 50.1681C-0.382784 49.878 0.148259 49.1718 0.348261 48.6684C0.844387 47.4194 1.32461 46.1569 1.93045 44.9596C4.39488 40.0889 6.16608 35.0951 5.56881 29.4864C5.28611 26.8318 6.18145 24.4822 8.40742 22.8029C9.1937 22.2097 9.20994 21.6555 8.77998 20.7696C7.37606 17.8769 7.56629 15.1464 9.97336 12.7818C11.0816 11.8462 12.3853 11.2811 13.7417 10.8158C16.8909 9.83746 20.0468 10.2179 23.2329 10.7052C21.8186 10.121 20.4043 9.53678 18.99 8.95254C18.2111 6.94109 17.356 8.11951 16.5106 8.89394C15.7754 8.61764 14.933 8.57538 14.3696 7.92367C13.6817 6.83912 13.2881 5.66923 13.3301 4.3731ZM24.6425 11.8192C24.8099 11.9726 24.9908 12.0639 25.1522 11.8291C25.3191 11.5863 25.1287 11.462 24.9532 11.3441C24.56 11.1217 24.1732 10.8252 23.6948 11.1992C23.9377 11.5803 24.278 11.7188 24.6425 11.8192ZM25.7117 7.30763C25.5448 5.98632 25.3045 5.84072 24.1273 6.34754C22.9857 7.06073 23.3148 8.11031 23.6121 9.0485C23.9439 10.0954 24.9133 10.2137 25.539 9.30247C25.9407 8.71756 26.4204 8.03471 25.7117 7.30763ZM20.1334 8.1304C21.9399 8.20754 22.6389 6.80108 21.8241 4.72839C21.8782 3.92756 21.3689 3.59014 20.695 3.47275C20.2286 3.3915 19.7354 3.69084 19.698 4.0854C19.5687 5.45038 19.0276 6.88955 20.1334 8.1304ZM15.6715 7.28399C16.3944 7.59351 16.8307 7.19027 17.0512 6.60927C17.5439 5.31082 17.9899 3.98312 17.1134 2.65136C17.2126 1.97017 16.8922 1.50463 16.2986 1.24585C15.8061 1.03115 15.4915 1.38424 15.2157 1.72442C14.0554 3.15526 14.2831 5.9003 15.6715 7.28399ZM18.0109 11.3757C17.0481 11.491 16.0695 11.5327 15.1252 11.7338C9.07285 13.0225 7.49102 16.9418 10.9772 21.9879C12.3223 23.935 13.7646 25.8181 15.0496 27.8028C15.5626 28.5951 15.8849 28.1661 16.2764 27.8542C17.6249 26.7797 18.924 25.6414 20.3018 24.6065C21.4352 23.7551 22.7378 23.4877 24.1377 23.9071C25.2006 24.2255 25.5808 24.9598 25.0241 25.8758C24.0926 27.4082 23.4908 29.0747 22.8225 30.7118C21.3902 34.2198 19.0395 36.8081 15.4951 38.2725C15.0527 38.4553 14.5562 38.5841 14.4095 39.1402C13.8469 41.2725 13.2209 43.4001 13.4602 45.6423C13.5588 46.5664 13.8864 47.4036 14.6356 48.044C18.0939 50.9999 23.5901 49.3713 24.8064 45.0088C25.3192 43.1695 25.2506 41.2771 25.2078 39.3953C25.1034 34.8058 25.2215 30.2534 26.9311 25.8867C27.2606 25.0453 27.3997 24.1198 27.548 23.2202C28.7375 16.0037 25.0456 11.4548 18.0109 11.3757ZM27.5598 10.7113C27.7283 11.1695 27.3924 12.078 28.1734 11.9166C28.8922 11.768 29.2697 10.9207 29.3316 10.156C29.3725 9.65054 29.0261 9.14017 28.4643 9.25827C27.7516 9.4081 27.494 10.0117 27.5598 10.7113Z" fill="#9E5A57"/>
<path d="M8.39999 11.7585C5.25318 11.0529 3.8466 6.59969 5.52423 3.37056C6.23475 2.00294 7.25522 1.08804 8.80875 1.06915C10.3609 1.05025 11.403 1.93071 12.1412 3.28746C12.3696 3.70726 12.5524 4.15474 12.756 4.5894C13.1561 9.16909 11.8945 11.2456 8.39999 11.7585ZM6.9234 9.28491L7.23366 9.57554C8.42605 10.7796 9.89628 10.6581 10.8708 9.27484C12.0248 7.63684 11.9361 5.11311 10.6647 3.41111C9.5233 1.88605 7.99727 1.86471 6.89032 3.35829C5.65214 5.02893 5.67161 7.37057 6.93984 9.32382L6.9234 9.28491Z" fill="#9E5A57"/>
<path d="M8.55127 31.8297C12.1801 31.3145 13.4902 29.2287 13.0747 24.6285C13.1837 24.5537 13.2926 24.4788 13.4015 24.4043C13.3599 25.7228 13.7495 26.9126 14.4306 28.0156C14.2234 28.996 14.0162 29.9764 13.8089 30.9567C12.4663 31.4299 11.1758 32.0046 10.0788 32.956C9.54779 32.6116 8.87342 32.4703 8.55127 31.8297Z" fill="white"/>
<path d="M15.5809 27.5022C15.4808 26.3121 15.3753 25.114 15.9178 23.9891C16.1637 23.4795 16.3054 22.8236 17.1091 22.8005C18.0378 24.1521 17.5651 25.4996 17.043 26.8174C16.8094 27.4071 16.347 27.8163 15.5809 27.5022Z" fill="white"/>
<path d="M19.7764 28.1425C19.9835 26.9043 19.8077 25.4977 21.5588 24.9385C22.4176 26.8906 21.6808 28.2152 19.7764 28.1425Z" fill="white"/>
<path d="M18.7068 29.0583C17.9716 29.9382 17.256 30.0372 16.5688 29.0102C17.2979 28.3756 18.0352 27.4098 18.7068 29.0583Z" fill="white"/>
<path d="M10.7318 3.20679C12.0174 4.89843 12.1071 7.40682 10.9402 9.03485C9.95481 10.4097 8.46816 10.5305 7.26257 9.33369C7.15803 9.23736 7.05338 9.14111 6.94873 9.04486C6.94873 9.04486 6.96536 9.08353 6.96538 9.08353C7.02334 8.28307 7.00809 7.46797 7.15302 6.68486C7.58138 4.37045 8.74154 3.27707 10.7318 3.20679Z" fill="white"/>
</svg>
