<svg width="26" height="24" viewBox="0 0 26 24" fill="none" xmlns="http://www.w3.org/2000/svg">
<path opacity="0.5" d="M20.8667 21C20.8667 22.1782 21.8218 23.1333 23 23.1333C24.1782 23.1333 25.1333 22.1782 25.1333 21C25.1333 19.8218 24.1782 18.8667 23 18.8667C21.8218 18.8667 20.8667 19.8218 20.8667 21ZM0.866667 3C0.866667 4.17821 1.82179 5.13333 3 5.13333C4.17821 5.13333 5.13333 4.17821 5.13333 3C5.13333 1.82179 4.17821 0.866667 3 0.866667C1.82179 0.866667 0.866667 1.82179 0.866667 3ZM23 20.6H13V21.4H23V20.6ZM3.4 11V3H2.6V11H3.4ZM13 20.6C7.69807 20.6 3.4 16.3019 3.4 11H2.6C2.6 16.7438 7.25624 21.4 13 21.4V20.6Z" fill="#E29A8F"/>
</svg>
