<svg width="49" height="36" viewBox="0 0 49 36" fill="none" xmlns="http://www.w3.org/2000/svg">
<path d="M11.8519 35.08C9.85188 35.08 8.05188 34.72 6.45188 34C4.93188 33.2 3.73188 32.12 2.85188 30.76C2.05188 29.56 1.37188 28.04 0.811875 26.2C0.331875 24.28 0.0918751 22.24 0.0918751 20.08C0.0918751 16.08 1.09188 12.36 3.09187 8.92C5.17188 5.4 8.37188 2.64 12.6919 0.639995L13.7719 2.8C11.6119 3.76 9.69188 5.2 8.01188 7.12C6.33188 8.96 5.25188 10.92 4.77188 13C4.21188 15 4.13188 16.92 4.53188 18.76C6.45188 16.6 9.09188 15.52 12.4519 15.52C15.4119 15.52 17.8119 16.36 19.6519 18.04C21.4919 19.72 22.4119 22.12 22.4119 25.24C22.4119 28.2 21.4119 30.6 19.4119 32.44C17.4919 34.2 14.9719 35.08 11.8519 35.08ZM38.0119 35.08C36.0119 35.08 34.2119 34.72 32.6119 34C31.0919 33.2 29.8919 32.12 29.0119 30.76C28.2119 29.56 27.5319 28.04 26.9719 26.2C26.4919 24.28 26.2519 22.24 26.2519 20.08C26.2519 16.08 27.2519 12.36 29.2519 8.92C31.3319 5.4 34.5319 2.64 38.8519 0.639995L39.9319 2.8C37.7719 3.76 35.8519 5.2 34.1719 7.12C32.4919 8.96 31.4119 10.92 30.9319 13C30.3719 15 30.2919 16.92 30.6919 18.76C32.6119 16.6 35.2519 15.52 38.6119 15.52C41.5719 15.52 43.9719 16.36 45.8119 18.04C47.6519 19.72 48.5719 22.12 48.5719 25.24C48.5719 28.2 47.5719 30.6 45.5719 32.44C43.6519 34.2 41.1319 35.08 38.0119 35.08Z" fill="#D69388"/>
</svg>
