<svg width="35" height="35" viewBox="0 0 35 35" fill="none" xmlns="http://www.w3.org/2000/svg">
<circle cx="17.5" cy="17.5" r="17.5" fill="white"/>
<path d="M9 16C8.44772 16 8 16.4477 8 17C8 17.5523 8.44772 18 9 18V16ZM27.7071 17.7071C28.0976 17.3166 28.0976 16.6834 27.7071 16.2929L21.3431 9.92893C20.9526 9.53841 20.3195 9.53841 19.9289 9.92893C19.5384 10.3195 19.5384 10.9526 19.9289 11.3431L25.5858 17L19.9289 22.6569C19.5384 23.0474 19.5384 23.6805 19.9289 24.0711C20.3195 24.4616 20.9526 24.4616 21.3431 24.0711L27.7071 17.7071ZM9 18L27 18V16L9 16V18Z" fill="#C49086"/>
</svg>
