<svg width="354" height="134" viewBox="0 0 354 134" fill="none" xmlns="http://www.w3.org/2000/svg">
<path fill-rule="evenodd" clip-rule="evenodd" d="M244.522 1.1792H3C1.34315 1.1792 0 2.52234 0 4.1792V8.62019C0 10.0471 1.02577 11.24 2.33723 11.8022C6.63927 13.6463 9.65289 17.9195 9.65289 22.8966C9.65289 27.8737 6.63927 32.1469 2.33723 33.991C1.02577 34.5532 0 35.7461 0 37.173V37.5767C0 39.0036 1.02577 40.1965 2.33723 40.7587C6.63927 42.6028 9.65289 46.876 9.65289 51.8531C9.65289 56.8302 6.63927 61.1034 2.33723 62.9475C1.02577 63.5097 0 64.7026 0 66.1295V66.5332C0 67.9601 1.02577 69.153 2.33723 69.7152C6.63927 71.5593 9.65289 75.8326 9.65289 80.8096C9.65289 85.7867 6.63927 90.0599 2.33723 91.904C1.02577 92.4662 0 93.6591 0 95.086V95.4898C0 96.9166 1.02577 98.1096 2.33723 98.6717C6.63927 100.516 9.65289 104.789 9.65289 109.766C9.65289 114.743 6.63927 119.016 2.33723 120.861C1.02577 121.423 0 122.616 0 124.043V130.092C0 131.749 1.34314 133.092 3 133.092L109.391 133.092L350.913 133.092C352.57 133.092 353.913 131.749 353.913 130.092V123.414C353.913 123.289 353.825 123.181 353.703 123.154C348.3 121.957 344.26 117.138 344.26 111.375C344.26 105.612 348.3 100.793 353.703 99.5955C353.825 99.5685 353.913 99.461 353.913 99.336V94.4572C353.913 94.3322 353.825 94.2247 353.702 94.1976C348.3 93 344.26 88.181 344.26 82.4183C344.26 76.6556 348.3 71.8365 353.703 70.639C353.825 70.6119 353.913 70.5045 353.913 70.3795V65.5007C353.913 65.3757 353.825 65.2682 353.702 65.2411C348.3 64.0435 344.26 59.2245 344.26 53.4618C344.26 47.6991 348.3 42.88 353.703 41.6824C353.825 41.6554 353.913 41.548 353.913 41.423V36.5442C353.913 36.4191 353.825 36.3116 353.702 36.2846C348.3 35.087 344.26 30.2679 344.26 24.5053C344.26 18.7426 348.3 13.9235 353.703 12.7259C353.825 12.6989 353.913 12.5915 353.913 12.4665V4.17923C353.913 2.52238 352.57 1.17923 350.913 1.17923L244.522 1.1792Z" fill="#9E5A57"/>
<mask id="mask0_951_11218" style="mask-type:alpha" maskUnits="userSpaceOnUse" x="0" y="1" width="269" height="133">
<path fill-rule="evenodd" clip-rule="evenodd" d="M0 3.22266C0 2.11809 0.895429 1.22266 2 1.22266H185.614L266.652 1.22269C267.757 1.22269 268.652 2.11812 268.652 3.22269V12.51V36.5875V41.4665V65.544V70.423V94.5005V99.3796V123.457V131.136C268.652 132.24 267.757 133.136 266.652 133.136L83.0379 133.136L2 133.136C0.89543 133.136 0 132.24 0 131.136V3.22266Z" fill="#9E5A57"/>
</mask>
<g mask="url(#mask0_951_11218)">
<g opacity="0.1">
<path d="M198.801 312.504C198.98 312.293 198.959 311.971 198.755 311.785L101.249 222.823C86.2678 209.155 73.7694 193.439 64.1007 176.114C54.7663 159.387 48.4579 141.889 45.3511 124.107C42.2443 106.324 42.5 89.1793 46.1112 73.1481C49.8517 56.5432 57.0437 41.886 67.4875 29.584C77.9312 17.2819 91.0413 8.02447 106.454 2.06858C121.334 -3.68144 137.705 -6.12257 155.114 -5.18707C172.523 -4.2515 190.067 0.0121749 207.257 7.48558C225.062 15.2265 241.686 26.0819 256.667 39.7502L354.173 128.712C354.378 128.898 354.688 128.878 354.867 128.668C355.046 128.457 355.026 128.135 354.822 127.948L257.316 38.9867C195.495 -17.4163 109.654 -22.0292 66.5577 28.7357L66.5575 28.7359C23.461 79.5008 38.7804 167.184 100.601 223.586L198.107 312.548C198.311 312.734 198.622 312.715 198.801 312.504Z" fill="white"/>
<path d="M201.608 309.199C201.787 308.988 201.766 308.665 201.562 308.479L104.801 220.197C90.3754 207.036 78.3422 191.901 69.0358 175.213C60.051 159.101 53.9818 142.246 50.9969 125.115C48.0119 107.983 48.266 91.4643 51.7521 76.017C55.363 60.0168 62.298 45.8917 72.3646 34.0339C82.4311 22.1762 95.0649 13.2506 109.915 7.50478C124.252 1.95757 140.025 -0.402332 156.796 0.490594C173.566 1.38343 190.465 5.48284 207.021 12.675C224.171 20.1244 240.18 30.5751 254.606 43.7368L351.367 132.018C351.571 132.205 351.883 132.185 352.062 131.974C352.241 131.763 352.221 131.44 352.016 131.253L255.256 42.9721C195.707 -11.358 112.988 -15.7622 71.4342 33.185L71.434 33.1852C29.8806 82.1324 44.6037 166.632 104.152 220.962L200.912 309.243C201.117 309.43 201.428 309.41 201.608 309.199Z" fill="white"/>
<path d="M204.813 305.423C204.992 305.213 204.971 304.891 204.768 304.705L108.749 217.101C94.8786 204.446 83.3003 189.904 74.3356 173.878C65.6806 158.407 59.822 142.227 56.9226 125.79C54.0232 109.353 54.2333 93.5107 57.5472 78.703C60.9796 63.3654 67.6058 49.8334 77.2417 38.4829C86.8776 27.1324 98.9832 18.5997 113.222 13.1216C126.969 7.83282 142.1 5.60404 158.196 6.49719C174.291 7.39034 190.516 11.3591 206.419 18.2933C222.891 25.4755 238.276 35.5337 252.146 48.1886L348.165 135.793C348.369 135.979 348.679 135.959 348.857 135.749C349.036 135.539 349.015 135.217 348.811 135.031L252.793 47.4267C195.518 -4.82949 116.101 -9.23643 76.3107 37.6335L76.3106 37.6336C36.5207 84.5035 50.8269 165.607 108.102 217.863L204.121 305.467C204.325 305.653 204.635 305.634 204.813 305.423Z" fill="white"/>
<path d="M207.62 302.117C207.799 301.907 207.778 301.585 207.574 301.399L112.595 214.742C99.3219 202.633 88.2496 188.708 79.6858 173.355C71.4176 158.533 65.8317 143.026 63.0829 127.267C60.3342 111.507 60.5653 96.3111 63.7699 82.1018C67.0891 67.3839 73.4667 54.3915 82.7254 43.4854C91.984 32.5792 103.605 24.3708 117.265 19.0878C130.454 13.9874 144.963 11.8193 160.392 12.6434C175.82 13.4677 191.366 17.2416 206.598 23.8605C222.376 30.716 237.106 40.3324 250.378 52.4422L345.358 139.098C345.562 139.285 345.873 139.265 346.051 139.054C346.23 138.843 346.21 138.522 346.006 138.335L251.026 51.6791C196.197 1.65431 120.043 -2.41426 81.7966 42.638L81.7965 42.6381C43.5496 87.6904 57.1174 165.481 111.947 215.505L206.926 302.162C207.13 302.348 207.441 302.328 207.62 302.117Z" fill="white"/>
<path d="M210.425 298.813C210.604 298.601 210.583 298.279 210.379 298.092L116.144 212.115C103.426 200.512 92.8195 187.168 84.618 172.453C76.6998 158.247 71.3531 143.383 68.7263 128.274C66.0997 113.165 66.3292 98.5959 69.4087 84.9705C72.5984 70.8575 78.719 58.3971 87.6005 47.9354C96.4819 37.4736 107.626 29.5969 120.724 24.524C133.37 19.6263 147.281 17.5393 162.07 18.3208C176.86 19.1023 191.761 22.7118 206.36 29.0491C221.481 35.6131 235.596 44.8246 248.314 56.4276L342.549 142.405C342.753 142.591 343.065 142.572 343.244 142.36C343.423 142.149 343.402 141.827 343.198 141.64L248.963 55.6631C196.406 7.71193 123.375 3.85286 86.6711 47.0874C49.9674 90.322 62.938 164.929 115.495 212.88L209.73 298.857C209.934 299.044 210.246 299.024 210.425 298.813Z" fill="white"/>
<path d="M213.63 295.037C213.809 294.827 213.788 294.506 213.585 294.32L120.089 209.018C107.928 197.922 97.7761 185.17 89.9165 171.118C82.3283 157.551 77.1924 143.364 74.6514 128.949C72.1104 114.535 72.2963 100.642 75.2036 87.6565C78.215 74.2061 84.0268 62.3389 92.4777 52.3843C100.929 42.4298 111.545 34.9459 124.031 30.1406C136.087 25.5012 149.356 23.5451 163.47 24.3267C177.585 25.1083 191.812 28.5869 205.757 34.6661C220.2 40.9627 233.69 49.7814 245.852 60.8774L339.347 146.18C339.551 146.365 339.861 146.346 340.039 146.135C340.218 145.925 340.197 145.604 339.994 145.418L246.498 60.1162C196.216 14.2397 126.488 10.3786 91.5477 51.5358L91.5476 51.5359C56.6074 92.6931 69.1605 163.902 119.443 209.779L212.938 295.081C213.142 295.267 213.452 295.247 213.63 295.037Z" fill="white"/>
<path d="M216.437 291.732C216.615 291.521 216.595 291.199 216.391 291.013L123.635 206.386C112.03 195.797 102.344 183.627 94.8473 170.213C87.6096 157.262 82.7135 143.717 80.295 129.955C77.8765 116.192 78.0611 102.926 80.8436 90.5243C83.7257 77.6792 89.2808 66.344 97.3544 56.8338C105.428 47.3236 115.568 40.1714 127.492 35.5759C139.004 31.1391 151.674 29.2638 165.149 30.0023C178.624 30.7407 192.206 34.0545 205.517 39.8516C219.304 45.8561 232.179 54.2694 243.784 64.858L336.54 149.485C336.744 149.672 337.054 149.652 337.233 149.441C337.412 149.231 337.391 148.909 337.187 148.723L244.432 64.0953C196.424 20.2949 129.821 16.6451 96.4237 55.9847C63.0266 95.3242 74.9804 163.348 122.988 207.148L215.743 291.776C215.947 291.962 216.258 291.942 216.437 291.732Z" fill="white"/>
<path d="M219.243 288.426C219.422 288.215 219.401 287.893 219.197 287.706L127.499 204.044C116.488 193.998 107.306 182.443 100.208 169.7C93.3552 157.397 88.7297 144.523 86.4602 131.436C84.1906 118.35 84.3948 105.729 87.0672 93.9246C89.8351 81.6984 95.1409 70.9024 102.837 61.8366C110.534 52.7708 120.189 45.9433 131.535 41.5439C142.49 37.2963 154.54 35.4828 167.349 36.154C180.159 36.8251 193.064 39.9459 205.707 45.4297C218.801 51.1096 231.023 59.0833 242.034 69.1291L333.732 152.791C333.937 152.978 334.248 152.958 334.427 152.747C334.606 152.536 334.585 152.214 334.381 152.027L242.683 68.3649C197.111 26.7867 133.763 23.4678 101.909 60.9897L101.909 60.9899C70.055 98.5118 81.2786 163.23 126.85 204.808L218.548 288.47C218.753 288.657 219.064 288.637 219.243 288.426Z" fill="white"/>
<path d="M222.049 285.121C222.229 284.909 222.208 284.586 222.003 284.399L131.046 201.412C120.591 191.874 111.875 180.9 105.14 168.795C98.6371 157.108 94.2513 144.877 92.1041 132.442C89.9569 120.007 90.16 108.012 92.7074 96.7925C95.3459 85.1713 100.395 74.9075 107.714 66.2861C115.033 57.6647 124.212 51.169 134.996 46.9795C145.407 42.9346 156.858 41.202 169.028 41.83C181.199 42.4582 193.459 45.4142 205.467 50.6161C217.905 56.0039 229.512 63.5722 239.967 73.1108L330.924 156.097C331.129 156.284 331.441 156.265 331.62 156.053C331.8 155.842 331.779 155.518 331.574 155.331L240.617 72.3448C197.32 32.8422 137.096 29.7344 106.785 65.4386C76.4742 101.143 87.0989 162.676 130.396 202.178L221.353 285.165C221.558 285.352 221.87 285.332 222.049 285.121Z" fill="white"/>
<path d="M225.255 281.345C225.433 281.135 225.413 280.813 225.209 280.627L134.987 198.311C125.088 189.28 116.828 178.9 110.435 167.458C104.263 156.411 100.089 144.857 98.0275 133.117C95.9666 121.376 96.1261 110.059 98.5017 99.4784C100.962 88.5201 105.703 78.8495 112.591 70.7351C119.48 62.6208 128.13 56.5177 138.303 52.5954C148.124 48.8084 158.932 47.2066 170.427 47.8343C181.923 48.4619 193.508 51.2867 204.862 56.2299C216.621 61.3498 227.603 68.5249 237.501 77.5558L327.723 159.872C327.927 160.058 328.238 160.038 328.416 159.828C328.595 159.617 328.574 159.296 328.37 159.11L238.148 76.7938C197.128 39.3682 140.209 36.26 111.662 69.887C83.1143 103.514 93.3193 161.648 134.34 199.073L224.562 281.389C224.766 281.576 225.076 281.556 225.255 281.345Z" fill="white"/>
<path d="M228.06 278.039C228.239 277.828 228.219 277.506 228.014 277.32L138.527 195.674C120.038 178.805 107.658 156.945 103.669 134.12C99.6795 111.295 104.58 90.3646 117.467 75.1843C130.354 60.0039 149.758 52.306 172.104 53.5085C194.449 54.7109 216.938 64.6631 235.427 81.5318L324.914 163.177C325.119 163.364 325.43 163.344 325.609 163.133C325.788 162.922 325.767 162.6 325.563 162.414L236.075 80.768C197.333 45.4209 143.541 42.5262 116.537 74.3354C89.5325 106.145 99.136 161.091 137.878 196.438L227.366 278.083C227.57 278.27 227.881 278.25 228.06 278.039Z" fill="white"/>
<path d="M230.867 274.733C231.046 274.522 231.026 274.199 230.821 274.012L142.064 193.033C124.678 177.171 113.046 156.604 109.31 135.123C105.575 113.641 110.203 93.9345 122.344 79.6338C134.484 65.3332 152.751 58.0703 173.779 59.1825C194.808 60.2949 215.963 69.6433 233.349 85.5057L322.105 166.484C322.31 166.671 322.622 166.651 322.802 166.44C322.981 166.228 322.961 165.905 322.756 165.718L234 84.7397C197.538 51.4729 146.873 48.793 121.412 78.7842C95.9514 108.776 104.952 160.532 141.414 193.799L230.17 274.777C230.375 274.964 230.687 274.945 230.867 274.733Z" fill="white"/>
<path d="M234.071 270.959C234.25 270.748 234.229 270.427 234.026 270.242L146.352 190.251C130.136 175.456 119.273 156.289 115.763 136.282C112.254 116.275 116.538 97.9333 127.827 84.6361C139.115 71.339 156.12 64.6034 175.709 65.6703C195.297 66.7371 215.016 75.4726 231.232 90.2676L318.906 170.258C319.11 170.444 319.419 170.425 319.598 170.214C319.776 170.004 319.756 169.683 319.552 169.497L231.878 89.5065C197.837 58.448 150.596 55.8752 126.898 83.7892C103.201 111.703 111.664 159.953 145.706 191.012L233.38 271.003C233.583 271.189 233.893 271.169 234.071 270.959Z" fill="white"/>
<path d="M236.879 267.653C237.058 267.443 237.037 267.121 236.833 266.934L149.892 187.612C134.779 173.823 124.662 155.95 121.406 137.286C118.15 118.621 122.163 101.504 132.704 89.0862C143.246 76.6687 159.114 70.3681 177.386 71.345C195.658 72.3218 214.044 80.4538 229.157 94.2428L316.098 173.565C316.303 173.752 316.613 173.732 316.792 173.521C316.971 173.31 316.951 172.988 316.746 172.802L229.805 93.4794C198.043 64.5006 153.93 62.1422 131.775 88.2386C109.621 114.335 117.482 159.396 149.244 188.375L236.185 267.698C236.389 267.884 236.7 267.864 236.879 267.653Z" fill="white"/>
<path d="M239.685 264.347C239.864 264.135 239.844 263.812 239.639 263.625L153.427 184.968C139.417 172.186 130.048 155.607 127.046 138.287C124.044 120.966 127.785 105.073 137.58 93.5349C147.375 81.9972 162.106 76.1312 179.06 77.0174C196.014 77.9037 213.067 85.4312 227.076 98.2132L313.289 176.871C313.493 177.058 313.805 177.038 313.985 176.826C314.164 176.615 314.144 176.292 313.939 176.105L227.726 97.4474C198.246 70.5502 157.262 68.4078 136.65 92.6865C116.039 116.965 123.296 158.836 152.776 185.734L238.989 264.391C239.194 264.578 239.505 264.558 239.685 264.347Z" fill="white"/>
<path d="M242.887 260.572C243.065 260.362 243.045 260.041 242.842 259.856L157.35 181.856C144.445 170.082 135.784 154.847 132.963 138.959C130.141 123.07 133.513 108.518 142.456 97.9836C151.399 87.449 164.894 82.1334 180.455 83.0162C196.015 83.8988 211.692 90.8692 224.597 102.643L310.089 180.643C310.292 180.829 310.601 180.809 310.779 180.599C310.958 180.39 310.937 180.069 310.734 179.883L225.242 101.883C198.045 77.07 160.373 74.9329 141.525 97.1343C122.677 119.336 129.508 157.802 156.705 182.616L242.197 260.616C242.4 260.801 242.709 260.782 242.887 260.572Z" fill="white"/>
<path d="M245.696 257.266C245.875 257.056 245.854 256.734 245.65 256.548L161.276 179.567C149.532 168.853 141.674 154.963 139.147 140.455C136.621 125.948 139.743 112.641 147.94 102.986C156.136 93.3313 168.471 88.4297 182.673 89.1845C196.875 89.9392 211.164 96.2555 222.907 106.97L307.281 183.95C307.486 184.137 307.796 184.117 307.975 183.906C308.153 183.696 308.133 183.374 307.929 183.188L223.554 106.207C198.761 83.5865 164.317 81.7562 147.012 102.14C129.708 122.524 135.835 157.709 160.628 180.33L245.003 257.311C245.207 257.497 245.517 257.477 245.696 257.266Z" fill="white"/>
<path d="M248.502 253.96C248.681 253.749 248.661 253.426 248.456 253.239L164.808 176.921C154.169 167.214 147.059 154.619 144.787 141.456C142.515 128.293 145.366 116.211 152.816 107.436C160.265 98.6609 171.463 94.1939 184.346 94.8576C197.229 95.5214 210.184 101.233 220.823 110.94L304.471 187.257C304.676 187.444 304.987 187.424 305.167 187.213C305.346 187.001 305.326 186.678 305.121 186.492L221.473 110.174C198.962 89.636 167.649 88.0227 151.887 106.589C136.126 125.155 141.648 157.149 164.158 177.687L247.806 254.004C248.011 254.191 248.322 254.172 248.502 253.96Z" fill="white"/>
<path d="M251.706 250.187C251.883 249.978 251.863 249.658 251.66 249.473L168.728 173.809C159.195 165.111 152.793 153.86 150.703 142.129C148.612 130.398 151.095 119.657 157.693 111.885C164.292 104.113 174.253 100.195 185.743 100.855C197.233 101.514 208.811 106.667 218.344 115.365L301.276 191.029C301.478 191.214 301.787 191.195 301.964 190.985C302.142 190.776 302.122 190.457 301.919 190.272L218.987 114.607C198.762 96.1549 170.762 94.5483 156.764 111.037C142.766 127.526 147.86 156.114 168.085 174.566L251.017 250.231C251.22 250.416 251.528 250.396 251.706 250.187Z" fill="white"/>
<path d="M254.513 246.881C254.691 246.671 254.671 246.35 254.467 246.164L172.251 171.153C163.825 163.465 158.175 153.512 156.341 143.127C154.507 132.743 156.719 123.228 162.57 116.335C168.422 109.443 177.244 105.959 187.414 106.526C197.583 107.092 207.823 111.638 216.249 119.325L298.465 194.337C298.669 194.523 298.979 194.503 299.157 194.293C299.336 194.082 299.315 193.761 299.112 193.576L216.896 118.564C198.96 102.2 174.095 100.815 161.64 115.486C149.185 130.157 153.669 155.55 171.605 171.914L253.821 246.925C254.025 247.111 254.334 247.091 254.513 246.881Z" fill="white"/>
<path d="M257.318 243.573C257.498 243.362 257.477 243.039 257.272 242.852L175.765 168.487C160.596 154.647 156.863 133.247 167.445 120.783C178.026 108.319 198.976 109.438 214.145 123.278L295.653 197.643C295.857 197.83 296.169 197.81 296.348 197.598C296.528 197.387 296.507 197.064 296.302 196.877L214.795 122.513C199.152 108.24 177.425 107.08 166.513 119.933C155.601 132.787 159.472 154.981 175.115 169.253L256.623 243.618C256.827 243.804 257.139 243.785 257.318 243.573Z" fill="white"/>
<path d="M260.127 240.266C260.308 240.053 260.287 239.728 260.081 239.539L179.746 166.244C166.954 154.574 163.895 136.424 172.927 125.785C181.959 115.146 199.713 115.986 212.505 127.656L292.84 200.952C293.046 201.14 293.36 201.12 293.541 200.907C293.722 200.694 293.701 200.369 293.495 200.18L213.16 126.885C199.89 114.779 181.368 113.903 172 124.939C162.631 135.974 165.822 154.909 179.091 167.016L259.426 240.311C259.633 240.499 259.947 240.479 260.127 240.266Z" fill="white"/>
<path d="M263.331 236.497C263.508 236.287 263.488 235.968 263.285 235.783L183.653 163.129C173.159 153.555 170.537 138.799 177.807 130.235C185.077 121.672 199.529 122.494 210.022 132.068L289.654 204.722C289.857 204.907 290.165 204.887 290.343 204.678C290.521 204.468 290.5 204.149 290.297 203.964L210.666 131.31C199.688 121.295 184.483 120.429 176.878 129.388C169.273 138.346 172.032 153.871 183.01 163.887L262.642 236.54C262.844 236.725 263.153 236.706 263.331 236.497Z" fill="white"/>
<path d="M266.137 233.188C266.316 232.977 266.296 232.654 266.091 232.467L187.165 160.457C178.973 152.984 176.962 141.422 182.682 134.685C188.402 127.947 199.719 128.546 207.911 136.02L286.837 208.03C287.042 208.217 287.353 208.197 287.532 207.986C287.712 207.775 287.691 207.452 287.486 207.265L208.56 135.255C199.878 127.334 187.814 126.696 181.752 133.836C175.69 140.977 177.834 153.301 186.516 161.222L265.442 233.232C265.647 233.419 265.958 233.399 266.137 233.188Z" fill="white"/>
<path d="M268.949 229.877C269.131 229.662 269.11 229.335 268.902 229.145L190.674 157.772C184.79 152.404 183.393 144.043 187.56 139.134C191.727 134.226 199.904 134.6 205.788 139.968L284.016 211.341C284.224 211.531 284.54 211.511 284.722 211.296C284.905 211.082 284.884 210.754 284.676 210.565L206.448 139.192C200.067 133.37 191.148 132.962 186.629 138.285C182.11 143.608 183.634 152.727 190.015 158.549L268.243 229.922C268.451 230.111 268.767 230.091 268.949 229.877Z" fill="white"/>
</g>
</g>
<path opacity="0.9" d="M75.1042 88.7247C75.1042 89.8752 74.8964 90.8695 74.481 91.7076C74.0655 92.5457 73.4955 93.192 72.7711 93.6465C72.0467 94.1011 71.2192 94.3283 70.2888 94.3283C69.3584 94.3283 68.531 94.1011 67.8066 93.6465C67.0822 93.192 66.5122 92.5457 66.0967 91.7076C65.6812 90.8695 65.4735 89.8752 65.4735 88.7247C65.4735 87.5741 65.6812 86.5798 66.0967 85.7417C66.5122 84.9036 67.0822 84.2573 67.8066 83.8028C68.531 83.3482 69.3584 83.121 70.2888 83.121C71.2192 83.121 72.0467 83.3482 72.7711 83.8028C73.4955 84.2573 74.0655 84.9036 74.481 85.7417C74.8964 86.5798 75.1042 87.5741 75.1042 88.7247ZM73.8258 88.7247C73.8258 87.7801 73.6677 86.9828 73.3517 86.333C73.0392 85.6831 72.6148 85.1913 72.0786 84.8575C71.5459 84.5237 70.9494 84.3568 70.2888 84.3568C69.6283 84.3568 69.03 84.5237 68.4937 84.8575C67.9611 85.1913 67.5367 85.6831 67.2207 86.333C66.9082 86.9828 66.7519 87.7801 66.7519 88.7247C66.7519 89.6693 66.9082 90.4665 67.2207 91.1163C67.5367 91.7662 67.9611 92.258 68.4937 92.5918C69.03 92.9256 69.6283 93.0926 70.2888 93.0926C70.9494 93.0926 71.5459 92.9256 72.0786 92.5918C72.6148 92.258 73.0392 91.7662 73.3517 91.1163C73.6677 90.4665 73.8258 89.6693 73.8258 88.7247ZM78.4121 89.2573V94.1792H77.155V85.9974H78.3695V87.2758H78.476C78.6677 86.8603 78.9589 86.5265 79.3496 86.2744C79.7402 86.0187 80.2445 85.8908 80.8623 85.8908C81.4163 85.8908 81.9011 86.0045 82.3165 86.2318C82.732 86.4555 83.0552 86.7964 83.286 87.2545C83.5168 87.709 83.6322 88.2843 83.6322 88.9803V94.1792H82.3751V89.0656C82.3751 88.4228 82.2082 87.9221 81.8744 87.5634C81.5406 87.2012 81.0825 87.0201 80.5001 87.0201C80.0989 87.0201 79.7402 87.1071 79.4241 87.2811C79.1116 87.4551 78.8648 87.709 78.6837 88.0428C78.5026 88.3766 78.4121 88.7815 78.4121 89.2573ZM90.9578 97.2474C90.7447 97.2474 90.5547 97.2296 90.3878 97.1941C90.2209 97.1622 90.1055 97.1302 90.0416 97.0982L90.3612 95.9903C90.6666 96.0684 90.9365 96.0968 91.1709 96.0755C91.4052 96.0542 91.613 95.9494 91.7941 95.7612C91.9787 95.5766 92.1474 95.2765 92.3001 94.861L92.5345 94.2218L89.5089 85.9974H90.8726L93.1311 92.5173H93.2163L95.4748 85.9974H96.8385L93.3655 95.3724C93.2092 95.795 93.0157 96.1448 92.7848 96.4217C92.554 96.7023 92.2859 96.91 91.9805 97.045C91.6787 97.1799 91.3378 97.2474 90.9578 97.2474ZM101.529 94.3497C100.79 94.3497 100.142 94.1739 99.5844 93.8223C99.0304 93.4707 98.5972 92.9789 98.2847 92.3468C97.9757 91.7147 97.8212 90.9761 97.8212 90.1309C97.8212 89.2786 97.9757 88.5347 98.2847 87.899C98.5972 87.2634 99.0304 86.7698 99.5844 86.4182C100.142 86.0666 100.79 85.8908 101.529 85.8908C102.267 85.8908 102.914 86.0666 103.468 86.4182C104.025 86.7698 104.458 87.2634 104.767 87.899C105.08 88.5347 105.236 89.2786 105.236 90.1309C105.236 90.9761 105.08 91.7147 104.767 92.3468C104.458 92.9789 104.025 93.4707 103.468 93.8223C102.914 94.1739 102.267 94.3497 101.529 94.3497ZM101.529 93.2204C102.09 93.2204 102.551 93.0766 102.914 92.7889C103.276 92.5013 103.544 92.1231 103.718 91.6543C103.892 91.1856 103.979 90.6778 103.979 90.1309C103.979 89.584 103.892 89.0744 103.718 88.6021C103.544 88.1298 103.276 87.7481 102.914 87.4569C102.551 87.1657 102.09 87.0201 101.529 87.0201C100.968 87.0201 100.506 87.1657 100.144 87.4569C99.7815 87.7481 99.5134 88.1298 99.3394 88.6021C99.1653 89.0744 99.0783 89.584 99.0783 90.1309C99.0783 90.6778 99.1653 91.1856 99.3394 91.6543C99.5134 92.1231 99.7815 92.5013 100.144 92.7889C100.506 93.0766 100.968 93.2204 101.529 93.2204ZM112.311 90.834V85.9974H113.568V94.1792H112.311V92.7943H112.226C112.034 93.2097 111.736 93.5631 111.331 93.8543C110.926 94.1419 110.415 94.2857 109.797 94.2857C109.286 94.2857 108.831 94.1739 108.433 93.9502C108.036 93.7229 107.723 93.382 107.496 92.9274C107.269 92.4693 107.155 91.8923 107.155 91.1962V85.9974H108.412V91.111C108.412 91.7076 108.579 92.1835 108.913 92.5386C109.25 92.8937 109.68 93.0712 110.202 93.0712C110.514 93.0712 110.832 92.9913 111.155 92.8315C111.482 92.6717 111.755 92.4267 111.976 92.0965C112.199 91.7662 112.311 91.3454 112.311 90.834ZM115.871 94.1792V85.9974H117.085V87.2332H117.17C117.32 86.8283 117.59 86.4999 117.98 86.2477C118.371 85.9956 118.811 85.8695 119.301 85.8695C119.394 85.8695 119.509 85.8713 119.647 85.8749C119.786 85.8784 119.891 85.8837 119.962 85.8908V87.1693C119.919 87.1586 119.821 87.1426 119.669 87.1213C119.52 87.0965 119.362 87.084 119.195 87.084C118.797 87.084 118.442 87.1675 118.129 87.3344C117.82 87.4977 117.575 87.725 117.394 88.0162C117.217 88.3038 117.128 88.6323 117.128 89.0016V94.1792H115.871ZM129.314 85.9974V87.0627H124.904V85.9974H129.314ZM126.225 94.1792V84.8681C126.225 84.3994 126.335 84.0087 126.555 83.6962C126.775 83.3837 127.061 83.1494 127.412 82.9931C127.764 82.8369 128.135 82.7587 128.526 82.7587C128.835 82.7587 129.087 82.7836 129.282 82.8333C129.477 82.883 129.623 82.9292 129.719 82.9718L129.357 84.0585C129.293 84.0372 129.204 84.0105 129.09 83.9786C128.98 83.9466 128.835 83.9306 128.654 83.9306C128.238 83.9306 127.938 84.0354 127.753 84.2449C127.572 84.4544 127.482 84.7616 127.482 85.1664V94.1792H126.225ZM131.076 94.1792V85.9974H132.333V94.1792H131.076ZM131.715 84.6337C131.47 84.6337 131.259 84.5503 131.081 84.3834C130.907 84.2165 130.82 84.0158 130.82 83.7815C130.82 83.5471 130.907 83.3465 131.081 83.1796C131.259 83.0127 131.47 82.9292 131.715 82.9292C131.96 82.9292 132.17 83.0127 132.344 83.1796C132.521 83.3465 132.61 83.5471 132.61 83.7815C132.61 84.0158 132.521 84.2165 132.344 84.3834C132.17 84.5503 131.96 84.6337 131.715 84.6337ZM134.635 94.1792V85.9974H135.85V87.2332H135.935C136.084 86.8283 136.354 86.4999 136.745 86.2477C137.135 85.9956 137.576 85.8695 138.066 85.8695C138.158 85.8695 138.274 85.8713 138.412 85.8749C138.551 85.8784 138.655 85.8837 138.726 85.8908V87.1693C138.684 87.1586 138.586 87.1426 138.433 87.1213C138.284 87.0965 138.126 87.084 137.959 87.084C137.562 87.084 137.206 87.1675 136.894 87.3344C136.585 87.4977 136.34 87.725 136.159 88.0162C135.981 88.3038 135.893 88.6323 135.893 89.0016V94.1792H134.635ZM146.012 87.8298L144.883 88.1494C144.812 87.9612 144.707 87.7783 144.568 87.6007C144.433 87.4196 144.249 87.2705 144.014 87.1533C143.78 87.0361 143.48 86.9775 143.114 86.9775C142.614 86.9775 142.196 87.0929 141.862 87.3237C141.532 87.551 141.367 87.8404 141.367 88.192C141.367 88.5045 141.481 88.7513 141.708 88.9324C141.935 89.1135 142.29 89.2644 142.773 89.3852L143.988 89.6835C144.719 89.861 145.264 90.1327 145.623 90.4984C145.982 90.8607 146.161 91.3276 146.161 91.8994C146.161 92.3681 146.026 92.7872 145.756 93.1565C145.49 93.5258 145.117 93.817 144.638 94.0301C144.158 94.2431 143.601 94.3497 142.965 94.3497C142.131 94.3497 141.44 94.1685 140.893 93.8063C140.346 93.4441 140 92.915 139.854 92.219L141.047 91.9207C141.161 92.361 141.376 92.6913 141.692 92.9114C142.012 93.1316 142.429 93.2417 142.944 93.2417C143.53 93.2417 143.995 93.1174 144.339 92.8688C144.687 92.6167 144.861 92.3149 144.861 91.9633C144.861 91.6792 144.762 91.4413 144.563 91.2495C144.364 91.0542 144.059 90.9086 143.647 90.8127L142.283 90.4931C141.534 90.3156 140.984 90.0403 140.632 89.6675C140.284 89.2911 140.11 88.8205 140.11 88.2559C140.11 87.7943 140.24 87.3859 140.499 87.0308C140.762 86.6756 141.118 86.3969 141.569 86.1945C142.024 85.9921 142.539 85.8908 143.114 85.8908C143.924 85.8908 144.56 86.0684 145.021 86.4235C145.486 86.7786 145.817 87.2474 146.012 87.8298ZM151.612 85.9974V87.0627H147.372V85.9974H151.612ZM148.607 84.0372H149.864V91.8354C149.864 92.1906 149.916 92.4569 150.019 92.6345C150.125 92.8085 150.26 92.9256 150.424 92.986C150.591 93.0428 150.766 93.0712 150.951 93.0712C151.09 93.0712 151.203 93.0641 151.292 93.0499C151.381 93.0322 151.452 93.018 151.505 93.0073L151.761 94.1366C151.676 94.1685 151.557 94.2005 151.404 94.2325C151.251 94.268 151.058 94.2857 150.823 94.2857C150.468 94.2857 150.12 94.2094 149.779 94.0567C149.442 93.904 149.161 93.6714 148.938 93.3589C148.717 93.0464 148.607 92.6522 148.607 92.1764V84.0372ZM157.892 94.1792V83.2701H159.149V87.2971H159.255C159.348 87.1551 159.476 86.9739 159.639 86.7538C159.806 86.5301 160.044 86.3312 160.353 86.1572C160.665 85.9796 161.088 85.8908 161.621 85.8908C162.309 85.8908 162.917 86.0631 163.442 86.4075C163.968 86.752 164.378 87.2403 164.673 87.8724C164.967 88.5045 165.115 89.2502 165.115 90.1096C165.115 90.9761 164.967 91.7271 164.673 92.3628C164.378 92.9949 163.97 93.485 163.448 93.833C162.926 94.1774 162.324 94.3497 161.642 94.3497C161.116 94.3497 160.695 94.2627 160.379 94.0886C160.063 93.9111 159.82 93.7104 159.65 93.4867C159.479 93.2595 159.348 93.0712 159.255 92.9221H159.106V94.1792H157.892ZM159.128 90.0883C159.128 90.7062 159.218 91.2513 159.399 91.7236C159.58 92.1923 159.845 92.5599 160.193 92.8262C160.541 93.089 160.967 93.2204 161.471 93.2204C161.997 93.2204 162.436 93.0819 162.787 92.8049C163.142 92.5244 163.409 92.1479 163.586 91.6756C163.767 91.1998 163.858 90.6707 163.858 90.0883C163.858 89.513 163.769 88.9945 163.591 88.5329C163.417 88.0677 163.153 87.7002 162.798 87.4303C162.446 87.1568 162.004 87.0201 161.471 87.0201C160.96 87.0201 160.53 87.1497 160.182 87.409C159.834 87.6646 159.572 88.0233 159.394 88.485C159.216 88.943 159.128 89.4775 159.128 90.0883ZM170.362 94.3497C169.623 94.3497 168.975 94.1739 168.417 93.8223C167.863 93.4707 167.43 92.9789 167.118 92.3468C166.809 91.7147 166.654 90.9761 166.654 90.1309C166.654 89.2786 166.809 88.5347 167.118 87.899C167.43 87.2634 167.863 86.7698 168.417 86.4182C168.975 86.0666 169.623 85.8908 170.362 85.8908C171.1 85.8908 171.747 86.0666 172.301 86.4182C172.858 86.7698 173.291 87.2634 173.6 87.899C173.913 88.5347 174.069 89.2786 174.069 90.1309C174.069 90.9761 173.913 91.7147 173.6 92.3468C173.291 92.9789 172.858 93.4707 172.301 93.8223C171.747 94.1739 171.1 94.3497 170.362 94.3497ZM170.362 93.2204C170.923 93.2204 171.384 93.0766 171.747 92.7889C172.109 92.5013 172.377 92.1231 172.551 91.6543C172.725 91.1856 172.812 90.6778 172.812 90.1309C172.812 89.584 172.725 89.0744 172.551 88.6021C172.377 88.1298 172.109 87.7481 171.747 87.4569C171.384 87.1657 170.923 87.0201 170.362 87.0201C169.801 87.0201 169.339 87.1657 168.977 87.4569C168.614 87.7481 168.346 88.1298 168.172 88.6021C167.998 89.0744 167.911 89.584 167.911 90.1309C167.911 90.6778 167.998 91.1856 168.172 91.6543C168.346 92.1231 168.614 92.5013 168.977 92.7889C169.339 93.0766 169.801 93.2204 170.362 93.2204ZM179.312 94.3497C178.573 94.3497 177.925 94.1739 177.368 93.8223C176.814 93.4707 176.38 92.9789 176.068 92.3468C175.759 91.7147 175.604 90.9761 175.604 90.1309C175.604 89.2786 175.759 88.5347 176.068 87.899C176.38 87.2634 176.814 86.7698 177.368 86.4182C177.925 86.0666 178.573 85.8908 179.312 85.8908C180.05 85.8908 180.697 86.0666 181.251 86.4182C181.808 86.7698 182.242 87.2634 182.55 87.899C182.863 88.5347 183.019 89.2786 183.019 90.1309C183.019 90.9761 182.863 91.7147 182.55 92.3468C182.242 92.9789 181.808 93.4707 181.251 93.8223C180.697 94.1739 180.05 94.3497 179.312 94.3497ZM179.312 93.2204C179.873 93.2204 180.335 93.0766 180.697 92.7889C181.059 92.5013 181.327 92.1231 181.501 91.6543C181.675 91.1856 181.762 90.6778 181.762 90.1309C181.762 89.584 181.675 89.0744 181.501 88.6021C181.327 88.1298 181.059 87.7481 180.697 87.4569C180.335 87.1657 179.873 87.0201 179.312 87.0201C178.751 87.0201 178.289 87.1657 177.927 87.4569C177.565 87.7481 177.297 88.1298 177.123 88.6021C176.949 89.0744 176.862 89.584 176.862 90.1309C176.862 90.6778 176.949 91.1856 177.123 91.6543C177.297 92.1231 177.565 92.5013 177.927 92.7889C178.289 93.0766 178.751 93.2204 179.312 93.2204ZM186.11 91.1962L186.089 89.6408H186.344L189.924 85.9974H191.479L187.665 89.8539H187.559L186.11 91.1962ZM184.938 94.1792V83.2701H186.195V94.1792H184.938ZM190.137 94.1792L186.941 90.1309L187.836 89.2573L191.735 94.1792H190.137ZM193.097 94.1792V85.9974H194.354V94.1792H193.097ZM193.737 84.6337C193.492 84.6337 193.28 84.5503 193.103 84.3834C192.929 84.2165 192.842 84.0158 192.842 83.7815C192.842 83.5471 192.929 83.3465 193.103 83.1796C193.28 83.0127 193.492 82.9292 193.737 82.9292C193.982 82.9292 194.191 83.0127 194.365 83.1796C194.543 83.3465 194.631 83.5471 194.631 83.7815C194.631 84.0158 194.543 84.2165 194.365 84.3834C194.191 84.5503 193.982 84.6337 193.737 84.6337ZM197.914 89.2573V94.1792H196.657V85.9974H197.871V87.2758H197.978C198.17 86.8603 198.461 86.5265 198.852 86.2744C199.242 86.0187 199.746 85.8908 200.364 85.8908C200.918 85.8908 201.403 86.0045 201.818 86.2318C202.234 86.4555 202.557 86.7964 202.788 87.2545C203.019 87.709 203.134 88.2843 203.134 88.9803V94.1792H201.877V89.0656C201.877 88.4228 201.71 87.9221 201.376 87.5634C201.043 87.2012 200.584 87.0201 200.002 87.0201C199.601 87.0201 199.242 87.1071 198.926 87.2811C198.614 87.4551 198.367 87.709 198.186 88.0428C198.005 88.3766 197.914 88.7815 197.914 89.2573ZM208.734 97.4178C208.127 97.4178 207.605 97.3397 207.168 97.1835C206.731 97.0308 206.367 96.8283 206.076 96.5762C205.788 96.3276 205.559 96.0613 205.389 95.7772L206.39 95.0741C206.504 95.2232 206.648 95.3937 206.822 95.5854C206.996 95.7808 207.234 95.9494 207.535 96.0915C207.841 96.2371 208.24 96.3099 208.734 96.3099C209.394 96.3099 209.939 96.1501 210.369 95.8305C210.799 95.5109 211.014 95.0102 211.014 94.3283V92.6664H210.907C210.815 92.8156 210.683 93.0002 210.513 93.2204C210.346 93.437 210.105 93.6305 209.789 93.801C209.476 93.9679 209.053 94.0514 208.521 94.0514C207.86 94.0514 207.267 93.8951 206.742 93.5826C206.22 93.2701 205.806 92.8156 205.501 92.219C205.199 91.6224 205.048 90.8979 205.048 90.0457C205.048 89.2076 205.195 88.4778 205.49 87.8564C205.785 87.2314 206.195 86.7484 206.72 86.4075C207.246 86.0631 207.853 85.8908 208.542 85.8908C209.075 85.8908 209.497 85.9796 209.81 86.1572C210.126 86.3312 210.367 86.5301 210.534 86.7538C210.705 86.9739 210.836 87.1551 210.928 87.2971H211.056V85.9974H212.271V94.4136C212.271 95.1167 212.111 95.6884 211.791 96.1288C211.475 96.5727 211.049 96.8976 210.513 97.1036C209.98 97.3131 209.387 97.4178 208.734 97.4178ZM208.691 92.9221C209.196 92.9221 209.622 92.8067 209.97 92.5759C210.318 92.345 210.582 92.013 210.763 91.5798C210.944 91.1465 211.035 90.6281 211.035 90.0244C211.035 89.4349 210.946 88.9146 210.769 88.4636C210.591 88.0127 210.328 87.6593 209.98 87.4036C209.632 87.1479 209.203 87.0201 208.691 87.0201C208.159 87.0201 207.715 87.1551 207.36 87.4249C207.008 87.6948 206.743 88.057 206.566 88.5116C206.392 88.9661 206.305 89.4704 206.305 90.0244C206.305 90.5926 206.394 91.095 206.571 91.5318C206.752 91.9651 207.019 92.306 207.37 92.5546C207.725 92.7996 208.166 92.9221 208.691 92.9221Z" fill="white"/>
<path d="M302.387 103.293L301.372 103.293L301.372 96.2021L302.387 96.2021L302.387 99.1752L310.826 99.1752L310.826 100.32L302.387 100.32L302.387 103.293ZM310.955 92.3497C310.955 92.9714 310.842 93.5069 310.614 93.9562C310.386 94.4056 310.074 94.7518 309.677 94.9949C309.28 95.2381 308.826 95.3596 308.315 95.3596C307.921 95.3596 307.572 95.2765 307.267 95.1104C306.959 94.9411 306.674 94.7087 306.413 94.4133C306.148 94.1147 305.883 93.7716 305.619 93.3838L304.603 92.0173C304.428 91.7496 304.24 91.5357 304.04 91.3756C303.84 91.2125 303.578 91.1309 303.255 91.1309C303.015 91.1309 302.783 91.2371 302.558 91.4495C302.333 91.6588 302.221 91.9342 302.221 92.2758C302.221 92.5159 302.283 92.7282 302.406 92.9129C302.526 93.0945 302.68 93.2376 302.867 93.3422C303.052 93.4438 303.243 93.4946 303.44 93.4946C303.661 93.4946 303.886 93.4346 304.114 93.3145C304.338 93.1914 304.569 93.036 304.806 92.8483C305.04 92.6575 305.28 92.4605 305.526 92.2574L310.826 87.9179L310.826 89.229L306.505 92.8113C306.105 93.1437 305.742 93.4453 305.416 93.7162C305.089 93.987 304.768 94.2024 304.451 94.3625C304.134 94.5225 303.791 94.6025 303.421 94.6025C302.997 94.6025 302.624 94.5087 302.304 94.3209C301.981 94.1301 301.73 93.8639 301.552 93.5223C301.37 93.1776 301.279 92.7744 301.279 92.3128C301.279 91.8388 301.372 91.431 301.556 91.0894C301.738 90.7478 301.979 90.4846 302.281 90.3C302.58 90.1153 302.904 90.023 303.255 90.023C303.708 90.023 304.1 90.1353 304.432 90.36C304.765 90.5847 305.074 90.8909 305.36 91.2787L306.764 93.1622C307.078 93.5869 307.382 93.8747 307.678 94.0255C307.973 94.1763 308.186 94.2517 308.315 94.2517C308.61 94.2517 308.886 94.1747 309.141 94.0209C309.397 93.867 309.603 93.65 309.76 93.3699C309.917 93.0899 309.995 92.7621 309.995 92.3866C309.995 92.0296 309.92 91.6818 309.769 91.3433C309.615 91.0048 309.394 90.6985 309.104 90.4246C308.815 90.1476 308.467 89.9291 308.061 89.7691C307.655 89.606 307.198 89.5244 306.69 89.5244L306.69 88.4719C307.318 88.4719 307.83 88.5442 308.227 88.6888C308.624 88.8335 308.935 88.9966 309.16 89.1782C309.384 89.3598 309.552 89.5059 309.663 89.6167C309.709 89.6537 309.755 89.6875 309.801 89.7183C309.847 89.7491 309.894 89.7829 309.94 89.8199C310.281 90.1246 310.537 90.5093 310.706 90.974C310.872 91.4387 310.955 91.8973 310.955 92.3497ZM304.326 78.9561L304.326 80.101C303.997 80.1687 303.708 80.2872 303.458 80.4565C303.209 80.6227 303 80.8258 302.83 81.0659C302.658 81.3029 302.529 81.566 302.443 81.8553C302.356 82.1446 302.313 82.4462 302.313 82.7601C302.313 83.3326 302.458 83.8511 302.747 84.3159C303.037 84.7775 303.463 85.1453 304.026 85.4192C304.589 85.69 305.28 85.8255 306.099 85.8255C306.918 85.8255 307.608 85.69 308.172 85.4192C308.735 85.1453 309.161 84.7775 309.45 84.3159C309.74 83.8511 309.884 83.3326 309.884 82.7601C309.884 82.4462 309.841 82.1446 309.755 81.8553C309.669 81.566 309.541 81.3029 309.372 81.0659C309.2 80.8258 308.989 80.6227 308.74 80.4565C308.487 80.2872 308.198 80.1687 307.872 80.101L307.872 78.9561C308.355 79.0423 308.787 79.1993 309.169 79.427C309.55 79.6548 309.875 79.9379 310.143 80.2765C310.408 80.615 310.609 80.9951 310.748 81.4167C310.886 81.8353 310.955 82.2831 310.955 82.7601C310.955 83.5665 310.758 84.2836 310.365 84.9114C309.971 85.5392 309.41 86.0332 308.684 86.3933C307.958 86.7534 307.096 86.9334 306.099 86.9334C305.102 86.9334 304.24 86.7534 303.514 86.3933C302.787 86.0332 302.227 85.5392 301.833 84.9114C301.439 84.2836 301.242 83.5665 301.242 82.7601C301.242 82.2831 301.312 81.8353 301.45 81.4167C301.589 80.9951 301.792 80.615 302.059 80.2765C302.324 79.9379 302.647 79.6548 303.029 79.427C303.407 79.1993 303.84 79.0423 304.326 78.9561ZM310.826 73.0621L310.826 74.2623L301.372 70.7907L301.372 69.6089L310.826 66.1373L310.826 67.3376L302.867 70.1629L302.867 70.2368L310.826 73.0621ZM307.133 72.6189L307.133 67.7808L308.149 67.7808L308.149 72.6189L307.133 72.6189ZM313.485 64.8124L303.735 64.8124L303.735 63.7599L304.862 63.7599L304.862 63.6306C304.739 63.5506 304.582 63.4398 304.391 63.2982C304.197 63.1536 304.025 62.9474 303.874 62.6796C303.72 62.4088 303.643 62.0425 303.643 61.5809C303.643 60.9838 303.792 60.4575 304.091 60.002C304.389 59.5465 304.812 59.1911 305.36 58.9356C305.908 58.6802 306.554 58.5525 307.299 58.5525C308.05 58.5525 308.701 58.6802 309.252 58.9356C309.8 59.1911 310.224 59.545 310.526 59.9974C310.825 60.4498 310.974 60.9715 310.974 61.5624C310.974 62.0179 310.898 62.3826 310.748 62.6565C310.594 62.9304 310.42 63.1412 310.226 63.289C310.029 63.4367 309.866 63.5506 309.737 63.6306L309.737 63.7229L313.485 63.7229L313.485 64.8124ZM307.281 63.7414C307.816 63.7414 308.289 63.6629 308.698 63.5059C309.104 63.349 309.423 63.1197 309.654 62.8181C309.881 62.5165 309.995 62.1472 309.995 61.7101C309.995 61.2546 309.875 60.8746 309.635 60.5699C309.392 60.2621 309.066 60.0313 308.656 59.8774C308.244 59.7204 307.785 59.642 307.281 59.642C306.782 59.642 306.333 59.7189 305.933 59.8728C305.53 60.0236 305.211 60.2529 304.977 60.5606C304.74 60.8653 304.622 61.2485 304.622 61.7101C304.622 62.1533 304.734 62.5257 304.959 62.8273C305.18 63.1289 305.491 63.3567 305.891 63.5106C306.288 63.6644 306.751 63.7414 307.281 63.7414ZM313.485 56.8905L303.735 56.8905L303.735 55.838L304.862 55.838L304.862 55.7087C304.739 55.6287 304.582 55.5179 304.391 55.3763C304.197 55.2317 304.025 55.0255 303.874 54.7577C303.72 54.4869 303.643 54.1206 303.643 53.659C303.643 53.0619 303.792 52.5357 304.091 52.0802C304.389 51.6247 304.812 51.2692 305.36 51.0138C305.908 50.7583 306.554 50.6306 307.299 50.6306C308.05 50.6306 308.701 50.7583 309.252 51.0138C309.8 51.2692 310.224 51.6231 310.526 52.0755C310.825 52.528 310.974 53.0496 310.974 53.6405C310.974 54.096 310.898 54.4607 310.748 54.7346C310.594 55.0086 310.42 55.2194 310.226 55.3671C310.029 55.5148 309.866 55.6287 309.737 55.7087L309.737 55.801L313.485 55.801L313.485 56.8905ZM307.281 55.8195C307.816 55.8195 308.289 55.741 308.698 55.5841C309.104 55.4271 309.423 55.1978 309.654 54.8962C309.881 54.5946 309.995 54.2253 309.995 53.7883C309.995 53.3328 309.875 52.9527 309.635 52.648C309.392 52.3402 309.066 52.1094 308.656 51.9555C308.244 51.7986 307.785 51.7201 307.281 51.7201C306.782 51.7201 306.333 51.797 305.933 51.9509C305.53 52.1017 305.211 52.331 304.977 52.6388C304.74 52.9434 304.622 53.3266 304.622 53.7883C304.622 54.2314 304.734 54.6038 304.959 54.9055C305.18 55.2071 305.491 55.4348 305.891 55.5887C306.288 55.7426 306.751 55.8195 307.281 55.8195ZM301.372 47.8792L310.826 47.8792L310.826 48.9687L301.372 48.9687L301.372 47.8792ZM310.826 45.8837L303.735 45.8837L303.735 44.7942L310.826 44.7942L310.826 45.8837ZM302.553 45.3297C302.553 45.5421 302.481 45.7252 302.336 45.8791C302.192 46.0299 302.018 46.1053 301.815 46.1053C301.612 46.1053 301.438 46.0299 301.293 45.8791C301.148 45.7252 301.076 45.5421 301.076 45.3297C301.076 45.1174 301.148 44.9358 301.293 44.785C301.438 44.6311 301.612 44.5542 301.815 44.5542C302.018 44.5542 302.192 44.6311 302.336 44.785C302.481 44.9358 302.553 45.1174 302.553 45.3297ZM310.974 39.8257C310.974 40.509 310.823 41.0983 310.521 41.5938C310.217 42.0863 309.792 42.4664 309.247 42.7341C308.7 42.9988 308.062 43.1311 307.336 43.1311C306.61 43.1311 305.97 42.9988 305.416 42.7341C304.859 42.4664 304.425 42.094 304.114 41.6169C303.8 41.1368 303.643 40.5767 303.643 39.9365C303.643 39.5672 303.704 39.2025 303.828 38.8424C303.951 38.4823 304.151 38.1546 304.428 37.8591C304.702 37.5637 305.065 37.3282 305.517 37.1528C305.97 36.9774 306.527 36.8896 307.188 36.8896L307.65 36.8896L307.65 42.3556L306.708 42.3556L306.708 37.9976C306.308 37.9976 305.951 38.0776 305.637 38.2377C305.323 38.3946 305.076 38.6193 304.894 38.9117C304.712 39.201 304.622 39.5426 304.622 39.9365C304.622 40.3705 304.729 40.7459 304.945 41.0629C305.157 41.3769 305.434 41.6185 305.776 41.7877C306.117 41.957 306.484 42.0416 306.874 42.0416L307.502 42.0416C308.038 42.0416 308.492 41.9493 308.864 41.7646C309.233 41.5769 309.515 41.3168 309.709 40.9845C309.9 40.6521 309.995 40.2658 309.995 39.8257C309.995 39.5395 309.955 39.281 309.875 39.0502C309.792 38.8163 309.669 38.6147 309.506 38.4454C309.34 38.2761 309.133 38.1453 308.887 38.053L309.183 37.0004C309.54 37.1112 309.854 37.2974 310.124 37.559C310.392 37.8206 310.602 38.1438 310.752 38.5285C310.9 38.9132 310.974 39.3456 310.974 39.8257ZM305.323 30.2096L305.6 31.1883C305.437 31.2499 305.279 31.3406 305.125 31.4607C304.968 31.5776 304.839 31.7377 304.737 31.9408C304.635 32.1439 304.585 32.404 304.585 32.721C304.585 33.1549 304.685 33.5165 304.885 33.8058C305.082 34.0921 305.333 34.2352 305.637 34.2352C305.908 34.2352 306.122 34.1367 306.279 33.9397C306.436 33.7427 306.567 33.435 306.671 33.0164L306.93 31.9639C307.084 31.3299 307.319 30.8575 307.636 30.5466C307.95 30.2358 308.355 30.0803 308.85 30.0803C309.257 30.0803 309.62 30.1973 309.94 30.4312C310.26 30.662 310.512 30.9852 310.697 31.4007C310.882 31.8161 310.974 32.2993 310.974 32.8502C310.974 33.5735 310.817 34.1721 310.503 34.646C310.189 35.12 309.731 35.4201 309.127 35.5463L308.869 34.5122C309.25 34.4137 309.537 34.2275 309.727 33.9536C309.918 33.6766 310.014 33.315 310.014 32.8687C310.014 32.3609 309.906 31.9577 309.691 31.6592C309.472 31.3576 309.21 31.2068 308.906 31.2068C308.66 31.2068 308.453 31.2929 308.287 31.4653C308.118 31.6376 307.992 31.9023 307.909 32.2593L307.632 33.4411C307.478 34.0905 307.239 34.5676 306.916 34.8722C306.59 35.1739 306.182 35.3247 305.693 35.3247C305.293 35.3247 304.939 35.2123 304.631 34.9877C304.323 34.7599 304.081 34.4506 303.906 34.0597C303.731 33.6658 303.643 33.2195 303.643 32.721C303.643 32.0193 303.797 31.4684 304.105 31.0683C304.412 30.6651 304.819 30.3789 305.323 30.2096Z" fill="white"/>
<path d="M55.9727 65.1792H53.8846L61.8214 43.361H63.9521L71.8889 65.1792H69.8008L62.9613 45.9498H62.8121L55.9727 65.1792ZM57.4748 56.8163H68.2987V58.606H57.4748V56.8163ZM75.6282 65.1792V43.361H88.2844V45.1508H77.6204V53.3646H87.6133V55.1543H77.6204V63.3894H88.4975V65.1792H75.6282ZM99.8327 65.1792H93.4407V43.361H100.216C102.297 43.361 104.076 43.7943 105.554 44.6607C107.038 45.5272 108.174 46.7701 108.963 48.3894C109.751 50.0087 110.145 51.9512 110.145 54.2168C110.145 56.5038 109.74 58.4676 108.931 60.1082C108.128 61.7417 106.956 62.9953 105.415 63.8688C103.881 64.7424 102.02 65.1792 99.8327 65.1792ZM95.4329 63.3894H99.7156C101.591 63.3894 103.16 63.0201 104.424 62.2815C105.689 61.5428 106.637 60.4881 107.269 59.1174C107.901 57.7467 108.217 56.1131 108.217 54.2168C108.21 52.3347 107.897 50.7154 107.279 49.3589C106.669 48.0024 105.76 46.9619 104.552 46.2374C103.352 45.513 101.868 45.1508 100.099 45.1508H95.4329V63.3894ZM128.853 65.4775C127.262 65.4775 125.845 65.2041 124.602 64.6572C123.366 64.1032 122.39 63.3433 121.672 62.3774C120.962 61.4043 120.596 60.2822 120.575 59.0109H125.22C125.248 59.5435 125.422 60.0123 125.742 60.4171C126.069 60.8149 126.502 61.1238 127.042 61.344C127.581 61.5641 128.189 61.6742 128.863 61.6742C129.566 61.6742 130.188 61.5499 130.728 61.3014C131.267 61.0528 131.69 60.7083 131.995 60.268C132.301 59.8276 132.453 59.3198 132.453 58.7445C132.453 58.1622 132.29 57.6472 131.963 57.1998C131.644 56.7452 131.182 56.3901 130.578 56.1345C129.982 55.8788 129.272 55.7509 128.448 55.7509H126.413V52.3631H128.448C129.144 52.3631 129.758 52.2424 130.291 52.0009C130.831 51.7595 131.25 51.4256 131.548 50.9995C131.846 50.5663 131.995 50.062 131.995 49.4867C131.995 48.9399 131.864 48.4604 131.601 48.0485C131.346 47.6295 130.983 47.3028 130.515 47.0684C130.053 46.834 129.513 46.7168 128.895 46.7168C128.27 46.7168 127.699 46.8305 127.18 47.0577C126.662 47.2779 126.246 47.594 125.934 48.0059C125.621 48.4178 125.454 48.9008 125.433 49.4548H121.012C121.033 48.1977 121.392 47.0897 122.088 46.1309C122.784 45.1721 123.721 44.4228 124.9 43.883C126.086 43.3362 127.425 43.0627 128.917 43.0627C130.422 43.0627 131.74 43.3362 132.869 43.883C133.998 44.4299 134.875 45.1685 135.5 46.0989C136.132 47.0222 136.445 48.0592 136.438 49.2097C136.445 50.4313 136.065 51.4505 135.298 52.2673C134.538 53.084 133.547 53.6025 132.326 53.8227V53.9931C133.931 54.1991 135.152 54.7566 135.99 55.6657C136.836 56.5677 137.255 57.697 137.248 59.0535C137.255 60.2964 136.896 61.4008 136.172 62.3667C135.454 63.3326 134.463 64.0926 133.199 64.6465C131.935 65.2005 130.486 65.4775 128.853 65.4775ZM149.118 65.6586C147.286 65.6515 145.709 65.2005 144.388 64.3056C143.074 63.4107 142.062 62.1146 141.352 60.4171C140.649 58.7197 140.301 56.6778 140.308 54.2914C140.308 51.9122 140.659 49.8845 141.362 48.2083C142.073 46.5322 143.085 45.2573 144.399 44.3837C145.72 43.5031 147.293 43.0627 149.118 43.0627C150.943 43.0627 152.513 43.5031 153.827 44.3837C155.148 45.2644 156.164 46.5428 156.874 48.219C157.584 49.888 157.936 51.9122 157.928 54.2914C157.928 56.6849 157.573 58.7303 156.863 60.4278C156.16 62.1252 155.151 63.4214 153.838 64.3163C152.524 65.2112 150.95 65.6586 149.118 65.6586ZM149.118 61.834C150.368 61.834 151.366 61.2055 152.112 59.9484C152.857 58.6913 153.227 56.8056 153.22 54.2914C153.22 52.6366 153.049 51.2587 152.708 50.1579C152.374 49.057 151.899 48.2296 151.281 47.6756C150.67 47.1217 149.949 46.8447 149.118 46.8447C147.875 46.8447 146.881 47.4661 146.135 48.709C145.389 49.9519 145.013 51.8127 145.006 54.2914C145.006 55.9676 145.173 57.3667 145.507 58.4889C145.847 59.6039 146.327 60.442 146.945 61.0031C147.563 61.557 148.287 61.834 149.118 61.834ZM188.339 54.2701C188.339 56.6494 187.888 58.6735 186.986 60.3426C186.091 62.0116 184.869 63.2864 183.321 64.1671C181.78 65.0407 180.047 65.4775 178.122 65.4775C176.183 65.4775 174.443 65.0372 172.902 64.1565C171.361 63.2758 170.143 62.0009 169.248 60.3319C168.353 58.6629 167.905 56.6423 167.905 54.2701C167.905 51.8908 168.353 49.8667 169.248 48.1977C170.143 46.5286 171.361 45.2573 172.902 44.3837C174.443 43.5031 176.183 43.0627 178.122 43.0627C180.047 43.0627 181.78 43.5031 183.321 44.3837C184.869 45.2573 186.091 46.5286 186.986 48.1977C187.888 49.8667 188.339 51.8908 188.339 54.2701ZM183.662 54.2701C183.662 52.7289 183.431 51.4292 182.969 50.371C182.515 49.3127 181.872 48.5102 181.041 47.9633C180.21 47.4164 179.237 47.143 178.122 47.143C177.007 47.143 176.034 47.4164 175.203 47.9633C174.372 48.5102 173.726 49.3127 173.264 50.371C172.809 51.4292 172.582 52.7289 172.582 54.2701C172.582 55.8113 172.809 57.111 173.264 58.1693C173.726 59.2275 174.372 60.0301 175.203 60.5769C176.034 61.1238 177.007 61.3972 178.122 61.3972C179.237 61.3972 180.21 61.1238 181.041 60.5769C181.872 60.0301 182.515 59.2275 182.969 58.1693C183.431 57.111 183.662 55.8113 183.662 54.2701ZM191.756 65.1792V43.361H206.202V47.1643H196.369V52.3631H205.243V56.1664H196.369V65.1792H191.756ZM209.305 65.1792V43.361H223.751V47.1643H213.917V52.3631H222.792V56.1664H213.917V65.1792H209.305Z" fill="white"/>
<path opacity="0.4" d="M267.848 1.22266L267.848 133.136" stroke="white" stroke-linecap="round" stroke-dasharray="3 3"/>
</svg>
