<svg width="348" height="219" viewBox="0 0 348 219" fill="none" xmlns="http://www.w3.org/2000/svg">
<mask id="mask0_991_3282" style="mask-type:alpha" maskUnits="userSpaceOnUse" x="0" y="0" width="348" height="219">
<rect width="347.848" height="219" rx="15" fill="url(#paint0_linear_991_3282)"/>
</mask>
<g mask="url(#mask0_991_3282)">
<rect width="347.848" height="219" rx="15" fill="url(#paint1_linear_991_3282)"/>
<g opacity="0.04">
<path d="M297.309 259.85C294.449 255.903 296.153 244.914 325.838 232.532C355.524 220.15 351.138 191.863 345.235 179.268C337.614 162.684 330.06 126.67 360.817 115.281C399.264 101.046 372.957 47.3635 368.673 35.7784C359.059 9.77358 374.361 -26.7085 404.406 -5.24502" stroke="url(#paint2_linear_991_3282)"/>
<path d="M290.927 259.076C288.068 255.129 289.771 244.14 319.456 231.758C349.142 219.376 344.756 191.089 338.853 178.494C331.232 161.91 323.679 125.896 354.436 114.507C392.882 100.272 366.575 46.5893 362.292 35.0042C352.677 8.99941 367.979 -27.4827 398.024 -6.01919" stroke="url(#paint3_linear_991_3282)"/>
<path d="M284.545 258.302C281.686 254.355 283.389 243.366 313.074 230.984C342.76 218.602 338.375 190.315 332.471 177.72C324.85 161.136 317.297 125.122 348.054 113.733C386.5 99.4976 360.193 45.8154 355.91 34.2303C346.295 8.22549 361.597 -28.2566 391.642 -6.79311" stroke="url(#paint4_linear_991_3282)"/>
<path d="M278.163 257.528C275.304 253.581 277.007 242.592 306.693 230.21C336.378 217.828 331.993 189.541 326.089 176.946C318.468 160.362 310.915 124.348 341.672 112.959C380.118 98.7237 353.811 45.0415 349.528 33.4564C339.913 7.45156 355.215 -29.0305 385.26 -7.56704" stroke="url(#paint5_linear_991_3282)"/>
<path d="M271.782 256.754C268.923 252.807 270.626 241.818 300.312 229.436C329.997 217.053 325.612 188.767 319.709 176.172C312.087 159.588 304.534 123.574 335.291 112.185C373.737 97.9495 347.43 44.2673 343.147 32.6822C333.533 6.67739 348.834 -29.8047 378.879 -8.34121" stroke="url(#paint6_linear_991_3282)"/>
<path d="M265.4 255.98C262.541 252.033 264.244 241.044 293.93 228.662C323.615 216.279 319.23 187.993 313.327 175.397C305.705 158.814 298.152 122.799 328.909 111.411C367.356 97.1754 341.048 43.4931 336.765 31.908C327.151 5.90322 342.452 -30.5788 372.497 -9.11538" stroke="url(#paint7_linear_991_3282)"/>
<path d="M259.019 255.206C256.16 251.259 257.864 240.27 287.549 227.888C317.235 215.505 312.849 187.219 306.946 174.623C299.325 158.04 291.771 122.025 322.528 110.637C360.975 96.4014 334.668 42.7192 330.384 31.1341C320.77 5.1293 336.072 -31.3528 366.117 -9.8893" stroke="url(#paint8_linear_991_3282)"/>
<path d="M252.638 254.431C249.779 250.485 251.482 239.496 281.167 227.114C310.853 214.731 306.467 186.445 300.564 173.849C292.943 157.266 285.39 121.251 316.147 109.863C354.593 95.6273 328.286 41.945 324.003 30.3599C314.388 4.35513 329.69 -32.1269 359.735 -10.6635" stroke="url(#paint9_linear_991_3282)"/>
<path d="M246.256 253.657C243.397 249.711 245.1 238.722 274.785 226.339C304.471 213.957 300.086 185.671 294.182 173.075C286.561 156.491 279.008 120.477 309.765 109.089C348.211 94.8531 321.904 41.1709 317.621 29.5858C308.006 3.58096 323.308 -32.9011 353.353 -11.4376" stroke="url(#paint10_linear_991_3282)"/>
<path d="M239.874 252.883C237.015 248.937 238.718 237.948 268.404 225.566C298.089 213.183 293.704 184.897 287.8 172.301C280.179 155.718 272.626 119.703 303.383 108.315C341.829 94.0792 315.522 40.3969 311.239 28.8118C301.624 2.80703 316.926 -33.675 346.971 -12.2116" stroke="url(#paint11_linear_991_3282)"/>
<path d="M233.492 252.109C230.633 248.163 232.336 237.174 262.022 224.791C291.707 212.409 287.322 184.122 281.418 171.527C273.797 154.943 266.244 118.929 297.001 107.541C335.447 93.305 309.14 39.6228 304.857 28.0377C295.243 2.03286 310.544 -34.4492 340.589 -12.9857" stroke="url(#paint12_linear_991_3282)"/>
<path d="M227.111 251.335C224.252 247.389 225.955 236.4 255.641 224.017C285.326 211.635 280.941 183.349 275.038 170.753C267.416 154.169 259.863 118.155 290.62 106.767C329.066 92.5311 302.759 38.8488 298.476 27.2637C288.862 1.25894 304.163 -35.2231 334.208 -13.7597" stroke="url(#paint13_linear_991_3282)"/>
<path d="M220.729 250.561C217.87 246.614 219.573 235.626 249.259 223.243C278.945 210.861 274.559 182.574 268.656 169.979C261.035 153.395 253.481 117.381 284.238 105.992C322.685 91.7569 296.378 38.0747 292.094 26.4896C282.48 0.484766 297.781 -35.9973 327.827 -14.5338" stroke="url(#paint14_linear_991_3282)"/>
<path d="M214.348 249.787C211.488 245.841 213.192 234.852 242.877 222.469C272.563 210.087 268.177 181.8 262.274 169.205C254.653 152.621 247.1 116.607 277.857 105.219C316.303 90.983 289.996 37.3007 285.712 25.7156C276.098 -0.28916 291.4 -36.7712 321.445 -15.3078" stroke="url(#paint15_linear_991_3282)"/>
<path d="M207.967 249.013C205.108 245.066 206.811 234.078 236.496 221.695C266.182 209.313 261.796 181.026 255.893 168.431C248.272 151.847 240.719 115.833 271.476 104.444C309.922 90.2088 283.615 36.5266 279.332 24.9415C269.717 -1.06333 285.019 -37.5454 315.064 -16.0819" stroke="url(#paint16_linear_991_3282)"/>
<path d="M201.585 248.239C198.726 244.292 200.429 233.304 230.115 220.921C259.8 208.539 255.415 180.252 249.511 167.657C241.89 151.073 234.337 115.059 265.094 103.67C303.54 89.4349 277.233 35.7527 272.95 24.1675C263.335 -1.83726 278.637 -38.3193 308.682 -16.8559" stroke="url(#paint17_linear_991_3282)"/>
<path d="M195.204 247.465C192.345 243.518 194.048 232.529 223.734 220.147C253.419 207.765 249.034 179.478 243.13 166.883C235.509 150.299 227.956 114.285 258.713 102.896C297.159 88.6607 270.852 34.9785 266.569 23.3934C256.954 -2.61143 272.256 -39.0935 302.301 -17.63" stroke="url(#paint18_linear_991_3282)"/>
<path d="M188.821 246.691C185.962 242.744 187.665 231.755 217.351 219.373C247.036 206.99 242.651 178.704 236.748 166.109C229.126 149.525 221.573 113.511 252.33 102.122C290.776 87.8865 264.469 34.2043 260.186 22.6192C250.572 -3.3856 265.873 -39.8677 295.918 -18.4042" stroke="url(#paint19_linear_991_3282)"/>
<path d="M182.44 245.917C179.581 241.97 181.284 230.981 210.97 218.599C240.656 206.216 236.27 177.93 230.367 165.334C222.746 148.751 215.192 112.736 245.949 101.348C284.396 87.1124 258.088 33.4301 253.805 21.845C244.191 -4.15977 259.492 -40.6418 289.538 -19.1784" stroke="url(#paint20_linear_991_3282)"/>
<path d="M176.059 245.143C173.199 241.196 174.903 230.207 204.588 217.825C234.274 205.442 229.888 177.156 223.985 164.56C216.364 147.977 208.81 111.962 239.567 100.574C278.014 86.3385 251.707 32.6562 247.423 21.0711C237.809 -4.93369 253.111 -41.4158 283.156 -19.9523" stroke="url(#paint21_linear_991_3282)"/>
<path d="M169.678 244.369C166.819 240.422 168.522 229.433 198.207 217.051C227.893 204.668 223.507 176.382 217.604 163.787C209.983 147.203 202.43 111.189 233.187 99.8001C271.633 85.5645 245.326 31.8823 241.043 20.2972C231.428 -5.70762 246.73 -42.1897 276.775 -20.7262" stroke="url(#paint22_linear_991_3282)"/>
<path d="M163.296 243.594C160.437 239.648 162.14 228.659 191.825 216.277C221.511 203.894 217.126 175.608 211.222 163.012C203.601 146.429 196.048 110.414 226.805 99.0259C265.251 84.7904 238.944 31.1081 234.661 19.523C225.046 -6.48179 240.348 -42.9639 270.393 -21.5004" stroke="url(#paint23_linear_991_3282)"/>
<path d="M156.914 242.821C154.055 238.874 155.758 227.885 185.444 215.503C215.129 203.12 210.744 174.834 204.84 162.238C197.219 145.655 189.666 109.64 220.423 98.252C258.869 84.0164 232.562 30.3342 228.279 18.7491C218.664 -7.25571 233.966 -43.7378 264.011 -22.2743" stroke="url(#paint24_linear_991_3282)"/>
<path d="M150.532 242.046C147.673 238.1 149.376 227.111 179.062 214.729C208.747 202.346 204.362 174.06 198.459 161.464C190.837 144.881 183.284 108.866 214.041 97.4778C252.487 83.2423 226.18 29.56 221.897 17.9749C212.283 -8.02988 227.584 -44.512 257.629 -23.0485" stroke="url(#paint25_linear_991_3282)"/>
<path d="M144.151 241.272C141.292 237.326 142.995 226.337 172.681 213.954C202.366 201.572 197.981 173.286 192.078 160.69C184.456 144.106 176.903 108.092 207.66 96.7037C246.107 82.4681 219.799 28.7859 215.516 17.2007C205.902 -8.80405 221.203 -45.2861 251.248 -23.8227" stroke="url(#paint26_linear_991_3282)"/>
<path d="M137.769 240.498C134.91 236.552 136.614 225.563 166.299 213.18C195.985 200.798 191.599 172.512 185.696 159.916C178.075 143.333 170.521 107.318 201.278 95.9297C239.725 81.6942 213.418 28.0119 209.134 16.4268C199.52 -9.57798 214.822 -46.06 244.867 -24.5966" stroke="url(#paint27_linear_991_3282)"/>
<path d="M131.388 239.724C128.529 235.778 130.232 224.789 159.917 212.406C189.603 200.024 185.217 171.737 179.314 159.142C171.693 142.558 164.14 106.544 194.897 95.1556C233.343 80.92 207.036 27.2378 202.753 15.6527C193.138 -10.3521 208.44 -46.8342 238.485 -25.3707" stroke="url(#paint28_linear_991_3282)"/>
<path d="M125.007 238.95C122.148 235.004 123.851 224.015 153.536 211.632C183.222 199.25 178.837 170.964 172.933 158.368C165.312 141.784 157.759 105.77 188.516 94.3816C226.962 80.1461 200.655 26.4638 196.372 14.8787C186.757 -11.1261 202.059 -47.6081 232.104 -26.1447" stroke="url(#paint29_linear_991_3282)"/>
<path d="M118.625 238.176C115.766 234.229 117.469 223.241 147.155 210.858C176.84 198.476 172.455 170.189 166.551 157.594C158.93 141.01 151.377 104.996 182.134 93.6075C220.58 79.3719 194.273 25.6897 189.99 14.1046C180.375 -11.9002 195.677 -48.3823 225.722 -26.9188" stroke="url(#paint30_linear_991_3282)"/>
<path d="M112.243 237.402C109.384 233.455 111.087 222.466 140.773 210.084C170.458 197.702 166.073 169.415 160.169 156.82C152.548 140.236 144.995 104.222 175.752 92.8333C214.198 78.5977 187.891 24.9155 183.608 13.3304C173.994 -12.6744 189.295 -49.1565 219.34 -27.693" stroke="url(#paint31_linear_991_3282)"/>
<path d="M105.861 236.628C103.002 232.681 104.705 221.693 134.391 209.31C164.076 196.928 159.691 168.641 153.788 156.046C146.166 139.462 138.613 103.448 169.37 92.0594C207.816 77.8238 181.509 24.1416 177.226 12.5565C167.612 -13.4483 182.913 -49.9304 212.958 -28.4669" stroke="url(#paint32_linear_991_3282)"/>
<path d="M99.4794 235.854C96.6203 231.907 98.3235 220.918 128.009 208.536C157.695 196.154 153.309 167.867 147.406 155.272C139.785 138.688 132.231 102.674 162.988 91.2852C201.435 77.0496 175.128 23.3674 170.844 11.7823C161.23 -14.2225 176.531 -50.7046 206.577 -29.2411" stroke="url(#paint33_linear_991_3282)"/>
<path d="M93.0986 235.08C90.2395 231.133 91.9426 220.144 121.628 207.762C151.314 195.38 146.928 167.093 141.025 154.498C133.404 137.914 125.851 101.9 156.608 90.5113C195.054 76.2757 168.747 22.5935 164.463 11.0084C154.849 -14.9964 170.151 -51.4785 200.196 -30.015" stroke="url(#paint34_linear_991_3282)"/>
<path d="M86.7167 234.306C83.8576 230.359 85.5608 219.37 115.246 206.988C144.932 194.605 140.546 166.319 134.643 153.724C127.022 137.14 119.469 101.126 150.226 89.7371C188.672 75.5015 162.365 21.8193 158.082 10.2342C148.467 -15.7706 163.769 -52.2527 193.814 -30.7892" stroke="url(#paint35_linear_991_3282)"/>
<path d="M80.3359 233.532C77.4768 229.585 79.1799 218.596 108.865 206.214C138.551 193.831 134.166 165.545 128.262 152.949C120.641 136.366 113.088 100.351 143.845 88.9629C182.291 74.7274 155.984 21.0451 151.701 9.46002C142.086 -16.5448 157.388 -53.0268 187.433 -31.5634" stroke="url(#paint36_linear_991_3282)"/>
<path d="M73.954 232.758C71.0949 228.811 72.7981 217.822 102.484 205.44C132.169 193.057 127.784 164.771 121.88 152.175C114.259 135.592 106.706 99.5775 137.463 88.189C175.909 73.9534 149.602 20.2712 145.319 8.6861C135.704 -17.3187 151.006 -53.8008 181.051 -32.3373" stroke="url(#paint37_linear_991_3282)"/>
<path d="M67.5722 231.983C64.7131 228.037 66.4163 217.048 96.1018 204.666C125.787 192.283 121.402 163.997 115.499 151.401C107.877 134.818 100.324 98.8033 131.081 87.4148C169.527 73.1793 143.22 19.497 138.937 7.91193C129.323 -18.0929 144.624 -54.5749 174.669 -33.1115" stroke="url(#paint38_linear_991_3282)"/>
<path d="M61.1914 231.209C58.3322 227.263 60.0354 216.274 89.7209 203.892C119.406 191.509 115.021 163.223 109.118 150.627C101.496 134.044 93.9433 98.0294 124.7 86.6409C163.147 72.4053 136.839 18.7231 132.556 7.138C122.942 -18.8668 138.243 -55.3489 168.288 -33.8854" stroke="url(#paint39_linear_991_3282)"/>
<path d="M54.8085 230.436C51.9494 226.489 53.6526 215.5 83.3381 203.118C113.024 190.735 108.638 162.449 102.735 149.853C95.1137 133.27 87.5605 97.2555 118.317 85.867C156.764 71.6314 130.457 17.9492 126.173 6.36408C116.559 -19.6407 131.861 -56.1228 161.906 -34.6593" stroke="url(#paint40_linear_991_3282)"/>
<path d="M48.4277 229.661C45.5686 225.715 47.2717 214.726 76.9573 202.343C106.643 189.961 102.257 161.674 96.354 149.079C88.7328 132.495 81.1796 96.481 111.937 85.0926C150.383 70.857 124.076 17.1748 119.793 5.58966C110.178 -20.4151 125.48 -56.8972 155.525 -35.4337" stroke="url(#paint41_linear_991_3282)"/>
<path d="M42.0458 228.887C39.1867 224.941 40.8899 213.952 70.5754 201.569C100.261 189.187 95.8756 160.901 89.9722 148.305C82.351 131.721 74.7978 95.7071 105.555 84.3187C144.001 70.0831 117.694 16.4008 113.411 4.81574C103.796 -21.1891 119.098 -57.6711 149.143 -36.2077" stroke="url(#paint42_linear_991_3282)"/>
<path d="M35.665 228.113C32.8059 224.167 34.509 213.178 64.1946 200.795C93.8801 188.413 89.4947 160.127 83.5913 147.531C75.9701 130.948 68.4169 94.9332 99.1739 83.5447C137.62 69.3092 111.313 15.6269 107.03 4.04181C97.4154 -21.963 112.717 -58.4451 142.762 -36.9816" stroke="url(#paint43_linear_991_3282)"/>
<path d="M29.2831 227.339C26.424 223.393 28.1272 212.404 57.8127 200.021C87.4983 187.639 83.1129 159.352 77.2095 146.757C69.5883 130.173 62.0351 94.159 92.7921 82.7706C131.238 68.535 104.931 14.8527 100.648 3.26764C91.0336 -22.7372 106.335 -59.2192 136.38 -37.7558" stroke="url(#paint44_linear_991_3282)"/>
<path d="M22.9013 226.565C20.0422 222.619 21.7454 211.63 51.4309 199.247C81.1164 186.865 76.7311 158.579 70.8277 145.983C63.2064 129.399 55.6533 93.3851 86.4103 81.9966C124.857 67.7611 98.5494 14.0788 94.2662 2.49372C84.6517 -23.5111 99.9534 -59.9932 129.998 -38.5297" stroke="url(#paint45_linear_991_3282)"/>
<path d="M16.5195 225.791C13.6604 221.844 15.3635 210.855 45.0491 198.473C74.7346 186.091 70.3492 157.804 64.4458 145.209C56.8246 128.625 49.2714 92.6107 80.0284 81.2222C118.475 66.9866 92.1676 13.3044 87.8844 1.7193C78.2699 -24.2855 93.5715 -60.7676 123.617 -39.3041" stroke="url(#paint46_linear_991_3282)"/>
<path d="M10.1376 225.017C7.27853 221.07 8.9817 210.081 38.6672 197.699C68.3528 185.317 63.9674 157.03 58.064 144.435C50.4428 127.851 42.8896 91.8368 73.6466 80.4483C112.093 66.2127 85.7858 12.5305 81.5025 0.945375C71.8881 -25.0594 87.1897 -61.5415 117.235 -40.078" stroke="url(#paint47_linear_991_3282)"/>
<path d="M3.75678 224.243C0.897672 220.296 2.60084 209.308 32.2864 196.925C61.9719 184.543 57.5865 156.256 51.6831 143.661C44.0619 127.077 36.5087 91.0628 67.2657 79.6744C105.712 65.4388 79.4049 11.7566 75.1217 0.17145C65.5072 -25.8333 80.8088 -62.3154 110.854 -40.8519" stroke="url(#paint48_linear_991_3282)"/>
<path d="M-2.62506 223.469C-5.48416 219.522 -3.781 208.533 25.9045 196.151C55.5901 183.769 51.2047 155.482 45.3013 142.887C37.6801 126.303 30.1269 90.2887 60.8839 78.9002C99.3301 64.6646 73.0231 10.9824 68.7398 -0.60272C59.1254 -26.6075 74.427 -63.0896 104.472 -41.6261" stroke="url(#paint49_linear_991_3282)"/>
<path d="M-9.00591 222.695C-11.865 218.748 -10.1619 207.759 19.5237 195.377C49.2092 182.995 44.8238 154.708 38.9204 142.113C31.2992 125.529 23.746 89.5147 54.503 78.1263C92.9493 63.8907 66.6422 10.2085 62.359 -1.37665C52.7445 -27.3814 68.0461 -63.8635 98.0912 -42.4" stroke="url(#paint50_linear_991_3282)"/>
<path d="M-15.3878 221.921C-18.2469 217.974 -16.5437 206.985 13.1418 194.603C42.8274 182.22 38.442 153.934 32.5386 141.339C24.9174 124.755 17.3642 88.7406 48.1212 77.3521C86.5674 63.1165 60.2604 9.43429 55.9771 -2.15082C46.3627 -28.1556 61.6643 -64.6377 91.7094 -43.1742" stroke="url(#paint51_linear_991_3282)"/>
<path d="M-21.7696 221.146C-24.6287 217.2 -22.9255 206.211 6.76001 193.829C36.4456 181.446 32.0602 153.16 26.1568 140.564C18.5355 123.981 10.9824 87.9664 41.7394 76.5779C80.1856 62.3424 53.8785 8.66012 49.5953 -2.92499C39.9808 -28.9298 55.2825 -65.4119 85.3276 -43.9484" stroke="url(#paint52_linear_991_3282)"/>
<path d="M-28.1514 220.373C-31.0105 216.426 -29.3074 205.437 0.378175 193.055C30.0637 180.672 25.6783 152.386 19.7749 139.79C12.1537 123.207 4.60053 87.1925 35.3575 75.804C73.8038 61.5684 47.4967 7.8862 43.2135 -3.69891C33.599 -29.7037 48.9006 -66.1858 78.9457 -44.7223" stroke="url(#paint53_linear_991_3282)"/>
<path d="M-34.5323 219.598C-37.3914 215.652 -35.6882 204.663 -6.00268 192.281C23.6829 179.898 19.2975 151.612 13.3941 139.016C5.77285 122.433 -1.78033 86.4183 28.9767 75.0298C67.4229 60.7943 41.1158 7.11203 36.8326 -4.47308C27.2182 -30.4779 42.5198 -66.96 72.5649 -45.4965" stroke="url(#paint54_linear_991_3282)"/>
<path d="M-40.9141 218.824C-43.7732 214.878 -42.0701 203.889 -12.3845 191.507C17.301 179.124 12.9156 150.838 7.01223 138.242C-0.608982 121.659 -8.16216 85.6444 22.5948 74.2559C61.0411 60.0203 34.734 6.3381 30.4508 -5.24701C20.8363 -31.2518 36.1379 -67.7339 66.183 -46.2704" stroke="url(#paint55_linear_991_3282)"/>
<path d="M-47.295 218.05C-50.1541 214.104 -48.4509 203.115 -18.7654 190.732C10.9202 178.35 6.53476 150.064 0.631374 137.468C-6.98984 120.885 -14.543 84.8702 16.214 73.4817C54.6602 59.2462 28.3531 5.56393 24.0699 -6.02118C14.4555 -32.026 29.7571 -68.508 59.8022 -47.0446" stroke="url(#paint56_linear_991_3282)"/>
<path d="M-53.6768 217.276C-56.5359 213.33 -54.8328 202.341 -25.1472 189.958C4.53832 177.576 0.152928 149.289 -5.75046 136.694C-13.3717 120.11 -20.9249 84.096 9.83214 72.7076C48.2784 58.472 21.9713 4.78976 17.6881 -6.79535C8.07362 -32.8001 23.3752 -69.2822 53.4203 -47.8187" stroke="url(#paint57_linear_991_3282)"/>
<path d="M-60.0586 216.502C-62.9178 212.556 -61.2146 201.567 -31.5291 189.184C-1.84351 176.802 -6.22891 148.516 -12.1323 135.92C-19.7535 119.336 -27.3067 83.3221 3.4503 71.9336C41.8965 57.6981 15.5895 4.01583 11.3062 -7.56927C1.69179 -33.5741 16.9934 -70.0561 47.0385 -48.5927" stroke="url(#paint58_linear_991_3282)"/>
<path d="M-66.4395 215.728C-69.2986 211.782 -67.5955 200.793 -37.9099 188.41C-8.22437 176.028 -12.6098 147.742 -18.5132 135.146C-26.1344 118.563 -33.6876 82.5482 -2.93056 71.1597C35.5157 56.9241 9.20861 3.24191 4.92538 -8.3432C-4.68907 -34.348 10.6125 -70.8301 40.6576 -49.3666" stroke="url(#paint59_linear_991_3282)"/>
<path d="M-72.8223 214.954C-75.6814 211.007 -73.9783 200.019 -44.2927 187.636C-14.6072 175.254 -18.9926 146.967 -24.896 134.372C-32.5172 117.788 -40.0704 81.774 -9.31337 70.3855C29.1329 56.15 2.8258 2.46774 -1.45743 -9.11737C-11.0719 -35.1222 4.22974 -71.6042 34.2748 -50.1408" stroke="url(#paint60_linear_991_3282)"/>
<path d="M-79.2032 214.18C-82.0623 210.233 -80.3591 199.245 -50.6736 186.862C-20.988 174.48 -25.3734 146.193 -31.2768 133.598C-38.898 117.014 -46.4512 80.9998 -15.6942 69.6114C22.752 55.3758 -3.55506 1.69357 -7.83829 -9.89154C-17.4527 -35.8963 -2.15112 -72.3784 27.894 -50.9149" stroke="url(#paint61_linear_991_3282)"/>
</g>
</g>
<path d="M125.993 169.5C125.891 169.189 125.757 168.911 125.591 168.664C125.428 168.415 125.232 168.203 125.005 168.027C124.78 167.852 124.524 167.718 124.238 167.626C123.952 167.533 123.638 167.487 123.297 167.487C122.736 167.487 122.227 167.632 121.768 167.921C121.31 168.21 120.945 168.637 120.674 169.2C120.404 169.763 120.268 170.454 120.268 171.273C120.268 172.091 120.405 172.782 120.679 173.346C120.953 173.909 121.324 174.335 121.792 174.624C122.259 174.914 122.786 175.058 123.37 175.058C123.912 175.058 124.389 174.943 124.801 174.712C125.217 174.478 125.54 174.149 125.771 173.724C126.005 173.296 126.122 172.793 126.122 172.214L126.473 172.288L123.629 172.288L123.629 171.273L127.23 171.273L127.23 172.288C127.23 173.067 127.064 173.744 126.731 174.32C126.402 174.895 125.946 175.341 125.365 175.658C124.786 175.972 124.121 176.129 123.37 176.129C122.533 176.129 121.798 175.932 121.164 175.538C120.533 175.144 120.04 174.584 119.686 173.858C119.336 173.132 119.16 172.27 119.16 171.273C119.16 170.525 119.26 169.852 119.46 169.255C119.663 168.655 119.95 168.144 120.319 167.723C120.688 167.301 121.125 166.978 121.63 166.753C122.135 166.529 122.69 166.416 123.297 166.416C123.795 166.416 124.26 166.492 124.691 166.642C125.125 166.79 125.511 167.001 125.849 167.275C126.191 167.546 126.476 167.87 126.703 168.249C126.931 168.624 127.088 169.041 127.174 169.5L125.993 169.5ZM135.535 166.545L135.535 176L134.391 176L134.391 166.545L135.535 166.545ZM143.031 176L143.031 166.545L148.7 166.545L148.7 167.561L144.176 167.561L144.176 170.756L148.275 170.756L148.275 171.771L144.176 171.771L144.176 176L143.031 176ZM155.344 167.561L155.344 166.545L162.435 166.545L162.435 167.561L159.462 167.561L159.462 176L158.317 176L158.317 167.561L155.344 167.561ZM185.866 169.5L184.721 169.5C184.653 169.171 184.535 168.881 184.366 168.632C184.199 168.383 183.996 168.174 183.756 168.004C183.519 167.832 183.256 167.703 182.967 167.616C182.677 167.53 182.376 167.487 182.062 167.487C181.49 167.487 180.971 167.632 180.506 167.921C180.045 168.21 179.677 168.637 179.403 169.2C179.132 169.763 178.997 170.454 178.997 171.273C178.997 172.091 179.132 172.782 179.403 173.346C179.677 173.909 180.045 174.335 180.506 174.624C180.971 174.914 181.49 175.058 182.062 175.058C182.376 175.058 182.677 175.015 182.967 174.929C183.256 174.843 183.519 174.715 183.756 174.546C183.996 174.373 184.199 174.163 184.366 173.913C184.535 173.661 184.653 173.372 184.721 173.045L185.866 173.045C185.78 173.529 185.623 173.961 185.395 174.343C185.167 174.724 184.884 175.049 184.546 175.317C184.207 175.581 183.827 175.783 183.405 175.922C182.987 176.06 182.539 176.129 182.062 176.129C181.256 176.129 180.539 175.932 179.911 175.538C179.283 175.144 178.789 174.584 178.429 173.858C178.069 173.132 177.889 172.27 177.889 171.273C177.889 170.276 178.069 169.414 178.429 168.687C178.789 167.961 179.283 167.401 179.911 167.007C180.539 166.613 181.256 166.416 182.062 166.416C182.539 166.416 182.987 166.485 183.405 166.624C183.827 166.762 184.207 166.966 184.546 167.233C184.884 167.498 185.167 167.821 185.395 168.203C185.623 168.581 185.78 169.014 185.866 169.5ZM193.304 176L192.103 176L195.575 166.545L196.757 166.545L200.228 176L199.028 176L196.203 168.041L196.129 168.041L193.304 176ZM193.747 172.307L198.585 172.307L198.585 173.322L193.747 173.322L193.747 172.307ZM206.901 176L206.901 166.545L210.096 166.545C210.834 166.545 211.441 166.672 211.915 166.924C212.389 167.173 212.739 167.516 212.967 167.953C213.195 168.391 213.309 168.888 213.309 169.445C213.309 170.002 213.195 170.496 212.967 170.926C212.739 171.357 212.39 171.696 211.919 171.942C211.448 172.185 210.847 172.307 210.114 172.307L207.529 172.307L207.529 171.273L210.077 171.273C210.582 171.273 210.988 171.199 211.296 171.051C211.607 170.903 211.832 170.694 211.97 170.423C212.112 170.149 212.182 169.823 212.182 169.445C212.182 169.066 212.112 168.735 211.97 168.452C211.828 168.169 211.602 167.95 211.291 167.797C210.981 167.64 210.57 167.561 210.059 167.561L208.046 167.561L208.046 176L206.901 176ZM211.351 171.753L213.678 176L212.349 176L210.059 171.753L211.351 171.753ZM223.334 176L220.417 176L220.417 166.545L223.463 166.545C224.381 166.545 225.165 166.735 225.818 167.113C226.47 167.489 226.97 168.029 227.318 168.734C227.666 169.435 227.84 170.276 227.84 171.254C227.84 172.239 227.664 173.087 227.314 173.798C226.963 174.506 226.452 175.051 225.781 175.432C225.11 175.811 224.294 176 223.334 176ZM221.561 174.984L223.26 174.984C224.042 174.984 224.69 174.834 225.204 174.532C225.718 174.23 226.101 173.801 226.353 173.244C226.606 172.687 226.732 172.024 226.732 171.254C226.732 170.491 226.607 169.834 226.358 169.283C226.109 168.729 225.736 168.304 225.241 168.009C224.745 167.71 224.128 167.561 223.39 167.561L221.561 167.561L221.561 174.984Z" fill="#ECC7C2"/>
<g clip-path="url(#clip0_991_3282)">
<path d="M110.638 65.9705H109.188V57.6517C109.192 56.7142 109.012 55.7852 108.658 54.9193C108.318 54.0806 107.826 53.3143 107.207 52.6604C106.587 52.0091 105.848 51.4854 105.031 51.1183C104.19 50.7376 103.278 50.5435 102.357 50.5487H102.288C101.366 50.5433 100.455 50.7375 99.6135 51.1183C98.7964 51.479 98.0555 51.9961 97.4312 52.6412C96.8119 53.2949 96.3197 54.0613 95.9806 54.9001C95.6264 55.766 95.4462 56.695 95.4508 57.6325L95.4823 65.9513H94.0001V57.6325C93.9945 56.544 94.2092 55.4659 94.6308 54.465C95.4716 52.4475 97.0329 50.8269 99.0017 49.928C100.006 49.4604 101.095 49.2098 102.199 49.1921H102.395C103.482 49.2068 104.555 49.4463 105.548 49.896C106.51 50.3316 107.383 50.9458 108.122 51.707C108.866 52.4773 109.465 53.3795 109.888 54.369C110.331 55.4006 110.577 56.508 110.613 57.6325L110.638 65.9705Z" fill="white"/>
<path d="M214.51 57.6325C214.473 56.5308 214.689 55.4353 215.141 54.433C215.58 53.4218 216.201 52.502 216.97 51.7198C217.743 50.9365 218.658 50.3109 219.663 49.8768C220.657 49.4368 221.732 49.2185 222.817 49.2369V50.7087C221.897 50.7022 220.987 50.8896 220.142 51.259C218.506 51.968 217.201 53.2875 216.497 54.9449C216.132 55.7944 215.947 56.7122 215.955 57.6389V66.0025H214.504L214.51 57.6325Z" fill="white"/>
<path d="M252.732 66.0022H251.281V57.6322C251.285 56.7101 251.101 55.797 250.739 54.951C250.389 54.123 249.891 53.3679 249.269 52.7242C248.647 52.0845 247.908 51.5737 247.093 51.2204C246.249 50.8509 245.339 50.6635 244.419 50.6701C243.506 50.6628 242.601 50.8503 241.764 51.2204C240.955 51.5766 240.22 52.0871 239.601 52.7242C238.982 53.3631 238.484 54.1113 238.131 54.9318C237.766 55.7815 237.582 56.6992 237.589 57.6258C237.582 58.5586 237.767 59.4825 238.131 60.3391C238.83 61.9989 240.13 63.323 241.764 64.0377C242.601 64.4076 243.506 64.5951 244.419 64.588C244.723 64.5875 245.027 64.5639 245.327 64.5176C245.624 64.4729 245.914 64.4153 246.204 64.3513C246.304 64.673 246.427 64.9874 246.57 65.2919C246.598 65.4459 246.653 65.5934 246.734 65.7271C246.36 65.8386 245.978 65.922 245.592 65.9766C245.204 66.0325 244.812 66.0603 244.419 66.0598C243.319 66.0742 242.228 65.8563 241.215 65.4199C240.226 64.9907 239.329 64.3714 238.572 63.5962C237.82 62.8214 237.215 61.9125 236.788 60.915C236.357 59.9057 236.132 58.8184 236.127 57.7187C236.122 56.619 236.336 55.5295 236.756 54.5159C237.166 53.5118 237.754 52.5923 238.49 51.8027C239.233 50.9945 240.124 50.3422 241.114 49.883C242.153 49.4123 243.281 49.1765 244.419 49.1919C245.519 49.178 246.61 49.3959 247.623 49.8318C249.625 50.7038 251.219 52.3237 252.076 54.3559C252.506 55.3835 252.721 56.4905 252.707 57.6066L252.732 66.0022Z" fill="white"/>
<path d="M132.493 66.7894C137.334 66.7894 141.259 62.8071 141.259 57.8947C141.259 52.9823 137.334 49 132.493 49C127.651 49 123.726 52.9823 123.726 57.8947C123.726 62.8071 127.651 66.7894 132.493 66.7894Z" fill="#E29A8F"/>
<path d="M162.408 66.7894C167.249 66.7894 171.174 62.8071 171.174 57.8947C171.174 52.9823 167.249 49 162.408 49C157.566 49 153.641 52.9823 153.641 57.8947C153.641 62.8071 157.566 66.7894 162.408 66.7894Z" fill="#C67D71"/>
<path d="M192.322 66.7894C197.163 66.7894 201.089 62.8071 201.089 57.8947C201.089 52.9823 197.163 49 192.322 49C187.48 49 183.555 52.9823 183.555 57.8947C183.555 62.8071 187.48 66.7894 192.322 66.7894Z" fill="#9E5A57"/>
<path d="M116.258 78.9861H117.872C118.432 78.9436 118.991 79.0753 119.474 79.3636C119.646 79.4953 119.783 79.6684 119.872 79.8673C119.962 80.0663 120 80.2847 119.985 80.5027C119.996 80.8203 119.886 81.13 119.676 81.3665C119.43 81.615 119.107 81.7708 118.762 81.8081C119.146 81.8422 119.509 82.0016 119.796 82.2624C119.913 82.3927 120.002 82.5453 120.06 82.7113C120.117 82.8772 120.141 83.0531 120.13 83.2287C120.145 83.4702 120.103 83.7117 120.009 83.9339C119.915 84.1562 119.771 84.353 119.588 84.5085C119.143 84.8328 118.602 84.9911 118.055 84.9564H116.258V78.9861ZM116.668 81.6353H117.967C118.388 81.6682 118.808 81.57 119.172 81.3537C119.301 81.2507 119.404 81.1167 119.47 80.9637C119.536 80.8107 119.563 80.6435 119.55 80.4771C119.562 80.3079 119.53 80.1384 119.455 79.9865C119.381 79.8345 119.268 79.7056 119.128 79.6132C118.739 79.4099 118.303 79.3171 117.866 79.3444H116.668V81.6353ZM116.668 82.0064V84.5661H118.055C119.144 84.5661 119.689 84.116 119.689 83.2159C119.689 82.3968 119.115 81.9872 117.967 81.9872L116.668 82.0064Z" fill="white"/>
<path d="M127.132 84.9628H123.915V78.9861H127.132V79.37H124.319V81.6353H126.968V82.0192H124.319V84.5789H127.125L127.132 84.9628Z" fill="white"/>
<path d="M133.772 82.8575H131.382L130.581 84.9628H130.127L132.473 78.9604H132.738L135.059 84.9628H134.592L133.772 82.8575ZM131.527 82.4799H133.634L132.833 80.3554C132.765 80.1848 132.686 79.9502 132.593 79.6516C132.526 79.8906 132.446 80.1256 132.353 80.3554L131.527 82.4799Z" fill="white"/>
<path d="M142.697 78.9859V82.8254C142.714 83.1207 142.671 83.4164 142.57 83.6939C142.469 83.9715 142.313 84.2248 142.111 84.438C141.889 84.6404 141.63 84.7961 141.348 84.896C141.067 84.996 140.769 85.0382 140.471 85.0203C140.179 85.048 139.884 85.01 139.608 84.9087C139.332 84.8075 139.081 84.6457 138.874 84.4347C138.666 84.2238 138.508 83.969 138.409 83.6886C138.31 83.4082 138.273 83.1091 138.301 82.8126V78.9731H138.717V82.8126C138.694 83.0586 138.724 83.3068 138.807 83.5394C138.889 83.7721 139.021 83.9832 139.194 84.1577C139.366 84.3321 139.575 84.4656 139.805 84.5483C140.034 84.6311 140.279 84.6612 140.521 84.6363C140.753 84.6588 140.986 84.6303 141.206 84.5527C141.426 84.4752 141.626 84.3504 141.794 84.1869C141.961 84.0235 142.092 83.8252 142.178 83.6057C142.263 83.3862 142.3 83.1505 142.287 82.915V78.9859H142.697Z" fill="white"/>
<path d="M148.31 84.9628H147.894V79.3764H146.002V78.9861H150.247V79.3764H148.355L148.31 84.9628Z" fill="white"/>
<path d="M154.927 82.2752L156.649 79.0053H157.09L155.129 82.6719V84.9628H154.706V82.6847L152.738 78.9861H153.211L154.927 82.2752Z" fill="white"/>
<path d="M167.541 79.2739C167.216 79.2565 166.891 79.3117 166.589 79.4355C166.288 79.5593 166.016 79.7488 165.794 79.9906C165.347 80.5436 165.122 81.2474 165.164 81.9615C165.129 82.6786 165.353 83.3839 165.794 83.9453C166.009 84.1866 166.275 84.3758 166.572 84.4987C166.869 84.6217 167.19 84.6753 167.51 84.6556C167.971 84.6603 168.43 84.5956 168.872 84.4636V84.8347C168.402 84.9873 167.909 85.0587 167.415 85.0459C167.05 85.0645 166.686 85.0014 166.348 84.8609C166.01 84.7204 165.707 84.5061 165.46 84.2332C164.952 83.5925 164.698 82.7824 164.747 81.9615C164.736 81.4065 164.852 80.8565 165.088 80.3554C165.301 79.906 165.641 79.5316 166.065 79.2803C166.517 79.0218 167.029 78.8914 167.548 78.9028C168.08 78.8928 168.608 79.0043 169.093 79.2291L168.929 79.6067C168.5 79.3839 168.024 79.2697 167.541 79.2739Z" fill="white"/>
<path d="M177.576 81.9682C177.615 82.7718 177.366 83.5625 176.876 84.195C176.625 84.4576 176.325 84.6664 175.993 84.809C175.661 84.9516 175.304 85.025 174.943 85.025C174.583 85.025 174.226 84.9516 173.894 84.809C173.562 84.6664 173.261 84.4576 173.01 84.195C172.514 83.5535 172.265 82.7505 172.31 81.9362C172.272 81.1326 172.526 80.3428 173.023 79.7157C173.274 79.4557 173.575 79.2491 173.906 79.1081C174.238 78.9671 174.593 78.8945 174.953 78.8945C175.312 78.8945 175.668 78.9671 175.999 79.1081C176.33 79.2491 176.631 79.4557 176.883 79.7157C177.376 80.3559 177.623 81.1567 177.576 81.9682ZM172.758 81.9682C172.713 82.6754 172.911 83.3766 173.319 83.9519C173.53 84.1731 173.782 84.349 174.061 84.4692C174.34 84.5893 174.64 84.6512 174.943 84.6512C175.246 84.6512 175.546 84.5893 175.825 84.4692C176.104 84.349 176.357 84.1731 176.567 83.9519C176.976 83.3746 177.175 82.6711 177.129 81.9618C177.176 81.2543 176.977 80.5524 176.567 79.9781C176.356 79.7586 176.104 79.5843 175.826 79.4652C175.547 79.3461 175.248 79.2848 174.946 79.2848C174.644 79.2848 174.345 79.3461 174.067 79.4652C173.788 79.5843 173.536 79.7586 173.325 79.9781C172.91 80.5523 172.709 81.2575 172.758 81.9682Z" fill="white"/>
<path d="M185.694 84.9628H185.277L181.79 79.658H181.758C181.792 80.2894 181.808 80.7672 181.808 81.0914V84.9628H181.411V78.9861H181.821L185.309 84.2845C185.284 83.7939 185.271 83.3268 185.271 82.8831V78.9861H185.668L185.694 84.9628Z" fill="white"/>
<path d="M192.347 79.274C192.022 79.2566 191.697 79.3118 191.395 79.4356C191.093 79.5594 190.822 79.7489 190.6 79.9907C190.153 80.5437 189.927 81.2475 189.969 81.9616C189.934 82.6788 190.158 83.3843 190.6 83.9454C190.815 84.1864 191.081 84.3753 191.378 84.4982C191.675 84.6211 191.995 84.6749 192.315 84.6557C192.776 84.6604 193.236 84.5957 193.678 84.4637V84.8348C193.207 84.9874 192.715 85.0588 192.221 85.046C191.856 85.0651 191.492 85.0021 191.154 84.8616C190.816 84.7211 190.512 84.5066 190.266 84.2333C189.758 83.5926 189.503 82.7825 189.553 81.9616C189.534 81.4087 189.642 80.8589 189.868 80.3555C190.081 79.9061 190.422 79.5317 190.846 79.2804C191.3 79.0211 191.814 78.8906 192.334 78.9029C192.867 78.8927 193.395 79.0042 193.88 79.2292L193.716 79.6068C193.292 79.387 192.823 79.2729 192.347 79.274Z" fill="white"/>
<path d="M197.438 84.9628V78.9861H197.847V84.9628H197.438Z" fill="white"/>
<path d="M205.208 84.9628H201.991V78.9861H205.208V79.37H202.401V81.6353H205.05V82.0192H202.401V84.5789H205.208V84.9628Z" fill="white"/>
<path d="M209.421 82.3584V84.9628H209.011V78.9861H210.411C210.981 78.9412 211.549 79.0849 212.032 79.3956C212.21 79.5442 212.35 79.7338 212.441 79.9486C212.533 80.1635 212.572 80.3973 212.555 80.6306C212.567 80.9963 212.456 81.3551 212.24 81.6481C211.998 81.9465 211.665 82.1557 211.294 82.2432L212.896 84.9628H212.404L210.884 82.3584H209.421ZM209.421 82H210.543C210.955 82.0247 211.363 81.9049 211.698 81.6609C211.838 81.5385 211.948 81.3845 212.019 81.2111C212.091 81.0378 212.121 80.8499 212.108 80.6626C212.123 80.4766 212.095 80.2896 212.024 80.117C211.954 79.9445 211.844 79.7915 211.704 79.6708C211.31 79.4297 210.851 79.32 210.392 79.3572H209.421V82Z" fill="white"/>
<path d="M218.717 81.9488H220.887V84.6748C220.287 84.9249 219.643 85.051 218.995 85.046C218.603 85.0721 218.21 85.0145 217.842 84.8767C217.473 84.7388 217.138 84.524 216.856 84.2461C216.33 83.6167 216.063 82.805 216.112 81.9808C216.1 81.4187 216.226 80.8625 216.478 80.3618C216.715 79.9014 217.082 79.5228 217.531 79.274C218.016 79.0115 218.559 78.8793 219.108 78.89C219.703 78.8794 220.293 79.0018 220.836 79.2484L220.672 79.6259C220.175 79.3895 219.632 79.2672 219.083 79.2676C218.742 79.2504 218.401 79.3065 218.082 79.4322C217.764 79.5579 217.475 79.7504 217.235 79.9971C216.761 80.5373 216.516 81.2456 216.554 81.968C216.494 82.7018 216.721 83.43 217.184 83.9965C217.437 84.2349 217.736 84.4181 218.061 84.5347C218.387 84.6514 218.732 84.6991 219.077 84.6748C219.547 84.6877 220.016 84.6095 220.458 84.4444V82.3455H218.704L218.717 81.9488Z" fill="white"/>
<path d="M228.058 84.9628H224.842V78.9861H228.058V79.37H225.252V81.6353H227.901V82.0192H225.252V84.5789H228.058V84.9628Z" fill="white"/>
</g>
<g clip-path="url(#clip1_991_3282)">
<path d="M163.299 138H183.706C183.747 137.989 183.786 137.973 183.827 137.967C184.917 137.811 185.811 137.313 186.496 136.47C187.097 135.731 187.372 134.878 187.371 133.933C187.369 130.03 187.371 126.126 187.371 122.223C187.371 122.156 187.371 122.09 187.371 122.008C187.632 122.008 187.875 122.011 188.118 122.007C188.655 121.999 188.998 121.675 188.998 121.164C189.001 119.054 189.001 116.943 188.996 114.833C188.996 114.711 188.97 114.58 188.92 114.47C188.76 114.117 188.453 113.996 188.079 113.997C186.415 113.997 184.752 113.997 183.089 113.997C183.028 113.997 182.967 113.997 182.912 113.997C182.905 113.97 182.901 113.963 182.902 113.961C182.921 113.936 182.941 113.911 182.961 113.887C183.285 113.504 183.55 113.084 183.739 112.622C184.24 111.4 184.234 110.173 183.728 108.958C183.351 108.052 182.73 107.329 181.897 106.789C180.823 106.094 179.635 105.885 178.379 106.057C176.281 106.344 174.688 107.398 173.583 109.167C173.56 109.204 173.533 109.239 173.5 109.286C173.472 109.244 173.453 109.219 173.438 109.193C172.999 108.454 172.439 107.817 171.741 107.308C170.293 106.252 168.673 105.804 166.882 106.092C165.735 106.277 164.789 106.85 164.043 107.723C163.274 108.624 162.895 109.672 162.9 110.844C162.903 111.755 163.159 112.601 163.663 113.369C163.799 113.577 163.955 113.773 164.118 113.997C164.04 113.997 163.979 113.997 163.918 113.997C162.259 113.997 160.601 113.996 158.943 113.997C158.329 113.997 158.006 114.312 158.006 114.91C158.005 116.974 158.013 119.037 158 121.101C157.997 121.574 158.297 122.028 158.934 122.009C159.161 122.003 159.389 122.008 159.634 122.008C159.634 122.09 159.634 122.156 159.634 122.222C159.634 126.11 159.633 129.998 159.637 133.886C159.638 134.176 159.646 134.474 159.71 134.756C160.071 136.34 161.047 137.378 162.635 137.851C162.852 137.915 163.077 137.951 163.299 138ZM185.742 122.017V122.188C185.742 126.102 185.743 130.016 185.739 133.929C185.739 134.151 185.718 134.379 185.664 134.594C185.395 135.678 184.415 136.406 183.238 136.407C180.326 136.408 177.414 136.407 174.502 136.407C174.445 136.407 174.389 136.407 174.332 136.407V122.017H185.742ZM172.671 122.018V136.402C172.628 136.404 172.597 136.407 172.566 136.407C169.611 136.407 166.657 136.41 163.702 136.402C163.446 136.401 163.179 136.36 162.938 136.278C161.88 135.921 161.264 135.047 161.264 133.927C161.262 130.013 161.263 126.1 161.263 122.186C161.263 122.131 161.268 122.076 161.271 122.018H172.671ZM159.639 115.615H187.364V120.39H159.639V115.615ZM174.328 113.983C174.328 113.391 174.321 112.818 174.332 112.245C174.336 112.002 174.357 111.755 174.405 111.516C174.803 109.521 176.346 108.031 178.376 107.679C179.022 107.567 179.668 107.56 180.293 107.785C182.423 108.553 183.159 111.032 181.762 112.785C181.149 113.554 180.324 113.978 179.314 113.985C177.699 113.997 176.084 113.989 174.469 113.989C174.428 113.989 174.387 113.985 174.328 113.983ZM172.686 113.982C172.617 113.986 172.576 113.989 172.534 113.989C170.935 113.989 169.337 113.99 167.738 113.987C167.553 113.987 167.364 113.982 167.183 113.946C165.31 113.572 164.148 111.789 164.646 109.991C165.002 108.708 165.885 107.925 167.221 107.662C167.892 107.529 168.56 107.61 169.202 107.813C170.953 108.369 172.07 109.533 172.546 111.274C172.789 112.159 172.636 113.067 172.686 113.982Z" fill="#C67D71"/>
</g>
<line opacity="0.1" x1="118" y1="157.5" x2="228" y2="157.5" stroke="white"/>
<line opacity="0.1" x1="118" y1="185.5" x2="228" y2="185.5" stroke="white"/>
<defs>
<linearGradient id="paint0_linear_991_3282" x1="20.3477" y1="22.5441" x2="306.645" y2="192.034" gradientUnits="userSpaceOnUse">
<stop stop-color="#3F2E2C"/>
<stop offset="0.515358" stop-color="#4A3A39"/>
<stop offset="1" stop-color="#241D1D"/>
</linearGradient>
<linearGradient id="paint1_linear_991_3282" x1="20.3477" y1="22.5441" x2="306.645" y2="192.034" gradientUnits="userSpaceOnUse">
<stop stop-color="#3F2E2C"/>
<stop offset="0.515358" stop-color="#4A3A39"/>
<stop offset="1" stop-color="#241D1D"/>
</linearGradient>
<linearGradient id="paint2_linear_991_3282" x1="364.218" y1="-14.6901" x2="330.43" y2="263.867" gradientUnits="userSpaceOnUse">
<stop/>
<stop offset="0.48" stop-color="#EBC9C4"/>
<stop offset="1" stop-color="#5D2E28"/>
</linearGradient>
<linearGradient id="paint3_linear_991_3282" x1="357.836" y1="-15.4643" x2="324.048" y2="263.093" gradientUnits="userSpaceOnUse">
<stop/>
<stop offset="0.48" stop-color="#EBC9C4"/>
<stop offset="1" stop-color="#5D2E28"/>
</linearGradient>
<linearGradient id="paint4_linear_991_3282" x1="351.454" y1="-16.2382" x2="317.666" y2="262.319" gradientUnits="userSpaceOnUse">
<stop/>
<stop offset="0.48" stop-color="#EBC9C4"/>
<stop offset="1" stop-color="#5D2E28"/>
</linearGradient>
<linearGradient id="paint5_linear_991_3282" x1="345.072" y1="-17.0121" x2="311.284" y2="261.545" gradientUnits="userSpaceOnUse">
<stop/>
<stop offset="0.48" stop-color="#EBC9C4"/>
<stop offset="1" stop-color="#5D2E28"/>
</linearGradient>
<linearGradient id="paint6_linear_991_3282" x1="338.692" y1="-17.7863" x2="304.903" y2="260.771" gradientUnits="userSpaceOnUse">
<stop/>
<stop offset="0.48" stop-color="#EBC9C4"/>
<stop offset="1" stop-color="#5D2E28"/>
</linearGradient>
<linearGradient id="paint7_linear_991_3282" x1="332.31" y1="-18.5605" x2="298.521" y2="259.997" gradientUnits="userSpaceOnUse">
<stop/>
<stop offset="0.48" stop-color="#EBC9C4"/>
<stop offset="1" stop-color="#5D2E28"/>
</linearGradient>
<linearGradient id="paint8_linear_991_3282" x1="325.929" y1="-19.3344" x2="292.141" y2="259.223" gradientUnits="userSpaceOnUse">
<stop/>
<stop offset="0.48" stop-color="#EBC9C4"/>
<stop offset="1" stop-color="#5D2E28"/>
</linearGradient>
<linearGradient id="paint9_linear_991_3282" x1="319.547" y1="-20.1085" x2="285.759" y2="258.449" gradientUnits="userSpaceOnUse">
<stop/>
<stop offset="0.48" stop-color="#EBC9C4"/>
<stop offset="1" stop-color="#5D2E28"/>
</linearGradient>
<linearGradient id="paint10_linear_991_3282" x1="313.165" y1="-20.8827" x2="279.377" y2="257.675" gradientUnits="userSpaceOnUse">
<stop/>
<stop offset="0.48" stop-color="#EBC9C4"/>
<stop offset="1" stop-color="#5D2E28"/>
</linearGradient>
<linearGradient id="paint11_linear_991_3282" x1="306.783" y1="-21.6566" x2="272.995" y2="256.901" gradientUnits="userSpaceOnUse">
<stop/>
<stop offset="0.48" stop-color="#EBC9C4"/>
<stop offset="1" stop-color="#5D2E28"/>
</linearGradient>
<linearGradient id="paint12_linear_991_3282" x1="300.402" y1="-22.4308" x2="266.613" y2="256.127" gradientUnits="userSpaceOnUse">
<stop/>
<stop offset="0.48" stop-color="#EBC9C4"/>
<stop offset="1" stop-color="#5D2E28"/>
</linearGradient>
<linearGradient id="paint13_linear_991_3282" x1="294.021" y1="-23.2047" x2="260.232" y2="255.353" gradientUnits="userSpaceOnUse">
<stop/>
<stop offset="0.48" stop-color="#EBC9C4"/>
<stop offset="1" stop-color="#5D2E28"/>
</linearGradient>
<linearGradient id="paint14_linear_991_3282" x1="287.639" y1="-23.9789" x2="253.85" y2="254.579" gradientUnits="userSpaceOnUse">
<stop/>
<stop offset="0.48" stop-color="#EBC9C4"/>
<stop offset="1" stop-color="#5D2E28"/>
</linearGradient>
<linearGradient id="paint15_linear_991_3282" x1="281.257" y1="-24.7528" x2="247.469" y2="253.805" gradientUnits="userSpaceOnUse">
<stop/>
<stop offset="0.48" stop-color="#EBC9C4"/>
<stop offset="1" stop-color="#5D2E28"/>
</linearGradient>
<linearGradient id="paint16_linear_991_3282" x1="274.876" y1="-25.527" x2="241.088" y2="253.03" gradientUnits="userSpaceOnUse">
<stop/>
<stop offset="0.48" stop-color="#EBC9C4"/>
<stop offset="1" stop-color="#5D2E28"/>
</linearGradient>
<linearGradient id="paint17_linear_991_3282" x1="268.494" y1="-26.3009" x2="234.706" y2="252.257" gradientUnits="userSpaceOnUse">
<stop/>
<stop offset="0.48" stop-color="#EBC9C4"/>
<stop offset="1" stop-color="#5D2E28"/>
</linearGradient>
<linearGradient id="paint18_linear_991_3282" x1="262.113" y1="-27.0751" x2="228.325" y2="251.482" gradientUnits="userSpaceOnUse">
<stop/>
<stop offset="0.48" stop-color="#EBC9C4"/>
<stop offset="1" stop-color="#5D2E28"/>
</linearGradient>
<linearGradient id="paint19_linear_991_3282" x1="255.731" y1="-27.8493" x2="221.942" y2="250.708" gradientUnits="userSpaceOnUse">
<stop/>
<stop offset="0.48" stop-color="#EBC9C4"/>
<stop offset="1" stop-color="#5D2E28"/>
</linearGradient>
<linearGradient id="paint20_linear_991_3282" x1="249.35" y1="-28.6234" x2="215.561" y2="249.934" gradientUnits="userSpaceOnUse">
<stop/>
<stop offset="0.48" stop-color="#EBC9C4"/>
<stop offset="1" stop-color="#5D2E28"/>
</linearGradient>
<linearGradient id="paint21_linear_991_3282" x1="242.968" y1="-29.3974" x2="209.18" y2="249.16" gradientUnits="userSpaceOnUse">
<stop/>
<stop offset="0.48" stop-color="#EBC9C4"/>
<stop offset="1" stop-color="#5D2E28"/>
</linearGradient>
<linearGradient id="paint22_linear_991_3282" x1="236.587" y1="-30.1713" x2="202.799" y2="248.386" gradientUnits="userSpaceOnUse">
<stop/>
<stop offset="0.48" stop-color="#EBC9C4"/>
<stop offset="1" stop-color="#5D2E28"/>
</linearGradient>
<linearGradient id="paint23_linear_991_3282" x1="230.205" y1="-30.9455" x2="196.417" y2="247.612" gradientUnits="userSpaceOnUse">
<stop/>
<stop offset="0.48" stop-color="#EBC9C4"/>
<stop offset="1" stop-color="#5D2E28"/>
</linearGradient>
<linearGradient id="paint24_linear_991_3282" x1="223.823" y1="-31.7194" x2="190.035" y2="246.838" gradientUnits="userSpaceOnUse">
<stop/>
<stop offset="0.48" stop-color="#EBC9C4"/>
<stop offset="1" stop-color="#5D2E28"/>
</linearGradient>
<linearGradient id="paint25_linear_991_3282" x1="217.442" y1="-32.4936" x2="183.653" y2="246.064" gradientUnits="userSpaceOnUse">
<stop/>
<stop offset="0.48" stop-color="#EBC9C4"/>
<stop offset="1" stop-color="#5D2E28"/>
</linearGradient>
<linearGradient id="paint26_linear_991_3282" x1="211.061" y1="-33.2677" x2="177.272" y2="245.29" gradientUnits="userSpaceOnUse">
<stop/>
<stop offset="0.48" stop-color="#EBC9C4"/>
<stop offset="1" stop-color="#5D2E28"/>
</linearGradient>
<linearGradient id="paint27_linear_991_3282" x1="204.679" y1="-34.0417" x2="170.891" y2="244.516" gradientUnits="userSpaceOnUse">
<stop/>
<stop offset="0.48" stop-color="#EBC9C4"/>
<stop offset="1" stop-color="#5D2E28"/>
</linearGradient>
<linearGradient id="paint28_linear_991_3282" x1="198.297" y1="-34.8158" x2="164.509" y2="243.742" gradientUnits="userSpaceOnUse">
<stop/>
<stop offset="0.48" stop-color="#EBC9C4"/>
<stop offset="1" stop-color="#5D2E28"/>
</linearGradient>
<linearGradient id="paint29_linear_991_3282" x1="191.916" y1="-35.5897" x2="158.128" y2="242.968" gradientUnits="userSpaceOnUse">
<stop/>
<stop offset="0.48" stop-color="#EBC9C4"/>
<stop offset="1" stop-color="#5D2E28"/>
</linearGradient>
<linearGradient id="paint30_linear_991_3282" x1="185.534" y1="-36.3639" x2="151.746" y2="242.194" gradientUnits="userSpaceOnUse">
<stop/>
<stop offset="0.48" stop-color="#EBC9C4"/>
<stop offset="1" stop-color="#5D2E28"/>
</linearGradient>
<linearGradient id="paint31_linear_991_3282" x1="179.153" y1="-37.1381" x2="145.364" y2="241.419" gradientUnits="userSpaceOnUse">
<stop/>
<stop offset="0.48" stop-color="#EBC9C4"/>
<stop offset="1" stop-color="#5D2E28"/>
</linearGradient>
<linearGradient id="paint32_linear_991_3282" x1="172.771" y1="-37.912" x2="138.982" y2="240.645" gradientUnits="userSpaceOnUse">
<stop/>
<stop offset="0.48" stop-color="#EBC9C4"/>
<stop offset="1" stop-color="#5D2E28"/>
</linearGradient>
<linearGradient id="paint33_linear_991_3282" x1="166.389" y1="-38.6862" x2="132.6" y2="239.871" gradientUnits="userSpaceOnUse">
<stop/>
<stop offset="0.48" stop-color="#EBC9C4"/>
<stop offset="1" stop-color="#5D2E28"/>
</linearGradient>
<linearGradient id="paint34_linear_991_3282" x1="160.008" y1="-39.4601" x2="126.22" y2="239.097" gradientUnits="userSpaceOnUse">
<stop/>
<stop offset="0.48" stop-color="#EBC9C4"/>
<stop offset="1" stop-color="#5D2E28"/>
</linearGradient>
<linearGradient id="paint35_linear_991_3282" x1="153.626" y1="-40.2343" x2="119.838" y2="238.323" gradientUnits="userSpaceOnUse">
<stop/>
<stop offset="0.48" stop-color="#EBC9C4"/>
<stop offset="1" stop-color="#5D2E28"/>
</linearGradient>
<linearGradient id="paint36_linear_991_3282" x1="147.245" y1="-41.0084" x2="113.457" y2="237.549" gradientUnits="userSpaceOnUse">
<stop/>
<stop offset="0.48" stop-color="#EBC9C4"/>
<stop offset="1" stop-color="#5D2E28"/>
</linearGradient>
<linearGradient id="paint37_linear_991_3282" x1="140.863" y1="-41.7824" x2="107.075" y2="236.775" gradientUnits="userSpaceOnUse">
<stop/>
<stop offset="0.48" stop-color="#EBC9C4"/>
<stop offset="1" stop-color="#5D2E28"/>
</linearGradient>
<linearGradient id="paint38_linear_991_3282" x1="134.482" y1="-42.5565" x2="100.693" y2="236.001" gradientUnits="userSpaceOnUse">
<stop/>
<stop offset="0.48" stop-color="#EBC9C4"/>
<stop offset="1" stop-color="#5D2E28"/>
</linearGradient>
<linearGradient id="paint39_linear_991_3282" x1="128.101" y1="-43.3305" x2="94.3124" y2="235.227" gradientUnits="userSpaceOnUse">
<stop/>
<stop offset="0.48" stop-color="#EBC9C4"/>
<stop offset="1" stop-color="#5D2E28"/>
</linearGradient>
<linearGradient id="paint40_linear_991_3282" x1="121.718" y1="-44.1044" x2="87.9296" y2="234.453" gradientUnits="userSpaceOnUse">
<stop/>
<stop offset="0.48" stop-color="#EBC9C4"/>
<stop offset="1" stop-color="#5D2E28"/>
</linearGradient>
<linearGradient id="paint41_linear_991_3282" x1="115.337" y1="-44.8788" x2="81.5487" y2="233.679" gradientUnits="userSpaceOnUse">
<stop/>
<stop offset="0.48" stop-color="#EBC9C4"/>
<stop offset="1" stop-color="#5D2E28"/>
</linearGradient>
<linearGradient id="paint42_linear_991_3282" x1="108.955" y1="-45.6527" x2="75.1669" y2="232.905" gradientUnits="userSpaceOnUse">
<stop/>
<stop offset="0.48" stop-color="#EBC9C4"/>
<stop offset="1" stop-color="#5D2E28"/>
</linearGradient>
<linearGradient id="paint43_linear_991_3282" x1="102.574" y1="-46.4267" x2="68.786" y2="232.131" gradientUnits="userSpaceOnUse">
<stop/>
<stop offset="0.48" stop-color="#EBC9C4"/>
<stop offset="1" stop-color="#5D2E28"/>
</linearGradient>
<linearGradient id="paint44_linear_991_3282" x1="96.1926" y1="-47.2008" x2="62.4042" y2="231.357" gradientUnits="userSpaceOnUse">
<stop/>
<stop offset="0.48" stop-color="#EBC9C4"/>
<stop offset="1" stop-color="#5D2E28"/>
</linearGradient>
<linearGradient id="paint45_linear_991_3282" x1="89.8107" y1="-47.9748" x2="56.0224" y2="230.583" gradientUnits="userSpaceOnUse">
<stop/>
<stop offset="0.48" stop-color="#EBC9C4"/>
<stop offset="1" stop-color="#5D2E28"/>
</linearGradient>
<linearGradient id="paint46_linear_991_3282" x1="83.4289" y1="-48.7492" x2="49.6405" y2="229.808" gradientUnits="userSpaceOnUse">
<stop/>
<stop offset="0.48" stop-color="#EBC9C4"/>
<stop offset="1" stop-color="#5D2E28"/>
</linearGradient>
<linearGradient id="paint47_linear_991_3282" x1="77.0471" y1="-49.5231" x2="43.2587" y2="229.034" gradientUnits="userSpaceOnUse">
<stop/>
<stop offset="0.48" stop-color="#EBC9C4"/>
<stop offset="1" stop-color="#5D2E28"/>
</linearGradient>
<linearGradient id="paint48_linear_991_3282" x1="70.6662" y1="-50.297" x2="36.8778" y2="228.26" gradientUnits="userSpaceOnUse">
<stop/>
<stop offset="0.48" stop-color="#EBC9C4"/>
<stop offset="1" stop-color="#5D2E28"/>
</linearGradient>
<linearGradient id="paint49_linear_991_3282" x1="64.2844" y1="-51.0712" x2="30.496" y2="227.486" gradientUnits="userSpaceOnUse">
<stop/>
<stop offset="0.48" stop-color="#EBC9C4"/>
<stop offset="1" stop-color="#5D2E28"/>
</linearGradient>
<linearGradient id="paint50_linear_991_3282" x1="57.9035" y1="-51.8451" x2="24.1151" y2="226.712" gradientUnits="userSpaceOnUse">
<stop/>
<stop offset="0.48" stop-color="#EBC9C4"/>
<stop offset="1" stop-color="#5D2E28"/>
</linearGradient>
<linearGradient id="paint51_linear_991_3282" x1="51.5217" y1="-52.6193" x2="17.7333" y2="225.938" gradientUnits="userSpaceOnUse">
<stop/>
<stop offset="0.48" stop-color="#EBC9C4"/>
<stop offset="1" stop-color="#5D2E28"/>
</linearGradient>
<linearGradient id="paint52_linear_991_3282" x1="45.1398" y1="-53.3935" x2="11.3515" y2="225.164" gradientUnits="userSpaceOnUse">
<stop/>
<stop offset="0.48" stop-color="#EBC9C4"/>
<stop offset="1" stop-color="#5D2E28"/>
</linearGradient>
<linearGradient id="paint53_linear_991_3282" x1="38.758" y1="-54.1674" x2="4.96963" y2="224.39" gradientUnits="userSpaceOnUse">
<stop/>
<stop offset="0.48" stop-color="#EBC9C4"/>
<stop offset="1" stop-color="#5D2E28"/>
</linearGradient>
<linearGradient id="paint54_linear_991_3282" x1="32.3771" y1="-54.9416" x2="-1.41123" y2="223.616" gradientUnits="userSpaceOnUse">
<stop/>
<stop offset="0.48" stop-color="#EBC9C4"/>
<stop offset="1" stop-color="#5D2E28"/>
</linearGradient>
<linearGradient id="paint55_linear_991_3282" x1="25.9953" y1="-55.7155" x2="-7.79307" y2="222.842" gradientUnits="userSpaceOnUse">
<stop/>
<stop offset="0.48" stop-color="#EBC9C4"/>
<stop offset="1" stop-color="#5D2E28"/>
</linearGradient>
<linearGradient id="paint56_linear_991_3282" x1="19.6144" y1="-56.4896" x2="-14.1739" y2="222.068" gradientUnits="userSpaceOnUse">
<stop/>
<stop offset="0.48" stop-color="#EBC9C4"/>
<stop offset="1" stop-color="#5D2E28"/>
</linearGradient>
<linearGradient id="paint57_linear_991_3282" x1="13.2326" y1="-57.2638" x2="-20.5558" y2="221.294" gradientUnits="userSpaceOnUse">
<stop/>
<stop offset="0.48" stop-color="#EBC9C4"/>
<stop offset="1" stop-color="#5D2E28"/>
</linearGradient>
<linearGradient id="paint58_linear_991_3282" x1="6.85077" y1="-58.0377" x2="-26.9376" y2="220.52" gradientUnits="userSpaceOnUse">
<stop/>
<stop offset="0.48" stop-color="#EBC9C4"/>
<stop offset="1" stop-color="#5D2E28"/>
</linearGradient>
<linearGradient id="paint59_linear_991_3282" x1="0.469915" y1="-58.8117" x2="-33.3185" y2="219.746" gradientUnits="userSpaceOnUse">
<stop/>
<stop offset="0.48" stop-color="#EBC9C4"/>
<stop offset="1" stop-color="#5D2E28"/>
</linearGradient>
<linearGradient id="paint60_linear_991_3282" x1="-5.9129" y1="-59.5858" x2="-39.7013" y2="218.972" gradientUnits="userSpaceOnUse">
<stop/>
<stop offset="0.48" stop-color="#EBC9C4"/>
<stop offset="1" stop-color="#5D2E28"/>
</linearGradient>
<linearGradient id="paint61_linear_991_3282" x1="-12.2938" y1="-60.36" x2="-46.0821" y2="218.197" gradientUnits="userSpaceOnUse">
<stop/>
<stop offset="0.48" stop-color="#EBC9C4"/>
<stop offset="1" stop-color="#5D2E28"/>
</linearGradient>
<clipPath id="clip0_991_3282">
<rect width="158.732" height="36.046" fill="white" transform="translate(94 49)"/>
</clipPath>
<clipPath id="clip1_991_3282">
<rect width="31" height="32" fill="white" transform="matrix(-1 0 0 1 189 106)"/>
</clipPath>
</defs>
</svg>
