<svg width="252" height="57" viewBox="0 0 252 57" fill="none" xmlns="http://www.w3.org/2000/svg">
<g clip-path="url(#clip0_1073_1057)">
<path d="M26.3802 26.5198H24.0802V13.5198C24.0873 12.0547 23.8017 10.603 23.2402 9.2498C22.702 7.93913 21.9217 6.74158 20.9402 5.7198C19.956 4.70192 18.7846 3.88362 17.4902 3.3098C16.1562 2.71501 14.7107 2.4116 13.2502 2.4198H13.1402C11.6796 2.41129 10.234 2.71472 8.90017 3.3098C7.6047 3.87358 6.42996 4.68163 5.44017 5.6898C4.45823 6.71128 3.67791 7.90891 3.14017 9.2198C2.5786 10.573 2.29302 12.0247 2.30017 13.4898L2.35017 26.4898H0.000169621V13.4898C-0.00871661 11.7888 0.33164 10.104 1.00017 8.5398C2.33326 5.38701 4.80862 2.8545 7.93017 1.4498C9.52214 0.719035 11.2487 0.327406 13.0002 0.299805H13.3102C15.0343 0.322698 16.7356 0.696992 18.3102 1.3998C19.8347 2.08052 21.2185 3.04035 22.3902 4.2298C23.5701 5.43355 24.5191 6.84356 25.1902 8.3898C25.8922 10.0019 26.2824 11.7324 26.3402 13.4898L26.3802 26.5198Z" fill="#0A0A0A"/>
<path d="M191.07 13.4898C191.011 11.7681 191.353 10.0562 192.07 8.48984C192.767 6.90974 193.75 5.47221 194.97 4.24984C196.196 3.02586 197.646 2.04823 199.24 1.36984C200.816 0.682165 202.521 0.341134 204.24 0.369837V2.66984C202.782 2.65965 201.339 2.95251 200 3.52984C197.406 4.63778 195.337 6.6998 194.22 9.28984C193.641 10.6174 193.348 12.0517 193.36 13.4998V26.5698H191.06L191.07 13.4898Z" fill="#0A0A0A"/>
<path d="M251.67 26.5699H249.37V13.4899C249.377 12.0488 249.084 10.622 248.51 9.29993C247.955 8.00589 247.165 6.82594 246.18 5.81993C245.193 4.82028 244.022 4.02212 242.73 3.46993C241.392 2.8926 239.948 2.59974 238.49 2.60993C237.042 2.59863 235.608 2.89162 234.28 3.46993C232.997 4.02658 231.833 4.82434 230.85 5.81993C229.87 6.81846 229.08 7.98765 228.52 9.26993C227.942 10.5976 227.649 12.0319 227.66 13.4799C227.65 14.9376 227.943 16.3814 228.52 17.7199C229.628 20.3138 231.69 22.383 234.28 23.4999C235.608 24.078 237.042 24.3709 238.49 24.3599C238.972 24.359 239.453 24.3223 239.93 24.2499C240.4 24.1799 240.86 24.0899 241.32 23.9899C241.479 24.4928 241.673 24.984 241.9 25.4599C241.944 25.7006 242.033 25.9311 242.16 26.1399C241.567 26.3142 240.962 26.4446 240.35 26.5299C239.734 26.6172 239.112 26.6606 238.49 26.6599C236.746 26.6824 235.016 26.3419 233.41 25.6599C231.843 24.9892 230.42 24.0214 229.22 22.8099C228.027 21.5992 227.068 20.1787 226.39 18.6199C225.708 17.0426 225.352 15.3436 225.343 13.625C225.334 11.9065 225.674 10.204 226.34 8.61993C226.991 7.05085 227.923 5.61391 229.09 4.37993C230.267 3.11697 231.68 2.09765 233.25 1.37993C234.898 0.64445 236.686 0.275942 238.49 0.299928C240.234 0.278302 241.964 0.618811 243.57 1.29993C246.744 2.66265 249.272 5.19416 250.63 8.36993C251.312 9.97578 251.652 11.7056 251.63 13.4499L251.67 26.5699Z" fill="#0A0A0A"/>
<path d="M61.0299 27.8C68.7066 27.8 74.9299 21.5768 74.9299 13.9C74.9299 6.22324 68.7066 0 61.0299 0C53.3531 0 47.1299 6.22324 47.1299 13.9C47.1299 21.5768 53.3531 27.8 61.0299 27.8Z" fill="#E29A8F"/>
<path d="M108.46 27.8C116.137 27.8 122.36 21.5768 122.36 13.9C122.36 6.22324 116.137 0 108.46 0C100.783 0 94.5601 6.22324 94.5601 13.9C94.5601 21.5768 100.783 27.8 108.46 27.8Z" fill="#C67D71"/>
<path d="M155.89 27.8C163.567 27.8 169.79 21.5768 169.79 13.9C169.79 6.22324 163.567 0 155.89 0C148.213 0 141.99 6.22324 141.99 13.9C141.99 21.5768 148.213 27.8 155.89 27.8Z" fill="#9E5A57"/>
<path d="M35.29 46.8599H37.85C38.737 46.7934 39.6231 46.9993 40.39 47.4499C40.6626 47.6556 40.8795 47.9262 41.021 48.237C41.1624 48.5479 41.224 48.8892 41.2 49.2299C41.2175 49.7263 41.0419 50.2102 40.71 50.5799C40.3193 50.9682 39.8078 51.2116 39.26 51.2699C39.869 51.3232 40.4444 51.5723 40.9 51.9799C41.0846 52.1835 41.2266 52.422 41.3177 52.6813C41.4087 52.9406 41.4469 53.2155 41.43 53.4899C41.4529 53.8672 41.387 54.2447 41.2376 54.592C41.0883 54.9393 40.8596 55.2468 40.57 55.4899C39.8651 55.9967 39.0066 56.2441 38.14 56.1899H35.29V46.8599ZM35.94 50.9999H38C38.6667 51.0513 39.3331 50.8978 39.91 50.5599C40.1154 50.3988 40.2777 50.1894 40.3824 49.9503C40.4871 49.7113 40.531 49.45 40.51 49.1899C40.5295 48.9254 40.4776 48.6607 40.3597 48.4232C40.2419 48.1857 40.0624 47.9842 39.84 47.8399C39.2234 47.5222 38.5324 47.3771 37.84 47.4199H35.94V50.9999ZM35.94 51.5799V55.5799H38.14C39.8667 55.5799 40.73 54.8765 40.73 53.4699C40.73 52.1899 39.82 51.5499 38 51.5499L35.94 51.5799Z" fill="#0A0A0A"/>
<path d="M52.5302 56.1999H47.4302V46.8599H52.5302V47.4599H48.0702V50.9999H52.2702V51.5999H48.0702V55.5999H52.5202L52.5302 56.1999Z" fill="#0A0A0A"/>
<path d="M63.0598 52.9098H59.2698L57.9998 56.1998H57.2798L60.9998 46.8198H61.4198L65.0998 56.1998H64.3598L63.0598 52.9098ZM59.4998 52.3198H62.8398L61.5698 48.9998C61.4631 48.7332 61.3365 48.3665 61.1898 47.8998C61.0841 48.2734 60.9572 48.6407 60.8098 48.9998L59.4998 52.3198Z" fill="#0A0A0A"/>
<path d="M77.2102 46.8598V52.8598C77.2375 53.3213 77.1689 53.7834 77.0089 54.2171C76.8488 54.6508 76.6007 55.0467 76.2802 55.3798C75.9287 55.6962 75.5179 55.9395 75.0715 56.0957C74.6252 56.2519 74.1523 56.3179 73.6802 56.2898C73.2168 56.3332 72.7495 56.2737 72.3117 56.1155C71.874 55.9574 71.4765 55.7044 71.1479 55.3748C70.8192 55.0452 70.5675 54.6471 70.4105 54.2088C70.2536 53.7706 70.1955 53.3032 70.2402 52.8398V46.8398H70.9002V52.8398C70.8628 53.2243 70.9111 53.6122 71.0417 53.9757C71.1723 54.3392 71.382 54.6692 71.6556 54.9418C71.9292 55.2145 72.2599 55.423 72.6238 55.5524C72.9878 55.6817 73.3759 55.7287 73.7602 55.6898C74.1272 55.725 74.4975 55.6804 74.8457 55.5592C75.1939 55.438 75.5118 55.243 75.7777 54.9876C76.0436 54.7322 76.2512 54.4223 76.3862 54.0792C76.5213 53.7362 76.5806 53.368 76.5602 52.9998V46.8598H77.2102Z" fill="#0A0A0A"/>
<path d="M86.1102 56.1999H85.4502V47.4699H82.4502V46.8599H89.1802V47.4699H86.1802L86.1102 56.1999Z" fill="#0A0A0A"/>
<path d="M96.5999 51.9999L99.3299 46.8899H100.03L96.9199 52.6199V56.1999H96.2499V52.6399L93.1299 46.8599H93.8799L96.5999 51.9999Z" fill="#0A0A0A"/>
<path d="M116.6 47.3101C116.084 47.2829 115.569 47.369 115.09 47.5626C114.612 47.7561 114.182 48.0522 113.83 48.4301C113.121 49.2943 112.764 50.3941 112.83 51.5101C112.775 52.6307 113.13 53.7329 113.83 54.6101C114.171 54.9873 114.592 55.2829 115.063 55.475C115.534 55.6672 116.042 55.7509 116.55 55.7201C117.281 55.7275 118.009 55.6264 118.71 55.4201V56.0001C117.964 56.2386 117.183 56.3501 116.4 56.3301C115.822 56.3592 115.244 56.2605 114.708 56.041C114.172 55.8215 113.691 55.4866 113.3 55.0601C112.494 54.0588 112.091 52.7928 112.17 51.5101C112.152 50.6427 112.336 49.7832 112.71 49.0001C113.047 48.2978 113.587 47.7127 114.26 47.3201C114.976 46.916 115.788 46.7122 116.61 46.7301C117.454 46.7145 118.292 46.8888 119.06 47.2401L118.8 47.8301C118.119 47.4819 117.364 47.3035 116.6 47.3101Z" fill="#0A0A0A"/>
<path d="M132.51 51.5201C132.571 52.7759 132.177 54.0116 131.4 55.0001C131.002 55.4104 130.526 55.7367 129.999 55.9595C129.473 56.1823 128.907 56.2971 128.335 56.2971C127.763 56.2971 127.198 56.1823 126.671 55.9595C126.145 55.7367 125.668 55.4104 125.27 55.0001C124.483 53.9975 124.089 52.7426 124.16 51.4701C124.101 50.2142 124.503 48.98 125.29 48.0001C125.689 47.5937 126.166 47.2709 126.691 47.0506C127.216 46.8303 127.78 46.7168 128.35 46.7168C128.92 46.7168 129.484 46.8303 130.009 47.0506C130.535 47.2709 131.011 47.5937 131.41 48.0001C132.193 49.0005 132.584 50.252 132.51 51.5201ZM124.87 51.5201C124.799 52.6253 125.113 53.721 125.76 54.6201C126.094 54.9657 126.494 55.2406 126.936 55.4284C127.379 55.6162 127.855 55.7129 128.335 55.7129C128.816 55.7129 129.291 55.6162 129.734 55.4284C130.176 55.2406 130.576 54.9657 130.91 54.6201C131.558 53.718 131.873 52.6186 131.8 51.5101C131.875 50.4045 131.56 49.3076 130.91 48.4101C130.576 48.0672 130.176 47.7947 129.735 47.6086C129.293 47.4225 128.819 47.3267 128.34 47.3267C127.861 47.3267 127.387 47.4225 126.946 47.6086C126.504 47.7947 126.105 48.0672 125.77 48.4101C125.111 49.3074 124.792 50.4095 124.87 51.5201Z" fill="#0A0A0A"/>
<path d="M145.38 56.1999H144.72L139.19 47.9099H139.14C139.193 48.8965 139.22 49.6432 139.22 50.1499V56.1999H138.59V46.8599H139.24L144.77 55.1399C144.73 54.3732 144.71 53.6432 144.71 52.9499V46.8599H145.34L145.38 56.1999Z" fill="#0A0A0A"/>
<path d="M155.93 47.3102C155.414 47.283 154.899 47.3692 154.421 47.5627C153.942 47.7562 153.512 48.0524 153.16 48.4302C152.451 49.2944 152.094 50.3943 152.16 51.5102C152.104 52.631 152.46 53.7335 153.16 54.6102C153.501 54.9869 153.923 55.2821 154.394 55.4742C154.865 55.6663 155.372 55.7504 155.88 55.7202C156.611 55.7276 157.339 55.6265 158.04 55.4202V56.0002C157.294 56.2387 156.513 56.3503 155.73 56.3302C155.152 56.36 154.574 56.2617 154.038 56.0421C153.502 55.8225 153.021 55.4873 152.63 55.0602C151.824 54.0589 151.421 52.793 151.5 51.5102C151.47 50.6461 151.641 49.7869 152 49.0002C152.337 48.298 152.877 47.7129 153.55 47.3202C154.269 46.9149 155.084 46.7111 155.91 46.7302C156.754 46.7143 157.592 46.8886 158.36 47.2402L158.1 47.8302C157.428 47.4867 156.684 47.3084 155.93 47.3102Z" fill="#0A0A0A"/>
<path d="M164 56.1999V46.8599H164.65V56.1999H164Z" fill="#0A0A0A"/>
<path d="M176.32 56.1999H171.22V46.8599H176.32V47.4599H171.87V50.9999H176.07V51.5999H171.87V55.5999H176.32V56.1999Z" fill="#0A0A0A"/>
<path d="M183 52.1302V56.2002H182.35V46.8602H184.57C185.473 46.7901 186.375 47.0146 187.14 47.5002C187.422 47.7324 187.645 48.0287 187.789 48.3644C187.934 48.7002 187.996 49.0656 187.97 49.4302C187.989 50.0016 187.812 50.5623 187.47 51.0202C187.086 51.4866 186.559 51.8135 185.97 51.9502L188.51 56.2002H187.73L185.32 52.1302H183ZM183 51.5702H184.78C185.433 51.6087 186.079 51.4216 186.61 51.0402C186.833 50.849 187.007 50.6083 187.12 50.3374C187.233 50.0665 187.281 49.773 187.26 49.4802C187.285 49.1896 187.239 48.8972 187.128 48.6276C187.017 48.358 186.843 48.1189 186.62 47.9302C185.995 47.5534 185.268 47.3821 184.54 47.4402H183V51.5702Z" fill="#0A0A0A"/>
<path d="M197.74 51.49H201.18V55.75C200.228 56.1407 199.208 56.3379 198.18 56.33C197.559 56.3709 196.936 56.2808 196.352 56.0654C195.768 55.8501 195.236 55.5143 194.79 55.08C193.954 54.0965 193.532 52.828 193.61 51.54C193.591 50.6617 193.79 49.7923 194.19 49.01C194.566 48.2905 195.147 47.6988 195.86 47.31C196.628 46.8998 197.489 46.6932 198.36 46.71C199.303 46.6934 200.239 46.8846 201.1 47.27L200.84 47.86C200.051 47.4905 199.191 47.2993 198.32 47.3C197.779 47.2732 197.238 47.3608 196.733 47.5573C196.228 47.7537 195.77 48.0545 195.39 48.44C194.638 49.2843 194.25 50.3911 194.31 51.52C194.216 52.6668 194.575 53.8047 195.31 54.69C195.711 55.0625 196.184 55.3488 196.7 55.5311C197.216 55.7134 197.764 55.7879 198.31 55.75C199.056 55.7701 199.799 55.6479 200.5 55.39V52.11H197.72L197.74 51.49Z" fill="#0A0A0A"/>
<path d="M212.55 56.1999H207.45V46.8599H212.55V47.4599H208.1V50.9999H212.3V51.5999H208.1V55.5999H212.55V56.1999Z" fill="#0A0A0A"/>
</g>
<defs>
<clipPath id="clip0_1073_1057">
<rect width="251.67" height="56.33" fill="white"/>
</clipPath>
</defs>
</svg>
