<svg width="1278" height="179" viewBox="0 0 1278 179" fill="none" xmlns="http://www.w3.org/2000/svg">
<g opacity="0.34">
<g clip-path="url(#clip0_1672_3713)">
<circle cx="1.46559" cy="1.6392" r="1.46559" fill="#DFBEB7"/>
<circle cx="1.46559" cy="19.2269" r="1.46559" fill="#DFBEB7"/>
<circle cx="1.46559" cy="36.8141" r="1.46559" fill="#DFBEB7"/>
<circle cx="1.46559" cy="54.4005" r="1.46559" fill="#DFBEB7"/>
<circle cx="1.46559" cy="71.9877" r="1.46559" fill="#DFBEB7"/>
<circle cx="1.46559" cy="89.5754" r="1.46559" fill="#DFBEB7"/>
<circle cx="1.46559" cy="107.162" r="1.46559" fill="#DFBEB7"/>
<circle cx="1.46559" cy="124.749" r="1.46559" fill="#DFBEB7"/>
<circle cx="1.46559" cy="142.336" r="1.46559" fill="#DFBEB7"/>
<circle cx="1.46559" cy="159.923" r="1.46559" fill="#DFBEB7"/>
<circle cx="1.46559" cy="177.51" r="1.46559" fill="#DFBEB7"/>
<circle cx="24.9158" cy="1.6392" r="1.46559" fill="#DFBEB7"/>
<circle cx="24.9158" cy="19.2269" r="1.46559" fill="#DFBEB7"/>
<circle cx="24.9158" cy="36.8141" r="1.46559" fill="#DFBEB7"/>
<circle cx="24.9158" cy="54.4005" r="1.46559" fill="#DFBEB7"/>
<circle cx="24.9158" cy="71.9877" r="1.46559" fill="#DFBEB7"/>
<circle cx="24.9158" cy="89.5754" r="1.46559" fill="#DFBEB7"/>
<circle cx="24.9158" cy="107.162" r="1.46559" fill="#DFBEB7"/>
<circle cx="24.9158" cy="124.749" r="1.46559" fill="#DFBEB7"/>
<circle cx="24.9158" cy="142.335" r="1.46559" fill="#DFBEB7"/>
<circle cx="24.9158" cy="159.923" r="1.46559" fill="#DFBEB7"/>
<circle cx="24.9158" cy="177.51" r="1.46559" fill="#DFBEB7"/>
<circle cx="48.364" cy="1.6392" r="1.46559" fill="#DFBEB7"/>
<circle cx="48.364" cy="19.2269" r="1.46559" fill="#DFBEB7"/>
<circle cx="48.364" cy="36.8141" r="1.46559" fill="#DFBEB7"/>
<circle cx="48.364" cy="54.4005" r="1.46559" fill="#DFBEB7"/>
<circle cx="48.364" cy="71.9877" r="1.46559" fill="#DFBEB7"/>
<circle cx="48.364" cy="89.5754" r="1.46559" fill="#DFBEB7"/>
<circle cx="48.364" cy="107.162" r="1.46559" fill="#DFBEB7"/>
<circle cx="48.364" cy="124.749" r="1.46559" fill="#DFBEB7"/>
<circle cx="48.364" cy="142.336" r="1.46559" fill="#DFBEB7"/>
<circle cx="48.364" cy="159.923" r="1.46559" fill="#DFBEB7"/>
<circle cx="48.364" cy="177.51" r="1.46559" fill="#DFBEB7"/>
<circle cx="71.8152" cy="1.6392" r="1.46559" fill="#DFBEB7"/>
<circle cx="71.8152" cy="19.2269" r="1.46559" fill="#DFBEB7"/>
<circle cx="71.8152" cy="36.8141" r="1.46559" fill="#DFBEB7"/>
<circle cx="71.8152" cy="54.4005" r="1.46559" fill="#DFBEB7"/>
<circle cx="71.8152" cy="71.9877" r="1.46559" fill="#DFBEB7"/>
<circle cx="71.8152" cy="89.5754" r="1.46559" fill="#DFBEB7"/>
<circle cx="71.8152" cy="107.162" r="1.46559" fill="#DFBEB7"/>
<circle cx="71.8152" cy="124.749" r="1.46559" fill="#DFBEB7"/>
<circle cx="71.8152" cy="142.335" r="1.46559" fill="#DFBEB7"/>
<circle cx="71.8152" cy="159.923" r="1.46559" fill="#DFBEB7"/>
<circle cx="71.8152" cy="177.51" r="1.46559" fill="#DFBEB7"/>
<circle cx="95.2634" cy="1.6392" r="1.46559" fill="#DFBEB7"/>
<circle cx="95.2634" cy="19.2269" r="1.46559" fill="#DFBEB7"/>
<circle cx="95.2634" cy="36.8141" r="1.46559" fill="#DFBEB7"/>
<circle cx="95.2634" cy="54.4005" r="1.46559" fill="#DFBEB7"/>
<circle cx="95.2634" cy="71.9877" r="1.46559" fill="#DFBEB7"/>
<circle cx="95.2634" cy="89.5754" r="1.46559" fill="#DFBEB7"/>
<circle cx="95.2634" cy="107.162" r="1.46559" fill="#DFBEB7"/>
<circle cx="95.2634" cy="124.749" r="1.46559" fill="#DFBEB7"/>
<circle cx="95.2634" cy="142.336" r="1.46559" fill="#DFBEB7"/>
<circle cx="95.2634" cy="159.923" r="1.46559" fill="#DFBEB7"/>
<circle cx="95.2634" cy="177.51" r="1.46559" fill="#DFBEB7"/>
<circle cx="118.714" cy="1.6392" r="1.46559" fill="#DFBEB7"/>
<circle cx="118.714" cy="19.2269" r="1.46559" fill="#DFBEB7"/>
<circle cx="118.714" cy="36.8141" r="1.46559" fill="#DFBEB7"/>
<circle cx="118.714" cy="54.4005" r="1.46559" fill="#DFBEB7"/>
<circle cx="118.714" cy="71.9877" r="1.46559" fill="#DFBEB7"/>
<circle cx="118.714" cy="89.5754" r="1.46559" fill="#DFBEB7"/>
<circle cx="118.714" cy="107.162" r="1.46559" fill="#DFBEB7"/>
<circle cx="118.714" cy="124.749" r="1.46559" fill="#DFBEB7"/>
<circle cx="118.714" cy="142.335" r="1.46559" fill="#DFBEB7"/>
<circle cx="118.714" cy="159.923" r="1.46559" fill="#DFBEB7"/>
<circle cx="118.714" cy="177.51" r="1.46559" fill="#DFBEB7"/>
<circle cx="142.163" cy="1.6392" r="1.46559" fill="#DFBEB7"/>
<circle cx="142.163" cy="19.2269" r="1.46559" fill="#DFBEB7"/>
<circle cx="142.163" cy="36.8141" r="1.46559" fill="#DFBEB7"/>
<circle cx="142.163" cy="54.4005" r="1.46559" fill="#DFBEB7"/>
<circle cx="142.163" cy="71.9877" r="1.46559" fill="#DFBEB7"/>
<circle cx="142.163" cy="89.5754" r="1.46559" fill="#DFBEB7"/>
<circle cx="142.163" cy="107.162" r="1.46559" fill="#DFBEB7"/>
<circle cx="142.163" cy="124.749" r="1.46559" fill="#DFBEB7"/>
<circle cx="142.163" cy="142.336" r="1.46559" fill="#DFBEB7"/>
<circle cx="142.163" cy="159.923" r="1.46559" fill="#DFBEB7"/>
<circle cx="142.163" cy="177.51" r="1.46559" fill="#DFBEB7"/>
<circle cx="165.611" cy="1.6392" r="1.46559" fill="#DFBEB7"/>
<circle cx="165.611" cy="19.2269" r="1.46559" fill="#DFBEB7"/>
<circle cx="165.611" cy="36.8141" r="1.46559" fill="#DFBEB7"/>
<circle cx="165.611" cy="54.4005" r="1.46559" fill="#DFBEB7"/>
<circle cx="165.611" cy="71.9877" r="1.46559" fill="#DFBEB7"/>
<circle cx="165.611" cy="89.5754" r="1.46559" fill="#DFBEB7"/>
<circle cx="165.611" cy="107.162" r="1.46559" fill="#DFBEB7"/>
<circle cx="165.611" cy="124.749" r="1.46559" fill="#DFBEB7"/>
<circle cx="165.611" cy="142.336" r="1.46559" fill="#DFBEB7"/>
<circle cx="165.611" cy="159.923" r="1.46559" fill="#DFBEB7"/>
<circle cx="165.611" cy="177.51" r="1.46559" fill="#DFBEB7"/>
<circle cx="189.061" cy="1.6392" r="1.46559" fill="#DFBEB7"/>
<circle cx="189.061" cy="19.2269" r="1.46559" fill="#DFBEB7"/>
<circle cx="189.061" cy="36.8141" r="1.46559" fill="#DFBEB7"/>
<circle cx="189.061" cy="54.4005" r="1.46559" fill="#DFBEB7"/>
<circle cx="189.061" cy="71.9877" r="1.46559" fill="#DFBEB7"/>
<circle cx="189.061" cy="89.5754" r="1.46559" fill="#DFBEB7"/>
<circle cx="189.061" cy="107.162" r="1.46559" fill="#DFBEB7"/>
<circle cx="189.061" cy="124.749" r="1.46559" fill="#DFBEB7"/>
<circle cx="189.061" cy="142.335" r="1.46559" fill="#DFBEB7"/>
<circle cx="189.061" cy="159.923" r="1.46559" fill="#DFBEB7"/>
<circle cx="189.061" cy="177.51" r="1.46559" fill="#DFBEB7"/>
<circle cx="212.511" cy="1.6392" r="1.46559" fill="#DFBEB7"/>
<circle cx="212.511" cy="19.2269" r="1.46559" fill="#DFBEB7"/>
<circle cx="212.511" cy="36.8141" r="1.46559" fill="#DFBEB7"/>
<circle cx="212.511" cy="54.4005" r="1.46559" fill="#DFBEB7"/>
<circle cx="212.511" cy="71.9877" r="1.46559" fill="#DFBEB7"/>
<circle cx="212.511" cy="89.5754" r="1.46559" fill="#DFBEB7"/>
<circle cx="212.511" cy="107.162" r="1.46559" fill="#DFBEB7"/>
<circle cx="212.511" cy="124.749" r="1.46559" fill="#DFBEB7"/>
<circle cx="212.511" cy="142.336" r="1.46559" fill="#DFBEB7"/>
<circle cx="212.511" cy="159.923" r="1.46559" fill="#DFBEB7"/>
<circle cx="212.511" cy="177.51" r="1.46559" fill="#DFBEB7"/>
<circle cx="235.961" cy="1.6392" r="1.46559" fill="#DFBEB7"/>
<circle cx="235.961" cy="19.2269" r="1.46559" fill="#DFBEB7"/>
<circle cx="235.961" cy="36.8141" r="1.46559" fill="#DFBEB7"/>
<circle cx="235.961" cy="54.4005" r="1.46559" fill="#DFBEB7"/>
<circle cx="235.961" cy="71.9877" r="1.46559" fill="#DFBEB7"/>
<circle cx="235.961" cy="89.5754" r="1.46559" fill="#DFBEB7"/>
<circle cx="235.961" cy="107.162" r="1.46559" fill="#DFBEB7"/>
<circle cx="235.961" cy="124.749" r="1.46559" fill="#DFBEB7"/>
<circle cx="235.961" cy="142.335" r="1.46559" fill="#DFBEB7"/>
<circle cx="235.961" cy="159.923" r="1.46559" fill="#DFBEB7"/>
<circle cx="235.961" cy="177.51" r="1.46559" fill="#DFBEB7"/>
<circle cx="259.411" cy="1.6392" r="1.46559" fill="#DFBEB7"/>
<circle cx="259.411" cy="19.2269" r="1.46559" fill="#DFBEB7"/>
<circle cx="259.411" cy="36.8141" r="1.46559" fill="#DFBEB7"/>
<circle cx="259.411" cy="54.4005" r="1.46559" fill="#DFBEB7"/>
<circle cx="259.411" cy="71.9877" r="1.46559" fill="#DFBEB7"/>
<circle cx="259.411" cy="89.5754" r="1.46559" fill="#DFBEB7"/>
<circle cx="259.411" cy="107.162" r="1.46559" fill="#DFBEB7"/>
<circle cx="259.411" cy="124.749" r="1.46559" fill="#DFBEB7"/>
<circle cx="259.411" cy="142.336" r="1.46559" fill="#DFBEB7"/>
<circle cx="259.411" cy="159.923" r="1.46559" fill="#DFBEB7"/>
<circle cx="259.411" cy="177.51" r="1.46559" fill="#DFBEB7"/>
<circle cx="282.86" cy="1.6392" r="1.46559" fill="#DFBEB7"/>
<circle cx="282.86" cy="19.2269" r="1.46559" fill="#DFBEB7"/>
<circle cx="282.86" cy="36.8141" r="1.46559" fill="#DFBEB7"/>
<circle cx="282.86" cy="54.4005" r="1.46559" fill="#DFBEB7"/>
<circle cx="282.86" cy="71.9877" r="1.46559" fill="#DFBEB7"/>
<circle cx="282.86" cy="89.5754" r="1.46559" fill="#DFBEB7"/>
<circle cx="282.86" cy="107.162" r="1.46559" fill="#DFBEB7"/>
<circle cx="282.86" cy="124.749" r="1.46559" fill="#DFBEB7"/>
<circle cx="282.86" cy="142.335" r="1.46559" fill="#DFBEB7"/>
<circle cx="282.86" cy="159.923" r="1.46559" fill="#DFBEB7"/>
<circle cx="282.86" cy="177.51" r="1.46559" fill="#DFBEB7"/>
<circle cx="306.308" cy="1.6392" r="1.46559" fill="#DFBEB7"/>
<circle cx="306.308" cy="19.2269" r="1.46559" fill="#DFBEB7"/>
<circle cx="306.308" cy="36.8141" r="1.46559" fill="#DFBEB7"/>
<circle cx="306.308" cy="54.4005" r="1.46559" fill="#DFBEB7"/>
<circle cx="306.308" cy="71.9877" r="1.46559" fill="#DFBEB7"/>
<circle cx="306.308" cy="89.5754" r="1.46559" fill="#DFBEB7"/>
<circle cx="306.308" cy="107.162" r="1.46559" fill="#DFBEB7"/>
<circle cx="306.308" cy="124.749" r="1.46559" fill="#DFBEB7"/>
<circle cx="306.308" cy="142.336" r="1.46559" fill="#DFBEB7"/>
<circle cx="306.308" cy="159.923" r="1.46559" fill="#DFBEB7"/>
<circle cx="306.308" cy="177.51" r="1.46559" fill="#DFBEB7"/>
<circle cx="329.757" cy="1.6392" r="1.46559" fill="#DFBEB7"/>
<circle cx="329.757" cy="19.2269" r="1.46559" fill="#DFBEB7"/>
<circle cx="329.757" cy="36.8141" r="1.46559" fill="#DFBEB7"/>
<circle cx="329.757" cy="54.4005" r="1.46559" fill="#DFBEB7"/>
<circle cx="329.757" cy="71.9877" r="1.46559" fill="#DFBEB7"/>
<circle cx="329.757" cy="89.5754" r="1.46559" fill="#DFBEB7"/>
<circle cx="329.757" cy="107.162" r="1.46559" fill="#DFBEB7"/>
<circle cx="329.757" cy="124.749" r="1.46559" fill="#DFBEB7"/>
<circle cx="329.757" cy="142.336" r="1.46559" fill="#DFBEB7"/>
<circle cx="329.757" cy="159.923" r="1.46559" fill="#DFBEB7"/>
<circle cx="329.757" cy="177.51" r="1.46559" fill="#DFBEB7"/>
<circle cx="353.208" cy="1.6392" r="1.46559" fill="#DFBEB7"/>
<circle cx="353.208" cy="19.2269" r="1.46559" fill="#DFBEB7"/>
<circle cx="353.208" cy="36.8141" r="1.46559" fill="#DFBEB7"/>
<circle cx="353.208" cy="54.4005" r="1.46559" fill="#DFBEB7"/>
<circle cx="353.208" cy="71.9877" r="1.46559" fill="#DFBEB7"/>
<circle cx="353.208" cy="89.5754" r="1.46559" fill="#DFBEB7"/>
<circle cx="353.208" cy="107.162" r="1.46559" fill="#DFBEB7"/>
<circle cx="353.208" cy="124.749" r="1.46559" fill="#DFBEB7"/>
<circle cx="353.208" cy="142.335" r="1.46559" fill="#DFBEB7"/>
<circle cx="353.208" cy="159.923" r="1.46559" fill="#DFBEB7"/>
<circle cx="353.208" cy="177.51" r="1.46559" fill="#DFBEB7"/>
<circle cx="376.656" cy="1.6392" r="1.46559" fill="#DFBEB7"/>
<circle cx="376.656" cy="19.2269" r="1.46559" fill="#DFBEB7"/>
<circle cx="376.656" cy="36.8141" r="1.46559" fill="#DFBEB7"/>
<circle cx="376.656" cy="54.4005" r="1.46559" fill="#DFBEB7"/>
<circle cx="376.656" cy="71.9877" r="1.46559" fill="#DFBEB7"/>
<circle cx="376.656" cy="89.5754" r="1.46559" fill="#DFBEB7"/>
<circle cx="376.656" cy="107.162" r="1.46559" fill="#DFBEB7"/>
<circle cx="376.656" cy="124.749" r="1.46559" fill="#DFBEB7"/>
<circle cx="376.656" cy="142.336" r="1.46559" fill="#DFBEB7"/>
<circle cx="376.656" cy="159.923" r="1.46559" fill="#DFBEB7"/>
<circle cx="376.656" cy="177.51" r="1.46559" fill="#DFBEB7"/>
<circle cx="400.106" cy="1.6392" r="1.46559" fill="#DFBEB7"/>
<circle cx="400.106" cy="19.2269" r="1.46559" fill="#DFBEB7"/>
<circle cx="400.106" cy="36.8141" r="1.46559" fill="#DFBEB7"/>
<circle cx="400.106" cy="54.4005" r="1.46559" fill="#DFBEB7"/>
<circle cx="400.106" cy="71.9877" r="1.46559" fill="#DFBEB7"/>
<circle cx="400.106" cy="89.5754" r="1.46559" fill="#DFBEB7"/>
<circle cx="400.106" cy="107.162" r="1.46559" fill="#DFBEB7"/>
<circle cx="400.106" cy="124.749" r="1.46559" fill="#DFBEB7"/>
<circle cx="400.106" cy="142.335" r="1.46559" fill="#DFBEB7"/>
<circle cx="400.106" cy="159.923" r="1.46559" fill="#DFBEB7"/>
<circle cx="400.106" cy="177.51" r="1.46559" fill="#DFBEB7"/>
<circle cx="423.556" cy="1.6392" r="1.46559" fill="#DFBEB7"/>
<circle cx="423.556" cy="19.2269" r="1.46559" fill="#DFBEB7"/>
<circle cx="423.556" cy="36.8141" r="1.46559" fill="#DFBEB7"/>
<circle cx="423.556" cy="54.4005" r="1.46559" fill="#DFBEB7"/>
<circle cx="423.556" cy="71.9877" r="1.46559" fill="#DFBEB7"/>
<circle cx="423.556" cy="89.5754" r="1.46559" fill="#DFBEB7"/>
<circle cx="423.556" cy="107.162" r="1.46559" fill="#DFBEB7"/>
<circle cx="423.556" cy="124.749" r="1.46559" fill="#DFBEB7"/>
<circle cx="423.556" cy="142.336" r="1.46559" fill="#DFBEB7"/>
<circle cx="423.556" cy="159.923" r="1.46559" fill="#DFBEB7"/>
<circle cx="423.556" cy="177.51" r="1.46559" fill="#DFBEB7"/>
<circle cx="447.006" cy="1.6392" r="1.46559" fill="#DFBEB7"/>
<circle cx="447.006" cy="19.2269" r="1.46559" fill="#DFBEB7"/>
<circle cx="447.006" cy="36.8141" r="1.46559" fill="#DFBEB7"/>
<circle cx="447.006" cy="54.4005" r="1.46559" fill="#DFBEB7"/>
<circle cx="447.006" cy="71.9877" r="1.46559" fill="#DFBEB7"/>
<circle cx="447.006" cy="89.5754" r="1.46559" fill="#DFBEB7"/>
<circle cx="447.006" cy="107.162" r="1.46559" fill="#DFBEB7"/>
<circle cx="447.006" cy="124.749" r="1.46559" fill="#DFBEB7"/>
<circle cx="447.006" cy="142.335" r="1.46559" fill="#DFBEB7"/>
<circle cx="447.006" cy="159.923" r="1.46559" fill="#DFBEB7"/>
<circle cx="447.006" cy="177.51" r="1.46559" fill="#DFBEB7"/>
<circle cx="470.454" cy="1.6392" r="1.46559" fill="#DFBEB7"/>
<circle cx="470.454" cy="19.2269" r="1.46559" fill="#DFBEB7"/>
<circle cx="470.454" cy="36.8141" r="1.46559" fill="#DFBEB7"/>
<circle cx="470.454" cy="54.4005" r="1.46559" fill="#DFBEB7"/>
<circle cx="470.454" cy="71.9877" r="1.46559" fill="#DFBEB7"/>
<circle cx="470.454" cy="89.5754" r="1.46559" fill="#DFBEB7"/>
<circle cx="470.454" cy="107.162" r="1.46559" fill="#DFBEB7"/>
<circle cx="470.454" cy="124.749" r="1.46559" fill="#DFBEB7"/>
<circle cx="470.454" cy="142.336" r="1.46559" fill="#DFBEB7"/>
<circle cx="470.454" cy="159.923" r="1.46559" fill="#DFBEB7"/>
<circle cx="470.454" cy="177.51" r="1.46559" fill="#DFBEB7"/>
<circle cx="493.903" cy="1.6392" r="1.46559" fill="#DFBEB7"/>
<circle cx="493.903" cy="19.2269" r="1.46559" fill="#DFBEB7"/>
<circle cx="493.903" cy="36.8141" r="1.46559" fill="#DFBEB7"/>
<circle cx="493.903" cy="54.4005" r="1.46559" fill="#DFBEB7"/>
<circle cx="493.903" cy="71.9877" r="1.46559" fill="#DFBEB7"/>
<circle cx="493.903" cy="89.5754" r="1.46559" fill="#DFBEB7"/>
<circle cx="493.903" cy="107.162" r="1.46559" fill="#DFBEB7"/>
<circle cx="493.903" cy="124.749" r="1.46559" fill="#DFBEB7"/>
<circle cx="493.903" cy="142.335" r="1.46559" fill="#DFBEB7"/>
<circle cx="493.903" cy="159.923" r="1.46559" fill="#DFBEB7"/>
<circle cx="493.903" cy="177.51" r="1.46559" fill="#DFBEB7"/>
<circle cx="517.353" cy="1.6392" r="1.46559" fill="#DFBEB7"/>
<circle cx="517.353" cy="19.2269" r="1.46559" fill="#DFBEB7"/>
<circle cx="517.353" cy="36.8141" r="1.46559" fill="#DFBEB7"/>
<circle cx="517.353" cy="54.4005" r="1.46559" fill="#DFBEB7"/>
<circle cx="517.353" cy="71.9877" r="1.46559" fill="#DFBEB7"/>
<circle cx="517.353" cy="89.5754" r="1.46559" fill="#DFBEB7"/>
<circle cx="517.353" cy="107.162" r="1.46559" fill="#DFBEB7"/>
<circle cx="517.353" cy="124.749" r="1.46559" fill="#DFBEB7"/>
<circle cx="517.353" cy="142.335" r="1.46559" fill="#DFBEB7"/>
<circle cx="517.353" cy="159.923" r="1.46559" fill="#DFBEB7"/>
<circle cx="517.353" cy="177.51" r="1.46559" fill="#DFBEB7"/>
<circle cx="540.802" cy="1.6392" r="1.46559" fill="#DFBEB7"/>
<circle cx="540.802" cy="19.2269" r="1.46559" fill="#DFBEB7"/>
<circle cx="540.802" cy="36.8141" r="1.46559" fill="#DFBEB7"/>
<circle cx="540.802" cy="54.4005" r="1.46559" fill="#DFBEB7"/>
<circle cx="540.802" cy="71.9877" r="1.46559" fill="#DFBEB7"/>
<circle cx="540.802" cy="89.5754" r="1.46559" fill="#DFBEB7"/>
<circle cx="540.802" cy="107.162" r="1.46559" fill="#DFBEB7"/>
<circle cx="540.802" cy="124.749" r="1.46559" fill="#DFBEB7"/>
<circle cx="540.802" cy="142.336" r="1.46559" fill="#DFBEB7"/>
<circle cx="540.802" cy="159.923" r="1.46559" fill="#DFBEB7"/>
<circle cx="540.802" cy="177.51" r="1.46559" fill="#DFBEB7"/>
<circle cx="564.252" cy="1.6392" r="1.46559" fill="#DFBEB7"/>
<circle cx="564.252" cy="19.2269" r="1.46559" fill="#DFBEB7"/>
<circle cx="564.252" cy="36.8141" r="1.46559" fill="#DFBEB7"/>
<circle cx="564.252" cy="54.4005" r="1.46559" fill="#DFBEB7"/>
<circle cx="564.252" cy="71.9877" r="1.46559" fill="#DFBEB7"/>
<circle cx="564.252" cy="89.5754" r="1.46559" fill="#DFBEB7"/>
<circle cx="564.252" cy="107.162" r="1.46559" fill="#DFBEB7"/>
<circle cx="564.252" cy="124.749" r="1.46559" fill="#DFBEB7"/>
<circle cx="564.252" cy="142.335" r="1.46559" fill="#DFBEB7"/>
<circle cx="564.252" cy="159.923" r="1.46559" fill="#DFBEB7"/>
<circle cx="564.252" cy="177.51" r="1.46559" fill="#DFBEB7"/>
<circle cx="587.7" cy="1.6392" r="1.46559" fill="#DFBEB7"/>
<circle cx="587.7" cy="19.2269" r="1.46559" fill="#DFBEB7"/>
<circle cx="587.7" cy="36.8141" r="1.46559" fill="#DFBEB7"/>
<circle cx="587.7" cy="54.4005" r="1.46559" fill="#DFBEB7"/>
<circle cx="587.7" cy="71.9877" r="1.46559" fill="#DFBEB7"/>
<circle cx="587.7" cy="89.5754" r="1.46559" fill="#DFBEB7"/>
<circle cx="587.7" cy="107.162" r="1.46559" fill="#DFBEB7"/>
<circle cx="587.7" cy="124.749" r="1.46559" fill="#DFBEB7"/>
<circle cx="587.7" cy="142.336" r="1.46559" fill="#DFBEB7"/>
<circle cx="587.7" cy="159.923" r="1.46559" fill="#DFBEB7"/>
<circle cx="587.7" cy="177.51" r="1.46559" fill="#DFBEB7"/>
<circle cx="611.151" cy="1.6392" r="1.46559" fill="#DFBEB7"/>
<circle cx="611.151" cy="19.2269" r="1.46559" fill="#DFBEB7"/>
<circle cx="611.151" cy="36.8141" r="1.46559" fill="#DFBEB7"/>
<circle cx="611.151" cy="54.4005" r="1.46559" fill="#DFBEB7"/>
<circle cx="611.151" cy="71.9877" r="1.46559" fill="#DFBEB7"/>
<circle cx="611.151" cy="89.5754" r="1.46559" fill="#DFBEB7"/>
<circle cx="611.151" cy="107.162" r="1.46559" fill="#DFBEB7"/>
<circle cx="611.151" cy="124.749" r="1.46559" fill="#DFBEB7"/>
<circle cx="611.151" cy="142.335" r="1.46559" fill="#DFBEB7"/>
<circle cx="611.151" cy="159.923" r="1.46559" fill="#DFBEB7"/>
<circle cx="611.151" cy="177.51" r="1.46559" fill="#DFBEB7"/>
<circle cx="634.601" cy="1.6392" r="1.46559" fill="#DFBEB7"/>
<circle cx="634.601" cy="19.2269" r="1.46559" fill="#DFBEB7"/>
<circle cx="634.601" cy="36.8141" r="1.46559" fill="#DFBEB7"/>
<circle cx="634.601" cy="54.4005" r="1.46559" fill="#DFBEB7"/>
<circle cx="634.601" cy="71.9877" r="1.46559" fill="#DFBEB7"/>
<circle cx="634.601" cy="89.5754" r="1.46559" fill="#DFBEB7"/>
<circle cx="634.601" cy="107.162" r="1.46559" fill="#DFBEB7"/>
<circle cx="634.601" cy="124.749" r="1.46559" fill="#DFBEB7"/>
<circle cx="634.601" cy="142.336" r="1.46559" fill="#DFBEB7"/>
<circle cx="634.601" cy="159.923" r="1.46559" fill="#DFBEB7"/>
<circle cx="634.601" cy="177.51" r="1.46559" fill="#DFBEB7"/>
<circle cx="658.05" cy="1.6392" r="1.46559" fill="#DFBEB7"/>
<circle cx="658.05" cy="19.2269" r="1.46559" fill="#DFBEB7"/>
<circle cx="658.05" cy="36.8141" r="1.46559" fill="#DFBEB7"/>
<circle cx="658.05" cy="54.4005" r="1.46559" fill="#DFBEB7"/>
<circle cx="658.05" cy="71.9877" r="1.46559" fill="#DFBEB7"/>
<circle cx="658.05" cy="89.5754" r="1.46559" fill="#DFBEB7"/>
<circle cx="658.05" cy="107.162" r="1.46559" fill="#DFBEB7"/>
<circle cx="658.05" cy="124.749" r="1.46559" fill="#DFBEB7"/>
<circle cx="658.05" cy="142.335" r="1.46559" fill="#DFBEB7"/>
<circle cx="658.05" cy="159.923" r="1.46559" fill="#DFBEB7"/>
<circle cx="658.05" cy="177.51" r="1.46559" fill="#DFBEB7"/>
<circle cx="681.499" cy="1.6392" r="1.46559" fill="#DFBEB7"/>
<circle cx="681.499" cy="19.2269" r="1.46559" fill="#DFBEB7"/>
<circle cx="681.499" cy="36.8141" r="1.46559" fill="#DFBEB7"/>
<circle cx="681.499" cy="54.4005" r="1.46559" fill="#DFBEB7"/>
<circle cx="681.499" cy="71.9877" r="1.46559" fill="#DFBEB7"/>
<circle cx="681.499" cy="89.5754" r="1.46559" fill="#DFBEB7"/>
<circle cx="681.499" cy="107.162" r="1.46559" fill="#DFBEB7"/>
<circle cx="681.499" cy="124.749" r="1.46559" fill="#DFBEB7"/>
<circle cx="681.499" cy="142.336" r="1.46559" fill="#DFBEB7"/>
<circle cx="681.499" cy="159.923" r="1.46559" fill="#DFBEB7"/>
<circle cx="681.499" cy="177.51" r="1.46559" fill="#DFBEB7"/>
<circle cx="704.947" cy="1.6392" r="1.46559" fill="#DFBEB7"/>
<circle cx="704.947" cy="19.2269" r="1.46559" fill="#DFBEB7"/>
<circle cx="704.947" cy="36.8141" r="1.46559" fill="#DFBEB7"/>
<circle cx="704.947" cy="54.4005" r="1.46559" fill="#DFBEB7"/>
<circle cx="704.947" cy="71.9877" r="1.46559" fill="#DFBEB7"/>
<circle cx="704.947" cy="89.5754" r="1.46559" fill="#DFBEB7"/>
<circle cx="704.947" cy="107.162" r="1.46559" fill="#DFBEB7"/>
<circle cx="704.947" cy="124.749" r="1.46559" fill="#DFBEB7"/>
<circle cx="704.947" cy="142.336" r="1.46559" fill="#DFBEB7"/>
<circle cx="704.947" cy="159.923" r="1.46559" fill="#DFBEB7"/>
<circle cx="704.947" cy="177.51" r="1.46559" fill="#DFBEB7"/>
<circle cx="728.397" cy="1.6392" r="1.46559" fill="#DFBEB7"/>
<circle cx="728.397" cy="19.2269" r="1.46559" fill="#DFBEB7"/>
<circle cx="728.397" cy="36.8141" r="1.46559" fill="#DFBEB7"/>
<circle cx="728.397" cy="54.4005" r="1.46559" fill="#DFBEB7"/>
<circle cx="728.397" cy="71.9877" r="1.46559" fill="#DFBEB7"/>
<circle cx="728.397" cy="89.5754" r="1.46559" fill="#DFBEB7"/>
<circle cx="728.397" cy="107.162" r="1.46559" fill="#DFBEB7"/>
<circle cx="728.397" cy="124.749" r="1.46559" fill="#DFBEB7"/>
<circle cx="728.397" cy="142.335" r="1.46559" fill="#DFBEB7"/>
<circle cx="728.397" cy="159.923" r="1.46559" fill="#DFBEB7"/>
<circle cx="728.397" cy="177.51" r="1.46559" fill="#DFBEB7"/>
<circle cx="751.846" cy="1.6392" r="1.46559" fill="#DFBEB7"/>
<circle cx="751.846" cy="19.2269" r="1.46559" fill="#DFBEB7"/>
<circle cx="751.846" cy="36.8141" r="1.46559" fill="#DFBEB7"/>
<circle cx="751.846" cy="54.4005" r="1.46559" fill="#DFBEB7"/>
<circle cx="751.846" cy="71.9877" r="1.46559" fill="#DFBEB7"/>
<circle cx="751.846" cy="89.5754" r="1.46559" fill="#DFBEB7"/>
<circle cx="751.846" cy="107.162" r="1.46559" fill="#DFBEB7"/>
<circle cx="751.846" cy="124.749" r="1.46559" fill="#DFBEB7"/>
<circle cx="751.846" cy="142.336" r="1.46559" fill="#DFBEB7"/>
<circle cx="751.846" cy="159.923" r="1.46559" fill="#DFBEB7"/>
<circle cx="751.846" cy="177.51" r="1.46559" fill="#DFBEB7"/>
<circle cx="775.297" cy="1.6392" r="1.46559" fill="#DFBEB7"/>
<circle cx="775.297" cy="19.2269" r="1.46559" fill="#DFBEB7"/>
<circle cx="775.297" cy="36.8141" r="1.46559" fill="#DFBEB7"/>
<circle cx="775.297" cy="54.4005" r="1.46559" fill="#DFBEB7"/>
<circle cx="775.297" cy="71.9877" r="1.46559" fill="#DFBEB7"/>
<circle cx="775.297" cy="89.5754" r="1.46559" fill="#DFBEB7"/>
<circle cx="775.297" cy="107.162" r="1.46559" fill="#DFBEB7"/>
<circle cx="775.297" cy="124.749" r="1.46559" fill="#DFBEB7"/>
<circle cx="775.297" cy="142.335" r="1.46559" fill="#DFBEB7"/>
<circle cx="775.297" cy="159.923" r="1.46559" fill="#DFBEB7"/>
<circle cx="775.297" cy="177.51" r="1.46559" fill="#DFBEB7"/>
<circle cx="798.983" cy="1.6392" r="1.46559" fill="#DFBEB7"/>
<circle cx="798.983" cy="19.2269" r="1.46559" fill="#DFBEB7"/>
<circle cx="798.983" cy="36.8141" r="1.46559" fill="#DFBEB7"/>
<circle cx="798.983" cy="54.4005" r="1.46559" fill="#DFBEB7"/>
<circle cx="798.983" cy="71.9877" r="1.46559" fill="#DFBEB7"/>
<circle cx="798.983" cy="89.5754" r="1.46559" fill="#DFBEB7"/>
<circle cx="798.983" cy="107.162" r="1.46559" fill="#DFBEB7"/>
<circle cx="798.983" cy="124.749" r="1.46559" fill="#DFBEB7"/>
<circle cx="798.983" cy="142.335" r="1.46559" fill="#DFBEB7"/>
<circle cx="798.983" cy="159.923" r="1.46559" fill="#DFBEB7"/>
<circle cx="798.983" cy="177.51" r="1.46559" fill="#DFBEB7"/>
<circle cx="822.671" cy="1.6392" r="1.46559" fill="#DFBEB7"/>
<circle cx="822.671" cy="19.2269" r="1.46559" fill="#DFBEB7"/>
<circle cx="822.671" cy="36.8141" r="1.46559" fill="#DFBEB7"/>
<circle cx="822.671" cy="54.4005" r="1.46559" fill="#DFBEB7"/>
<circle cx="822.671" cy="71.9877" r="1.46559" fill="#DFBEB7"/>
<circle cx="822.671" cy="89.5754" r="1.46559" fill="#DFBEB7"/>
<circle cx="822.671" cy="107.162" r="1.46559" fill="#DFBEB7"/>
<circle cx="822.671" cy="124.749" r="1.46559" fill="#DFBEB7"/>
<circle cx="822.671" cy="142.335" r="1.46559" fill="#DFBEB7"/>
<circle cx="822.671" cy="159.923" r="1.46559" fill="#DFBEB7"/>
<circle cx="822.671" cy="177.51" r="1.46559" fill="#DFBEB7"/>
<circle cx="846.358" cy="1.6392" r="1.46559" fill="#DFBEB7"/>
<circle cx="846.358" cy="19.2269" r="1.46559" fill="#DFBEB7"/>
<circle cx="846.358" cy="36.8141" r="1.46559" fill="#DFBEB7"/>
<circle cx="846.358" cy="54.4005" r="1.46559" fill="#DFBEB7"/>
<circle cx="846.358" cy="71.9877" r="1.46559" fill="#DFBEB7"/>
<circle cx="846.358" cy="89.5754" r="1.46559" fill="#DFBEB7"/>
<circle cx="846.358" cy="107.162" r="1.46559" fill="#DFBEB7"/>
<circle cx="846.358" cy="124.749" r="1.46559" fill="#DFBEB7"/>
<circle cx="846.358" cy="142.335" r="1.46559" fill="#DFBEB7"/>
<circle cx="846.358" cy="159.923" r="1.46559" fill="#DFBEB7"/>
<circle cx="846.358" cy="177.51" r="1.46559" fill="#DFBEB7"/>
<circle cx="870.046" cy="1.6392" r="1.46559" fill="#DFBEB7"/>
<circle cx="870.046" cy="19.2269" r="1.46559" fill="#DFBEB7"/>
<circle cx="870.046" cy="36.8141" r="1.46559" fill="#DFBEB7"/>
<circle cx="870.046" cy="54.4005" r="1.46559" fill="#DFBEB7"/>
<circle cx="870.046" cy="71.9877" r="1.46559" fill="#DFBEB7"/>
<circle cx="870.046" cy="89.5754" r="1.46559" fill="#DFBEB7"/>
<circle cx="870.046" cy="107.162" r="1.46559" fill="#DFBEB7"/>
<circle cx="870.046" cy="124.749" r="1.46559" fill="#DFBEB7"/>
<circle cx="870.046" cy="142.335" r="1.46559" fill="#DFBEB7"/>
<circle cx="870.046" cy="159.923" r="1.46559" fill="#DFBEB7"/>
<circle cx="870.046" cy="177.51" r="1.46559" fill="#DFBEB7"/>
<circle cx="893.732" cy="1.6392" r="1.46559" fill="#DFBEB7"/>
<circle cx="893.732" cy="19.2269" r="1.46559" fill="#DFBEB7"/>
<circle cx="893.732" cy="36.8141" r="1.46559" fill="#DFBEB7"/>
<circle cx="893.732" cy="54.4005" r="1.46559" fill="#DFBEB7"/>
<circle cx="893.732" cy="71.9877" r="1.46559" fill="#DFBEB7"/>
<circle cx="893.732" cy="89.5754" r="1.46559" fill="#DFBEB7"/>
<circle cx="893.732" cy="107.162" r="1.46559" fill="#DFBEB7"/>
<circle cx="893.732" cy="124.749" r="1.46559" fill="#DFBEB7"/>
<circle cx="893.732" cy="142.335" r="1.46559" fill="#DFBEB7"/>
<circle cx="893.732" cy="159.923" r="1.46559" fill="#DFBEB7"/>
<circle cx="893.732" cy="177.51" r="1.46559" fill="#DFBEB7"/>
<circle cx="917.419" cy="1.6392" r="1.46559" fill="#DFBEB7"/>
<circle cx="917.419" cy="19.2269" r="1.46559" fill="#DFBEB7"/>
<circle cx="917.419" cy="36.8141" r="1.46559" fill="#DFBEB7"/>
<circle cx="917.419" cy="54.4005" r="1.46559" fill="#DFBEB7"/>
<circle cx="917.419" cy="71.9877" r="1.46559" fill="#DFBEB7"/>
<circle cx="917.419" cy="89.5754" r="1.46559" fill="#DFBEB7"/>
<circle cx="917.419" cy="107.162" r="1.46559" fill="#DFBEB7"/>
<circle cx="917.419" cy="124.749" r="1.46559" fill="#DFBEB7"/>
<circle cx="917.419" cy="142.335" r="1.46559" fill="#DFBEB7"/>
<circle cx="917.419" cy="159.923" r="1.46559" fill="#DFBEB7"/>
<circle cx="917.419" cy="177.51" r="1.46559" fill="#DFBEB7"/>
<circle cx="941.106" cy="1.6392" r="1.46559" fill="#DFBEB7"/>
<circle cx="941.106" cy="19.2269" r="1.46559" fill="#DFBEB7"/>
<circle cx="941.106" cy="36.8141" r="1.46559" fill="#DFBEB7"/>
<circle cx="941.106" cy="54.4005" r="1.46559" fill="#DFBEB7"/>
<circle cx="941.106" cy="71.9877" r="1.46559" fill="#DFBEB7"/>
<circle cx="941.106" cy="89.5754" r="1.46559" fill="#DFBEB7"/>
<circle cx="941.106" cy="107.162" r="1.46559" fill="#DFBEB7"/>
<circle cx="941.106" cy="124.749" r="1.46559" fill="#DFBEB7"/>
<circle cx="941.106" cy="142.335" r="1.46559" fill="#DFBEB7"/>
<circle cx="941.106" cy="159.923" r="1.46559" fill="#DFBEB7"/>
<circle cx="941.106" cy="177.51" r="1.46559" fill="#DFBEB7"/>
<circle cx="964.793" cy="1.6392" r="1.46559" fill="#DFBEB7"/>
<circle cx="964.793" cy="19.2269" r="1.46559" fill="#DFBEB7"/>
<circle cx="964.793" cy="36.8141" r="1.46559" fill="#DFBEB7"/>
<circle cx="964.793" cy="54.4005" r="1.46559" fill="#DFBEB7"/>
<circle cx="964.793" cy="71.9877" r="1.46559" fill="#DFBEB7"/>
<circle cx="964.793" cy="89.5754" r="1.46559" fill="#DFBEB7"/>
<circle cx="964.793" cy="107.162" r="1.46559" fill="#DFBEB7"/>
<circle cx="964.793" cy="124.749" r="1.46559" fill="#DFBEB7"/>
<circle cx="964.793" cy="142.335" r="1.46559" fill="#DFBEB7"/>
<circle cx="964.793" cy="159.923" r="1.46559" fill="#DFBEB7"/>
<circle cx="964.793" cy="177.51" r="1.46559" fill="#DFBEB7"/>
<circle cx="988.48" cy="1.6392" r="1.46559" fill="#DFBEB7"/>
<circle cx="988.48" cy="19.2269" r="1.46559" fill="#DFBEB7"/>
<circle cx="988.48" cy="36.8141" r="1.46559" fill="#DFBEB7"/>
<circle cx="988.48" cy="54.4005" r="1.46559" fill="#DFBEB7"/>
<circle cx="988.48" cy="71.9877" r="1.46559" fill="#DFBEB7"/>
<circle cx="988.48" cy="89.5754" r="1.46559" fill="#DFBEB7"/>
<circle cx="988.48" cy="107.162" r="1.46559" fill="#DFBEB7"/>
<circle cx="988.48" cy="124.749" r="1.46559" fill="#DFBEB7"/>
<circle cx="988.48" cy="142.335" r="1.46559" fill="#DFBEB7"/>
<circle cx="988.48" cy="159.923" r="1.46559" fill="#DFBEB7"/>
<circle cx="988.48" cy="177.51" r="1.46559" fill="#DFBEB7"/>
<circle cx="1012.17" cy="1.6392" r="1.46559" fill="#DFBEB7"/>
<circle cx="1012.17" cy="19.2269" r="1.46559" fill="#DFBEB7"/>
<circle cx="1012.17" cy="36.8141" r="1.46559" fill="#DFBEB7"/>
<circle cx="1012.17" cy="54.4005" r="1.46559" fill="#DFBEB7"/>
<circle cx="1012.17" cy="71.9877" r="1.46559" fill="#DFBEB7"/>
<circle cx="1012.17" cy="89.5754" r="1.46559" fill="#DFBEB7"/>
<circle cx="1012.17" cy="107.162" r="1.46559" fill="#DFBEB7"/>
<circle cx="1012.17" cy="124.749" r="1.46559" fill="#DFBEB7"/>
<circle cx="1012.17" cy="142.335" r="1.46559" fill="#DFBEB7"/>
<circle cx="1012.17" cy="159.923" r="1.46559" fill="#DFBEB7"/>
<circle cx="1012.17" cy="177.51" r="1.46559" fill="#DFBEB7"/>
<circle cx="1035.85" cy="1.6392" r="1.46559" fill="#DFBEB7"/>
<circle cx="1035.85" cy="19.2269" r="1.46559" fill="#DFBEB7"/>
<circle cx="1035.85" cy="36.8141" r="1.46559" fill="#DFBEB7"/>
<circle cx="1035.85" cy="54.4005" r="1.46559" fill="#DFBEB7"/>
<circle cx="1035.85" cy="71.9877" r="1.46559" fill="#DFBEB7"/>
<circle cx="1035.85" cy="89.5754" r="1.46559" fill="#DFBEB7"/>
<circle cx="1035.85" cy="107.162" r="1.46559" fill="#DFBEB7"/>
<circle cx="1035.85" cy="124.749" r="1.46559" fill="#DFBEB7"/>
<circle cx="1035.85" cy="142.335" r="1.46559" fill="#DFBEB7"/>
<circle cx="1035.85" cy="159.923" r="1.46559" fill="#DFBEB7"/>
<circle cx="1035.85" cy="177.51" r="1.46559" fill="#DFBEB7"/>
<circle cx="1059.54" cy="1.6392" r="1.46559" fill="#DFBEB7"/>
<circle cx="1059.54" cy="19.2269" r="1.46559" fill="#DFBEB7"/>
<circle cx="1059.54" cy="36.8141" r="1.46559" fill="#DFBEB7"/>
<circle cx="1059.54" cy="54.4005" r="1.46559" fill="#DFBEB7"/>
<circle cx="1059.54" cy="71.9877" r="1.46559" fill="#DFBEB7"/>
<circle cx="1059.54" cy="89.5754" r="1.46559" fill="#DFBEB7"/>
<circle cx="1059.54" cy="107.162" r="1.46559" fill="#DFBEB7"/>
<circle cx="1059.54" cy="124.749" r="1.46559" fill="#DFBEB7"/>
<circle cx="1059.54" cy="142.335" r="1.46559" fill="#DFBEB7"/>
<circle cx="1059.54" cy="159.923" r="1.46559" fill="#DFBEB7"/>
<circle cx="1059.54" cy="177.51" r="1.46559" fill="#DFBEB7"/>
<circle cx="1083.23" cy="1.6392" r="1.46559" fill="#DFBEB7"/>
<circle cx="1083.23" cy="19.2269" r="1.46559" fill="#DFBEB7"/>
<circle cx="1083.23" cy="36.8141" r="1.46559" fill="#DFBEB7"/>
<circle cx="1083.23" cy="54.4005" r="1.46559" fill="#DFBEB7"/>
<circle cx="1083.23" cy="71.9877" r="1.46559" fill="#DFBEB7"/>
<circle cx="1083.23" cy="89.5754" r="1.46559" fill="#DFBEB7"/>
<circle cx="1083.23" cy="107.162" r="1.46559" fill="#DFBEB7"/>
<circle cx="1083.23" cy="124.749" r="1.46559" fill="#DFBEB7"/>
<circle cx="1083.23" cy="142.335" r="1.46559" fill="#DFBEB7"/>
<circle cx="1083.23" cy="159.923" r="1.46559" fill="#DFBEB7"/>
<circle cx="1083.23" cy="177.51" r="1.46559" fill="#DFBEB7"/>
<circle cx="1106.92" cy="1.6392" r="1.46559" fill="#DFBEB7"/>
<circle cx="1106.92" cy="19.2269" r="1.46559" fill="#DFBEB7"/>
<circle cx="1106.92" cy="36.8141" r="1.46559" fill="#DFBEB7"/>
<circle cx="1106.92" cy="54.4005" r="1.46559" fill="#DFBEB7"/>
<circle cx="1106.92" cy="71.9877" r="1.46559" fill="#DFBEB7"/>
<circle cx="1106.92" cy="89.5754" r="1.46559" fill="#DFBEB7"/>
<circle cx="1106.92" cy="107.162" r="1.46559" fill="#DFBEB7"/>
<circle cx="1106.92" cy="124.749" r="1.46559" fill="#DFBEB7"/>
<circle cx="1106.92" cy="142.335" r="1.46559" fill="#DFBEB7"/>
<circle cx="1106.92" cy="159.923" r="1.46559" fill="#DFBEB7"/>
<circle cx="1106.92" cy="177.51" r="1.46559" fill="#DFBEB7"/>
<circle cx="1130.6" cy="1.6392" r="1.46559" fill="#DFBEB7"/>
<circle cx="1130.6" cy="19.2269" r="1.46559" fill="#DFBEB7"/>
<circle cx="1130.6" cy="36.8141" r="1.46559" fill="#DFBEB7"/>
<circle cx="1130.6" cy="54.4005" r="1.46559" fill="#DFBEB7"/>
<circle cx="1130.6" cy="71.9877" r="1.46559" fill="#DFBEB7"/>
<circle cx="1130.6" cy="89.5754" r="1.46559" fill="#DFBEB7"/>
<circle cx="1130.6" cy="107.162" r="1.46559" fill="#DFBEB7"/>
<circle cx="1130.6" cy="124.749" r="1.46559" fill="#DFBEB7"/>
<circle cx="1130.6" cy="142.335" r="1.46559" fill="#DFBEB7"/>
<circle cx="1130.6" cy="159.923" r="1.46559" fill="#DFBEB7"/>
<circle cx="1130.6" cy="177.51" r="1.46559" fill="#DFBEB7"/>
<circle cx="1154.29" cy="1.6392" r="1.46559" fill="#DFBEB7"/>
<circle cx="1154.29" cy="19.2269" r="1.46559" fill="#DFBEB7"/>
<circle cx="1154.29" cy="36.8141" r="1.46559" fill="#DFBEB7"/>
<circle cx="1154.29" cy="54.4005" r="1.46559" fill="#DFBEB7"/>
<circle cx="1154.29" cy="71.9877" r="1.46559" fill="#DFBEB7"/>
<circle cx="1154.29" cy="89.5754" r="1.46559" fill="#DFBEB7"/>
<circle cx="1154.29" cy="107.162" r="1.46559" fill="#DFBEB7"/>
<circle cx="1154.29" cy="124.749" r="1.46559" fill="#DFBEB7"/>
<circle cx="1154.29" cy="142.335" r="1.46559" fill="#DFBEB7"/>
<circle cx="1154.29" cy="159.923" r="1.46559" fill="#DFBEB7"/>
<circle cx="1154.29" cy="177.51" r="1.46559" fill="#DFBEB7"/>
<circle cx="1177.98" cy="1.6392" r="1.46559" fill="#DFBEB7"/>
<circle cx="1177.98" cy="19.2269" r="1.46559" fill="#DFBEB7"/>
<circle cx="1177.98" cy="36.8141" r="1.46559" fill="#DFBEB7"/>
<circle cx="1177.98" cy="54.4005" r="1.46559" fill="#DFBEB7"/>
<circle cx="1177.98" cy="71.9877" r="1.46559" fill="#DFBEB7"/>
<circle cx="1177.98" cy="89.5754" r="1.46559" fill="#DFBEB7"/>
<circle cx="1177.98" cy="107.162" r="1.46559" fill="#DFBEB7"/>
<circle cx="1177.98" cy="124.749" r="1.46559" fill="#DFBEB7"/>
<circle cx="1177.98" cy="142.335" r="1.46559" fill="#DFBEB7"/>
<circle cx="1177.98" cy="159.923" r="1.46559" fill="#DFBEB7"/>
<circle cx="1177.98" cy="177.51" r="1.46559" fill="#DFBEB7"/>
<circle cx="1201.66" cy="1.6392" r="1.46559" fill="#DFBEB7"/>
<circle cx="1201.66" cy="19.2269" r="1.46559" fill="#DFBEB7"/>
<circle cx="1201.66" cy="36.8141" r="1.46559" fill="#DFBEB7"/>
<circle cx="1201.66" cy="54.4005" r="1.46559" fill="#DFBEB7"/>
<circle cx="1201.66" cy="71.9877" r="1.46559" fill="#DFBEB7"/>
<circle cx="1201.66" cy="89.5754" r="1.46559" fill="#DFBEB7"/>
<circle cx="1201.66" cy="107.162" r="1.46559" fill="#DFBEB7"/>
<circle cx="1201.66" cy="124.749" r="1.46559" fill="#DFBEB7"/>
<circle cx="1201.66" cy="142.335" r="1.46559" fill="#DFBEB7"/>
<circle cx="1201.66" cy="159.923" r="1.46559" fill="#DFBEB7"/>
<circle cx="1201.66" cy="177.51" r="1.46559" fill="#DFBEB7"/>
<circle cx="1225.35" cy="1.6392" r="1.46559" fill="#DFBEB7"/>
<circle cx="1225.35" cy="19.2269" r="1.46559" fill="#DFBEB7"/>
<circle cx="1225.35" cy="36.8141" r="1.46559" fill="#DFBEB7"/>
<circle cx="1225.35" cy="54.4005" r="1.46559" fill="#DFBEB7"/>
<circle cx="1225.35" cy="71.9877" r="1.46559" fill="#DFBEB7"/>
<circle cx="1225.35" cy="89.5754" r="1.46559" fill="#DFBEB7"/>
<circle cx="1225.35" cy="107.162" r="1.46559" fill="#DFBEB7"/>
<circle cx="1225.35" cy="124.749" r="1.46559" fill="#DFBEB7"/>
<circle cx="1225.35" cy="142.335" r="1.46559" fill="#DFBEB7"/>
<circle cx="1225.35" cy="159.923" r="1.46559" fill="#DFBEB7"/>
<circle cx="1225.35" cy="177.51" r="1.46559" fill="#DFBEB7"/>
<circle cx="1249.04" cy="1.6392" r="1.46559" fill="#DFBEB7"/>
<circle cx="1249.04" cy="19.2269" r="1.46559" fill="#DFBEB7"/>
<circle cx="1249.04" cy="36.8141" r="1.46559" fill="#DFBEB7"/>
<circle cx="1249.04" cy="54.4005" r="1.46559" fill="#DFBEB7"/>
<circle cx="1249.04" cy="71.9877" r="1.46559" fill="#DFBEB7"/>
<circle cx="1249.04" cy="89.5754" r="1.46559" fill="#DFBEB7"/>
<circle cx="1249.04" cy="107.162" r="1.46559" fill="#DFBEB7"/>
<circle cx="1249.04" cy="124.749" r="1.46559" fill="#DFBEB7"/>
<circle cx="1249.04" cy="142.335" r="1.46559" fill="#DFBEB7"/>
<circle cx="1249.04" cy="159.923" r="1.46559" fill="#DFBEB7"/>
<circle cx="1249.04" cy="177.51" r="1.46559" fill="#DFBEB7"/>
<circle cx="1272.73" cy="1.6392" r="1.46559" fill="#DFBEB7"/>
<circle cx="1272.73" cy="19.2269" r="1.46559" fill="#DFBEB7"/>
<circle cx="1272.73" cy="36.8141" r="1.46559" fill="#DFBEB7"/>
<circle cx="1272.73" cy="54.4005" r="1.46559" fill="#DFBEB7"/>
<circle cx="1272.73" cy="71.9877" r="1.46559" fill="#DFBEB7"/>
<circle cx="1272.73" cy="89.5754" r="1.46559" fill="#DFBEB7"/>
<circle cx="1272.73" cy="107.162" r="1.46559" fill="#DFBEB7"/>
<circle cx="1272.73" cy="124.749" r="1.46559" fill="#DFBEB7"/>
<circle cx="1272.73" cy="142.335" r="1.46559" fill="#DFBEB7"/>
<circle cx="1272.73" cy="159.923" r="1.46559" fill="#DFBEB7"/>
<circle cx="1272.73" cy="177.51" r="1.46559" fill="#DFBEB7"/>
</g>
</g>
<defs>
<clipPath id="clip0_1672_3713">
<rect width="1278" height="179" rx="10" fill="white"/>
</clipPath>
</defs>
</svg>
