<svg width="156" height="103" viewBox="0 0 156 103" fill="none" xmlns="http://www.w3.org/2000/svg">
<path fill-rule="evenodd" clip-rule="evenodd" d="M17.5721 0C16.2184 0 15.1412 1.09992 14.3954 2.22965C13.4715 3.62917 11.8466 4.55784 9.99642 4.55784C7.93578 4.55784 6.15464 3.40588 5.31005 1.73446C4.84595 0.816006 4.02267 0 2.99362 0V0C1.89257 0 1 0.892573 1 1.99362V101.065C1 102.134 1.86624 103 2.93481 103V103C3.97265 103 4.7905 102.149 5.21767 101.203C6.01938 99.4283 7.8573 98.1869 9.99642 98.1869C11.947 98.1869 13.6471 99.219 14.5395 100.747C15.2078 101.891 16.247 103 17.5721 103V103C18.8971 103 19.9364 101.891 20.6047 100.747C21.4971 99.219 23.1972 98.1869 25.1477 98.1869C27.0982 98.1869 28.7983 99.219 29.6907 100.747C30.3591 101.891 31.3984 103 32.7235 103V103C34.0486 103 35.0879 101.891 35.7562 100.747C36.6487 99.219 38.3487 98.1869 40.2992 98.1869C42.2497 98.1869 43.9498 99.219 44.8422 100.747C45.5106 101.891 46.5499 103 47.875 103V103C49.2001 103 50.2394 101.891 50.9078 100.747C51.8002 99.219 53.5003 98.1869 55.4508 98.1869C57.4013 98.1869 59.1015 99.2191 59.9939 100.747C60.6621 101.891 61.7013 103 63.0263 103V103C64.3513 103 65.3905 101.891 66.0588 100.747C66.9512 99.2191 68.6513 98.1869 70.6019 98.1869C72.5522 98.1869 74.2522 99.2188 75.1447 100.746C75.8133 101.891 76.8527 103 78.1781 103V103C79.5034 103 80.5428 101.891 81.2114 100.746C82.1039 99.2188 83.8039 98.1869 85.7542 98.1869C87.7048 98.1869 89.4048 99.219 90.2973 100.747C90.9656 101.891 92.0048 103 93.3299 103V103C94.655 103 95.6942 101.891 96.3626 100.747C97.255 99.219 98.9551 98.1869 100.906 98.1869C102.856 98.1869 104.556 99.2191 105.449 100.747C106.117 101.891 107.156 103 108.481 103V103C109.806 103 110.845 101.891 111.514 100.747C112.406 99.2191 114.106 98.1869 116.057 98.1869C118.007 98.1869 119.707 99.219 120.6 100.747C121.268 101.891 122.307 103 123.633 103V103C124.958 103 125.997 101.891 126.665 100.747C127.558 99.219 129.258 98.1869 131.208 98.1869C133.159 98.1869 134.859 99.219 135.751 100.747C136.42 101.891 137.459 103 138.784 103V103C140.109 103 141.148 101.891 141.817 100.747C142.709 99.219 144.409 98.1869 146.36 98.1869C148.563 98.1869 150.446 99.5035 151.208 101.364C151.564 102.234 152.307 103 153.247 103V103C154.215 103 155 102.215 155 101.247V1.80715C155 0.809089 154.191 0 153.193 0V0C152.26 0 151.512 0.734925 151.12 1.58155C150.309 3.33522 148.483 4.55784 146.36 4.55784C144.51 4.55784 142.885 3.62921 141.961 2.22974C141.215 1.09997 140.138 0 138.784 0V0C137.43 0 136.353 1.09997 135.607 2.22974C134.683 3.62921 133.058 4.55784 131.208 4.55784C129.358 4.55784 127.733 3.62921 126.809 2.22974C126.064 1.09998 124.986 0 123.633 0V0C122.279 0 121.202 1.09998 120.456 2.22974C119.532 3.62921 117.907 4.55784 116.057 4.55784C114.207 4.55784 112.582 3.62916 111.658 2.22962C110.912 1.0999 109.835 0 108.481 0V0C107.128 0 106.05 1.0999 105.305 2.22962C104.381 3.62916 102.756 4.55784 100.906 4.55784C99.0554 4.55784 97.4306 3.62918 96.5066 2.22968C95.7608 1.09994 94.6837 0 93.3299 0V0C91.9762 0 90.899 1.09994 90.1532 2.22968C89.2293 3.62918 87.6044 4.55784 85.7542 4.55784C83.9042 4.55784 82.2795 3.62936 81.3555 2.23009C80.6094 1.10019 79.5321 0 78.1781 0V0C76.824 0 75.7467 1.10019 75.0006 2.23009C74.0766 3.62936 72.4519 4.55784 70.6019 4.55784C68.7517 4.55784 67.1268 3.62914 66.2029 2.22958C65.4571 1.09988 64.38 0 63.0263 0V0C61.6727 0 60.5956 1.09988 59.8498 2.22958C58.9259 3.62914 57.301 4.55784 55.4508 4.55784C53.6006 4.55784 51.9758 3.62921 51.0518 2.22974C50.3059 1.09998 49.2288 0 47.875 0V0C46.5212 0 45.4441 1.09998 44.6982 2.22974C43.7742 3.62921 42.1494 4.55784 40.2992 4.55784C38.4491 4.55784 36.8243 3.62921 35.9003 2.22974C35.1544 1.09998 34.0773 0 32.7235 0V0C31.3697 0 30.2925 1.09998 29.5467 2.22974C28.6227 3.62922 26.9979 4.55784 25.1477 4.55784C23.2975 4.55784 21.6727 3.62918 20.7487 2.22966C20.0029 1.09992 18.9258 0 17.5721 0V0Z" fill="#9E5A57"/>
<mask id="mask0_1_89" style="mask-type:alpha" maskUnits="userSpaceOnUse" x="1" y="5" width="155" height="64">
<path fill-rule="evenodd" clip-rule="evenodd" d="M1 7.57574C1 6.47118 1.89543 5.57574 3 5.57574H107.646L153.355 5.57576C154.46 5.57576 155.355 6.47119 155.355 7.57576V11.0028V22.5792V24.9252V36.5016V38.8475V50.424V52.77V64.3464V67C155.355 68.1046 154.46 69 153.355 69L48.7095 69C48.7095 69 48.7095 69 48.7095 69V69C48.7095 69 48.7095 69 48.7095 69H3C1.89543 69 1 68.1045 1 67V7.57574Z" fill="#9E5A57"/>
</mask>
<g mask="url(#mask0_1_89)">
<g opacity="0.1">
<path d="M115.223 155.241C115.326 155.139 115.314 154.984 115.197 154.895L59.1742 112.122C50.5667 105.55 43.3856 97.994 37.8304 89.6638C32.4673 81.6215 28.8428 73.2086 27.0577 64.6587C25.2727 56.1088 25.4196 47.8654 27.4945 40.1576C29.6436 32.1738 33.7758 25.1267 39.7763 19.2118C45.7769 13.2969 53.3094 8.8459 62.1647 5.9823C70.714 3.21767 80.1205 2.04396 90.123 2.49375C100.125 2.94357 110.205 4.99357 120.082 8.5868C130.312 12.3087 139.864 17.528 148.471 24.0997L204.494 66.8727C204.611 66.9624 204.79 66.9529 204.893 66.8515V66.8515C204.995 66.7501 204.984 66.5953 204.866 66.5057L148.843 23.7327C113.324 -3.38608 64.0035 -5.60402 39.2421 18.8039L39.242 18.804C14.4806 43.2119 23.2825 85.3701 58.8018 112.489L114.825 155.262C114.942 155.351 115.121 155.342 115.223 155.241V155.241Z" fill="white"/>
<path d="M116.836 153.652C116.939 153.55 116.927 153.395 116.81 153.305L61.2155 110.859C52.927 104.531 46.0132 97.2541 40.6662 89.2305C35.5039 81.4842 32.0168 73.38 30.3018 65.1431C28.5867 56.9063 28.7327 48.964 30.7357 41.5369C32.8104 33.8439 36.7949 27.0525 42.5787 21.3512C48.3625 15.65 55.6214 11.3585 64.1537 8.59596C72.3912 5.92884 81.4536 4.79419 91.0892 5.22352C100.725 5.65279 110.434 7.6238 119.947 11.0818C129.8 14.6635 138.999 19.6882 147.287 26.0164L202.881 68.4623C202.999 68.5521 203.178 68.5426 203.281 68.441V68.441C203.384 68.3395 203.372 68.1844 203.254 68.0946L147.66 25.6487C113.446 -0.473319 65.919 -2.59087 42.0442 20.9431L42.0441 20.9432C18.1693 44.4772 26.6285 85.1049 60.8425 111.227L116.437 153.673C116.554 153.763 116.733 153.753 116.836 153.652V153.652Z" fill="white"/>
<path d="M118.678 151.836C118.78 151.735 118.768 151.58 118.651 151.491L63.483 109.37C55.5137 103.286 48.8613 96.294 43.7106 88.5889C38.7378 81.15 35.3717 73.371 33.7058 65.4679C32.04 57.5649 32.1607 49.9478 34.0647 42.8282C36.0368 35.4539 39.8439 28.9476 45.3803 23.4903C50.9167 18.0329 57.872 13.9304 66.0531 11.2965C73.9515 8.75362 82.6453 7.68202 91.893 8.11145C101.141 8.54088 110.463 10.4491 119.6 13.783C129.064 17.2363 137.904 22.0723 145.873 28.1568L201.041 70.2773C201.158 70.3668 201.336 70.3573 201.439 70.2561V70.2561C201.542 70.155 201.53 70.0005 201.413 69.911L146.244 27.7905C113.337 2.66554 67.707 0.546673 44.8454 23.0819L44.8453 23.0819C21.9838 45.6171 30.2035 84.6118 63.1114 109.737L118.28 151.857C118.397 151.947 118.575 151.937 118.678 151.836V151.836Z" fill="white"/>
<path d="M120.289 150.247C120.392 150.145 120.38 149.991 120.263 149.901L65.6915 108.237C58.0654 102.414 51.7038 95.7191 46.7833 88.3375C42.0328 81.2109 38.8234 73.7553 37.244 66.178C35.6648 58.6006 35.7975 51.2945 37.6388 44.4626C39.5458 37.3862 43.2101 31.1394 48.5298 25.8957C53.8494 20.652 60.5262 16.7053 68.3749 14.1652C75.9523 11.7129 84.2891 10.6705 93.1534 11.0668C102.018 11.4631 110.95 13.2776 119.702 16.46C128.767 19.7561 137.23 24.3797 144.856 30.2021L199.427 71.8667C199.544 71.9563 199.723 71.9468 199.826 71.8455V71.8455C199.928 71.7442 199.917 71.5894 199.799 71.4998L145.228 29.8352C113.726 5.78316 69.9711 3.82697 47.9961 25.4882L47.9961 25.4883C26.0211 47.1496 33.8165 84.5514 65.3192 108.603L119.89 150.268C120.008 150.358 120.186 150.348 120.289 150.247V150.247Z" fill="white"/>
<path d="M121.901 148.658C122.004 148.556 121.992 148.401 121.874 148.312L67.731 106.973C60.424 101.395 54.3298 94.9787 49.6176 87.9038C45.0681 81.0732 41.9961 73.9265 40.4869 66.6622C38.9777 59.398 39.1096 52.393 40.879 45.8418C42.7116 39.0562 46.2283 33.0652 51.3312 28.0352C56.4341 23.0052 62.8372 19.218 70.3627 16.7789C77.6283 14.4241 85.6209 13.4207 94.1183 13.7964C102.616 14.1722 111.177 15.9076 119.565 18.9546C128.253 22.1106 136.363 26.5396 143.67 32.1183L197.814 73.4564C197.931 73.5461 198.11 73.5366 198.213 73.4351V73.4351C198.316 73.3336 198.304 73.1786 198.187 73.0888L144.043 31.7507C113.846 8.69564 71.8856 6.84019 50.7972 27.6275C29.7088 48.4148 37.1612 84.2859 67.3581 107.341L121.501 148.679C121.619 148.769 121.798 148.759 121.901 148.658V148.658Z" fill="white"/>
<path d="M123.743 146.843C123.845 146.741 123.834 146.587 123.717 146.498L69.9983 105.484C63.0107 100.149 57.178 94.0184 52.6622 87.262C48.3024 80.739 45.3515 73.9175 43.8916 66.9871C42.4316 60.0568 42.5384 53.377 44.2088 47.1334C45.9391 40.6664 49.2783 34.9606 54.1338 30.1744C58.9893 25.3882 65.0889 21.7899 72.2632 19.4795C79.1897 17.2489 86.8136 16.3084 94.9231 16.6842C103.033 17.06 111.207 18.7325 119.219 21.6554C127.518 24.6828 135.269 28.9229 142.256 34.2579L195.975 75.2714C196.092 75.3608 196.27 75.3513 196.372 75.2502V75.2502C196.475 75.1492 196.463 74.9948 196.346 74.9054L142.628 33.8919C113.737 11.8344 73.6746 9.97789 53.5995 29.7664L53.5994 29.7665C33.5243 49.555 40.7367 83.7927 69.627 105.85L123.345 146.864C123.462 146.953 123.64 146.944 123.743 146.843V146.843Z" fill="white"/>
<path d="M125.356 145.253C125.459 145.152 125.447 144.997 125.33 144.908L72.0361 104.219C65.368 99.1276 59.8031 93.2761 55.4958 86.8267C51.3373 80.5999 48.5242 74.0876 47.1346 67.4705C45.7451 60.8534 45.8511 54.4749 47.4499 48.5121C49.1058 42.3361 52.2975 36.8862 56.9363 32.3136C61.575 27.7411 67.4008 24.3023 74.2519 22.0928C80.8664 19.9595 88.1459 19.0579 95.8882 19.4129C103.631 19.768 111.434 21.3613 119.082 24.1485C127.003 27.0355 134.4 31.0807 141.069 36.1717L194.362 76.8608C194.479 76.9504 194.658 76.9409 194.76 76.8396V76.8396C194.863 76.7383 194.851 76.5837 194.734 76.4941L141.441 35.805C113.858 14.7456 75.59 12.9908 56.4015 31.9054C37.213 50.82 44.0811 83.526 71.6641 104.585L124.957 145.274C125.075 145.364 125.253 145.355 125.356 145.253V145.253Z" fill="white"/>
<path d="M126.968 143.664C127.071 143.563 127.059 143.408 126.942 143.318L74.2561 103.093C67.9298 98.2627 62.6542 92.707 58.576 86.5801C54.6385 80.6647 51.9809 74.4749 50.6769 68.1828C49.3729 61.8906 49.4903 55.8225 51.0257 50.147C52.616 44.2686 55.6645 39.0779 60.0865 34.719C64.5085 30.3601 70.0561 27.0775 76.5753 24.9622C82.8694 22.9199 89.7925 22.048 97.1524 22.3707C104.512 22.6934 111.927 24.1939 119.191 26.8305C126.714 29.5614 133.737 33.3952 140.063 38.2252L192.749 78.4504C192.866 78.5401 193.045 78.5305 193.148 78.4291V78.4291C193.251 78.3276 193.239 78.1726 193.122 78.0829L140.436 37.8578C114.252 17.8669 77.8551 16.2712 59.5532 34.3118L59.5531 34.3119C41.2512 52.3525 47.6998 83.4693 73.8833 103.46L126.569 143.685C126.687 143.775 126.865 143.765 126.968 143.664V143.664Z" fill="white"/>
<path d="M128.58 142.075C128.683 141.973 128.671 141.817 128.554 141.728L76.2936 101.827C70.2867 97.2411 65.2788 91.9648 61.4091 86.1447C57.6728 80.5256 55.1529 74.6449 53.9192 68.666C52.6855 62.6871 52.8022 56.9203 54.2659 51.5257C55.7818 45.9382 58.6827 41.0034 62.888 36.8582C67.0932 32.713 72.367 29.5898 78.563 27.5755C84.545 25.6306 91.1238 24.7976 98.1166 25.0996C105.109 25.4016 112.153 26.8228 119.053 29.3239C126.199 31.9144 132.868 35.5533 138.875 40.1395L191.135 80.0397C191.253 80.1297 191.432 80.1201 191.535 80.0184V80.0184C191.638 79.9167 191.626 79.7614 191.509 79.6714L139.248 39.7712C114.372 20.7782 79.7696 19.284 62.3543 36.4507C44.939 53.6174 51.0435 83.2026 75.9199 102.196L128.18 142.096C128.298 142.186 128.477 142.176 128.58 142.075V142.075Z" fill="white"/>
<path d="M130.421 140.259C130.524 140.158 130.512 140.004 130.395 139.914L78.557 100.336C72.8699 95.9942 68.1239 91.0033 64.4509 85.502C60.9046 80.1906 58.5061 74.6353 57.322 68.9905C56.1378 63.3456 56.2295 57.9041 57.5944 52.8171C59.0081 47.5483 61.7318 42.8987 65.6897 38.9973C69.6476 35.0959 74.6178 32.1615 80.4624 30.2756C86.1053 28.4548 92.3153 27.6847 98.9199 27.9865C105.524 28.2883 112.181 29.6464 118.704 32.0231C125.461 34.4848 131.77 37.9346 137.458 42.2767L189.295 81.8545C189.413 81.944 189.591 81.9344 189.693 81.8333V81.8333C189.796 81.7321 189.784 81.5776 189.667 81.4881L137.829 41.9103C114.261 23.9159 81.5576 22.4215 65.1556 38.5895C48.7535 54.7574 54.6168 82.7084 78.1853 100.703L130.023 140.281C130.14 140.37 130.319 140.361 130.421 140.259V140.259Z" fill="white"/>
<path d="M132.033 138.67C132.136 138.569 132.124 138.414 132.007 138.324L80.5911 99.0685C69.9682 90.958 62.8555 80.4474 60.5634 69.4732C58.2712 58.4988 61.0867 48.4354 68.4912 41.1366C75.8957 33.8379 87.0442 30.1367 99.8831 30.7148C112.722 31.293 125.643 36.078 136.266 44.1886L187.682 83.4441C187.799 83.5337 187.978 83.5242 188.081 83.4228V83.4228C188.183 83.3214 188.172 83.1665 188.054 83.0768L136.639 43.8213C114.379 26.8263 83.4721 25.4345 67.9566 40.7285C52.4412 56.0225 57.959 82.4408 80.2185 99.4358L131.634 138.691C131.752 138.781 131.93 138.771 132.033 138.67V138.67Z" fill="white"/>
<path d="M133.647 137.08C133.75 136.978 133.739 136.823 133.621 136.733L82.6253 97.7986C72.6361 90.1719 65.9527 80.2835 63.8062 69.955C61.6598 59.6265 64.3191 50.1516 71.2945 43.2758C78.2699 36.4 88.7652 32.908 100.847 33.4428C112.929 33.9776 125.084 38.4723 135.074 46.099L186.069 85.0337C186.187 85.1236 186.366 85.1141 186.469 85.0124V85.0124C186.572 84.9107 186.561 84.7553 186.443 84.6654L135.447 45.7308C114.498 29.736 85.3882 28.4474 70.7595 42.8673C56.1307 57.2872 61.3022 82.1721 82.2517 98.1669L133.247 137.102C133.365 137.191 133.544 137.182 133.647 137.08V137.08Z" fill="white"/>
<path d="M135.488 135.265C135.591 135.164 135.579 135.01 135.462 134.921L85.0886 96.4608C75.7715 89.3473 69.53 80.132 67.5136 70.5124C65.4972 60.8929 67.9588 52.0743 74.4447 45.6809C80.9306 39.2876 90.7008 36.0491 101.956 36.5621C113.211 37.075 124.54 41.2751 133.857 48.3886L184.231 86.8484C184.348 86.9378 184.526 86.9283 184.628 86.8272V86.8272C184.731 86.7262 184.719 86.5718 184.602 86.4824L134.228 48.0226C114.67 33.0896 87.5269 31.8526 73.9113 45.2737C60.2959 58.6948 65.1585 81.8938 84.7173 96.8268L135.091 135.287C135.208 135.376 135.386 135.366 135.488 135.265V135.265Z" fill="white"/>
<path d="M137.101 133.676C137.203 133.575 137.192 133.42 137.074 133.33L87.1215 95.192C78.438 88.5622 72.6255 79.9689 70.7547 70.995C68.884 62.0211 71.1894 53.7909 77.2463 47.8205C83.3031 41.8502 92.4203 38.8208 102.918 39.2905C113.417 39.7602 123.98 43.67 132.664 50.2998L182.617 88.4383C182.734 88.5279 182.912 88.5184 183.015 88.417V88.417C183.118 88.3157 183.106 88.1609 182.989 88.0713L133.036 49.9328C114.787 35.9997 89.4414 34.8658 76.7124 47.413C63.9835 59.9602 68.5 81.6259 86.7492 95.559L136.702 133.698C136.819 133.787 136.998 133.778 137.101 133.676V133.676Z" fill="white"/>
<path d="M138.712 132.086C138.815 131.985 138.803 131.829 138.685 131.739L89.1514 93.9207C81.1021 87.775 75.7192 79.8041 73.9944 71.4762C72.2697 63.1483 74.4191 55.5069 80.0469 49.9595C85.6746 44.4121 94.1385 41.5917 103.879 42.0178C113.62 42.4439 123.418 46.0632 131.467 52.2088L181.001 90.0275C181.119 90.1174 181.298 90.1079 181.401 90.0062V90.0062C181.504 89.9045 181.493 89.7492 181.375 89.6593L131.841 51.8406C114.903 38.9083 91.3549 37.8783 79.5126 49.5515C67.6702 61.2248 71.8396 81.3566 88.7779 94.2889L138.312 132.108C138.43 132.198 138.609 132.188 138.712 132.086V132.086Z" fill="white"/>
<path d="M140.552 130.271C140.655 130.171 140.643 130.016 140.526 129.927L91.4061 92.4245C83.9915 86.7635 79.0153 79.4387 77.3943 71.7995C75.7731 64.1602 77.7102 57.1636 82.8487 52.0985C87.9871 47.0334 95.7407 44.4777 104.681 44.9021C113.622 45.3265 122.629 48.6779 130.043 54.3389L179.163 91.8416C179.28 91.9308 179.458 91.9213 179.56 91.8204V91.8204C179.663 91.7195 179.651 91.5654 179.534 91.4762L130.414 53.9735C114.788 42.0432 93.143 41.0157 82.3139 51.6902C71.4848 62.3646 75.4094 80.8595 91.0355 92.7899L140.155 130.293C140.272 130.382 140.45 130.372 140.552 130.271V130.271Z" fill="white"/>
<path d="M142.167 128.682C142.27 128.581 142.258 128.426 142.141 128.337L93.6627 91.3244C86.9153 86.1728 82.4 79.4943 80.9485 72.519C79.4969 65.5438 81.2911 59.1458 86.0004 54.5037C90.7097 49.8617 97.797 47.505 105.957 47.8679C114.116 48.2308 122.326 51.2677 129.073 56.4192L177.551 93.4317C177.669 93.5212 177.847 93.5117 177.95 93.4104V93.4104C178.052 93.3092 178.04 93.1546 177.923 93.0651L129.445 56.0526C115.2 45.1764 95.41 44.2963 85.4675 54.0969C75.525 63.8974 79.0454 80.8148 93.2907 91.691L141.769 128.703C141.886 128.793 142.064 128.783 142.167 128.682V128.682Z" fill="white"/>
<path d="M143.778 127.093C143.881 126.991 143.87 126.836 143.752 126.746L95.6914 90.052C89.5786 85.3849 85.4932 79.3291 84.1879 73.0001C82.8826 66.6712 84.5209 60.8621 88.801 56.6431C93.0811 52.4242 99.5148 50.2764 106.917 50.5956C114.319 50.9147 121.762 53.6607 127.875 58.3278L175.935 95.0216C176.053 95.1114 176.232 95.1019 176.335 95.0002V95.0002C176.438 94.8986 176.427 94.7433 176.309 94.6534L128.248 57.9597C115.315 48.085 97.3235 47.3093 88.2676 56.2359C79.2117 65.1625 82.3843 80.5454 95.3179 90.4201L143.378 127.114C143.496 127.204 143.675 127.194 143.778 127.093V127.093Z" fill="white"/>
<path d="M145.619 125.278C145.721 125.178 145.71 125.024 145.593 124.935L97.9441 88.5556C92.4666 84.3736 88.7886 78.9642 87.5875 73.3239C86.3864 67.6837 87.8127 62.5194 91.6038 58.7824C95.3949 55.0455 101.118 53.162 107.72 53.479C114.321 53.796 120.974 56.2737 126.451 60.4556L174.1 96.8353C174.217 96.9242 174.394 96.9148 174.496 96.8142V96.8142C174.598 96.7136 174.586 96.56 174.47 96.471L126.821 60.0914C115.2 51.2194 99.1125 50.4469 91.0699 58.3748C83.0272 66.3026 85.9543 80.0479 97.5745 88.9199L145.224 125.3C145.34 125.388 145.517 125.379 145.619 125.278V125.278Z" fill="white"/>
<path d="M147.233 123.689C147.335 123.588 147.323 123.433 147.206 123.344L99.9686 87.2785C95.1274 83.5822 91.8809 78.7968 90.8272 73.8038C89.7735 68.8107 91.0447 64.2359 94.4065 60.9221C97.7683 57.6082 102.838 55.9332 108.68 56.2056C114.523 56.4779 120.407 58.6635 125.248 62.3597L172.486 98.4254C172.603 98.5147 172.781 98.5052 172.884 98.4042V98.4042C172.986 98.3032 172.974 98.1488 172.857 98.0595L125.619 61.9938C115.314 54.126 101.028 53.46 93.8719 60.5139C86.7159 67.5678 89.2923 79.7765 99.5974 87.6444L146.835 123.71C146.952 123.799 147.13 123.79 147.233 123.689V123.689Z" fill="white"/>
<path d="M148.845 122.099C148.948 121.997 148.936 121.842 148.819 121.752L101.988 85.9971C93.2723 79.3427 91.1277 69.0535 97.2074 63.0606C103.287 57.0678 115.324 57.6059 124.04 64.2603L170.87 100.015C170.988 100.105 171.167 100.095 171.27 99.9937V99.9937C171.373 99.8921 171.361 99.7369 171.243 99.647L124.413 63.8922C115.425 57.0301 102.942 56.472 96.6722 62.652C90.4026 68.832 92.6267 79.5029 101.615 86.3651L148.445 122.12C148.563 122.21 148.742 122.2 148.845 122.099V122.099Z" fill="white"/>
<path d="M150.458 120.508C150.562 120.406 150.55 120.25 150.432 120.159L104.275 84.9185C96.925 79.3072 95.1675 70.5806 100.357 65.4654C105.546 60.3503 115.747 60.754 123.096 66.3653L169.254 101.606C169.372 101.696 169.552 101.687 169.656 101.584V101.584C169.76 101.482 169.748 101.326 169.63 101.235L123.473 65.9945C115.849 60.1737 105.207 59.7525 99.8238 65.0586C94.4409 70.3647 96.2744 79.4685 103.898 85.2893L150.055 120.53C150.174 120.62 150.354 120.611 150.458 120.508V120.508Z" fill="white"/>
<path d="M152.299 118.696C152.401 118.595 152.389 118.442 152.273 118.353L106.52 83.4206C100.49 78.8173 98.9835 71.7225 103.161 67.6051C107.338 63.4877 115.641 63.8831 121.67 68.4864L167.423 103.418C167.54 103.507 167.717 103.498 167.819 103.397V103.397C167.921 103.297 167.909 103.143 167.793 103.054L122.04 68.1221C115.733 63.3064 106.997 62.8905 102.627 67.1978C98.2574 71.5051 99.8428 78.9693 106.15 83.785L151.903 118.717C152.02 118.806 152.197 118.797 152.299 118.696V118.696Z" fill="white"/>
<path d="M153.911 117.105C154.014 117.004 154.002 116.849 153.885 116.759L108.537 82.1362C103.83 78.5428 102.675 72.984 105.961 69.7446C109.248 66.5052 115.75 66.7932 120.457 70.3866L165.805 105.009C165.922 105.099 166.101 105.09 166.204 104.988V104.988C166.307 104.886 166.295 104.731 166.178 104.642L120.83 70.0189C115.841 66.2104 108.91 65.9034 105.427 69.3367C101.944 72.7701 103.176 78.6953 108.164 82.5039L153.512 117.127C153.629 117.216 153.808 117.207 153.911 117.105V117.105Z" fill="white"/>
<path d="M155.527 115.513C155.631 115.41 155.619 115.252 155.5 115.161L110.553 80.8449C107.173 78.2638 106.37 74.2439 108.764 71.8838C111.158 69.5239 115.857 69.7038 119.237 72.2849L164.184 106.601C164.303 106.692 164.485 106.683 164.589 106.58V106.58C164.694 106.476 164.682 106.319 164.563 106.228L119.616 71.9114C115.95 69.1122 110.826 68.916 108.229 71.4754C105.633 74.0348 106.508 78.4191 110.174 81.2184L155.121 115.535C155.24 115.626 155.422 115.616 155.527 115.513V115.513Z" fill="white"/>
</g>
</g>
<path opacity="0.9" d="M31.1431 49C31.1431 49.8437 30.9907 50.5729 30.686 51.1875C30.3813 51.8021 29.9634 52.276 29.4321 52.6094C28.9009 52.9427 28.2941 53.1094 27.6118 53.1094C26.9295 53.1094 26.3228 52.9427 25.7915 52.6094C25.2603 52.276 24.8423 51.8021 24.5376 51.1875C24.2329 50.5729 24.0806 49.8437 24.0806 49C24.0806 48.1562 24.2329 47.4271 24.5376 46.8125C24.8423 46.1979 25.2603 45.724 25.7915 45.3906C26.3228 45.0573 26.9295 44.8906 27.6118 44.8906C28.2941 44.8906 28.9009 45.0573 29.4321 45.3906C29.9634 45.724 30.3813 46.1979 30.686 46.8125C30.9907 47.4271 31.1431 48.1562 31.1431 49ZM30.2056 49C30.2056 48.3073 30.0897 47.7227 29.8579 47.2461C29.6287 46.7695 29.3175 46.4089 28.9243 46.1641C28.5337 45.9193 28.0962 45.7969 27.6118 45.7969C27.1274 45.7969 26.6886 45.9193 26.2954 46.1641C25.9048 46.4089 25.5936 46.7695 25.3618 47.2461C25.1326 47.7227 25.0181 48.3073 25.0181 49C25.0181 49.6927 25.1326 50.2773 25.3618 50.7539C25.5936 51.2305 25.9048 51.5911 26.2954 51.8359C26.6886 52.0807 27.1274 52.2031 27.6118 52.2031C28.0962 52.2031 28.5337 52.0807 28.9243 51.8359C29.3175 51.5911 29.6287 51.2305 29.8579 50.7539C30.0897 50.2773 30.2056 49.6927 30.2056 49ZM33.5688 49.3906V53H32.647V47H33.5376V47.9375H33.6157C33.7563 47.6328 33.9699 47.388 34.2563 47.2031C34.5428 47.0156 34.9126 46.9219 35.3657 46.9219C35.772 46.9219 36.1274 47.0052 36.4321 47.1719C36.7368 47.3359 36.9738 47.5859 37.1431 47.9219C37.3123 48.2552 37.397 48.6771 37.397 49.1875V53H36.4751V49.25C36.4751 48.7786 36.3527 48.4115 36.1079 48.1484C35.8631 47.8828 35.5272 47.75 35.1001 47.75C34.8058 47.75 34.5428 47.8138 34.311 47.9414C34.0819 48.069 33.9009 48.2552 33.7681 48.5C33.6353 48.7448 33.5688 49.0417 33.5688 49.3906ZM42.769 55.25C42.6128 55.25 42.4735 55.237 42.3511 55.2109C42.2287 55.1875 42.144 55.1641 42.0972 55.1406L42.3315 54.3281C42.5555 54.3854 42.7534 54.4063 42.9253 54.3906C43.0972 54.375 43.2495 54.2982 43.3823 54.1602C43.5177 54.0247 43.6414 53.8047 43.7534 53.5L43.9253 53.0313L41.7065 47H42.7065L44.3628 51.7812H44.4253L46.0815 47H47.0815L44.5347 53.875C44.4201 54.1849 44.2782 54.4414 44.1089 54.6445C43.9396 54.8503 43.743 55.0026 43.519 55.1016C43.2977 55.2005 43.0477 55.25 42.769 55.25ZM50.521 53.125C49.9793 53.125 49.5041 52.9961 49.0952 52.7383C48.689 52.4805 48.3713 52.1198 48.1421 51.6562C47.9155 51.1927 47.8022 50.651 47.8022 50.0312C47.8022 49.4062 47.9155 48.8607 48.1421 48.3945C48.3713 47.9284 48.689 47.5664 49.0952 47.3086C49.5041 47.0508 49.9793 46.9219 50.521 46.9219C51.0627 46.9219 51.5366 47.0508 51.9429 47.3086C52.3517 47.5664 52.6694 47.9284 52.896 48.3945C53.1252 48.8607 53.2397 49.4062 53.2397 50.0312C53.2397 50.651 53.1252 51.1927 52.896 51.6562C52.6694 52.1198 52.3517 52.4805 51.9429 52.7383C51.5366 52.9961 51.0627 53.125 50.521 53.125ZM50.521 52.2969C50.9325 52.2969 51.271 52.1914 51.5366 51.9805C51.8022 51.7695 51.9989 51.4922 52.1265 51.1484C52.2541 50.8047 52.3179 50.4323 52.3179 50.0312C52.3179 49.6302 52.2541 49.2565 52.1265 48.9102C51.9989 48.5638 51.8022 48.2839 51.5366 48.0703C51.271 47.8568 50.9325 47.75 50.521 47.75C50.1095 47.75 49.771 47.8568 49.5054 48.0703C49.2397 48.2839 49.0431 48.5638 48.9155 48.9102C48.7879 49.2565 48.7241 49.6302 48.7241 50.0312C48.7241 50.4323 48.7879 50.8047 48.9155 51.1484C49.0431 51.4922 49.2397 51.7695 49.5054 51.9805C49.771 52.1914 50.1095 52.2969 50.521 52.2969ZM58.4282 50.5469V47H59.3501V53H58.4282V51.9844H58.3657C58.2251 52.2891 58.0063 52.5482 57.7095 52.7617C57.4126 52.9727 57.0376 53.0781 56.5845 53.0781C56.2095 53.0781 55.8761 52.9961 55.5845 52.832C55.2928 52.6654 55.0636 52.4154 54.897 52.082C54.7303 51.7461 54.647 51.3229 54.647 50.8125V47H55.5688V50.75C55.5688 51.1875 55.6912 51.5365 55.936 51.7969C56.1834 52.0573 56.4985 52.1875 56.8813 52.1875C57.1105 52.1875 57.3436 52.1289 57.5806 52.0117C57.8201 51.8945 58.0207 51.7148 58.1821 51.4727C58.3462 51.2305 58.4282 50.9219 58.4282 50.5469ZM61.0386 53V47H61.9292V47.9062H61.9917C62.1011 47.6094 62.299 47.3685 62.5854 47.1836C62.8719 46.9987 63.1948 46.9062 63.5542 46.9062C63.6219 46.9062 63.7065 46.9076 63.8081 46.9102C63.9097 46.9128 63.9865 46.9167 64.0386 46.9219V47.8594C64.0073 47.8516 63.9357 47.8398 63.8237 47.8242C63.7144 47.806 63.5985 47.7969 63.4761 47.7969C63.1844 47.7969 62.924 47.8581 62.6948 47.9805C62.4683 48.1003 62.2886 48.2669 62.1558 48.4805C62.0256 48.6914 61.9604 48.9323 61.9604 49.2031V53H61.0386ZM70.897 47V47.7812H67.6626V47H70.897ZM68.6313 53V46.1719C68.6313 45.8281 68.7121 45.5417 68.8735 45.3125C69.035 45.0833 69.2446 44.9115 69.5024 44.7969C69.7603 44.6823 70.0324 44.625 70.3188 44.625C70.5454 44.625 70.7303 44.6432 70.8735 44.6797C71.0168 44.7161 71.1235 44.75 71.1938 44.7812L70.9282 45.5781C70.8813 45.5625 70.8162 45.543 70.7329 45.5195C70.6522 45.4961 70.5454 45.4844 70.4126 45.4844C70.1079 45.4844 69.8879 45.5612 69.7524 45.7148C69.6196 45.8685 69.5532 46.0937 69.5532 46.3906V53H68.6313ZM72.189 53V47H73.1108V53H72.189ZM72.6577 46C72.478 46 72.3231 45.9388 72.1929 45.8164C72.0653 45.694 72.0015 45.5469 72.0015 45.375C72.0015 45.2031 72.0653 45.056 72.1929 44.9336C72.3231 44.8112 72.478 44.75 72.6577 44.75C72.8374 44.75 72.991 44.8112 73.1187 44.9336C73.2489 45.056 73.314 45.2031 73.314 45.375C73.314 45.5469 73.2489 45.694 73.1187 45.8164C72.991 45.9388 72.8374 46 72.6577 46ZM74.7993 53V47H75.6899V47.9062H75.7524C75.8618 47.6094 76.0597 47.3685 76.3462 47.1836C76.6326 46.9987 76.9556 46.9062 77.3149 46.9062C77.3826 46.9062 77.4673 46.9076 77.5688 46.9102C77.6704 46.9128 77.7472 46.9167 77.7993 46.9219V47.8594C77.7681 47.8516 77.6965 47.8398 77.5845 47.8242C77.4751 47.806 77.3592 47.7969 77.2368 47.7969C76.9451 47.7969 76.6847 47.8581 76.4556 47.9805C76.229 48.1003 76.0493 48.2669 75.9165 48.4805C75.7863 48.6914 75.7212 48.9323 75.7212 49.2031V53H74.7993ZM83.1421 48.3437L82.314 48.5781C82.2619 48.4401 82.1851 48.306 82.0835 48.1758C81.9845 48.043 81.8491 47.9336 81.6772 47.8477C81.5054 47.7617 81.2853 47.7187 81.0171 47.7187C80.6499 47.7187 80.3439 47.8034 80.0991 47.9727C79.8569 48.1393 79.7358 48.3516 79.7358 48.6094C79.7358 48.8385 79.8192 49.0195 79.9858 49.1523C80.1525 49.2852 80.4129 49.3958 80.7671 49.4844L81.6577 49.7031C82.1942 49.8333 82.5939 50.0326 82.8569 50.3008C83.12 50.5664 83.2515 50.9089 83.2515 51.3281C83.2515 51.6719 83.1525 51.9792 82.9546 52.25C82.7593 52.5208 82.4858 52.7344 82.1343 52.8906C81.7827 53.0469 81.3739 53.125 80.9077 53.125C80.2957 53.125 79.7892 52.9922 79.3882 52.7266C78.9871 52.4609 78.7332 52.0729 78.6265 51.5625L79.5015 51.3437C79.5848 51.6667 79.7424 51.9089 79.9741 52.0703C80.2085 52.2318 80.5145 52.3125 80.8921 52.3125C81.3218 52.3125 81.6629 52.2214 81.9155 52.0391C82.1707 51.8542 82.2983 51.6328 82.2983 51.375C82.2983 51.1667 82.2254 50.9922 82.0796 50.8516C81.9338 50.7083 81.7098 50.6016 81.4077 50.5312L80.4077 50.2969C79.8582 50.1667 79.4546 49.9648 79.1968 49.6914C78.9416 49.4154 78.814 49.0703 78.814 48.6562C78.814 48.3177 78.909 48.0182 79.0991 47.7578C79.2918 47.4974 79.5535 47.293 79.8843 47.1445C80.2176 46.9961 80.5952 46.9219 81.0171 46.9219C81.6108 46.9219 82.077 47.0521 82.4155 47.3125C82.7567 47.5729 82.9989 47.9167 83.1421 48.3437ZM87.2485 47V47.7812H84.1392V47H87.2485ZM85.0454 45.5625H85.9673V51.2812C85.9673 51.5417 86.005 51.737 86.0806 51.8672C86.1587 51.9948 86.2576 52.0807 86.3774 52.125C86.4998 52.1667 86.6287 52.1875 86.7642 52.1875C86.8657 52.1875 86.9491 52.1823 87.0142 52.1719C87.0793 52.1589 87.1313 52.1484 87.1704 52.1406L87.3579 52.9687C87.2954 52.9922 87.2082 53.0156 87.0962 53.0391C86.9842 53.0651 86.8423 53.0781 86.6704 53.0781C86.41 53.0781 86.1548 53.0221 85.9048 52.9102C85.6574 52.7982 85.4517 52.6276 85.2876 52.3984C85.1261 52.1693 85.0454 51.8802 85.0454 51.5312V45.5625ZM91.854 53V45H92.7759V47.9531H92.854C92.9217 47.849 93.0155 47.7161 93.1353 47.5547C93.2576 47.3906 93.4321 47.2448 93.6587 47.1172C93.8879 46.987 94.1978 46.9219 94.5884 46.9219C95.0936 46.9219 95.5389 47.0482 95.9243 47.3008C96.3097 47.5534 96.6105 47.9115 96.8267 48.375C97.0428 48.8385 97.1509 49.3854 97.1509 50.0156C97.1509 50.651 97.0428 51.2018 96.8267 51.668C96.6105 52.1315 96.311 52.4909 95.9282 52.7461C95.5454 52.9987 95.104 53.125 94.604 53.125C94.2186 53.125 93.91 53.0612 93.6782 52.9336C93.4465 52.8034 93.2681 52.6562 93.1431 52.4922C93.0181 52.3255 92.9217 52.1875 92.854 52.0781H92.7446V53H91.854ZM92.7603 50C92.7603 50.4531 92.8267 50.8529 92.9595 51.1992C93.0923 51.543 93.2863 51.8125 93.5415 52.0078C93.7967 52.2005 94.1092 52.2969 94.479 52.2969C94.8644 52.2969 95.186 52.1953 95.4438 51.9922C95.7043 51.7865 95.8996 51.5104 96.0298 51.1641C96.1626 50.8151 96.229 50.4271 96.229 50C96.229 49.5781 96.1639 49.1979 96.0337 48.8594C95.9061 48.5182 95.7121 48.2487 95.4517 48.0508C95.1938 47.8503 94.8696 47.75 94.479 47.75C94.104 47.75 93.7889 47.8451 93.5337 48.0352C93.2785 48.2227 93.0858 48.4857 92.9556 48.8242C92.8254 49.1602 92.7603 49.5521 92.7603 50ZM100.999 53.125C100.457 53.125 99.9816 52.9961 99.5728 52.7383C99.1665 52.4805 98.8488 52.1198 98.6196 51.6562C98.3931 51.1927 98.2798 50.651 98.2798 50.0312C98.2798 49.4062 98.3931 48.8607 98.6196 48.3945C98.8488 47.9284 99.1665 47.5664 99.5728 47.3086C99.9816 47.0508 100.457 46.9219 100.999 46.9219C101.54 46.9219 102.014 47.0508 102.42 47.3086C102.829 47.5664 103.147 47.9284 103.374 48.3945C103.603 48.8607 103.717 49.4062 103.717 50.0312C103.717 50.651 103.603 51.1927 103.374 51.6562C103.147 52.1198 102.829 52.4805 102.42 52.7383C102.014 52.9961 101.54 53.125 100.999 53.125ZM100.999 52.2969C101.41 52.2969 101.749 52.1914 102.014 51.9805C102.28 51.7695 102.476 51.4922 102.604 51.1484C102.732 50.8047 102.795 50.4323 102.795 50.0312C102.795 49.6302 102.732 49.2565 102.604 48.9102C102.476 48.5638 102.28 48.2839 102.014 48.0703C101.749 47.8568 101.41 47.75 100.999 47.75C100.587 47.75 100.249 47.8568 99.9829 48.0703C99.7173 48.2839 99.5207 48.5638 99.3931 48.9102C99.2655 49.2565 99.2017 49.6302 99.2017 50.0312C99.2017 50.4323 99.2655 50.8047 99.3931 51.1484C99.5207 51.4922 99.7173 51.7695 99.9829 51.9805C100.249 52.1914 100.587 52.2969 100.999 52.2969ZM107.562 53.125C107.02 53.125 106.545 52.9961 106.136 52.7383C105.73 52.4805 105.412 52.1198 105.183 51.6562C104.957 51.1927 104.843 50.651 104.843 50.0312C104.843 49.4062 104.957 48.8607 105.183 48.3945C105.412 47.9284 105.73 47.5664 106.136 47.3086C106.545 47.0508 107.02 46.9219 107.562 46.9219C108.104 46.9219 108.578 47.0508 108.984 47.3086C109.393 47.5664 109.71 47.9284 109.937 48.3945C110.166 48.8607 110.281 49.4062 110.281 50.0312C110.281 50.651 110.166 51.1927 109.937 51.6562C109.71 52.1198 109.393 52.4805 108.984 52.7383C108.578 52.9961 108.104 53.125 107.562 53.125ZM107.562 52.2969C107.973 52.2969 108.312 52.1914 108.578 51.9805C108.843 51.7695 109.04 51.4922 109.167 51.1484C109.295 50.8047 109.359 50.4323 109.359 50.0312C109.359 49.6302 109.295 49.2565 109.167 48.9102C109.04 48.5638 108.843 48.2839 108.578 48.0703C108.312 47.8568 107.973 47.75 107.562 47.75C107.151 47.75 106.812 47.8568 106.546 48.0703C106.281 48.2839 106.084 48.5638 105.957 48.9102C105.829 49.2565 105.765 49.6302 105.765 50.0312C105.765 50.4323 105.829 50.8047 105.957 51.1484C106.084 51.4922 106.281 51.7695 106.546 51.9805C106.812 52.1914 107.151 52.2969 107.562 52.2969ZM112.547 50.8125L112.532 49.6719H112.719L115.344 47H116.485L113.688 49.8281H113.61L112.547 50.8125ZM111.688 53V45H112.61V53H111.688ZM115.5 53L113.157 50.0312L113.813 49.3906L116.672 53H115.5ZM117.671 53V47H118.593V53H117.671ZM118.14 46C117.96 46 117.806 45.9388 117.675 45.8164C117.548 45.694 117.484 45.5469 117.484 45.375C117.484 45.2031 117.548 45.056 117.675 44.9336C117.806 44.8112 117.96 44.75 118.14 44.75C118.32 44.75 118.473 44.8112 118.601 44.9336C118.731 45.056 118.796 45.2031 118.796 45.375C118.796 45.5469 118.731 45.694 118.601 45.8164C118.473 45.9388 118.32 46 118.14 46ZM121.204 49.3906V53H120.282V47H121.172V47.9375H121.25C121.391 47.6328 121.605 47.388 121.891 47.2031C122.178 47.0156 122.547 46.9219 123 46.9219C123.407 46.9219 123.762 47.0052 124.067 47.1719C124.372 47.3359 124.609 47.5859 124.778 47.9219C124.947 48.2552 125.032 48.6771 125.032 49.1875V53H124.11V49.25C124.11 48.7786 123.987 48.4115 123.743 48.1484C123.498 47.8828 123.162 47.75 122.735 47.75C122.441 47.75 122.178 47.8138 121.946 47.9414C121.717 48.069 121.536 48.2552 121.403 48.5C121.27 48.7448 121.204 49.0417 121.204 49.3906ZM129.138 55.375C128.693 55.375 128.31 55.3177 127.99 55.2031C127.669 55.0911 127.403 54.9427 127.189 54.7578C126.978 54.5755 126.81 54.3802 126.685 54.1719L127.419 53.6563C127.503 53.7656 127.608 53.8906 127.736 54.0312C127.863 54.1745 128.038 54.2982 128.259 54.4023C128.483 54.5091 128.776 54.5625 129.138 54.5625C129.623 54.5625 130.022 54.4453 130.337 54.2109C130.653 53.9766 130.81 53.6094 130.81 53.1094V51.8906H130.732C130.664 52 130.568 52.1354 130.443 52.2969C130.32 52.4557 130.143 52.5977 129.912 52.7227C129.682 52.8451 129.373 52.9062 128.982 52.9062C128.498 52.9062 128.063 52.7917 127.677 52.5625C127.294 52.3333 126.991 52 126.767 51.5625C126.546 51.125 126.435 50.5937 126.435 49.9687C126.435 49.3542 126.543 48.819 126.759 48.3633C126.975 47.9049 127.276 47.5508 127.662 47.3008C128.047 47.0482 128.492 46.9219 128.998 46.9219C129.388 46.9219 129.698 46.987 129.927 47.1172C130.159 47.2448 130.336 47.3906 130.458 47.5547C130.583 47.7161 130.68 47.849 130.748 47.9531H130.841V47H131.732V53.1719C131.732 53.6875 131.615 54.1068 131.38 54.4297C131.149 54.7552 130.836 54.9935 130.443 55.1445C130.052 55.2982 129.617 55.375 129.138 55.375ZM129.107 52.0781C129.477 52.0781 129.789 51.9935 130.044 51.8242C130.3 51.6549 130.494 51.4115 130.626 51.0938C130.759 50.776 130.826 50.3958 130.826 49.9531C130.826 49.5208 130.761 49.1393 130.63 48.8086C130.5 48.4779 130.307 48.2187 130.052 48.0312C129.797 47.8437 129.482 47.75 129.107 47.75C128.716 47.75 128.391 47.849 128.13 48.0469C127.873 48.2448 127.679 48.5104 127.548 48.8438C127.421 49.1771 127.357 49.5469 127.357 49.9531C127.357 50.3698 127.422 50.7383 127.552 51.0586C127.685 51.3763 127.88 51.6263 128.138 51.8086C128.399 51.9883 128.722 52.0781 129.107 52.0781Z" fill="white"/>
<path d="M51.6519 82.1577L51.6519 81.4545H56.561L56.561 82.1577H54.5028L54.5028 88H53.7102L53.7102 82.1577H51.6519ZM59.2281 88.0895C58.7977 88.0895 58.427 88.0107 58.1159 87.853C57.8048 87.6953 57.5651 87.479 57.3968 87.2042C57.2285 86.9293 57.1443 86.6151 57.1443 86.2614C57.1443 85.9886 57.2018 85.7468 57.3169 85.5359C57.4341 85.3228 57.5949 85.1257 57.7995 84.9446C58.0062 84.7614 58.2437 84.5781 58.5122 84.3949L59.4582 83.6918C59.6436 83.5703 59.7917 83.4403 59.9025 83.3018C60.0154 83.1634 60.0719 82.9822 60.0719 82.7585C60.0719 82.5923 59.9984 82.4315 59.8513 82.2759C59.7065 82.1204 59.5158 82.0426 59.2793 82.0426C59.1131 82.0426 58.966 82.0852 58.8382 82.1705C58.7125 82.2536 58.6134 82.3601 58.541 82.4901C58.4707 82.6179 58.4355 82.75 58.4355 82.8864C58.4355 83.0398 58.4771 83.1953 58.5601 83.353C58.6454 83.5085 58.753 83.6683 58.8829 83.8324C59.015 83.9943 59.1514 84.1605 59.292 84.331L62.2963 88H61.3886L58.9085 85.0085C58.6784 84.7315 58.4696 84.4801 58.2821 84.2543C58.0946 84.0284 57.9454 83.8058 57.8347 83.5863C57.7239 83.3668 57.6685 83.1293 57.6685 82.8736C57.6685 82.5795 57.7334 82.3217 57.8634 82.1001C57.9955 81.8764 58.1798 81.7028 58.4163 81.5792C58.655 81.4535 58.9341 81.3906 59.2537 81.3906C59.5818 81.3906 59.8641 81.4545 60.1006 81.5824C60.3371 81.7081 60.5193 81.8754 60.6472 82.0842C60.775 82.2908 60.8389 82.5156 60.8389 82.7585C60.8389 83.0717 60.7611 83.3434 60.6056 83.5735C60.4501 83.8036 60.2381 84.0178 59.9696 84.2159L58.6656 85.1875C58.3716 85.4048 58.1724 85.6158 58.068 85.8203C57.9636 86.0249 57.9114 86.1719 57.9114 86.2614C57.9114 86.4659 57.9646 86.6566 58.0712 86.8335C58.1777 87.0103 58.3279 87.1531 58.5218 87.2617C58.7157 87.3704 58.9426 87.4247 59.2025 87.4247C59.4497 87.4247 59.6905 87.3725 59.9248 87.2681C60.1592 87.1616 60.3712 87.0082 60.5609 86.8079C60.7526 86.6076 60.9039 86.3668 61.0147 86.0856C61.1276 85.8043 61.1841 85.4879 61.1841 85.1364H61.9128C61.9128 85.571 61.8627 85.9258 61.7626 86.2006C61.6624 86.4755 61.5495 86.6907 61.4238 86.8462C61.2981 87.0018 61.1969 87.1179 61.1202 87.1946C61.0946 87.2266 61.0712 87.2585 61.0498 87.2905C61.0285 87.3224 61.0051 87.3544 60.9795 87.3864C60.7686 87.6229 60.5023 87.7997 60.1805 87.9169C59.8588 88.032 59.5413 88.0895 59.2281 88.0895ZM68.5006 83.5H67.708C67.6611 83.272 67.5791 83.0717 67.4619 82.8991C67.3468 82.7266 67.2062 82.5817 67.04 82.4645C66.8759 82.3452 66.6938 82.2557 66.4935 82.196C66.2932 82.1364 66.0844 82.1065 65.8671 82.1065C65.4707 82.1065 65.1117 82.2067 64.79 82.407C64.4704 82.6072 64.2158 82.9023 64.0261 83.2923C63.8386 83.6822 63.7449 84.1605 63.7449 84.7273C63.7449 85.294 63.8386 85.7724 64.0261 86.1623C64.2158 86.5522 64.4704 86.8473 64.79 87.0476C65.1117 87.2479 65.4707 87.348 65.8671 87.348C66.0844 87.348 66.2932 87.3182 66.4935 87.2585C66.6938 87.1989 66.8759 87.1104 67.04 86.9933C67.2062 86.8739 67.3468 86.728 67.4619 86.5554C67.5791 86.3807 67.6611 86.1804 67.708 85.9545H68.5006C68.4409 86.2891 68.3323 86.5884 68.1746 86.8526C68.0169 87.1168 67.8209 87.3416 67.5865 87.527C67.3521 87.7102 67.089 87.8498 66.7971 87.9457C66.5073 88.0415 66.1973 88.0895 65.8671 88.0895C65.3088 88.0895 64.8124 87.9531 64.3777 87.6804C63.943 87.4077 63.6011 87.0199 63.3518 86.517C63.1025 86.0142 62.9778 85.4176 62.9778 84.7273C62.9778 84.0369 63.1025 83.4403 63.3518 82.9375C63.6011 82.4347 63.943 82.0469 64.3777 81.7741C64.8124 81.5014 65.3088 81.3651 65.8671 81.3651C66.1973 81.3651 66.5073 81.413 66.7971 81.5089C67.089 81.6048 67.3521 81.7454 67.5865 81.9308C67.8209 82.114 68.0169 82.3377 68.1746 82.6019C68.3323 82.864 68.4409 83.1634 68.5006 83.5ZM72.5811 88H71.7501L74.1535 81.4545H74.9717L77.3751 88H76.5442L74.5882 82.4901H74.5371L72.5811 88ZM72.8879 85.4432H76.2373L76.2373 86.1463H72.8879L72.8879 85.4432ZM78.2924 89.8409L78.2924 83.0909H79.0211L79.0211 83.8707H79.1106C79.166 83.7855 79.2427 83.6768 79.3407 83.5447C79.4408 83.4105 79.5836 83.2912 79.769 83.1868C79.9565 83.0803 80.21 83.027 80.5296 83.027C80.943 83.027 81.3073 83.1303 81.6226 83.337C81.938 83.5437 82.1841 83.8366 82.3609 84.2159C82.5378 84.5952 82.6262 85.0426 82.6262 85.5582C82.6262 86.0781 82.5378 86.5288 82.3609 86.9102C82.1841 87.2894 81.9391 87.5835 81.6258 87.7923C81.3126 87.9989 80.9515 88.1023 80.5424 88.1023C80.2271 88.1023 79.9746 88.0501 79.7849 87.9457C79.5953 87.8391 79.4494 87.7187 79.3471 87.5845C79.2448 87.4482 79.166 87.3352 79.1106 87.2457H79.0467L79.0467 89.8409H78.2924ZM79.0339 85.5455C79.0339 85.9162 79.0882 86.2433 79.1969 86.5266C79.3055 86.8079 79.4643 87.0284 79.6731 87.1882C79.8819 87.3459 80.1376 87.4247 80.4401 87.4247C80.7555 87.4247 81.0186 87.3416 81.2295 87.1754C81.4426 87.0071 81.6024 86.7812 81.7089 86.4979C81.8176 86.2124 81.8719 85.8949 81.8719 85.5455C81.8719 85.2003 81.8187 84.8892 81.7121 84.6122C81.6077 84.3331 81.449 84.1126 81.2359 83.9506C81.025 83.7866 80.7597 83.7045 80.4401 83.7045C80.1333 83.7045 79.8755 83.7823 79.6667 83.9379C79.4579 84.0913 79.3002 84.3065 79.1937 84.5835C79.0871 84.8583 79.0339 85.179 79.0339 85.5455ZM83.7768 89.8409L83.7768 83.0909H84.5055L84.5055 83.8707H84.5949C84.6503 83.7855 84.7271 83.6768 84.8251 83.5447C84.9252 83.4105 85.068 83.2912 85.2533 83.1868C85.4408 83.0803 85.6944 83.027 86.014 83.027C86.4273 83.027 86.7917 83.1303 87.107 83.337C87.4224 83.5437 87.6685 83.8366 87.8453 84.2159C88.0222 84.5952 88.1106 85.0426 88.1106 85.5582C88.1106 86.0781 88.0222 86.5288 87.8453 86.9102C87.6685 87.2894 87.4234 87.5835 87.1102 87.7923C86.797 87.9989 86.4359 88.1023 86.0268 88.1023C85.7114 88.1023 85.4589 88.0501 85.2693 87.9457C85.0797 87.8391 84.9337 87.7187 84.8315 87.5845C84.7292 87.4482 84.6503 87.3352 84.5949 87.2457H84.531L84.531 89.8409H83.7768ZM84.5182 85.5455C84.5182 85.9162 84.5726 86.2433 84.6812 86.5266C84.7899 86.8079 84.9486 87.0284 85.1574 87.1882C85.3663 87.3459 85.6219 87.4247 85.9245 87.4247C86.2398 87.4247 86.503 87.3416 86.7139 87.1754C86.927 87.0071 87.0868 86.7812 87.1933 86.4979C87.302 86.2124 87.3563 85.8949 87.3563 85.5455C87.3563 85.2003 87.303 84.8892 87.1965 84.6122C87.0921 84.3331 86.9334 84.1126 86.7203 83.9506C86.5094 83.7866 86.2441 83.7045 85.9245 83.7045C85.6177 83.7045 85.3599 83.7823 85.1511 83.9379C84.9422 84.0913 84.7846 84.3065 84.678 84.5835C84.5715 84.8583 84.5182 85.179 84.5182 85.5455ZM90.0154 81.4545L90.0154 88H89.2611L89.2611 81.4545H90.0154ZM91.3969 88L91.3969 83.0909H92.1511L92.1511 88H91.3969ZM91.7804 82.2727C91.6334 82.2727 91.5066 82.2227 91.4001 82.1225C91.2957 82.0224 91.2435 81.902 91.2435 81.7614C91.2435 81.6207 91.2957 81.5004 91.4001 81.4002C91.5066 81.3001 91.6334 81.25 91.7804 81.25C91.9274 81.25 92.0531 81.3001 92.1575 81.4002C92.2641 81.5004 92.3173 81.6207 92.3173 81.7614C92.3173 81.902 92.2641 82.0224 92.1575 82.1225C92.0531 82.2227 91.9274 82.2727 91.7804 82.2727ZM95.5909 88.1023C95.1179 88.1023 94.7098 87.9979 94.3668 87.7891C94.0259 87.5781 93.7627 87.2841 93.5774 86.907C93.3941 86.5277 93.3025 86.0866 93.3025 85.5838C93.3025 85.081 93.3941 84.6378 93.5774 84.2543C93.7627 83.8686 94.0206 83.5682 94.3508 83.353C94.6832 83.1357 95.071 83.027 95.5142 83.027C95.7698 83.027 96.0223 83.0696 96.2716 83.1548C96.5209 83.2401 96.7478 83.3786 96.9524 83.5703C97.1569 83.7599 97.3199 84.0114 97.4414 84.3246C97.5628 84.6378 97.6235 85.0234 97.6235 85.4815L97.6235 85.8011H93.8394L93.8394 85.1491H96.8565C96.8565 84.8722 96.8011 84.625 96.6903 84.4077C96.5816 84.1903 96.4261 84.0188 96.2237 83.8931C96.0234 83.7674 95.7869 83.7045 95.5142 83.7045C95.2137 83.7045 94.9538 83.7791 94.7343 83.9283C94.517 84.0753 94.3497 84.267 94.2326 84.5036C94.1154 84.7401 94.0568 84.9936 94.0568 85.2642L94.0568 85.6989C94.0568 86.0696 94.1207 86.3839 94.2485 86.6417C94.3785 86.8974 94.5585 87.0923 94.7887 87.2266C95.0188 87.3587 95.2862 87.4247 95.5909 87.4247C95.789 87.4247 95.968 87.397 96.1278 87.3416C96.2897 87.2841 96.4293 87.1989 96.5465 87.0859C96.6637 86.9709 96.7542 86.8281 96.8181 86.6577L97.5468 86.8622C97.4701 87.1094 97.3412 87.3267 97.1601 87.5142C96.979 87.6996 96.7553 87.8445 96.4889 87.9489C96.2226 88.0511 95.9233 88.1023 95.5909 88.1023ZM102.248 84.1903L101.571 84.3821C101.528 84.2692 101.465 84.1594 101.382 84.0529C101.301 83.9442 101.19 83.8548 101.05 83.7844C100.909 83.7141 100.729 83.679 100.51 83.679C100.209 83.679 99.9588 83.7482 99.7585 83.8867C99.5603 84.0231 99.4612 84.1967 99.4612 84.4077C99.4612 84.5952 99.5294 84.7433 99.6658 84.8519C99.8022 84.9606 100.015 85.0511 100.305 85.1236L101.034 85.3026C101.473 85.4091 101.8 85.5721 102.015 85.7915C102.23 86.0089 102.338 86.2891 102.338 86.6321C102.338 86.9134 102.257 87.1648 102.095 87.3864C101.935 87.608 101.711 87.7827 101.424 87.9105C101.136 88.0384 100.801 88.1023 100.42 88.1023C99.9193 88.1023 99.5049 87.9936 99.1768 87.7763C98.8487 87.5589 98.6409 87.2415 98.5536 86.8239L99.2695 86.6449C99.3377 86.9091 99.4666 87.1072 99.6562 87.2393C99.848 87.3714 100.098 87.4375 100.407 87.4375C100.759 87.4375 101.038 87.3629 101.245 87.2138C101.453 87.0625 101.558 86.8814 101.558 86.6705C101.558 86.5 101.498 86.3572 101.379 86.2422C101.26 86.125 101.076 86.0376 100.829 85.9801L100.011 85.7884C99.5614 85.6818 99.2311 85.5167 99.0202 85.293C98.8114 85.0671 98.707 84.7848 98.707 84.446C98.707 84.169 98.7848 83.924 98.9403 83.7109C99.098 83.4979 99.3121 83.3306 99.5827 83.2092C99.8554 83.0877 100.164 83.027 100.51 83.027C100.995 83.027 101.377 83.1335 101.654 83.3466C101.933 83.5597 102.131 83.8409 102.248 84.1903Z" fill="white"/>
<path d="M30.5278 34H29.3446L33.8421 21.6364H35.0495L39.547 34H38.3638L34.4881 23.1033H34.4035L30.5278 34ZM31.379 29.261H37.5126V30.2752H31.379V29.261ZM41.666 34V21.6364H48.8378V22.6506H42.7949V27.305H48.4575V28.3192H42.7949V32.9858H48.9586V34H41.666ZM55.3819 34H51.7597V21.6364H55.5992C56.7784 21.6364 57.7866 21.8819 58.6237 22.3729C59.4649 22.8639 60.1088 23.5682 60.5555 24.4858C61.0023 25.4034 61.2256 26.5041 61.2256 27.788C61.2256 29.0839 60.9962 30.1967 60.5374 31.1264C60.0826 32.0521 59.4186 32.7624 58.5452 33.2575C57.6759 33.7525 56.6215 34 55.3819 34ZM52.8886 32.9858H55.3155C56.378 32.9858 57.2674 32.7765 57.9838 32.358C58.7002 31.9394 59.2375 31.3417 59.5957 30.565C59.9539 29.7882 60.1329 28.8626 60.1329 27.788C60.1289 26.7215 59.9518 25.8039 59.6017 25.0352C59.2556 24.2665 58.7404 23.6768 58.0562 23.2663C57.3761 22.8558 56.5349 22.6506 55.5328 22.6506H52.8886V32.9858ZM72.6732 34.169C71.7716 34.169 70.9687 34.0141 70.2644 33.7042C69.5641 33.3903 69.0108 32.9596 68.6043 32.4123C68.2018 31.8609 67.9945 31.225 67.9825 30.5046H70.6146C70.6307 30.8065 70.7293 31.0721 70.9104 31.3015C71.0955 31.5269 71.341 31.7019 71.6469 31.8267C71.9528 31.9515 72.2969 32.0138 72.6792 32.0138C73.0776 32.0138 73.4298 31.9434 73.7357 31.8026C74.0415 31.6617 74.281 31.4665 74.4541 31.217C74.6271 30.9674 74.7136 30.6797 74.7136 30.3537C74.7136 30.0237 74.6211 29.7319 74.4359 29.4783C74.2548 29.2208 73.9932 29.0195 73.6511 28.8746C73.3131 28.7298 72.9106 28.6573 72.4438 28.6573H71.2907V26.7376H72.4438C72.8382 26.7376 73.1863 26.6692 73.4881 26.5323C73.794 26.3955 74.0315 26.2063 74.2005 25.9648C74.3695 25.7193 74.4541 25.4336 74.4541 25.1076C74.4541 24.7977 74.3796 24.526 74.2307 24.2926C74.0858 24.0552 73.8805 23.87 73.6149 23.7372C73.3533 23.6044 73.0475 23.538 72.6973 23.538C72.3431 23.538 72.0192 23.6024 71.7254 23.7312C71.4316 23.8559 71.1961 24.035 71.019 24.2685C70.842 24.5019 70.7474 24.7756 70.7353 25.0895H68.23C68.2421 24.3771 68.4453 23.7493 68.8397 23.206C69.2341 22.6626 69.7654 22.238 70.4335 21.9322C71.1056 21.6223 71.8642 21.4673 72.7094 21.4673C73.5626 21.4673 74.3092 21.6223 74.9491 21.9322C75.589 22.2421 76.086 22.6606 76.4402 23.1879C76.7984 23.7111 76.9755 24.2987 76.9715 24.9506C76.9755 25.6429 76.7602 26.2204 76.3255 26.6832C75.8949 27.1461 75.3334 27.4399 74.6412 27.5646V27.6612C75.5508 27.7779 76.243 28.0939 76.7179 28.609C77.1968 29.1201 77.4343 29.7601 77.4303 30.5288C77.4343 31.2331 77.231 31.8589 76.8205 32.4062C76.414 32.9536 75.8526 33.3842 75.1362 33.6982C74.4198 34.0121 73.5988 34.169 72.6732 34.169ZM84.1569 34.2717C83.1186 34.2676 82.2251 34.0121 81.4765 33.505C80.732 32.9979 80.1585 32.2634 79.756 31.3015C79.3576 30.3396 79.1603 29.1825 79.1644 27.8303C79.1644 26.482 79.3636 25.333 79.762 24.3832C80.1645 23.4334 80.738 22.7109 81.4826 22.2159C82.2311 21.7169 83.1226 21.4673 84.1569 21.4673C85.1912 21.4673 86.0807 21.7169 86.8252 22.2159C87.5738 22.715 88.1493 23.4394 88.5518 24.3892C88.9543 25.335 89.1535 26.482 89.1495 27.8303C89.1495 29.1866 88.9482 30.3456 88.5458 31.3075C88.1473 32.2694 87.5758 33.0039 86.8313 33.511C86.0867 34.0181 85.1953 34.2717 84.1569 34.2717ZM84.1569 32.1044C84.8652 32.1044 85.4307 31.7482 85.8533 31.0359C86.2759 30.3235 86.4852 29.255 86.4811 27.8303C86.4811 26.8925 86.3845 26.1117 86.1914 25.4879C86.0022 24.8641 85.7326 24.3952 85.3824 24.0813C85.0363 23.7674 84.6278 23.6104 84.1569 23.6104C83.4526 23.6104 82.8892 23.9626 82.4666 24.6669C82.044 25.3712 81.8307 26.4257 81.8267 27.8303C81.8267 28.7801 81.9212 29.5729 82.1104 30.2088C82.3036 30.8407 82.5752 31.3156 82.9254 31.6335C83.2755 31.9474 83.686 32.1044 84.1569 32.1044ZM106.382 27.8182C106.382 29.1664 106.126 30.3134 105.615 31.2592C105.108 32.205 104.416 32.9274 103.538 33.4265C102.665 33.9215 101.683 34.169 100.592 34.169C99.4937 34.169 98.5077 33.9195 97.6344 33.4205C96.761 32.9214 96.0708 32.199 95.5637 31.2532C95.0566 30.3074 94.803 29.1624 94.803 27.8182C94.803 26.4699 95.0566 25.3229 95.5637 24.3771C96.0708 23.4313 96.761 22.7109 97.6344 22.2159C98.5077 21.7169 99.4937 21.4673 100.592 21.4673C101.683 21.4673 102.665 21.7169 103.538 22.2159C104.416 22.7109 105.108 23.4313 105.615 24.3771C106.126 25.3229 106.382 26.4699 106.382 27.8182ZM103.732 27.8182C103.732 26.9448 103.601 26.2083 103.339 25.6087C103.082 25.009 102.717 24.5542 102.247 24.2443C101.776 23.9344 101.224 23.7795 100.592 23.7795C99.9606 23.7795 99.4092 23.9344 98.9383 24.2443C98.4675 24.5542 98.1012 25.009 97.8396 25.6087C97.582 26.2083 97.4533 26.9448 97.4533 27.8182C97.4533 28.6915 97.582 29.428 97.8396 30.0277C98.1012 30.6274 98.4675 31.0821 98.9383 31.392C99.4092 31.7019 99.9606 31.8569 100.592 31.8569C101.224 31.8569 101.776 31.7019 102.247 31.392C102.717 31.0821 103.082 30.6274 103.339 30.0277C103.601 29.428 103.732 28.6915 103.732 27.8182ZM108.318 34V21.6364H116.504V23.7915H110.932V26.7376H115.961V28.8928H110.932V34H108.318ZM118.263 34V21.6364H126.449V23.7915H120.877V26.7376H125.905V28.8928H120.877V34H118.263Z" fill="white"/>
<path opacity="0.4" d="M1 69L155 69" stroke="white" stroke-linecap="round" stroke-dasharray="3 3"/>
</svg>
