<svg width="217" height="115" viewBox="0 0 217 115" fill="none" xmlns="http://www.w3.org/2000/svg">
<path fill-rule="evenodd" clip-rule="evenodd" d="M2.90966 7.63152C1.40307 6.94207 0 5.65686 0 4.00001C0 2.34315 1.34314 1 3 1H150H214C215.657 1 217 2.34314 217 4V4.99999C217 6.65685 215.597 7.94204 214.09 8.6315C211.677 9.736 210 12.1722 210 15C210 18.355 212.36 21.1587 215.511 21.8413C216.321 22.0167 217 22.6716 217 23.5C217 24.3284 216.321 24.9841 215.509 25.1477C212.359 25.782 210 28.3852 210 31.5C210 34.6148 212.359 37.2179 215.509 37.8523C216.321 38.0159 217 38.6716 217 39.5C217 40.3284 216.321 40.9833 215.511 41.1587C212.36 41.8413 210 44.645 210 48C210 51.355 212.36 54.1587 215.511 54.8413C216.321 55.0167 217 55.6716 217 56.5C217 57.3284 216.321 57.9833 215.511 58.1587C212.36 58.8413 210 61.645 210 65C210 68.1807 212.121 70.8659 215.026 71.7179C216.086 72.0288 217 72.8954 217 74C217 75.1046 216.086 75.9712 215.026 76.2821C212.121 77.1341 210 79.8193 210 83C210 86.0049 211.893 88.5676 214.552 89.5601C215.846 90.043 217 91.1193 217 92.5C217 93.8807 215.846 94.957 214.552 95.4399C211.893 96.4324 210 98.9951 210 102C210 104.828 211.677 107.264 214.09 108.368C215.597 109.058 217 110.343 217 112C217 113.657 215.657 115 214 115L67 115L1.99999 115C0.895427 115 0 114.105 0 113C0 111.895 0.913669 111.029 1.97358 110.718C4.87864 109.866 7 107.181 7 104C7 100.645 4.63974 97.8413 1.48909 97.1587C0.679449 96.9833 0 96.3284 0 95.5C0 94.6716 0.680432 94.0174 1.48745 93.8303C4.63892 93.0997 7 90.0953 7 86.5C7 83.4653 5.31776 80.8516 2.89791 79.6709C1.40884 78.9443 0 77.6569 0 76C0 74.3432 1.40307 73.058 2.90966 72.3685C5.32321 71.264 7 68.8278 7 66C7 62.645 4.63974 59.8413 1.48909 59.1587C0.679449 58.9833 0 58.3284 0 57.5C0 56.6716 0.680432 56.0175 1.48745 55.8303C4.63892 55.0997 7 52.0953 7 48.5C7 44.7204 4.39052 41.5937 0.996537 41.0754C0.450582 40.9921 0 40.5523 0 40C0 39.4477 0.45058 39.008 0.996536 38.9246C4.39052 38.4063 7 35.2797 7 31.5C7 27.9048 4.63892 24.9004 1.48745 24.1697C0.680433 23.9826 0 23.3284 0 22.5C0 21.6716 0.679449 21.0167 1.48909 20.8413C4.63974 20.1587 7 17.355 7 14C7 11.1722 5.32321 8.73603 2.90966 7.63152Z" fill="#9E5A57"/>
<mask id="mask0_1672_4640" style="mask-type:alpha" maskUnits="userSpaceOnUse" x="0" y="1" width="165" height="115">
<path fill-rule="evenodd" clip-rule="evenodd" d="M0 3.03101C0 1.92644 0.895427 1.03101 2 1.03101H113.824C113.824 1.03101 113.824 1.03103 113.824 1.03106C113.824 1.0311 113.824 1.03112 113.824 1.03112L162.745 1.03111C163.85 1.03111 164.745 1.92654 164.745 3.03111V10.7831V31.5853V35.8008V56.6031V60.8184V81.6206V85.8358V106.638V113C164.745 114.105 163.85 115 162.745 115L50.9213 115C50.9212 115 50.9212 115 50.9212 115C50.9212 115 50.9212 115 50.9211 115H2C0.895431 115 0 114.105 0 113V3.03101Z" fill="#9E5A57"/>
</mask>
<g mask="url(#mask0_1672_4640)">
<g opacity="0.1">
<path d="M121.909 269.968C122.019 269.786 122.006 269.508 121.881 269.347L62.0874 192.487C52.9005 180.678 45.2362 167.1 39.3071 152.131C33.5829 137.68 29.7145 122.562 27.8093 107.199C25.9041 91.8354 26.0609 77.0226 28.2754 63.1721C30.5691 48.8259 34.9795 36.1626 41.3839 25.534C47.7883 14.9053 55.8278 6.90721 65.2791 1.76152C74.4038 -3.20634 84.4435 -5.31541 95.1192 -4.50716C105.795 -3.69886 116.553 -0.0151588 127.094 6.44164C138.013 13.1296 148.208 22.5083 157.394 34.3173L217.188 111.177C217.313 111.339 217.504 111.321 217.614 111.139C217.723 110.957 217.711 110.679 217.585 110.518L157.792 33.6577C119.882 -15.0728 67.2417 -19.0583 40.8137 24.8011L40.8136 24.8013C14.3856 68.6606 23.7799 144.416 61.6899 193.146L121.483 270.007C121.609 270.168 121.799 270.151 121.909 269.968Z" fill="white"/>
<path d="M123.63 267.113C123.74 266.931 123.728 266.652 123.602 266.491L64.2658 190.218C55.4195 178.847 48.0404 165.771 42.3334 151.353C36.8237 137.433 33.1019 122.871 31.2715 108.07C29.441 93.2685 29.5968 78.9967 31.7346 65.6507C33.9489 51.827 38.2016 39.6233 44.3747 29.3785C50.5478 19.1338 58.2952 11.4223 67.4018 6.45817C76.1937 1.66554 85.866 -0.37334 96.1502 0.398121C106.434 1.1695 116.797 4.71127 126.95 10.9251C137.466 17.3612 147.284 26.3902 156.131 37.7616L215.467 114.034C215.592 114.195 215.783 114.178 215.893 113.996C216.003 113.813 215.99 113.535 215.865 113.373L156.529 37.1009C120.012 -9.83869 69.2859 -13.6438 43.8042 28.6451L43.8041 28.6453C18.3224 70.9342 27.351 143.939 63.8677 190.879L123.204 267.151C123.329 267.313 123.52 267.296 123.63 267.113Z" fill="white"/>
<path d="M125.596 263.851C125.706 263.669 125.693 263.391 125.568 263.231L66.6869 187.543C58.1813 176.61 51.0811 164.046 45.5837 150.2C40.2762 136.833 36.6836 122.854 34.9056 108.653C33.1276 94.452 33.2564 80.7646 35.2886 67.9712C37.3934 54.72 41.4568 43.0287 47.3658 33.2222C53.2748 23.4157 60.6983 16.0437 69.43 11.3109C77.86 6.74148 87.1389 4.81589 97.0091 5.58753C106.879 6.3592 116.829 9.7881 126.581 15.779C136.682 21.9842 146.116 30.6743 154.622 41.6077L213.503 117.295C213.628 117.456 213.819 117.439 213.928 117.257C214.038 117.075 214.025 116.798 213.9 116.637L155.019 40.9494C119.896 -4.19837 71.1952 -8.00585 46.7949 32.4883L46.7948 32.4885C22.3945 72.9827 31.1675 143.053 66.2903 188.201L125.172 263.889C125.297 264.05 125.487 264.032 125.596 263.851Z" fill="white"/>
<path d="M127.317 260.995C127.427 260.813 127.414 260.535 127.289 260.374L69.0447 185.505C60.9054 175.043 54.1156 163.012 48.864 149.748C43.7937 136.942 40.3683 123.545 38.6826 109.929C36.9971 96.3131 37.1388 83.1844 39.1039 70.908C41.1394 58.1922 45.0502 46.9671 50.7279 37.5445C56.4056 28.122 63.5319 21.0301 71.9087 16.4658C79.9962 12.0591 88.8941 10.186 98.355 10.898C107.816 11.6101 117.349 14.8707 126.69 20.5892C136.366 26.5122 145.398 34.8205 153.538 45.283L211.782 120.151C211.907 120.312 212.097 120.295 212.207 120.113C212.317 119.931 212.304 119.653 212.179 119.492L153.935 44.6237C120.312 1.40376 73.6124 -2.11138 50.1584 36.8124L50.1583 36.8125C26.7043 75.7364 35.0245 142.945 68.6475 186.165L126.891 261.033C127.017 261.194 127.207 261.177 127.317 260.995Z" fill="white"/>
<path d="M129.037 258.14C129.147 257.957 129.134 257.679 129.009 257.517L71.2214 183.236C63.4226 173.211 56.9182 161.682 51.8888 148.969C47.0332 136.695 43.7544 123.853 42.1436 110.799C40.5329 97.7458 40.6736 85.1583 42.5621 73.3863C44.5181 61.1931 48.2714 50.4277 53.7178 41.3891C59.1641 32.3504 65.9982 25.5452 74.0303 21.1624C81.7849 16.9309 90.3154 15.1278 99.3848 15.8029C108.454 16.4782 117.592 19.5967 126.544 25.0719C135.817 30.743 144.473 38.7015 152.272 48.7262L210.059 123.008C210.185 123.169 210.376 123.152 210.486 122.97C210.595 122.787 210.583 122.509 210.457 122.347L152.67 48.0656C120.44 6.63721 75.6556 3.30309 53.1478 40.6565C30.6401 78.0099 38.594 142.468 70.8234 183.896L128.611 258.178C128.736 258.339 128.927 258.322 129.037 258.14Z" fill="white"/>
<path d="M131.003 254.878C131.113 254.696 131.1 254.419 130.975 254.258L73.6412 180.56C66.1833 170.973 59.958 159.956 55.1383 147.816C50.485 136.094 47.3356 123.836 45.7774 111.383C44.2191 98.9297 44.3331 86.9265 46.116 75.7072C47.9626 64.0865 51.5266 53.8335 56.7089 45.2331C61.8912 36.6326 68.4014 30.1668 76.0585 26.0151C83.4513 22.0069 91.5883 20.3168 100.244 20.9921C108.899 21.6674 117.623 24.6728 126.175 29.925C135.032 35.3651 143.305 42.9843 150.762 52.5709L208.096 126.269C208.221 126.43 208.411 126.413 208.521 126.231C208.63 126.05 208.618 125.772 208.493 125.612L151.159 51.9132C120.324 12.2773 77.5649 8.94135 56.1386 44.5L56.1385 44.5001C34.7123 80.0587 42.4101 141.581 73.2449 181.217L130.579 254.916C130.704 255.076 130.894 255.059 131.003 254.878Z" fill="white"/>
<path d="M132.723 252.022C132.833 251.84 132.82 251.562 132.695 251.401L75.815 178.285C68.6981 169.137 62.7586 158.623 58.1614 147.033C53.723 135.844 50.7206 124.142 49.2375 112.252C47.7544 100.361 47.8676 88.8993 49.5739 78.1847C51.3413 67.0869 54.7478 57.2937 59.6988 49.0771C64.6498 40.8606 70.8677 34.6813 78.1799 30.7109C85.2396 26.8776 93.009 25.2575 101.272 25.8955C109.536 26.5334 117.865 29.3965 126.027 34.405C134.482 39.5927 142.377 46.8616 149.494 56.0098L206.374 129.125C206.499 129.286 206.69 129.269 206.799 129.087C206.909 128.905 206.896 128.627 206.771 128.466L149.891 55.3509C120.451 17.5086 79.6081 14.3553 59.1281 48.3435C38.648 82.3317 45.9784 141.102 75.4179 178.944L132.298 252.06C132.423 252.221 132.614 252.204 132.723 252.022Z" fill="white"/>
<path d="M134.445 249.166C134.555 248.984 134.542 248.705 134.417 248.544L78.1851 176.262C71.433 167.583 65.8023 157.6 61.4496 146.59C57.2471 135.961 54.4106 124.838 53.0188 113.532C51.627 102.225 51.7523 91.321 53.3911 81.1225C55.0884 70.5594 58.3421 61.2321 63.0618 53.3994C67.7814 45.5668 73.7024 39.6681 80.6603 35.8671C87.378 32.1974 94.7671 30.6306 102.622 31.2104C110.478 31.7903 118.392 34.4866 126.144 39.2244C134.174 44.1317 141.669 51.0207 148.421 59.7L204.653 131.982C204.778 132.143 204.969 132.126 205.079 131.943C205.189 131.761 205.176 131.483 205.051 131.321L148.819 59.0397C120.873 23.1174 82.0263 20.25 62.4925 52.6678L62.4925 52.6679C42.9587 85.0857 49.8414 141 77.7872 176.923L134.019 249.204C134.144 249.366 134.335 249.349 134.445 249.166Z" fill="white"/>
<path d="M136.165 246.31C136.275 246.127 136.263 245.848 136.137 245.687L80.3595 173.989C73.9483 165.747 68.6034 156.266 64.4732 145.808C60.4855 135.711 57.796 125.144 56.4792 114.4C55.1625 103.656 55.287 93.2937 56.8492 83.6C58.4672 73.5596 61.5633 64.692 66.0516 57.2434C70.5399 49.7948 76.1686 44.1827 82.7816 40.5631C89.1663 37.0683 96.1879 35.5715 103.651 36.1141C111.115 36.6567 118.633 39.2106 125.997 43.705C133.624 48.3599 140.742 54.8987 147.153 63.1398L202.93 134.838C203.056 134.999 203.247 134.982 203.357 134.799C203.468 134.617 203.455 134.338 203.329 134.176L147.552 62.478C121.001 28.3488 84.0695 25.6638 65.482 56.5112C46.8945 87.3585 53.4099 140.521 79.9607 174.65L135.738 246.348C135.864 246.51 136.055 246.493 136.165 246.31Z" fill="white"/>
<path d="M138.131 243.048C138.241 242.866 138.228 242.589 138.103 242.428L82.7763 171.309C76.7063 163.507 71.6409 154.538 67.7207 144.653C63.9357 135.109 61.3758 125.126 60.1119 114.983C58.8481 104.84 58.9459 95.0615 60.4027 85.9206C61.9116 76.4529 64.8185 68.0978 69.0428 61.0872C73.2671 54.0767 78.5719 48.8038 84.8098 45.4151C90.8325 42.1432 97.4605 40.7592 104.51 41.3016C111.559 41.8439 118.663 44.2843 125.626 48.5551C132.837 52.9786 139.571 59.1777 145.641 66.9801L200.968 138.099C201.093 138.26 201.283 138.242 201.393 138.061C201.502 137.879 201.49 137.601 201.365 137.44L146.038 66.3217C120.883 33.9871 85.9788 31.3018 68.4728 60.3544C50.9667 89.407 57.2247 139.633 82.3795 171.968L137.706 243.086C137.831 243.247 138.022 243.23 138.131 243.048Z" fill="white"/>
<path d="M139.852 240.192C139.961 240.01 139.949 239.732 139.823 239.57L84.9471 169.031C73.6092 154.457 66.0178 135.57 63.5714 115.85C61.1249 96.1301 64.1299 78.0468 72.0328 64.9314C79.9356 51.8161 91.8345 45.1653 105.537 46.2042C119.241 47.2431 133.031 55.8415 144.369 70.4155L199.245 140.955C199.371 141.116 199.561 141.099 199.671 140.917C199.781 140.734 199.768 140.456 199.643 140.295L144.767 69.7556C121.009 39.2167 88.022 36.7158 71.4622 64.198C54.9025 91.6802 60.7917 139.152 84.5494 169.691L139.426 240.23C139.551 240.391 139.742 240.374 139.852 240.192Z" fill="white"/>
<path d="M141.573 237.335C141.683 237.153 141.67 236.874 141.545 236.712L87.1169 166.749C76.4554 153.044 69.3221 135.276 67.0312 116.716C64.7403 98.1564 67.5786 81.1308 75.0235 68.7755C82.4683 56.4201 93.6701 50.1452 106.565 51.1061C119.461 52.0672 132.434 60.1439 143.095 73.8486L197.523 143.811C197.649 143.973 197.84 143.956 197.95 143.773C198.06 143.59 198.048 143.311 197.922 143.15L143.494 73.1868C121.135 44.4452 90.0658 42.1298 74.4525 68.0414C58.8391 93.953 64.3586 138.669 86.7182 167.411L141.146 237.374C141.272 237.535 141.463 237.518 141.573 237.335Z" fill="white"/>
<path d="M143.538 234.075C143.647 233.893 143.635 233.616 143.51 233.455L89.7458 164.345C79.8017 151.563 73.14 135.004 70.9879 117.718C68.8358 100.432 71.463 84.5857 78.3855 73.0974C85.3079 61.6091 95.7358 55.7897 107.748 56.7114C119.761 57.6331 131.853 65.1804 141.797 77.9628L195.561 147.073C195.686 147.233 195.876 147.216 195.985 147.034C196.094 146.853 196.082 146.575 195.957 146.415L142.193 77.3052C121.318 50.4716 92.3482 48.2488 77.8163 72.3656C63.2844 96.4824 68.4743 138.169 89.3495 165.003L143.114 234.113C143.239 234.273 143.428 234.256 143.538 234.075Z" fill="white"/>
<path d="M145.259 231.219C145.369 231.037 145.356 230.759 145.231 230.597L91.9164 162.065C82.6484 150.152 76.4447 134.71 74.448 118.585C72.4514 102.459 74.9119 87.6704 81.3765 76.942C87.841 66.2137 97.5718 60.7701 108.777 61.6141C119.981 62.4581 131.256 69.4838 140.524 81.3971L193.839 149.929C193.964 150.09 194.155 150.073 194.264 149.891C194.374 149.709 194.362 149.431 194.236 149.27L140.921 80.7376C121.444 55.7008 94.3924 53.6632 80.8067 76.2097C67.2211 98.7561 72.0416 137.688 91.519 162.725L144.834 231.257C144.959 231.418 145.15 231.401 145.259 231.219Z" fill="white"/>
<path d="M146.98 228.362C147.09 228.179 147.077 227.9 146.952 227.738L94.0838 159.781C85.4927 148.737 79.7475 134.414 77.9066 119.45C76.0658 104.485 78.36 90.7537 84.3665 80.7855C90.373 70.8172 99.4065 65.7492 109.803 66.5149C120.2 67.2806 130.657 73.7841 139.248 84.8274L192.116 152.785C192.241 152.947 192.433 152.929 192.543 152.747C192.653 152.564 192.64 152.285 192.514 152.123L139.647 84.1657C121.568 60.9273 96.4356 59.0764 83.7962 80.0524C71.1568 101.029 75.6068 137.204 93.6851 160.442L146.553 228.4C146.679 228.562 146.87 228.544 146.98 228.362Z" fill="white"/>
<path d="M148.944 225.101C149.054 224.919 149.041 224.642 148.916 224.482L96.4902 157.092C88.5766 146.92 83.2655 133.758 81.5353 120.03C79.805 106.303 81.8725 93.7308 87.3568 84.6292C92.8411 75.5276 101.117 70.9351 110.659 71.6978C120.201 72.4604 129.814 78.4826 137.728 88.655L190.154 156.045C190.279 156.205 190.468 156.188 190.578 156.007C190.687 155.825 190.674 155.549 190.55 155.388L138.124 87.9985C121.446 66.5605 98.344 64.7141 86.786 83.8954C75.228 103.077 79.4169 136.311 96.0946 157.749L148.521 225.139C148.645 225.299 148.835 225.282 148.944 225.101Z" fill="white"/>
<path d="M150.666 222.245C150.776 222.063 150.763 221.785 150.638 221.624L98.8972 155.115C91.6958 145.858 86.8766 133.858 85.3273 121.324C83.7781 108.789 85.6929 97.2928 90.7192 88.9513C95.7455 80.6099 103.31 76.3751 112.019 77.0272C120.728 77.6792 129.49 83.1363 136.691 92.3933L188.432 158.902C188.557 159.063 188.747 159.046 188.857 158.864C188.967 158.682 188.954 158.404 188.829 158.243L137.088 91.7345C121.884 72.1907 100.762 70.6093 90.1505 88.2202C79.5388 105.831 83.2962 136.23 98.5003 155.774L150.241 222.283C150.366 222.444 150.556 222.427 150.666 222.245Z" fill="white"/>
<path d="M152.387 219.388C152.497 219.206 152.484 218.927 152.359 218.765L101.063 152.829C94.5391 144.443 90.1788 133.561 88.7857 122.188C87.3925 110.815 89.1411 100.377 93.7092 92.7956C98.2774 85.2144 105.144 81.3551 113.045 81.9285C120.945 82.502 128.889 87.4364 135.413 95.8229L186.708 161.759C186.834 161.921 187.025 161.903 187.135 161.721C187.245 161.538 187.233 161.259 187.107 161.097L135.812 95.1613C122.008 77.4172 102.805 76.0233 93.1399 92.0638C83.4745 108.104 86.8606 135.746 100.665 153.491L151.96 219.427C152.086 219.588 152.277 219.571 152.387 219.388Z" fill="white"/>
<path d="M154.352 216.128C154.461 215.948 154.448 215.672 154.324 215.512L103.468 150.14C97.6215 142.625 93.6959 132.905 92.4139 122.77C91.132 112.635 92.6543 103.355 96.7006 96.6398C100.747 89.9247 106.856 86.5403 113.901 87.1099C120.947 87.6794 128.047 92.1317 133.893 99.6464L184.749 165.018C184.874 165.178 185.063 165.161 185.172 164.98C185.281 164.799 185.268 164.523 185.144 164.364L134.288 98.9918C121.885 83.0495 104.715 81.6614 96.1307 95.9072C87.5467 110.153 90.6708 134.852 103.073 150.795L153.929 216.166C154.054 216.326 154.243 216.309 154.352 216.128Z" fill="white"/>
<path d="M156.073 213.272C156.183 213.091 156.17 212.813 156.045 212.653L105.628 147.845C100.461 141.203 96.9961 132.604 95.8715 123.632C94.7469 114.66 96.1036 106.439 99.6917 100.485C103.28 94.5298 108.69 91.52 114.926 92.0094C121.162 92.4988 127.442 96.4261 132.609 103.068L183.026 167.876C183.151 168.036 183.341 168.019 183.451 167.837C183.56 167.656 183.548 167.379 183.423 167.218L133.005 102.41C122.007 88.2725 106.759 87.0758 99.1211 99.7512C91.4834 112.427 94.2333 134.365 105.232 148.503L155.649 213.31C155.774 213.471 155.964 213.454 156.073 213.272Z" fill="white"/>
<path d="M157.794 210.414C157.904 210.232 157.891 209.953 157.766 209.791L107.783 145.543C98.481 133.585 96.1922 115.096 102.681 104.327C109.17 93.5586 122.017 94.5257 131.319 106.483L181.302 170.732C181.427 170.893 181.618 170.876 181.728 170.694C181.838 170.511 181.826 170.232 181.7 170.071L131.718 105.822C122.125 93.4909 108.801 92.488 102.11 103.593C95.4183 114.698 97.792 133.873 107.385 146.204L157.367 210.453C157.493 210.614 157.684 210.597 157.794 210.414Z" fill="white"/>
<path d="M159.517 207.557C159.628 207.373 159.615 207.092 159.488 206.929L110.224 143.604C102.38 133.521 100.504 117.84 106.043 108.649C111.581 99.4571 122.469 100.183 130.313 110.266L179.577 173.591C179.704 173.753 179.896 173.736 180.007 173.552C180.118 173.368 180.105 173.087 179.979 172.924L130.715 109.599C122.578 99.1397 111.219 98.383 105.474 107.918C99.729 117.452 101.686 133.811 109.823 144.271L159.087 207.596C159.213 207.758 159.406 207.741 159.517 207.557Z" fill="white"/>
<path d="M161.48 204.3C161.589 204.119 161.576 203.843 161.452 203.683L112.62 140.913C106.185 132.641 104.576 119.892 109.034 112.493C113.493 105.095 122.355 105.805 128.79 114.077L177.622 176.848C177.747 177.007 177.936 176.99 178.045 176.81C178.154 176.629 178.141 176.353 178.017 176.193L129.184 113.422C122.453 104.769 113.129 104.022 108.465 111.762C103.801 119.501 105.493 132.914 112.225 141.568L161.058 204.338C161.182 204.498 161.371 204.481 161.48 204.3Z" fill="white"/>
<path d="M163.202 201.442C163.312 201.259 163.299 200.981 163.174 200.819L114.774 138.605C109.75 132.148 108.517 122.159 112.025 116.338C115.532 110.517 122.472 111.035 127.496 117.492L175.896 179.706C176.021 179.868 176.212 179.85 176.322 179.668C176.432 179.486 176.419 179.207 176.294 179.046L127.894 116.831C122.57 109.987 115.172 109.436 111.454 115.605C107.737 121.775 109.051 132.422 114.375 139.266L162.775 201.48C162.901 201.641 163.092 201.624 163.202 201.442Z" fill="white"/>
<path d="M164.926 198.581C165.037 198.396 165.025 198.112 164.897 197.949L116.925 136.285C113.317 131.646 112.461 124.423 115.016 120.182C117.571 115.941 122.586 116.265 126.194 120.903L174.166 182.567C174.293 182.731 174.487 182.713 174.598 182.528C174.71 182.343 174.697 182.06 174.57 181.896L126.598 120.232C122.685 115.202 117.216 114.849 114.445 119.448C111.674 124.047 112.608 131.926 116.521 136.956L164.493 198.62C164.62 198.784 164.814 198.766 164.926 198.581Z" fill="white"/>
</g>
</g>
<path d="M186.567 83.5725L185.864 83.5725L185.864 78.6634L186.567 78.6634L186.567 80.7216L192.409 80.7216L192.409 81.5142L186.567 81.5142L186.567 83.5725ZM192.499 75.9963C192.499 76.4267 192.42 76.7974 192.262 77.1085C192.104 77.4196 191.888 77.6593 191.613 77.8276C191.339 77.9959 191.024 78.0801 190.671 78.0801C190.398 78.0801 190.156 78.0226 189.945 77.9075C189.732 77.7903 189.535 77.6295 189.354 77.4249C189.171 77.2182 188.987 76.9807 188.804 76.7122L188.101 75.7662C187.979 75.5808 187.85 75.4327 187.711 75.3219C187.573 75.209 187.391 75.1525 187.168 75.1525C187.002 75.1525 186.841 75.226 186.685 75.3731C186.53 75.5179 186.452 75.7086 186.452 75.9451C186.452 76.1113 186.494 76.2584 186.58 76.3862C186.663 76.5119 186.769 76.611 186.899 76.6834C187.027 76.7537 187.159 76.7889 187.296 76.7889C187.449 76.7889 187.604 76.7474 187.762 76.6643C187.918 76.579 188.078 76.4714 188.242 76.3415C188.403 76.2094 188.57 76.073 188.74 75.9324L192.409 72.9281L192.409 73.8358L189.418 76.3159C189.141 76.546 188.889 76.7548 188.663 76.9423C188.438 77.1298 188.215 77.279 187.995 77.3898C187.776 77.5005 187.538 77.5559 187.283 77.5559C186.989 77.5559 186.731 77.491 186.509 77.361C186.286 77.2289 186.112 77.0446 185.988 76.8081C185.863 76.5694 185.8 76.2903 185.8 75.9707C185.8 75.6426 185.864 75.3603 185.992 75.1238C186.117 74.8873 186.285 74.7051 186.493 74.5773C186.7 74.4494 186.925 74.3855 187.168 74.3855C187.481 74.3855 187.753 74.4633 187.983 74.6188C188.213 74.7743 188.427 74.9863 188.625 75.2548L189.597 76.5588C189.814 76.8528 190.025 77.052 190.229 77.1564C190.434 77.2608 190.581 77.313 190.671 77.313C190.875 77.313 191.066 77.2598 191.243 77.1532C191.419 77.0467 191.562 76.8965 191.671 76.7026C191.78 76.5087 191.834 76.2818 191.834 76.0219C191.834 75.7747 191.782 75.5339 191.677 75.2996C191.571 75.0652 191.417 74.8532 191.217 74.6635C191.017 74.4718 190.776 74.3205 190.495 74.2097C190.214 74.0968 189.897 74.0403 189.546 74.0403L189.546 73.3116C189.98 73.3116 190.335 73.3617 190.61 73.4618C190.885 73.562 191.1 73.6749 191.255 73.8006C191.411 73.9263 191.527 74.0275 191.604 74.1042C191.636 74.1298 191.668 74.1532 191.7 74.1746C191.732 74.1959 191.764 74.2193 191.796 74.2449C192.032 74.4558 192.209 74.7221 192.326 75.0439C192.441 75.3656 192.499 75.6831 192.499 75.9963ZM187.909 66.7238L187.909 67.5164C187.681 67.5633 187.481 67.6453 187.308 67.7625C187.136 67.8776 186.991 68.0182 186.874 68.1844C186.754 68.3485 186.665 68.5306 186.605 68.7309C186.546 68.9312 186.516 69.14 186.516 69.3573C186.516 69.7537 186.616 70.1127 186.816 70.4344C187.016 70.754 187.312 71.0086 187.701 71.1983C188.091 71.3858 188.57 71.4795 189.136 71.4795C189.703 71.4795 190.182 71.3858 190.571 71.1983C190.961 71.0086 191.256 70.754 191.457 70.4344C191.657 70.1127 191.757 69.7537 191.757 69.3573C191.757 69.14 191.727 68.9312 191.668 68.7309C191.608 68.5306 191.52 68.3485 191.402 68.1844C191.283 68.0182 191.137 67.8776 190.965 67.7625C190.79 67.6453 190.59 67.5633 190.364 67.5164L190.364 66.7238C190.698 66.7835 190.998 66.8921 191.262 67.0498C191.526 67.2075 191.751 67.4035 191.936 67.6379C192.119 67.8723 192.259 68.1354 192.355 68.4273C192.451 68.7171 192.499 69.0271 192.499 69.3573C192.499 69.9156 192.362 70.412 192.09 70.8467C191.817 71.2814 191.429 71.6233 190.926 71.8726C190.423 72.1219 189.827 72.2466 189.136 72.2466C188.446 72.2466 187.85 72.1219 187.347 71.8726C186.844 71.6233 186.456 71.2814 186.183 70.8467C185.911 70.412 185.774 69.9156 185.774 69.3573C185.774 69.0271 185.822 68.7171 185.918 68.4273C186.014 68.1354 186.155 67.8723 186.34 67.6379C186.523 67.4035 186.747 67.2075 187.011 67.0498C187.273 66.8921 187.573 66.7835 187.909 66.7238ZM192.409 62.6433L192.409 63.4743L185.864 61.0709L185.864 60.2527L192.409 57.8493L192.409 58.6802L186.899 60.6362L186.899 60.6873L192.409 62.6433ZM189.852 62.3365L189.852 58.9871L190.555 58.9871L190.555 62.3365L189.852 62.3365ZM194.25 56.932L187.5 56.932L187.5 56.2033L188.28 56.2033L188.28 56.1138C188.195 56.0584 188.086 55.9817 187.954 55.8837C187.82 55.7836 187.7 55.6408 187.596 55.4554C187.489 55.2679 187.436 55.0144 187.436 54.6948C187.436 54.2814 187.54 53.9171 187.746 53.6018C187.953 53.2864 188.246 53.0403 188.625 52.8635C189.004 52.6866 189.452 52.5982 189.967 52.5982C190.487 52.5982 190.938 52.6866 191.319 52.8635C191.699 53.0403 191.993 53.2853 192.201 53.5986C192.408 53.9118 192.511 54.2729 192.511 54.682C192.511 54.9974 192.459 55.2498 192.355 55.4395C192.248 55.6291 192.128 55.775 191.994 55.8773C191.857 55.9796 191.744 56.0584 191.655 56.1138L191.655 56.1777L194.25 56.1777L194.25 56.932ZM189.955 56.1905C190.325 56.1905 190.652 56.1362 190.936 56.0275C191.217 55.9189 191.438 55.7601 191.597 55.5513C191.755 55.3425 191.834 55.0868 191.834 54.7843C191.834 54.4689 191.751 54.2058 191.585 53.9949C191.416 53.7818 191.19 53.622 190.907 53.5155C190.622 53.4068 190.304 53.3525 189.955 53.3525C189.609 53.3525 189.298 53.4057 189.021 53.5123C188.742 53.6167 188.522 53.7754 188.36 53.9885C188.196 54.1994 188.114 54.4647 188.114 54.7843C188.114 55.0911 188.191 55.3489 188.347 55.5577C188.5 55.7665 188.716 55.9242 188.993 56.0307C189.267 56.1373 189.588 56.1905 189.955 56.1905ZM194.25 51.4476L187.5 51.4476L187.5 50.7189L188.28 50.7189L188.28 50.6295C188.195 50.5741 188.086 50.4974 187.954 50.3993C187.82 50.2992 187.7 50.1564 187.596 49.9711C187.489 49.7836 187.436 49.53 187.436 49.2104C187.436 48.7971 187.54 48.4327 187.746 48.1174C187.953 47.802 188.246 47.5559 188.625 47.3791C189.004 47.2023 189.452 47.1138 189.967 47.1138C190.487 47.1138 190.938 47.2023 191.319 47.3791C191.699 47.5559 191.993 47.801 192.201 48.1142C192.408 48.4274 192.511 48.7885 192.511 49.1976C192.511 49.513 192.459 49.7655 192.355 49.9551C192.248 50.1447 192.128 50.2907 191.994 50.3929C191.857 50.4952 191.744 50.5741 191.655 50.6295L191.655 50.6934L194.25 50.6934L194.25 51.4476ZM189.955 50.7062C190.325 50.7062 190.652 50.6518 190.936 50.5432C191.217 50.4345 191.438 50.2758 191.597 50.067C191.755 49.8581 191.834 49.6025 191.834 49.2999C191.834 48.9846 191.751 48.7214 191.585 48.5105C191.416 48.2974 191.19 48.1376 190.907 48.0311C190.622 47.9224 190.304 47.8681 189.955 47.8681C189.609 47.8681 189.298 47.9214 189.021 48.0279C188.742 48.1323 188.522 48.291 188.36 48.5041C188.196 48.715 188.114 48.9803 188.114 49.2999C188.114 49.6067 188.191 49.8645 188.347 50.0733C188.5 50.2822 188.716 50.4398 188.993 50.5464C189.267 50.6529 189.588 50.7062 189.955 50.7062ZM185.864 45.209L192.409 45.209L192.409 45.9633L185.864 45.9633L185.864 45.209ZM192.409 43.8275L187.5 43.8275L187.5 43.0733L192.409 43.0733L192.409 43.8275ZM186.682 43.444C186.682 43.591 186.632 43.7178 186.532 43.8243C186.432 43.9287 186.311 43.9809 186.171 43.9809C186.03 43.9809 185.91 43.9287 185.809 43.8243C185.709 43.7178 185.659 43.591 185.659 43.444C185.659 43.297 185.709 43.1713 185.809 43.0669C185.91 42.9603 186.03 42.9071 186.171 42.9071C186.311 42.9071 186.432 42.9603 186.532 43.0669C186.632 43.1713 186.682 43.297 186.682 43.444ZM192.511 39.6335C192.511 40.1065 192.407 40.5146 192.198 40.8576C191.987 41.1985 191.693 41.4617 191.316 41.647C190.937 41.8303 190.496 41.9219 189.993 41.9219C189.49 41.9219 189.047 41.8303 188.663 41.647C188.278 41.4617 187.977 41.2039 187.762 40.8736C187.545 40.5412 187.436 40.1534 187.436 39.7102C187.436 39.4546 187.479 39.2021 187.564 38.9528C187.649 38.7035 187.788 38.4766 187.979 38.272C188.169 38.0675 188.421 37.9045 188.734 37.783C189.047 37.6616 189.433 37.6009 189.891 37.6009L190.21 37.6009L190.21 41.385L189.558 41.385L189.558 38.3679C189.281 38.3679 189.034 38.4233 188.817 38.5341C188.6 38.6428 188.428 38.7983 188.302 39.0007C188.177 39.201 188.114 39.4375 188.114 39.7102C188.114 40.0107 188.188 40.2706 188.337 40.4901C188.484 40.7074 188.676 40.8747 188.913 40.9918C189.149 41.109 189.403 41.1676 189.673 41.1676L190.108 41.1676C190.479 41.1676 190.793 41.1037 191.051 40.9759C191.307 40.8459 191.502 40.6659 191.636 40.4357C191.768 40.2056 191.834 39.9382 191.834 39.6335C191.834 39.4354 191.806 39.2564 191.751 39.0966C191.693 38.9347 191.608 38.7951 191.495 38.6779C191.38 38.5607 191.237 38.4702 191.067 38.4063L191.271 37.6776C191.519 37.7543 191.736 37.8832 191.923 38.0643C192.109 38.2454 192.254 38.4691 192.358 38.7355C192.46 39.0018 192.511 39.3012 192.511 39.6335ZM188.6 32.9762L188.791 33.6538C188.678 33.6964 188.569 33.7592 188.462 33.8423C188.353 33.9233 188.264 34.0341 188.194 34.1747C188.123 34.3154 188.088 34.4954 188.088 34.7149C188.088 35.0153 188.157 35.2656 188.296 35.4659C188.432 35.6641 188.606 35.7632 188.817 35.7632C189.004 35.7632 189.152 35.695 189.261 35.5586C189.37 35.4222 189.46 35.2092 189.533 34.9194L189.712 34.1907C189.818 33.7518 189.981 33.4247 190.201 33.2095C190.418 32.9943 190.698 32.8867 191.041 32.8867C191.323 32.8867 191.574 32.9677 191.796 33.1296C192.017 33.2894 192.192 33.5132 192.32 33.8008C192.448 34.0884 192.511 34.423 192.511 34.8043C192.511 35.3051 192.403 35.7195 192.185 36.0476C191.968 36.3757 191.651 36.5835 191.233 36.6708L191.054 35.9549C191.318 35.8867 191.516 35.7578 191.649 35.5682C191.781 35.3764 191.847 35.1261 191.847 34.8171C191.847 34.4656 191.772 34.1865 191.623 33.9798C191.472 33.771 191.291 33.6666 191.08 33.6666C190.909 33.6666 190.766 33.7262 190.651 33.8455C190.534 33.9649 190.447 34.1481 190.389 34.3953L190.198 35.2134C190.091 35.663 189.926 35.9933 189.702 36.2042C189.476 36.413 189.194 36.5174 188.855 36.5174C188.578 36.5174 188.333 36.4396 188.12 36.2841C187.907 36.1264 187.74 35.9123 187.618 35.6417C187.497 35.369 187.436 35.06 187.436 34.7149C187.436 34.2291 187.543 33.8477 187.756 33.5707C187.969 33.2916 188.25 33.0934 188.6 32.9762Z" fill="white"/>
<path opacity="0.9" d="M30.2555 72.2727C30.2555 73.2699 30.0754 74.1316 29.7153 74.858C29.3552 75.5843 28.8613 76.1444 28.2334 76.5384C27.6056 76.9323 26.8885 77.1293 26.0822 77.1293C25.2758 77.1293 24.5587 76.9323 23.9309 76.5384C23.303 76.1444 22.8091 75.5843 22.449 74.858C22.0889 74.1316 21.9089 73.2699 21.9089 72.2727C21.9089 71.2756 22.0889 70.4138 22.449 69.6875C22.8091 68.9612 23.303 68.401 23.9309 68.0071C24.5587 67.6132 25.2758 67.4162 26.0822 67.4162C26.8885 67.4162 27.6056 67.6132 28.2334 68.0071C28.8613 68.401 29.3552 68.9612 29.7153 69.6875C30.0754 70.4138 30.2555 71.2756 30.2555 72.2727ZM29.1475 72.2727C29.1475 71.4541 29.0106 70.7631 28.7366 70.1999C28.4658 69.6367 28.098 69.2105 27.6333 68.9212C27.1717 68.6319 26.6546 68.4872 26.0822 68.4872C25.5097 68.4872 24.9911 68.6319 24.5264 68.9212C24.0648 69.2105 23.697 69.6367 23.4231 70.1999C23.1522 70.7631 23.0168 71.4541 23.0168 72.2727C23.0168 73.0914 23.1522 73.7823 23.4231 74.3455C23.697 74.9087 24.0648 75.335 24.5264 75.6243C24.9911 75.9136 25.5097 76.0582 26.0822 76.0582C26.6546 76.0582 27.1717 75.9136 27.6333 75.6243C28.098 75.335 28.4658 74.9087 28.7366 74.3455C29.0106 73.7823 29.1475 73.0914 29.1475 72.2727ZM33.1223 72.7344V77H32.0328V69.9091H33.0854V71.017H33.1777C33.3439 70.657 33.5963 70.3677 33.9348 70.1491C34.2733 69.9276 34.7104 69.8168 35.2459 69.8168C35.726 69.8168 36.1461 69.9152 36.5062 70.1122C36.8663 70.3061 37.1463 70.6016 37.3464 70.9986C37.5464 71.3925 37.6464 71.8911 37.6464 72.4943V77H36.557V72.5682C36.557 72.0111 36.4123 71.5772 36.123 71.2663C35.8337 70.9524 35.4367 70.7955 34.932 70.7955C34.5842 70.7955 34.2733 70.8709 33.9994 71.0217C33.7286 71.1725 33.5147 71.3925 33.3577 71.6818C33.2008 71.9711 33.1223 72.322 33.1223 72.7344ZM43.9953 79.6591C43.8106 79.6591 43.6459 79.6437 43.5013 79.6129C43.3566 79.5852 43.2566 79.5575 43.2012 79.5298L43.4782 78.5696C43.7429 78.6373 43.9768 78.6619 44.1799 78.6435C44.383 78.625 44.5631 78.5342 44.72 78.3711C44.8801 78.2111 45.0263 77.951 45.1586 77.5909L45.3617 77.0369L42.7396 69.9091H43.9214L45.8788 75.5597H45.9526L47.91 69.9091H49.0918L46.0819 78.0341C45.9465 78.4003 45.7787 78.7035 45.5787 78.9435C45.3787 79.1867 45.1463 79.3667 44.8816 79.4837C44.62 79.6006 44.3246 79.6591 43.9953 79.6591ZM53.1566 77.1477C52.5165 77.1477 51.9548 76.9954 51.4716 76.6907C50.9915 76.386 50.616 75.9598 50.3452 75.4119C50.0775 74.8641 49.9436 74.224 49.9436 73.4915C49.9436 72.7528 50.0775 72.1081 50.3452 71.5572C50.616 71.0063 50.9915 70.5785 51.4716 70.2738C51.9548 69.9691 52.5165 69.8168 53.1566 69.8168C53.7968 69.8168 54.3569 69.9691 54.837 70.2738C55.3202 70.5785 55.6957 71.0063 55.9635 71.5572C56.2343 72.1081 56.3697 72.7528 56.3697 73.4915C56.3697 74.224 56.2343 74.8641 55.9635 75.4119C55.6957 75.9598 55.3202 76.386 54.837 76.6907C54.3569 76.9954 53.7968 77.1477 53.1566 77.1477ZM53.1566 76.169C53.6429 76.169 54.043 76.0444 54.3569 75.7951C54.6709 75.5458 54.9032 75.218 55.054 74.8118C55.2048 74.4055 55.2802 73.9654 55.2802 73.4915C55.2802 73.0175 55.2048 72.5759 55.054 72.1665C54.9032 71.7572 54.6709 71.4264 54.3569 71.174C54.043 70.9216 53.6429 70.7955 53.1566 70.7955C52.6704 70.7955 52.2703 70.9216 51.9564 71.174C51.6424 71.4264 51.4101 71.7572 51.2593 72.1665C51.1085 72.5759 51.0331 73.0175 51.0331 73.4915C51.0331 73.9654 51.1085 74.4055 51.2593 74.8118C51.4101 75.218 51.6424 75.5458 51.9564 75.7951C52.2703 76.0444 52.6704 76.169 53.1566 76.169ZM62.5016 74.1009V69.9091H63.591V77H62.5016V75.7997H62.4277C62.2615 76.1598 62.003 76.466 61.6521 76.7184C61.3013 76.9677 60.8581 77.0923 60.3226 77.0923C59.8794 77.0923 59.4855 76.9954 59.1408 76.8015C58.7961 76.6045 58.5252 76.3091 58.3283 75.9151C58.1313 75.5181 58.0328 75.018 58.0328 74.4148V69.9091H59.1223V74.3409C59.1223 74.858 59.2669 75.2704 59.5562 75.5781C59.8486 75.8859 60.221 76.0398 60.6734 76.0398C60.9443 76.0398 61.2197 75.9705 61.4998 75.832C61.7829 75.6935 62.0199 75.4812 62.2107 75.195C62.4046 74.9087 62.5016 74.544 62.5016 74.1009ZM65.5865 77V69.9091H66.6391V70.9801H66.7129C66.8422 70.6293 67.0761 70.3446 67.4146 70.1261C67.7532 69.9076 68.1348 69.7983 68.5595 69.7983C68.6395 69.7983 68.7396 69.7998 68.8596 69.8029C68.9796 69.806 69.0704 69.8106 69.132 69.8168V70.9247C69.095 70.9155 69.0104 70.9016 68.8781 70.8832C68.7488 70.8616 68.6118 70.8509 68.4672 70.8509C68.1225 70.8509 67.8147 70.9232 67.5439 71.0678C67.2761 71.2094 67.0638 71.4064 66.9068 71.6587C66.7529 71.908 66.676 72.1927 66.676 72.5128V77H65.5865ZM77.2373 69.9091V70.8324H73.4149V69.9091H77.2373ZM74.5598 77V68.9304C74.5598 68.5241 74.6552 68.1856 74.846 67.9148C75.0368 67.6439 75.2846 67.4408 75.5893 67.3054C75.894 67.17 76.2156 67.1023 76.5541 67.1023C76.8219 67.1023 77.0404 67.1238 77.2097 67.1669C77.3789 67.21 77.5051 67.25 77.5882 67.2869L77.2743 68.2287C77.2189 68.2102 77.1419 68.1871 77.0435 68.1594C76.9481 68.1317 76.8219 68.1179 76.6649 68.1179C76.3048 68.1179 76.0448 68.2087 75.8847 68.3903C75.7278 68.5719 75.6493 68.8381 75.6493 69.1889V77H74.5598ZM78.7642 77V69.9091H79.8537V77H78.7642ZM79.3182 68.7273C79.1059 68.7273 78.9227 68.6549 78.7689 68.5103C78.6181 68.3656 78.5427 68.1918 78.5427 67.9886C78.5427 67.7855 78.6181 67.6116 78.7689 67.467C78.9227 67.3223 79.1059 67.25 79.3182 67.25C79.5306 67.25 79.7122 67.3223 79.863 67.467C80.0169 67.6116 80.0938 67.7855 80.0938 67.9886C80.0938 68.1918 80.0169 68.3656 79.863 68.5103C79.7122 68.6549 79.5306 68.7273 79.3182 68.7273ZM81.8492 77V69.9091H82.9018V70.9801H82.9756C83.1049 70.6293 83.3388 70.3446 83.6773 70.1261C84.0159 69.9076 84.3975 69.7983 84.8222 69.7983C84.9022 69.7983 85.0023 69.7998 85.1223 69.8029C85.2423 69.806 85.3331 69.8106 85.3947 69.8168V70.9247C85.3577 70.9155 85.2731 70.9016 85.1408 70.8832C85.0115 70.8616 84.8745 70.8509 84.7299 70.8509C84.3852 70.8509 84.0774 70.9232 83.8066 71.0678C83.5388 71.2094 83.3265 71.4064 83.1695 71.6587C83.0156 71.908 82.9387 72.1927 82.9387 72.5128V77H81.8492ZM91.7089 71.4972L90.7302 71.7741C90.6686 71.611 90.5778 71.4525 90.4578 71.2987C90.3408 71.1417 90.1808 71.0124 89.9777 70.9109C89.7745 70.8093 89.5145 70.7585 89.1975 70.7585C88.7635 70.7585 88.4019 70.8585 88.1126 71.0586C87.8264 71.2556 87.6833 71.5064 87.6833 71.8111C87.6833 72.0819 87.7818 72.2958 87.9787 72.4528C88.1757 72.6097 88.4835 72.7405 88.902 72.8452L89.9546 73.1037C90.5886 73.2576 91.061 73.493 91.3718 73.81C91.6827 74.1239 91.8381 74.5286 91.8381 75.0241C91.8381 75.4304 91.7212 75.7936 91.4873 76.1136C91.2564 76.4337 90.9333 76.6861 90.5178 76.8707C90.1023 77.0554 89.6191 77.1477 89.0682 77.1477C88.345 77.1477 87.7464 76.9908 87.2724 76.6768C86.7985 76.3629 86.4984 75.9044 86.3722 75.3011L87.4063 75.0426C87.5048 75.4242 87.691 75.7105 87.9649 75.9013C88.2419 76.0921 88.6035 76.1875 89.0498 76.1875C89.5576 76.1875 89.9607 76.0798 90.2593 75.8643C90.5609 75.6458 90.7117 75.3842 90.7117 75.0795C90.7117 74.8333 90.6255 74.6271 90.4532 74.4609C90.2808 74.2917 90.0161 74.1655 89.6591 74.0824L88.4773 73.8054C87.8279 73.6515 87.3509 73.413 87.0462 73.0898C86.7446 72.7636 86.5938 72.3558 86.5938 71.8665C86.5938 71.4664 86.7061 71.1125 86.9308 70.8047C87.1585 70.4969 87.4678 70.2553 87.8587 70.0799C88.2526 69.9045 88.6989 69.8168 89.1975 69.8168C89.8992 69.8168 90.4501 69.9706 90.8502 70.2784C91.2534 70.5862 91.5396 70.9924 91.7089 71.4972ZM96.5619 69.9091V70.8324H92.8872V69.9091H96.5619ZM93.9582 68.2102H95.0477V74.9688C95.0477 75.2765 95.0923 75.5073 95.1816 75.6612C95.2739 75.812 95.3909 75.9136 95.5324 75.9659C95.6771 76.0152 95.8294 76.0398 95.9895 76.0398C96.1095 76.0398 96.208 76.0336 96.2849 76.0213C96.3619 76.0059 96.4234 75.9936 96.4696 75.9844L96.6912 76.9631C96.6173 76.9908 96.5142 77.0185 96.3819 77.0462C96.2495 77.0769 96.0818 77.0923 95.8787 77.0923C95.5709 77.0923 95.2693 77.0262 94.9739 76.8938C94.6815 76.7615 94.4383 76.5599 94.2445 76.2891C94.0536 76.0182 93.9582 75.6766 93.9582 75.2642V68.2102ZM102.005 77V67.5455H103.094V71.0355H103.187C103.267 70.9124 103.377 70.7554 103.519 70.5646C103.664 70.3707 103.87 70.1984 104.138 70.0476C104.408 69.8937 104.775 69.8168 105.236 69.8168C105.833 69.8168 106.36 69.966 106.815 70.2646C107.271 70.5631 107.626 70.9863 107.882 71.5341C108.137 72.0819 108.265 72.7282 108.265 73.473C108.265 74.224 108.137 74.8749 107.882 75.4258C107.626 75.9736 107.272 76.3983 106.82 76.6999C106.367 76.9985 105.846 77.1477 105.255 77.1477C104.799 77.1477 104.435 77.0723 104.161 76.9215C103.887 76.7676 103.676 76.5937 103.528 76.3999C103.38 76.2029 103.267 76.0398 103.187 75.9105H103.057V77H102.005ZM103.076 73.4545C103.076 73.9901 103.154 74.4625 103.311 74.8718C103.468 75.2781 103.697 75.5966 103.999 75.8274C104.301 76.0552 104.67 76.169 105.107 76.169C105.563 76.169 105.943 76.049 106.247 75.8089C106.555 75.5658 106.786 75.2396 106.94 74.8303C107.097 74.4179 107.175 73.9593 107.175 73.4545C107.175 72.956 107.098 72.5066 106.944 72.1065C106.794 71.7034 106.564 71.3848 106.257 71.1509C105.952 70.9139 105.569 70.7955 105.107 70.7955C104.664 70.7955 104.291 70.9078 103.99 71.1325C103.688 71.354 103.46 71.6649 103.307 72.065C103.153 72.462 103.076 72.9252 103.076 73.4545ZM112.812 77.1477C112.172 77.1477 111.61 76.9954 111.127 76.6907C110.647 76.386 110.271 75.9598 110 75.4119C109.733 74.8641 109.599 74.224 109.599 73.4915C109.599 72.7528 109.733 72.1081 110 71.5572C110.271 71.0063 110.647 70.5785 111.127 70.2738C111.61 69.9691 112.172 69.8168 112.812 69.8168C113.452 69.8168 114.012 69.9691 114.492 70.2738C114.976 70.5785 115.351 71.0063 115.619 71.5572C115.89 72.1081 116.025 72.7528 116.025 73.4915C116.025 74.224 115.89 74.8641 115.619 75.4119C115.351 75.9598 114.976 76.386 114.492 76.6907C114.012 76.9954 113.452 77.1477 112.812 77.1477ZM112.812 76.169C113.298 76.169 113.698 76.0444 114.012 75.7951C114.326 75.5458 114.558 75.218 114.709 74.8118C114.86 74.4055 114.936 73.9654 114.936 73.4915C114.936 73.0175 114.86 72.5759 114.709 72.1665C114.558 71.7572 114.326 71.4264 114.012 71.174C113.698 70.9216 113.298 70.7955 112.812 70.7955C112.326 70.7955 111.926 70.9216 111.612 71.174C111.298 71.4264 111.065 71.7572 110.915 72.1665C110.764 72.5759 110.688 73.0175 110.688 73.4915C110.688 73.9654 110.764 74.4055 110.915 74.8118C111.065 75.218 111.298 75.5458 111.612 75.7951C111.926 76.0444 112.326 76.169 112.812 76.169ZM120.569 77.1477C119.929 77.1477 119.367 76.9954 118.884 76.6907C118.404 76.386 118.028 75.9598 117.757 75.4119C117.49 74.8641 117.356 74.224 117.356 73.4915C117.356 72.7528 117.49 72.1081 117.757 71.5572C118.028 71.0063 118.404 70.5785 118.884 70.2738C119.367 69.9691 119.929 69.8168 120.569 69.8168C121.209 69.8168 121.769 69.9691 122.249 70.2738C122.732 70.5785 123.108 71.0063 123.376 71.5572C123.646 72.1081 123.782 72.7528 123.782 73.4915C123.782 74.224 123.646 74.8641 123.376 75.4119C123.108 75.9598 122.732 76.386 122.249 76.6907C121.769 76.9954 121.209 77.1477 120.569 77.1477ZM120.569 76.169C121.055 76.169 121.455 76.0444 121.769 75.7951C122.083 75.5458 122.315 75.218 122.466 74.8118C122.617 74.4055 122.692 73.9654 122.692 73.4915C122.692 73.0175 122.617 72.5759 122.466 72.1665C122.315 71.7572 122.083 71.4264 121.769 71.174C121.455 70.9216 121.055 70.7955 120.569 70.7955C120.082 70.7955 119.682 70.9216 119.368 71.174C119.055 71.4264 118.822 71.7572 118.671 72.1665C118.521 72.5759 118.445 73.0175 118.445 73.4915C118.445 73.9654 118.521 74.4055 118.671 74.8118C118.822 75.218 119.055 75.5458 119.368 75.7951C119.682 76.0444 120.082 76.169 120.569 76.169ZM126.461 74.4148L126.442 73.0668H126.664L129.766 69.9091H131.114L127.809 73.2514H127.716L126.461 74.4148ZM125.445 77V67.5455H126.534V77H125.445ZM129.951 77L127.181 73.4915L127.956 72.7344L131.336 77H129.951ZM132.516 77V69.9091H133.606V77H132.516ZM133.07 68.7273C132.858 68.7273 132.675 68.6549 132.521 68.5103C132.37 68.3656 132.295 68.1918 132.295 67.9886C132.295 67.7855 132.37 67.6116 132.521 67.467C132.675 67.3223 132.858 67.25 133.07 67.25C133.283 67.25 133.464 67.3223 133.615 67.467C133.769 67.6116 133.846 67.7855 133.846 67.9886C133.846 68.1918 133.769 68.3656 133.615 68.5103C133.464 68.6549 133.283 68.7273 133.07 68.7273ZM136.691 72.7344V77H135.601V69.9091H136.654V71.017H136.746C136.912 70.657 137.165 70.3677 137.503 70.1491C137.842 69.9276 138.279 69.8168 138.814 69.8168C139.294 69.8168 139.714 69.9152 140.075 70.1122C140.435 70.3061 140.715 70.6016 140.915 70.9986C141.115 71.3925 141.215 71.8911 141.215 72.4943V77H140.125V72.5682C140.125 72.0111 139.981 71.5772 139.691 71.2663C139.402 70.9524 139.005 70.7955 138.5 70.7955C138.153 70.7955 137.842 70.8709 137.568 71.0217C137.297 71.1725 137.083 71.3925 136.926 71.6818C136.769 71.9711 136.691 72.322 136.691 72.7344ZM146.068 79.8068C145.542 79.8068 145.089 79.7391 144.711 79.6037C144.332 79.4714 144.017 79.2959 143.764 79.0774C143.515 78.862 143.316 78.6312 143.169 78.3849L144.037 77.7756C144.135 77.9048 144.26 78.0526 144.411 78.2188C144.561 78.388 144.768 78.5342 145.029 78.6573C145.294 78.7835 145.64 78.8466 146.068 78.8466C146.64 78.8466 147.113 78.7081 147.485 78.4311C147.858 78.1541 148.044 77.7202 148.044 77.1293V75.6889H147.951C147.871 75.8182 147.758 75.9782 147.61 76.169C147.465 76.3568 147.256 76.5245 146.982 76.6722C146.711 76.8169 146.345 76.8892 145.883 76.8892C145.311 76.8892 144.797 76.7538 144.341 76.483C143.889 76.2121 143.53 75.8182 143.266 75.3011C143.004 74.7841 142.873 74.1562 142.873 73.4176C142.873 72.6913 143.001 72.0588 143.256 71.5202C143.512 70.9786 143.867 70.56 144.323 70.2646C144.778 69.966 145.305 69.8168 145.902 69.8168C146.363 69.8168 146.73 69.8937 147 70.0476C147.274 70.1984 147.484 70.3707 147.628 70.5646C147.776 70.7554 147.89 70.9124 147.97 71.0355H148.081V69.9091H149.133V77.2031C149.133 77.8125 148.995 78.308 148.718 78.6896C148.444 79.0743 148.075 79.3559 147.61 79.5344C147.148 79.716 146.634 79.8068 146.068 79.8068ZM146.031 75.9105C146.468 75.9105 146.837 75.8105 147.139 75.6104C147.441 75.4104 147.67 75.1226 147.827 74.7472C147.984 74.3717 148.062 73.9223 148.062 73.3991C148.062 72.8883 147.985 72.4374 147.831 72.0465C147.677 71.6557 147.45 71.3494 147.148 71.1278C146.847 70.9062 146.474 70.7955 146.031 70.7955C145.569 70.7955 145.185 70.9124 144.877 71.1463C144.572 71.3802 144.343 71.6941 144.189 72.0881C144.038 72.482 143.963 72.919 143.963 73.3991C143.963 73.8916 144.04 74.3271 144.194 74.7056C144.351 75.0811 144.581 75.3765 144.886 75.592C145.194 75.8043 145.575 75.9105 146.031 75.9105Z" fill="white"/>
<path d="M27.5127 54H26.051L31.6068 38.7273H33.0983L38.654 54H37.1924L32.4047 40.5394H32.3003L27.5127 54ZM28.5642 48.146H36.1409V49.3988H28.5642V48.146ZM41.2716 54V38.7273H50.1309V39.9801H42.6661V45.7298H49.6611V46.9826H42.6661V52.7472H50.2801V54H41.2716ZM58.2148 54H53.7403V38.7273H58.4832C59.9399 38.7273 61.1853 39.0305 62.2194 39.6371C63.2584 40.2436 64.0539 41.1136 64.6057 42.2472C65.1576 43.3807 65.4335 44.7404 65.4335 46.3263C65.4335 47.9272 65.1501 49.3018 64.5834 50.4503C64.0216 51.5937 63.2013 52.4712 62.1224 53.0827C61.0486 53.6942 59.746 54 58.2148 54ZM55.1349 52.7472H58.1327C59.4452 52.7472 60.5439 52.4886 61.4289 51.9716C62.3138 51.4545 62.9775 50.7163 63.42 49.7567C63.8625 48.7972 64.0837 47.6538 64.0837 46.3263C64.0787 45.0089 63.86 43.8754 63.4275 42.9258C62.9999 41.9762 62.3635 41.2479 61.5184 40.7408C60.6782 40.2337 59.6391 39.9801 58.4012 39.9801H55.1349V52.7472ZM78.5287 54.2088C77.415 54.2088 76.4232 54.0174 75.5532 53.6346C74.6881 53.2468 74.0045 52.7148 73.5024 52.0387C73.0052 51.3576 72.7492 50.5721 72.7343 49.6822H75.9857C76.0056 50.055 76.1274 50.3832 76.3511 50.6665C76.5798 50.945 76.8831 51.1612 77.2609 51.3153C77.6388 51.4695 78.0638 51.5465 78.5361 51.5465C79.0283 51.5465 79.4633 51.4595 79.8412 51.2855C80.219 51.1115 80.5148 50.8704 80.7286 50.5621C80.9424 50.2539 81.0493 49.8984 81.0493 49.4957C81.0493 49.0881 80.9349 48.7276 80.7062 48.4144C80.4825 48.0962 80.1594 47.8477 79.7368 47.6687C79.3192 47.4897 78.822 47.4002 78.2453 47.4002H76.8209V45.0288H78.2453C78.7325 45.0288 79.1626 44.9442 79.5354 44.7752C79.9133 44.6062 80.2066 44.3725 80.4154 44.0742C80.6242 43.771 80.7286 43.418 80.7286 43.0153C80.7286 42.6325 80.6366 42.2969 80.4527 42.0085C80.2737 41.7152 80.0202 41.4865 79.692 41.3224C79.3689 41.1584 78.991 41.0763 78.5585 41.0763C78.121 41.0763 77.7208 41.1559 77.3579 41.315C76.9949 41.4691 76.7041 41.6903 76.4854 41.9787C76.2666 42.267 76.1498 42.6051 76.1349 42.9929H73.04C73.055 42.1129 73.306 41.3374 73.7932 40.6662C74.2805 39.995 74.9367 39.4705 75.762 39.0927C76.5922 38.7099 77.5294 38.5185 78.5734 38.5185C79.6274 38.5185 80.5496 38.7099 81.3401 39.0927C82.1306 39.4755 82.7446 39.9925 83.1821 40.6438C83.6246 41.2901 83.8433 42.016 83.8383 42.8214C83.8433 43.6765 83.5773 44.3899 83.0404 44.9616C82.5084 45.5334 81.8149 45.8963 80.9598 46.0504V46.1697C82.0834 46.3139 82.9385 46.7042 83.5251 47.3406C84.1167 47.9719 84.4101 48.7624 84.4051 49.712C84.4101 50.582 84.159 51.3551 83.6519 52.0312C83.1498 52.7074 82.4562 53.2393 81.5713 53.6271C80.6863 54.0149 79.6721 54.2088 78.5287 54.2088ZM92.7145 54.3356C91.4318 54.3306 90.3281 54.0149 89.4034 53.3885C88.4837 52.7621 87.7752 51.8548 87.2781 50.6665C86.7859 49.4783 86.5423 48.049 86.5472 46.3786C86.5472 44.7131 86.7933 43.2937 87.2855 42.1204C87.7827 40.9471 88.4911 40.0547 89.4109 39.4432C90.3356 38.8267 91.4368 38.5185 92.7145 38.5185C93.9922 38.5185 95.0909 38.8267 96.0107 39.4432C96.9354 40.0597 97.6463 40.9545 98.1435 42.1278C98.6406 43.2962 98.8867 44.7131 98.8817 46.3786C98.8817 48.054 98.6332 49.4858 98.136 50.674C97.6438 51.8622 96.9379 52.7695 96.0181 53.396C95.0984 54.0224 93.9972 54.3356 92.7145 54.3356ZM92.7145 51.6584C93.5895 51.6584 94.288 51.2184 94.81 50.3384C95.332 49.4585 95.5906 48.1385 95.5856 46.3786C95.5856 45.2202 95.4663 44.2557 95.2276 43.4851C94.994 42.7145 94.6609 42.1353 94.2283 41.7475C93.8008 41.3597 93.2962 41.1658 92.7145 41.1658C91.8445 41.1658 91.1484 41.6009 90.6264 42.4709C90.1044 43.3409 89.8409 44.6435 89.8359 46.3786C89.8359 47.5518 89.9528 48.5312 90.1864 49.3168C90.4251 50.0973 90.7607 50.6839 91.1932 51.0767C91.6257 51.4645 92.1328 51.6584 92.7145 51.6584ZM120.169 46.3636C120.169 48.0291 119.853 49.446 119.222 50.6143C118.595 51.7827 117.74 52.6751 116.656 53.2915C115.578 53.9031 114.365 54.2088 113.017 54.2088C111.66 54.2088 110.442 53.9006 109.363 53.2841C108.284 52.6676 107.432 51.7752 106.805 50.6069C106.179 49.4386 105.866 48.0241 105.866 46.3636C105.866 44.6982 106.179 43.2812 106.805 42.1129C107.432 40.9446 108.284 40.0547 109.363 39.4432C110.442 38.8267 111.66 38.5185 113.017 38.5185C114.365 38.5185 115.578 38.8267 116.656 39.4432C117.74 40.0547 118.595 40.9446 119.222 42.1129C119.853 43.2812 120.169 44.6982 120.169 46.3636ZM116.895 46.3636C116.895 45.2848 116.733 44.375 116.41 43.6342C116.092 42.8935 115.642 42.3317 115.061 41.9489C114.479 41.5661 113.798 41.3746 113.017 41.3746C112.237 41.3746 111.556 41.5661 110.974 41.9489C110.392 42.3317 109.94 42.8935 109.617 43.6342C109.298 44.375 109.139 45.2848 109.139 46.3636C109.139 47.4425 109.298 48.3523 109.617 49.093C109.94 49.8338 110.392 50.3956 110.974 50.7784C111.556 51.1612 112.237 51.3526 113.017 51.3526C113.798 51.3526 114.479 51.1612 115.061 50.7784C115.642 50.3956 116.092 49.8338 116.41 49.093C116.733 48.3523 116.895 47.4425 116.895 46.3636ZM122.561 54V38.7273H132.673V41.3896H125.79V45.0288H132.002V47.6911H125.79V54H122.561ZM134.845 54V38.7273H144.957V41.3896H138.074V45.0288H144.286V47.6911H138.074V54H134.845Z" fill="white"/>
<path opacity="0.4" d="M164 1L164 111" stroke="white" stroke-linecap="round" stroke-dasharray="3 3"/>
</svg>
